<?xml version="1.0" encoding="iso-8859-1"?>
<!-- Generator: Adobe Illustrator 19.0.0, SVG Export Plug-In . SVG Version: 6.00 Build 0)  -->
<svg version="1.1" id="Capa_1" xmlns="http://www.w3.org/2000/svg" xmlns:xlink="http://www.w3.org/1999/xlink" x="0px" y="0px"
	 viewBox="0 0 500.956 500.956" style="enable-background:new 0 0 500.956 500.956;" xml:space="preserve">
<circle style="fill:#FFBF76;" cx="67.018" cy="58.322" r="21.845"/>
<path style="fill:#FFD9BE;" d="M62.088,37.057c-9.686,2.238-16.914,10.899-16.914,21.265s7.228,19.026,16.913,21.265
	c5.729-5.294,9.337-12.849,9.337-21.265S67.816,42.352,62.088,37.057z"/>
<linearGradient id="SVGID_1_" gradientUnits="userSpaceOnUse" x1="213.4675" y1="323.0372" x2="327.3774" y2="-20.5228" gradientTransform="matrix(1 0 0 -1 0 502.9549)">
	<stop  offset="0.001" style="stop-color:#A84A78"/>
	<stop  offset="1" style="stop-color:#C36C9A"/>
</linearGradient>
<path style="fill:url(#SVGID_1_);" d="M3.441,312.364c39.513-26.537,170.205-114.656,206.137-143.232
	c4.479-3.562,10.441-4.596,15.853-2.734c25.923,8.92,101.317,34.708,135.479,44.713c4.355,1.276,6.545,6.113,4.659,10.242
	l-15.641,34.246l40.942-27.861c2.646-1.801,5.971-2.272,9.009-1.265c14.693,4.872,60.127,19.768,94.329,29.163
	c6.722,1.846,9.011,10.193,4.152,15.191c-23.237,23.902-77.256,79.354-99.357,101.067c-1.247,1.225-2.875,1.968-4.617,2.11
	l-29.851,2.438l8.77,7.972c3.169,2.881,3.272,7.827,0.216,10.827c-13.654,13.409-48.672,47.802-65.389,64.268
	c-5.209,5.133-13.076,6.426-19.657,3.238L162.313,401.66c-3.18-1.54-4.842-5.1-3.981-8.526l3.693-14.7l-29.756,15.281
	c-2.376,1.22-5.203,1.087-7.444-0.366c-13.158-8.533-61.13-38.897-120.383-67.474C-0.997,323.25-1.572,315.731,3.441,312.364z"/>
<path style="fill:#FFE7D0;" d="M429.489,284.13c4.71-4.418,3.083-12.237-3.001-14.401c-15.798-5.621-38.645-13.965-63.401-23.084
	l-13.158,8.954l5.396-11.815c-50.595-18.666-106.828-39.678-126.805-47.151c-4.681-1.751-9.903-0.994-13.885,2.027
	c-30.374,23.037-117.562,87.625-146.712,109.202c-3.983,2.949-3.176,9.13,1.445,10.922c26.648,10.333,69.443,33.023,69.443,33.023
	c38.745,20.909,114.45,51.946,139.998,62.263c5.277,2.131,11.272,0.998,15.414-2.906C324.22,382.883,401.451,310.428,429.489,284.13
	z"/>
<g>
	<path style="fill:#C14C82;" d="M308.322,346.747l-11.662-10.465c-0.823-0.738-1.956-1.027-3.033-0.772l-19.018,4.504l-9.876-10.673
		c-0.809-0.873-2.016-1.256-3.179-1.01l-15.138,3.212c-2.488,0.527-3.521,3.511-1.893,5.464l7.053,8.462l-20.123,4.766
		c-2.599,0.615-3.488,3.86-1.566,5.716l10.987,10.602c0.827,0.798,2.003,1.121,3.122,0.855l21.608-5.109l11.178,13.411
		c0.868,1.042,2.274,1.462,3.572,1.069l16.928-5.122c2.387-0.723,3.193-3.694,1.499-5.525l-8.866-9.581l16.93-4.004
		C309.497,351.918,310.351,348.567,308.322,346.747z"/>
	
		<ellipse transform="matrix(0.2639 -0.9645 0.9645 0.2639 -53.2282 385.3134)" style="fill:#C14C82;" cx="225.837" cy="227.531" rx="9.737" ry="10.691"/>
	<g>
		<path style="fill:#C14C82;" d="M304.679,296.172l-10.238,0.115c0.04,6.678-0.657,13.466-2.095,20.193l10.029,2.063
			C303.929,311.248,304.729,303.734,304.679,296.172z"/>
		<path style="fill:#C14C82;" d="M292.793,257.373l-8.312,5.979c3.688,5.231,6.505,11.084,8.043,17.41l9.919-2.54
			C300.624,270.77,297.251,263.663,292.793,257.373z"/>
		<path style="fill:#C14C82;" d="M260.246,233.355l-3.554,9.602c6.178,2.325,12.101,5.465,17.21,9.495l6.286-8.083
			C274.156,239.629,267.358,236.03,260.246,233.355z"/>
	</g>
</g>
<path style="fill:#B75798;" d="M68.02,87.925c4.081-4.909,12.269-11.751,26.009-11.311c2.882,0.092,5.521,1.679,7.101,4.091
	l43.702,66.754l-40.028,23.814c0,0-23.957-41.924-38.043-73.935C65.379,94.203,65.829,90.561,68.02,87.925z"/>
<path style="fill:#FFD9BE;" d="M66.335,97.028c4.146-5.862,14.205-16.875,31.621-17.626c2.262-0.098,3.547-2.607,2.206-4.431
	l-1.205-1.639c-3.149-4.283-8.559-6.316-13.717-5.03c-5.939,1.48-13.967,4.725-21.546,11.822
	c-4.655,4.358-5.476,11.472-2.003,16.821l0.013,0.021C62.784,98.631,65.188,98.649,66.335,97.028z"/>
<path style="fill:#7F2467;" d="M108.36,169.159l36.472-21.698L101.13,80.707c-1.58-2.413-4.219-3.999-7.101-4.091
	c-2.83-0.091-5.368,0.186-7.739,0.633C101.468,94.663,128.906,133.607,108.36,169.159z"/>
<path style="fill:#FFBF76;" d="M84.354,82.399c3.914-1.632,8.425-2.774,13.601-2.997c2.262-0.098,3.547-2.607,2.206-4.431
	l-1.205-1.639c-3.149-4.283-8.559-6.316-13.717-5.03c-1.687,0.42-3.554,1.005-5.52,1.758C82.181,72.601,84.627,76.626,84.354,82.399
	z"/>
<linearGradient id="SVGID_2_" gradientUnits="userSpaceOnUse" x1="177.9479" y1="252.1872" x2="123.7379" y2="341.8073" gradientTransform="matrix(1 0 0 -1 0 502.9549)">
	<stop  offset="0" style="stop-color:#FFFFFF"/>
	<stop  offset="1" style="stop-color:#C7DAFF"/>
</linearGradient>
<path style="fill:url(#SVGID_2_);" d="M100.707,186.141c0,0,37.804,65.307,57.192,88.266h55.103c0,0-38.314-93.878-56.147-121.94
	L100.707,186.141z"/>
<linearGradient id="SVGID_3_" gradientUnits="userSpaceOnUse" x1="100.7072" y1="289.5175" x2="213.0012" y2="289.5175" gradientTransform="matrix(1 0 0 -1 0 502.9549)">
	<stop  offset="0" style="stop-color:#819FEA"/>
	<stop  offset="1" style="stop-color:#A7C1FC"/>
</linearGradient>
<path style="fill:url(#SVGID_3_);" d="M213.001,274.407c0,0-38.314-93.878-56.147-121.94l-56.147,33.674
	c0,0,0.684,1.179,1.885,3.231c14.962,4.643,42.24,13.606,42.24,13.606l40.406,71.429H213.001z"/>
<path style="fill:#FFD9BE;" d="M56.086,192.99l128.116-71.255c3.678-2.046,8.089-2.519,12.027-1.035
	c3.902,1.47,8.382,4.226,10.667,9.368c0,0,0.076,0.159,0.197,0.455c5.552,13.566-8.891,27.15-22.021,20.633
	c-1.241-0.616-2.434-1.364-3.508-2.274c-2.021-1.711-4.872-2.014-7.157-0.676l-9.544,5.587c-1.087,0.636-1.954,1.589-2.485,2.732
	l-14.96,32.203c-1.562,3.361-5.012,5.433-8.713,5.232l-41.098-2.235c-1.099-0.06-2.193,0.174-3.171,0.679l-10.602,5.468
	c-2.282,1.177-3.611,3.625-3.308,6.174c0.29,2.436,0.392,5.809-0.325,9.673c-1.353,7.297-8.325,12.188-15.646,10.969
	c-0.151-0.025-0.303-0.051-0.455-0.078c-11.988-2.141-19.315-15.157-13.641-25.931c0.282-0.536,0.593-1.063,0.936-1.578
	C52.561,195.35,54.249,194.012,56.086,192.99z"/>
<path style="fill:#FFBF76;" d="M147.417,188.727l14.961-32.203c0.531-1.143,1.397-2.096,2.485-2.732l9.544-5.586
	c2.285-1.338,5.137-1.035,7.157,0.677c1.074,0.909,2.267,1.657,3.508,2.273c13.13,6.517,27.573-7.067,22.021-20.633
	c-0.121-0.295-0.197-0.455-0.197-0.455c-2.285-5.142-6.766-7.898-10.667-9.368c-3.938-1.484-8.349-1.011-12.027,1.035
	l-60.711,33.767c5.314,6.163,14.505,19.278,17.27,38.31C143.638,193.304,146.152,191.452,147.417,188.727z"/>
<linearGradient id="SVGID_4_" gradientUnits="userSpaceOnUse" x1="160.4908" y1="327.9562" x2="249.8907" y2="-15.6038" gradientTransform="matrix(1 0 0 -1 0 502.9549)">
	<stop  offset="0.001" style="stop-color:#A84A78"/>
	<stop  offset="1" style="stop-color:#C36C9A"/>
</linearGradient>
<path style="fill:url(#SVGID_4_);" d="M142.525,275.221c-1.222-0.104-1.265-1.882-0.048-2.033c8.67-1.077,23.229-2.506,40.548-2.693
	c0,0,25.725-0.773,47.108,2.572c1.186,0.186,1.117,1.924-0.078,2.032c-10.809,0.978-31.43,2.667-46.784,2.856
	c-0.024,0-0.023,0.001-0.048,0C182.634,277.924,160.273,276.744,142.525,275.221z"/>
<g>
</g>
<g>
</g>
<g>
</g>
<g>
</g>
<g>
</g>
<g>
</g>
<g>
</g>
<g>
</g>
<g>
</g>
<g>
</g>
<g>
</g>
<g>
</g>
<g>
</g>
<g>
</g>
<g>
</g>
</svg>
