<?xml version="1.0" encoding="iso-8859-1"?>
<!-- Generator: Adobe Illustrator 19.0.0, SVG Export Plug-In . SVG Version: 6.00 Build 0)  -->
<svg version="1.1" id="Capa_1" xmlns="http://www.w3.org/2000/svg" xmlns:xlink="http://www.w3.org/1999/xlink" x="0px" y="0px"
	 viewBox="0 0 491.954 491.954" style="enable-background:new 0 0 491.954 491.954;" xml:space="preserve">
<polygon style="fill:#5B153E;" points="276.166,0 187.811,86.174 151.815,223.616 206.355,445.048 283.802,491.954 297.983,441.776 
	327.434,129.806 "/>
<linearGradient id="SVGID_1_" gradientUnits="userSpaceOnUse" x1="342.5864" y1="94.7267" x2="188.4464" y2="463.0917" gradientTransform="matrix(1 0 0 -1 0 493.954)">
	<stop  offset="0" style="stop-color:#CC5697"/>
	<stop  offset="1" style="stop-color:#E585BE"/>
</linearGradient>
<polygon style="fill:url(#SVGID_1_);" points="327.434,129.806 272.894,70.903 197.628,175.62 283.802,491.954 297.983,441.777 "/>
<polygon style="fill:#F49FD3;" points="327.434,129.806 327.434,129.806 276.166,0 272.894,70.903 "/>
<g>
	<polygon style="fill:#A03774;" points="272.894,70.903 276.166,0 187.811,86.174 197.628,175.62 	"/>
	<polygon style="fill:#A03774;" points="197.628,175.62 206.355,445.048 283.802,491.954 	"/>
</g>
<g>
	<path style="fill:#FFE9FB;" d="M125.794,37.709c0,0,2.546,24.612-17.54,35.928c0,0,20.086,6.602,21.218,30.459
		c0,0,0.849-27.347,16.407-35.551C145.879,68.545,128.34,61.473,125.794,37.709z"/>
	<path style="fill:#FFE9FB;" d="M363.614,212.784c0,0,2.547,24.611-17.539,35.928c0,0,20.086,6.602,21.217,30.459
		c0,0,0.849-27.347,16.408-35.551C383.7,243.62,366.161,236.547,363.614,212.784z"/>
	<path style="fill:#FFE9FB;" d="M144.607,346.764c0,0,2.546,24.612-17.54,35.929c0,0,20.086,6.602,21.218,30.459
		c0,0,0.849-27.347,16.408-35.551C164.693,377.601,147.153,370.528,144.607,346.764z"/>
</g>
<g>
</g>
<g>
</g>
<g>
</g>
<g>
</g>
<g>
</g>
<g>
</g>
<g>
</g>
<g>
</g>
<g>
</g>
<g>
</g>
<g>
</g>
<g>
</g>
<g>
</g>
<g>
</g>
<g>
</g>
</svg>
