<svg id="FLAT" height="512" viewBox="0 0 500 500" width="512" xmlns="http://www.w3.org/2000/svg"><path d="m146.877 14.706s4.4 57.052 6.337 106.555c6.484 9.209 23.255-2.209 24.648-20.326.462-24.462 1.753-55.967 5.019-86.229z" fill="#cdb859"/><path d="m153.214 121.261c.549 14.006.9 27.41.9 38.744l23.7-14.89s-.449-18.082.044-44.18z" fill="#896d2c"/><path d="m318.9 336.6a171.936 171.936 0 0 1 27.475-6.74 23.15 23.15 0 0 1 26.975 22.833v9.21a93.7 93.7 0 0 1 -93.7 93.7 93.7 93.7 0 0 1 -93.7-93.7v-57.663c-7.979-17.45-22.053-21.409-29.7-15.363v73.023a123.4 123.4 0 0 0 123.4 123.4 123.4 123.4 0 0 0 123.4-123.4v-139.155s-38.894 79.2-84.15 113.855z" fill="#9eaeb7"/><path d="m156.255 288.877 29.701 15.363v-81.495h-29.701z" fill="#65777f"/><path d="m128.727 108.047c9.358 5.832 29.721 24.633 36.152 42.579l-16.036 13.616s-24.33-29.244-51.892-35.3l12.96-17.281a14.171 14.171 0 0 1 18.816-3.614z" fill="#896d2c"/><g fill="#cdb859"><path d="m149 220.851 11.982 22.07 30.262-15.3c4.957-5.637 8.511-11.776 8.09-19.334a25.626 25.626 0 0 0 -8.224-14.22s-18.086 4.519-31.4 14.811a39.472 39.472 0 0 0 -10.71 11.973z"/><path d="m163.252 211.786 33.563-21.349s13.052-16.608-5.179-30.432c0 0-17.855 4.435-31.148 14.878-13.349 20.346-10.851 37.948 2.764 36.903z"/><path d="m168.519 174.789 17.455-10.143a22.5 22.5 0 0 0 11.01-15.981 28.438 28.438 0 0 0 -.016-9.065 9.625 9.625 0 0 0 -15.136-6.051l-32.421 20.879c-7.34 12.838 2.977 28.501 19.108 20.361z"/></g><path d="m153.724 186.975-4.724-4.605c16.063-10.4 27.517-16.746 35.462-20.613a2.392 2.392 0 0 1 2.374 4.141c-10.959 7.291-22.593 15.08-33.112 21.077z" fill="#896d2c"/><path d="m154.066 223.8-3.595-5.826c15.444-11.3 26.517-18.288 34.228-22.6a2.392 2.392 0 0 1 2.607 4c-10.528 7.903-23.08 17.841-33.24 24.426z" fill="#896d2c"/><path d="m198.741 222.388a32.051 32.051 0 0 0 .593-14.1c-1.475 6.387-6.135 15.542-20.163 21.794-23.565 10.5-13.99-17.161-13.99-17.161-22.7-12.039 3.338-38.129 3.338-38.129-18.634 3.283-19.528-13.368-19.108-20.361l-11.445 7.37a11.755 11.755 0 0 0 -4.943 9.4q0 .13 0 .261c.07 9.1 10.068 18.1 17.934 13.535 0 0-14.644 11.455-11.227 24.144s9.27 11.71 9.27 11.71-18.887 12.381-8.938 30.4c.031.056.062.112.094.168a13.346 13.346 0 0 0 19.461 4.067l32.819-23.849a16.525 16.525 0 0 0 6.305-9.249z" fill="#896d2c"/></svg>