<svg id="FLAT" height="512" viewBox="0 0 500 500" width="512" xmlns="http://www.w3.org/2000/svg"><path d="m361.9 55.648 26.77-20.241a13.068 13.068 0 0 1 14.011-1.117l10.981 5.834a13.066 13.066 0 0 1 4.1 19.672l-26.523 33.347s-20.888 21.671-52.055 55.344c-19.007 11.513-37.714 34.061-56.284 61.813-24.8 27.711-51.5 58.208-77.366 89.014-9.595 8.092-16.654 16.564-21.094 25.429-27.713 33.844-53.526 67.239-73.831 96.9a45.144 45.144 0 0 0 -3.847 6.851l-12 26.488c-9.245 20.4-32.055 31.474-53.55 25.17-9.569-2.806-18.434-8.963-23.781-21.015 0 0-6.853-30.16 29.012-59.5 0 0 10.482-10.762 28.25-29.282 8.454-5.6 16.736-14.736 24.91-26.066 18.967-19.921 41.962-44.239 67.225-71.3 6.6-4.272 11.365-9.3 14.126-15.164 27.9-30.01 58.024-62.819 88.221-96.391 16.918-10.645 31.147-27.653 43.562-48.954 16.83-19.144 33.346-38.207 49.163-56.832z" fill="#d87155"/><g fill="#8e3329"><path d="m99.605 344.278c-9.355 9.826-17.726 18.578-24.91 26.066-2.565 5.242-4.931 9.931-6.931 13.506-1.853 3.313-3.512 6.755-5.117 10.083-2.643 5.479-5.138 10.655-8.153 14.623-10.045 13.223-13.861 25.412-11.342 36.229 3.022 12.978 14.149 18.674 14.621 18.91a5.5 5.5 0 0 0 4.919-9.839c-.069-.035-6.993-3.691-8.827-11.565-1.741-7.477 1.418-16.588 9.388-27.081 3.684-4.848 6.54-10.771 9.3-16.5 1.534-3.181 3.12-6.47 4.81-9.491 3.486-6.234 7.885-15.381 12.542-25.065 3.05-6.336 6.339-13.173 9.7-19.876z"/><path d="m224.912 247.455a95.011 95.011 0 0 0 8.772-9.438l84.883-95.808a5.5 5.5 0 0 0 -8.234-7.3l-84.964 95.9c-.055.062-.108.126-.161.191a84.081 84.081 0 0 1 -7.826 8.43 72.566 72.566 0 0 1 -30.938 16.912l-5.488 1.467q-7.167 7.71-14.126 15.164l22.455-6a83.606 83.606 0 0 0 35.627-19.518z"/><path d="m130.565 344.566c-30.184 21.193-55.076 73.6-56.121 75.815a5.5 5.5 0 1 0 9.952 4.685c.244-.518 24.7-51.987 52.49-71.5 9.533-6.694 24.118-15.182 39.56-24.168q3.961-2.307 8-4.661 10.4-12.7 21.1-25.429c-11.6 7.181-23.6 14.164-34.626 20.582-15.657 9.11-30.439 17.71-40.355 24.676z"/><path d="m282.9 210.3c26.629-29.752 51.079-56.3 69.984-76.561l-5.784-8.639-34.358-12.634c-14.374 16.344-28.975 32.737-43.562 48.954z"/></g><path d="m265.073 37.716a133.529 133.529 0 0 1 31.9-17.151 40.844 40.844 0 0 1 42.427 9.067l22.57 21.823c4.194 9.545 10.13 16.045 18.653 18.032l58.461 56.513 44.007 30.9c-18.717 24.488-44.5 61.115-89.21 88a24.245 24.245 0 0 0 -11.913 18.744l-16.707-8.716a24.006 24.006 0 0 1 -11.905-14.335c-3.271-10.869-10.561-30.511-25.745-55.32-4.268-26.843-50.854-73-67.933-107.719-7.953-16.17 5.395-39.838 5.395-39.838z" fill="#65777f"/><path d="m342.776 207.035 19.256-65.459a28.264 28.264 0 0 1 19.175-19.152c10.51-3.078 25.195-7.082 39.389-9.955l-5.415-10.607-76.106-4.757z" fill="#2b2b38"/><path d="m427.848 240.232c5.775-29.963 41.2-31.835 41.2-31.835-1.873-25.281 14.045-51.5 14.045-51.5-38.075 2.195-34.007 37.551-34.007 37.551-30.988-2.021-35.7 23.578-35.7 23.578-37.725 9.431-31.413 45.612-31.413 45.612 12.167-14.979 45.875-23.406 45.875-23.406z" fill="#cfdde2"/><path d="m469.046 208.4c-5.742-11.774-19.962-13.947-19.962-13.947-30.988-2.021-35.7 23.578-35.7 23.578 1.918 19.827 14.467 22.2 14.467 22.2 4.678-16.853 41.195-31.831 41.195-31.831z" fill="#9eaeb7"/><path d="m380.623 69.487-18.055-16.732-18.68 46.708-13.255 5.627a248.157 248.157 0 0 1 -47.964-20.137c-23.135-12.621-19.624-38.34-17.6-47.236-1.028.761-1.581 1.206-1.581 1.206-7.335 7.948-11.193 19.633-13.217 30.131a40.624 40.624 0 0 0 12.048 37.128c11.049 4.056 19.526 19.62 19.526 19.62s6.5 7.082 9.065 10.01a365.693 365.693 0 0 1 33.943 45.053l7.017-50.125 43.687-26.821z" fill="#2b2b38"/><path d="m349.458 32.569a565.67 565.67 0 0 0 -20.688 71.031 99.764 99.764 0 0 1 -6.087 32.788 392.993 392.993 0 0 0 -4.029 40.979 29.605 29.605 0 0 0 12.077 25.154l10.576 7.751s3.97-35.852 11.352-75.871c-.1-11.557 1.959-22.194 6.5-31.774 4.321-18.927 9.37-36.927 15.089-50.647a16.652 16.652 0 0 0 1.245-8 32.455 32.455 0 0 0 -4.358-13.841c-5.311-8.539-18.221-7.013-21.677 2.43z" fill="#cdb859"/><path d="m352.66 134.4c2.131-11.553 4.548-23.45 7.234-34.935h-16.006l-14.859 2.985c-2.394 10.749-4.577 22.145-6.339 33.938z" fill="#896d2c"/><path d="m410.732 85.225c-71.425-3.073-148.409 20.957-148.409 20.957a7.847 7.847 0 0 0 -1.29 2.49c-3.555 10.035 5.414 20.075 15.869 18.067 31.576-6.064 106.866-18.941 149.5-13a36.918 36.918 0 0 0 .916-13.131 17.385 17.385 0 0 0 -16.586-15.383z" fill="#cdb859"/></svg>