<svg id="FLAT" height="512" viewBox="0 0 500 500" width="512" xmlns="http://www.w3.org/2000/svg"><path d="m184.71 300.388s1.25 71.056 0 184.906h9.4a11.781 11.781 0 0 0 11.747-10.849c1.924-24.241 7.444-85.1 18.118-141.417z" fill="#5b3439"/><path d="m353.261 361.628s46.178 60.383 45.8 123.666h9.213a11.776 11.776 0 0 0 11.766-12.446c-1.258-21.636-6.011-67.478-23.959-105.157z" fill="#5b3439"/><path d="m468.447 391.825a23.082 23.082 0 0 0 -12.537-15.066c-9.955-4.608-25.679-15.373-35.237-39.459-9.5-23.936-19-33.986-24.591-38.117 0 0 12.563-.057 16.326-15.862l-10.537-5.645s15.806-10.537 15.806-36.88c0 0-11.29 11.666-30.859 20.7 0 0-53.581-23.065-125.6-23.367a17.007 17.007 0 0 1 -15.688-10.484c-2.2-5.344-26.634-59.228-63.661-69.889 0 0-23.11 11.851-21.925 59.256 1.007 40.282 1.177 117.773 80.458 135.43 10.494 25.729 32.239 83.812 36.508 132.854h8.863a11.784 11.784 0 0 0 11.714-13.076 452.768 452.768 0 0 0 -7.946-48.757 594.552 594.552 0 0 1 -10.985-67.377q5.69-.055 11.751-.415l41.213-2.81c3.259-2.335 6.971-2.212 10.933-.745 0 0 11.562 28.9 73.784 35.737a27.38 27.38 0 0 1 20 12.376c9.019 13.983 26.111 53.237 28.643 85.067h7.164a11.778 11.778 0 0 0 11.69-13.275c-2.219-17.262-6.986-48.911-15.287-80.196z" fill="#ce867f"/><path d="m334.037 328.836a1.727 1.727 0 0 0 -3.388.164 64.133 64.133 0 0 0 .873 23.859l10.933-.745a142.4 142.4 0 0 1 -8.418-23.278z" fill="#5b3439"/><path d="m243.44 202.788a134.11 134.11 0 0 0 -15.854-17.537l-27.373-.759a6.123 6.123 0 0 0 -4.845 10.092 34.04 34.04 0 0 0 14.105 9.792 21.884 21.884 0 0 1 9.268 6.507 52.068 52.068 0 0 0 26.744 16.64c-2.171-5.343-3.485-13.223-2.045-24.735z" fill="#5b3439"/><path d="m224.459 137.826c21.657-4.076 34.078-16.507 41.181-28.812 9.827-15.837 22.407-22.893 24.04-9.635-15.5 43.18-46.737 52.844-62.943 54.877a8.29 8.29 0 0 1 -9.22-9.486 8.512 8.512 0 0 1 6.942-6.944z" fill="#f4bd87"/><path d="m174 160.385s6.8 29.717 44.007 39.213a21.981 21.981 0 0 1 9.795 5.381l2.772 2.654a38.944 38.944 0 0 0 26.93 10.813 11.032 11.032 0 0 0 10.935-12.5l-2.83-21.118a33.167 33.167 0 0 0 -2.821-9.637 103.924 103.924 0 0 0 -18.512-27.422 33.071 33.071 0 0 0 -26.226-9.978l-14.923 1.1a18.308 18.308 0 0 1 -13.727-4.891c-3.225-2.968-8.641-6.163-17.36-6.955-.003-.005-14.126 12.941 1.96 33.34z" fill="#ce867f"/><path d="m182.329 150.389c-33.812-9.687-43.477-37.441-46.224-53.58a13.617 13.617 0 0 1 8.528-14.972c37.039-14.237 32.867-50.566 32.867-50.566l-3.886.049a14.846 14.846 0 0 0 -13.76 9.817c-10.49 28.992-45.825 27.822-45.825 27.822q-1.871.024-3.683.011a20.115 20.115 0 0 1 -19.882-21.57c.065-.907.155-1.8.265-2.665a13.715 13.715 0 0 0 -11.435-15.129l-3.061-.47c-6.008 15.617-4.24 27.532-1.442 35.094-28.5-8.587-37.319-26.906-40-38.74a13.739 13.739 0 0 0 -13.542-10.783l-5.083.065c4.745 85.745 98.394 72.269 98.394 72.269 8.046 60.431 45.152 76.214 63.777 80.336a8.722 8.722 0 0 0 10.585-9.036 8.955 8.955 0 0 0 -6.593-7.952z" fill="#f4bd87"/><path d="m223.84 172.391a5.482 5.482 0 0 1 -2.073-.408l-4.423-1.8a5.5 5.5 0 0 1 4.151-10.188l4.422 1.8a5.5 5.5 0 0 1 -2.077 10.6z" fill="#2b2b38"/><path d="m393.694 24.142-4.806-.51a13.059 13.059 0 0 0 -13.771 9.01c-3.58 10.963-13.545 27.523-41.275 33.133 3.316-6.909 6.041-18.03 1.734-33.341l-2.939.175a13.036 13.036 0 0 0 -12.157 13.309c.027.83.033 1.681.014 2.545a19.118 19.118 0 0 1 -20.724 18.659q-1.716-.147-3.485-.335s-33.545-2.012-40.914-30.377a14.111 14.111 0 0 0 -12.156-10.5l-3.674-.39s-7.151 34.011 26.646 50.758a12.944 12.944 0 0 1 6.75 14.924 74.305 74.305 0 0 1 -7.3 17.815s16.965-21.123 24.037-9.635a135.625 135.625 0 0 0 4.515-15.524s87.444 21.018 99.505-59.716z" fill="#b57c5d"/><path d="m256.261 201.926 8.1-.467c2.962-.171 4.981 2.447 4.732 5.4a13.729 13.729 0 0 1 -3.3 8.464 4.679 4.679 0 0 1 -5.69 1.477 15.221 15.221 0 0 1 -7.905-8.882 4.557 4.557 0 0 1 4.063-5.992z" fill="#2b2b38"/></svg>