<svg id="FLAT" height="512" viewBox="0 0 500 500" width="512" xmlns="http://www.w3.org/2000/svg"><path d="m406.746 207.54c4.945 31.753-9.431 57.332-25.775 75.378-22.845 15.01-49.58 12.336-56.356-7.317a132.64 132.64 0 0 0 16.373-18.777c3.206-1.584 5.015-4.884 6.041-9.149q.52-.863 1.033-1.737a110.16 110.16 0 0 0 13.057-32.813c2.73-3.451 3.33-7.439 1.745-11.978 4.452-56.5-45.955-94.311-45.955-94.311s76.072 12.317 89.837 100.704z" fill="#e2d67a"/><path d="m324.613 275.6c-16.992 16.132-37.314 26.836-58.733 33.275l77.111 4.442a157.4 157.4 0 0 0 37.977-30.4 122.617 122.617 0 0 1 -56.355-7.317z" fill="#a09040"/><path d="m403.694 216.609a5.488 5.488 0 0 0 3.687-3.843q-.183-1.993-.47-4.022a5.5 5.5 0 0 0 -6.463-2.644c-18.415 5.688-30.791.156-37.6-4.954a92.473 92.473 0 0 1 -1.734 11.978 49.663 49.663 0 0 0 24.564 6.333 60.885 60.885 0 0 0 18.016-2.848z" fill="#a09040"/><path d="m394.545 255.348c-21.306 7.89-37.794-.1-47.526-7.679q-2.883 4.764-6.04 9.148a69.344 69.344 0 0 0 6.137 4.16 57.884 57.884 0 0 0 30.088 8.611 59.12 59.12 0 0 0 15.76-2.183 101.255 101.255 0 0 0 6.461-11.523 5.486 5.486 0 0 0 -4.88-.534z" fill="#a09040"/><path d="m182.372 97.9a5.5 5.5 0 0 0 -7.637-1.474l-13.123 8.874c-12.147 8.478-23.377 11.694-33.365 9.56-13.1-2.8-20.08-14.109-20.216-14.333a5.5 5.5 0 0 0 -9.47 5.6 43.733 43.733 0 0 0 7.9 9.3 21 21 0 0 1 -10.5-2.2 5.5 5.5 0 0 0 -5.277 9.651 33.081 33.081 0 0 0 14.622 3.6 24.513 24.513 0 0 0 12.744-3.437 39.867 39.867 0 0 0 7.72 2.535 40.483 40.483 0 0 0 8.652.929c10.636 0 21.847-4.072 33.413-12.143l13.056-8.829a5.5 5.5 0 0 0 1.481-7.633z" fill="#d14343"/><path d="m172.011 48.877a35.318 35.318 0 0 0 -16.787 32.523 27.985 27.985 0 0 0 27.992 26.166h93.3c30.864 0 60.521 12.914 80.864 36.125 12.718 14.51 23.878 34.309 28.361 60.956 5.983 35.565-2.521 61.37-13.478 78.886 19.5 10.93 47.4 4.581 63.494-19.4 14.543-31.275 23.645-75.5 1.423-126.863-44.199-102.158-184.462-110.852-184.462-110.852s-35.956-9.236-54.062 6.917a57.685 57.685 0 0 1 -13.188 9.031z" fill="#87a574"/><path d="m221.716 48.8 8.77-2.332c7.241-1.926 13.644 5.659 10.14 12.281-1.515 2.861-4.317 5.329-9.247 6.5a19.537 19.537 0 0 1 -10.127.033c-8.217-2.406-7.811-14.282.464-16.482z" fill="#2b2b38"/><path d="m372.253 283.525c-12.925 20.66-29.262 29.791-29.262 29.791h58.684s19.694-18.27 34.073-49.19c-23.076 13.702-44.775 18.766-63.495 19.399z" fill="#56723d"/><path d="m73.017 204.8c-6.472 26.7-9.867 73.367 30.168 108.52h91.285s-80.653-20.908-93.756-107.152a14.258 14.258 0 0 0 -4.714-8.643 14.119 14.119 0 0 0 -22.983 7.275z" fill="#56723d"/><path d="m93.042 377.5s-43.47-2.6-53.612 37.968c-5.494 21.976 8.171 35.9 21.852 44.045a77.939 77.939 0 0 0 33.873 10.537c33.129 2.578 138.488 9.554 250.6 4.176 47.525-16.378 45.068-80.485-7.7-96.725z" fill="#87a574"/><path d="m100.022 303.9h224.731c36.362 9.419 47.193 41.932 29.9 77.482-67.162 3.986-182.341 8.082-261.611-3.878 0 0-23.908-13.471-21.735-41.726s28.715-31.878 28.715-31.878z" fill="#87a574"/><g fill="#56723d"><path d="m378.147 94.9a5.5 5.5 0 0 0 -7.676 1.262 4.367 4.367 0 0 1 -3.846 1.675 22.331 22.331 0 0 0 -.738-8.031c3.707-4.107 4.749-9.9 3.1-17.21a5.5 5.5 0 1 0 -10.728 2.425c.459 2.033 1 5.7-.522 7.4-1.441 1.617-4.926 1.809-6.387 1.65a5.5 5.5 0 0 0 -1.341 10.929 19.421 19.421 0 0 0 2.324.127 23.678 23.678 0 0 0 3.322-.238 6.644 6.644 0 0 1 -.606 3.9c-1.413 2.518-5.05 3.241-5.211 3.272a5.5 5.5 0 0 0 .849 10.933 5.582 5.582 0 0 0 .811-.059 20.321 20.321 0 0 0 9.984-4.8 22.059 22.059 0 0 0 5.346.684 14.821 14.821 0 0 0 12.581-6.233 5.5 5.5 0 0 0 -1.262-7.686z"/><path d="m210.914 333.565a5.5 5.5 0 0 0 -5.68 5.315c-.09 2.734-2.473 4.224-4.5 5a31.632 31.632 0 0 0 -4.218-6.969c.07-.322.149-.638.2-.973.848-5.717-1.617-11.366-7.331-16.787a5.5 5.5 0 1 0 -7.571 7.981c2.026 1.922 4.369 4.725 4.025 7.166-.369 2.617-3.712 4.9-4.863 5.5a5.5 5.5 0 0 0 4.956 9.821 23.458 23.458 0 0 0 4.048-2.7 12.014 12.014 0 0 1 1.624 6.95c-.56 5.329-5.451 8.918-5.613 9.035a5.5 5.5 0 0 0 6.262 9.044c.93-.64 9.117-6.54 10.273-16.769.012-.106.016-.213.026-.319 5.8-1.7 13.37-6.282 13.68-15.623a5.5 5.5 0 0 0 -5.318-5.672z"/><path d="m329.072 424.176a5.5 5.5 0 0 0 -5.5 5.5c0 3.157-2.765 4.9-5 5.794a32.856 32.856 0 0 0 -4.842-7.47c.073-.379.15-.756.2-1.15.681-5.947-2.078-11.719-8.2-17.156a5.5 5.5 0 0 0 -7.3 8.227c2.25 2 4.871 4.945 4.579 7.646-.312 2.892-3.848 5.491-5.07 6.178a5.5 5.5 0 0 0 5.277 9.651 24.293 24.293 0 0 0 4.385-3.175 13.092 13.092 0 0 1 2.157 7.733c-.416 5.768-5.551 9.789-5.7 9.907a5.5 5.5 0 0 0 6.557 8.832c.377-.278 9.243-6.934 10.107-17.79.014-.175.015-.35.025-.525 5.982-1.916 13.836-6.926 13.836-16.7a5.5 5.5 0 0 0 -5.511-5.502z"/><path d="m121.52 415.484a30.223 30.223 0 0 0 -7.784-12.777 5.5 5.5 0 0 0 -7.557 7.992c1.405 1.328 5.344 6.081 5.043 10.361-.059.845-.24 3.418-4.446 6.4a5.5 5.5 0 0 0 6.363 8.973 21.736 21.736 0 0 0 7.616-8.871 9.97 9.97 0 0 1 4.2 5.135c1.02 3.746-2.015 8.306-4.741 11.472a5.5 5.5 0 0 0 8.336 7.178c6.522-7.576 8.877-14.849 7-21.62-2.329-8.378-10.323-12.666-14.03-14.243z"/><path d="m114.231 379.591c52.27 2.93 170.337 7.623 281.157-1.514a2.838 2.838 0 0 1 1.053 5.547c-44.2 13.086-149.3 35.062-283.044 1.563a2.842 2.842 0 0 1 .834-5.596z"/><path d="m409.969 377.26c4.993-1.291 26.21-8.6 24.162-39.312-2.32-34.775-33.9-34.051-33.9-34.051h-75.478c9.238 5.869 25.214 19.353 25.214 42.464 0 23.526-9.916 36.105-15.394 41.261a24.633 24.633 0 0 1 -3.537 2.853s33.56 15.065 33.56 44.143c0 15.731-9.82 29.9-18.837 39.608 23.164-1.111 46.615-2.749 69.779-5.063 0 0 46.994-5.153 46.269-55.143-.663-45.792-44.482-38.335-51.838-36.76z"/></g></svg>