<svg id="FLAT" height="512" viewBox="0 0 500 500" width="512" xmlns="http://www.w3.org/2000/svg"><path d="m214.565 304.074s31.018 20.661 42.224 51.019c3.1 8.4 5.764 18.063 3.523 26.734-2.6 10.068-7.1 24.829-13.284 35.587a25.52 25.52 0 0 1 -17.247 12.326l-5.4 1.052a14.624 14.624 0 0 0 -11.111 13.037l-.524 6.528h18.236a33.84 33.84 0 0 0 23.628-9.614l20.079-19.583s13.52-39.3 29-57.515c0 0-31.632-14.983-15.194-77.445.005 0-35.995-14.343-73.93 17.874z" fill="#5b3439"/><path d="m60.857 262.279s2 23.6-7.6 36.405c-4.489 5.985-12.388 13.719-19.528 20.258a20.46 20.46 0 0 0 -1.8 28.367c7.585 8.9 16.862 20.569 23.621 31.648a18.091 18.091 0 0 0 16.54 8.628 87.8 87.8 0 0 1 32.776 4.31 26.853 26.853 0 0 0 .926-13.2 16.284 16.284 0 0 0 -13.241-12.939l-17.289-3.067a36.027 36.027 0 0 1 -8.262-9.042 23.473 23.473 0 0 1 5.442-31.347c7-5.4 17.505-11 32.42-13.21z" fill="#5b3439"/><path d="m43.079 179.886s-22.718 129.771 98.793 144.177c0 0 3.132 51.361-4.384 77.667 0 0-11.9 25.68-22.549 31.318 0 0-12.526 2.6-12.526 17.309h27.539a24.028 24.028 0 0 0 18.67-8.925 123.481 123.481 0 0 0 19.557-33.438l10.022-78.92 21.3-3.9c8.974-3 20.583-8.241 34.442-17.4 8.721-5.763 19.418-9.4 30.568-11.6 5.2-2.367 10.033-3.624 13.916-2.049 0 0 3.61 22.823 32.31 42.859l5.956-7.581 23.829 19.497s4.874 27.616-5.956 53.067c0 0-18.411 26.533-32.49 31.948 0 0-8.123 3.642-8.123 16.442h21.006a26.1 26.1 0 0 0 17.076-6.369 139.614 139.614 0 0 0 31.23-39.855 153.752 153.752 0 0 1 19.494-64.439s-36.822-14.079-31.407-49.277 3.791-55.233 3.791-55.233 4.873 41.7 48.735 43.862c20.788 1.026 41.407-5.867 50.36-10.83l-10.83-7.861s50.359-10.55 23.284-95.566c0 0-11.371 57.941-56.858 57.4-17.874-.213-31.15-9.624-40.681-20.971 0 0-9.071-16.2-34.318-21.907a86.724 86.724 0 0 1 -17.991-6.09c-10.234-4.842-28.709-11.66-49.966-10.6-32.49 1.625-99.4 5-119.13-45.486z" fill="#ce867f"/><path d="m36.111 58.868c7.389 3.742 22.718 12.773 32.46 27.386 0 0 22.773-8.452 49.219-4.226 0 0 9.464-21.4 31.546-31.967a4.258 4.258 0 0 1 5.981 2.885c2.288 9.909 6.2 33.172-1.272 53.877 0 0 41.4 51.422 0 131.494l-9.075-8.081s-10.717 20.569-21.887 30.119c0 0-48.635-11.754-67-43.342l-11.019 14.692s-32.323-38.934-13.223-108.721c0 0-13.524-27.724-1.646-61.763a4.237 4.237 0 0 1 5.916-2.353z" fill="#ce867f"/><path d="m60.318 227.309c7.245 14.157 25.322 38.628 65.522 45.169a4.044 4.044 0 0 0 3.49-1.124 77.07 77.07 0 0 0 17.012-26.454l8.991 7.343a4.076 4.076 0 0 0 6.367-1.643 166.288 166.288 0 0 0 11.236-57.465 1.948 1.948 0 0 0 -3.848-.464c-2.512 11.411-6.6 26.363-12.557 37.729a4.134 4.134 0 0 1 -5.873 1.576l-7.068-4.47a4.6 4.6 0 0 0 -6.844 2.472c-1.891 5.822-5.619 15.06-12.074 23.04a5.922 5.922 0 0 1 -5.779 2.038 112.6 112.6 0 0 1 -55.459-30 1.945 1.945 0 0 0 -3.116 2.253z" fill="#e8cfd1"/><path d="m99.593 143.906a5.508 5.508 0 0 1 -1.583-.233 80.935 80.935 0 0 0 -9.736-2.191 5.5 5.5 0 0 1 1.635-10.882 90.9 90.9 0 0 1 11.262 2.533 5.5 5.5 0 0 1 -1.578 10.769z" fill="#2b2b38"/><path d="m127.821 139.85a5.5 5.5 0 0 1 -2.849-10.209 92.523 92.523 0 0 1 8.586-4.56 5.5 5.5 0 0 1 4.554 10.012 83.344 83.344 0 0 0 -7.454 3.964 5.474 5.474 0 0 1 -2.837.793z" fill="#2b2b38"/><g fill="#5b3439"><path d="m201.338 293.141a114.622 114.622 0 0 1 -23.138 35.933s7.569.677 21.3-3.9c5.786-10.279 7.315-21.975 7.428-30.905a2.9 2.9 0 0 0 -5.59-1.128z"/><path d="m275.742 259.483a2.534 2.534 0 0 0 -4.906-.96c-3.708 9.989-7.554 24.156-6.32 37.662 4.6-.91 9.269-1.584 13.914-2.057a185.8 185.8 0 0 1 -2.688-34.645z"/><path d="m128.713 191.275-15.44.336c-6.453 0-13.552-4.631-18.372-8.923a141.165 141.165 0 0 1 -17.846-19.569 2.345 2.345 0 0 0 -4.03 2.328 86.6 86.6 0 0 0 20.84 30.053 24.3 24.3 0 0 0 12.267 6.014c8.038 1.4 21.523 2.507 31.911-2.9a20.743 20.743 0 0 0 11.007-18.254 160.123 160.123 0 0 0 -1.178-18.2 1.583 1.583 0 0 0 -3.118-.166c-2.37 10.956 1.412 24.582-16.041 29.281z"/></g><path d="m130.292 158.942 10.448-.392a8.353 8.353 0 0 1 8.166 11.169 26.877 26.877 0 0 1 -5.641 9.353 8.3 8.3 0 0 1 -10.121 1.584 28.6 28.6 0 0 1 -9.305-8.486 8.358 8.358 0 0 1 6.453-13.228z" fill="#2b2b38"/><path d="m44.3 107.316a36.554 36.554 0 0 1 11.273-10.6 4.728 4.728 0 0 0 1.437-6.864c-3.526-4.8-9.873-12.164-17.955-16.082 0 0-6.013 12.491.25 32.787a2.806 2.806 0 0 0 4.995.759z" fill="#5b3439"/><path d="m142.88 98.5a36.56 36.56 0 0 0 -12.07-9.686 4.729 4.729 0 0 1 -1.971-6.73c3.139-5.061 8.89-12.9 16.64-17.44 0 0 6.974 11.982 2.32 32.706a2.8 2.8 0 0 1 -4.919 1.15z" fill="#5b3439"/></svg>