<svg id="FLAT" height="512" viewBox="0 0 500 500" width="512" xmlns="http://www.w3.org/2000/svg"><path d="m131.585 459.42s-106.703-37.493-100.757-133.227c4.235-68.172 42.106-113.127 63.562-133.361a5.456 5.456 0 0 1 9.04 5.253c-4.758 20.04-6.041 49.948 29.078 49.024 45.191-1.19 38.056-61.841 30.326-90.382 0 0-18.433-49.948 40.434-96.329 0 0 12.34-12.738 12.919-28.769a5.449 5.449 0 0 1 9.269-3.652c8.816 8.727 18.366 26.535 9.066 60.368-15.2 55.3.261 102.869 47.83 107.032 40.655 3.557 51.342-48.044 35.4-83.907a5.452 5.452 0 0 1 8-6.746c27.982 18.7 75.278 67.533 48.768 175.312 0 0-22 53.887 20.812 66.969 34.429 10.52 46.554-9.339 49.983-30.2a5.458 5.458 0 0 1 10.132-1.869c9.552 16.887 21.528 48.967 7.671 89.746-20.811 61.245-95.139 56.489-95.139 56.489z" fill="#ffa757"/><path d="m355.032 473.6h-22.743l-14.857-3.489-6.8 3.489h-25.955l-13.769-4.351-9.808 4.351h-18.569l-10.394-4.351-12.185 4.351h-23.58l-12.913-5.643-14.182 5.643h-38.592s-17.013-50.014 26.065-131 53.85-86.589 53.85-86.589l36.617 85.726 16.844-28.863s90.23 76.335 90.971 160.726z" fill="#8e3329"/><path d="m334.345 365.669c-1.076-16.644-1.143-41.155 4.2-66.149l-18.166-7.173s-6.823 27.635-4.941 55.553a374.77 374.77 0 0 0 -29.032-34.9c-3.427 9.009-4.056 22.886 2.508 37.2 21.648 27.673 51.754 72.6 66.118 123.4h23.826s-10.519-39.06-38.047-86.787a48.644 48.644 0 0 1 -6.466-21.144z" fill="#d87155"/><path d="m215.283 339.5c-9.238 32.9-19.91 82.59-18.911 134.1h-27.1a486.279 486.279 0 0 1 10.07-79.9c5.247-12.658 8.768-25.049 9.46-37a303.539 303.539 0 0 1 19.276-48.55c10.212 1.991 11.072 13.026 7.205 31.35z" fill="#d87155"/><path d="m222.009 284.52a213.361 213.361 0 0 0 -13.918 23.631 190.541 190.541 0 0 1 7.192 31.347c6.811-24.256 12.843-39.388 12.843-39.388z" fill="#8e3329"/><path d="m226.721 399.823a549.288 549.288 0 0 1 -6.769 73.777h22.579s1.945-14.567 3.717-34.8c.888-26.642-13.148-50.546-19.527-38.977z" fill="#d87155"/><path d="m246.247 438.805c2.545-29.043 4.734-69.753.3-95.781l-24.536-50.677a745.379 745.379 0 0 1 4.71 107.476c6.409 8.413 15.606 22.623 19.526 38.982z" fill="#8e3329"/><path d="m205.4 261.741s48.169 126.18 55.7 211.859h23.582s-23.482-152.767-62.673-221.7z" fill="#d87155"/><path d="m124.518 288.483 18.527-8.447a155.776 155.776 0 0 1 12.434 60.364l-18.622 43.7s5.1-53.988-12.339-95.617z" fill="#8e3329"/><path d="m103.491 71.921a38.143 38.143 0 0 0 -17.266 18.136c-3.872 8.385-6.911 20.985-.743 34.966 11.019 24.976 33.792 2.938 33.792 2.938s16.929-17.63 8.1-45.545c-5.081-16.051-15.74-14.616-23.883-10.495z" fill="#ffa757"/><path d="m448.609 217.167c-4.909-11.359-19.941-14.142-28.264-4.986-4.636 5.1-7.484 12.212-3.223 21.473 9.919 21.563 29.038 14.881 33.1 6.022 2.378-5.159 1.978-14.209-1.613-22.509z" fill="#ffa757"/><path d="m286.4 313.007c-5.691-6.04-11.685-11.985-18.009-17.771l-4.332 25.992a370.113 370.113 0 0 1 24.853 28.972 184.758 184.758 0 0 1 -2.512-37.193z" fill="#8e3329"/><path d="m259.727 243.252s-40.612 131.462 50.9 230.348h21.661s-83.2-77.1-54.151-224.933z" fill="#d87155"/><path d="m198.514 378.6-7.091-26.108-2.775 4.726c-3.791 12.431-6.84 24.756-9.3 36.48a74.62 74.62 0 0 1 19.166-15.098z" fill="#8e3329"/><path d="m109.055 473.6h21.63s-2.5-72.046 61.589-100.969l-1-23.67-29.347 19.9s25.635-76.9 60.082-116.959l-12.818-16.5s-75.413 89.737-100.136 238.198z" fill="#d87155"/></svg>