<svg id="FLAT" height="512" viewBox="0 0 500 500" width="512" xmlns="http://www.w3.org/2000/svg"><path d="m14.706 466.163 80.134-74.379 122.677-120.745 146.826-150.69 112.051-105.66 8.9 26.451-191.466 182.567-128.473 135.235-132.337 126.335z" fill="#8e3329"/><path d="m22.147 313.433a98.337 98.337 0 0 0 51.166-48.411 3.673 3.673 0 0 1 6.819.416c2.259 7.091 4.806 18.685 4.806 34.91 0 0 98.536-5.01 136.409 96.137-15.588 33.08-37.861 57.431-70.6 68.121-38.264-20.106-76.767-59.663-85.242-137.35 0 0-25.182 1.147-43.507-7.1a3.668 3.668 0 0 1 .149-6.723z" fill="#94aadf"/><path d="m178.672 423.729s-35.9 4.113-35.589-36.16a5.258 5.258 0 0 1 4.884-5.212c9.893-.659 32.546 1.129 39.773 29.746z" fill="#5c73b4"/><path d="m150.753 464.6c42.732 22.456 85.169 20.674 85.169 20.674-.281-36.219-5.8-65.354-14.577-88.791-54.745 4.305-67.752 44.177-70.592 68.117z" fill="#94aadf"/><path d="m243.363 82.816a98.338 98.338 0 0 0 51.167-48.411 3.672 3.672 0 0 1 6.818.415c2.259 7.092 4.807 18.686 4.807 34.911 0 0 98.535-5.01 136.408 96.137-15.588 33.08-37.861 57.43-70.6 68.121-38.263-20.111-76.763-59.663-85.242-137.35 0 0-25.182 1.147-43.506-7.1a3.667 3.667 0 0 1 .148-6.723z" fill="#94aadf"/><path d="m399.889 193.111s-35.9 4.114-35.59-36.16a5.259 5.259 0 0 1 4.885-5.212c9.892-.658 32.546 1.129 39.772 29.746z" fill="#5c73b4"/><path d="m371.969 233.986c42.732 22.456 85.169 20.674 85.169 20.674-.281-36.22-5.8-65.354-14.577-88.791-54.743 4.302-67.752 44.174-70.592 68.117z" fill="#94aadf"/><path d="m369.2 330.168a98.347 98.347 0 0 0 -51.167 48.411 3.672 3.672 0 0 1 -6.818-.415c-2.259-7.092-4.807-18.686-4.807-34.911 0 0-98.535 5.011-136.408-96.137 15.588-33.079 37.861-57.43 70.6-68.12 38.267 20.11 76.771 59.663 85.246 137.349 0 0 25.182-1.146 43.506 7.1a3.667 3.667 0 0 1 -.152 6.723z" fill="#94aadf"/><path d="m212.675 219.873s35.9-4.114 35.59 36.16a5.259 5.259 0 0 1 -4.885 5.212c-9.892.659-32.546-1.129-39.772-29.746z" fill="#5c73b4"/><path d="m240.6 179c-42.732-22.457-85.169-20.675-85.169-20.675.281 36.22 5.8 65.355 14.577 88.792 54.738-4.304 67.746-44.176 70.592-68.117z" fill="#94aadf"/><g fill="#5c73b4"><path d="m157.417 440.557c6.1-15.012 19.868-32.368 50.717-39.69a3.462 3.462 0 0 0 -.34-6.811c-12.125-1.42-29.444.691-44.765 18.021a51.126 51.126 0 0 0 -12.229 26.623c-.612 4.019 5.084 5.627 6.617 1.857z"/><path d="m379.859 211.135c5.3-15.316 18.114-33.382 48.528-42.339a3.462 3.462 0 0 0 -.7-6.782c-12.183-.772-29.365 2.26-43.739 20.382a51.123 51.123 0 0 0 -10.8 27.232c-.392 4.051 5.381 5.353 6.711 1.507z"/><path d="m234.138 200.755c-5.3 15.315-18.114 33.381-48.528 42.338a3.462 3.462 0 0 0 .7 6.783c12.183.771 29.366-2.261 43.74-20.383a51.13 51.13 0 0 0 10.794-27.232c.397-4.051-5.377-5.353-6.706-1.506z"/><path d="m212.028 442.212-5.741-.048.049-5.741a5.5 5.5 0 0 0 -5.454-5.547h-.047a5.5 5.5 0 0 0 -5.5 5.454l-.049 5.74-5.741-.048h-.045a5.5 5.5 0 0 0 -.045 11l5.741.048-.049 5.741a5.5 5.5 0 0 0 5.454 5.547h.047a5.5 5.5 0 0 0 5.5-5.454l.049-5.74 5.74.048h.047a5.5 5.5 0 0 0 .046-11z"/><path d="m189.358 213.064h.048a5.5 5.5 0 0 0 5.5-5.453l.048-5.741 5.741.049h.048a5.5 5.5 0 0 0 .045-11l-5.74-.049.048-5.741a5.5 5.5 0 0 0 -5.453-5.546h-.048a5.5 5.5 0 0 0 -5.5 5.453l-.048 5.741-5.741-.049h-.048a5.5 5.5 0 0 0 -.045 11l5.74.049-.048 5.741a5.5 5.5 0 0 0 5.453 5.546z"/><path d="m431.484 209.623-5.741-.048.049-5.741a5.5 5.5 0 0 0 -5.454-5.547h-.047a5.5 5.5 0 0 0 -5.5 5.454l-.049 5.741-5.742-.049a5.5 5.5 0 1 0 -.092 11l5.74.049-.048 5.741a5.5 5.5 0 0 0 5.453 5.546h.048a5.5 5.5 0 0 0 5.5-5.454l.048-5.74 5.741.048h.047a5.5 5.5 0 0 0 .046-11z"/><path d="m111.033 398.673a5.528 5.528 0 0 1 -5.464-4.878c-.107-.9-.886-8.95 4.492-15 2.409-2.713 6.972-5.947 15.019-5.947a5.5 5.5 0 1 1 0 11c-3.155 0-5.43.745-6.761 2.213-1.82 2.009-1.931 5.368-1.821 6.492a5.5 5.5 0 0 1 -5.465 6.123z"/><path d="m141.894 367.329a5.528 5.528 0 0 1 -5.464-4.877c-.107-.9-.886-8.95 4.492-15 2.41-2.713 6.972-5.947 15.019-5.947a5.5 5.5 0 0 1 0 11c-3.155 0-5.429.744-6.76 2.213-1.821 2.008-1.932 5.367-1.822 6.492a5.5 5.5 0 0 1 -5.465 6.122z"/><path d="m109.782 366.327a5.529 5.529 0 0 1 -5.465-4.878c-.106-.9-.885-8.95 4.492-15 2.41-2.713 6.972-5.947 15.02-5.947a5.5 5.5 0 1 1 0 11c-3.156 0-5.43.745-6.761 2.213-1.821 2.009-1.932 5.368-1.821 6.492a5.506 5.506 0 0 1 -5.465 6.123z"/><path d="m329.006 164.819a5.527 5.527 0 0 1 -5.464-4.878c-.107-.9-.886-8.95 4.492-15 2.41-2.713 6.972-5.947 15.019-5.947a5.5 5.5 0 0 1 0 11c-3.155 0-5.429.745-6.761 2.213-1.82 2.009-1.932 5.368-1.821 6.493a5.479 5.479 0 0 1 -4.817 6.084 5.672 5.672 0 0 1 -.648.035z"/><path d="m359.867 133.476a5.528 5.528 0 0 1 -5.467-4.876c-.107-.9-.886-8.95 4.492-15 2.41-2.713 6.972-5.947 15.019-5.947a5.5 5.5 0 0 1 0 11c-3.155 0-5.43.744-6.76 2.213-1.821 2.008-1.932 5.368-1.822 6.492a5.5 5.5 0 0 1 -5.465 6.123z"/><path d="m327.754 132.473a5.529 5.529 0 0 1 -5.464-4.877c-.106-.9-.886-8.951 4.492-15 2.41-2.713 6.972-5.947 15.019-5.947a5.5 5.5 0 0 1 0 11c-3.155 0-5.429.745-6.76 2.213-1.821 2.009-1.932 5.368-1.822 6.493a5.5 5.5 0 0 1 -5.465 6.122z"/><path d="m269.914 276.416a5.5 5.5 0 0 1 0-11c3.155 0 5.429-.744 6.76-2.213 1.821-2.008 1.932-5.368 1.822-6.492a5.5 5.5 0 1 1 10.929-1.245c.106.9.886 8.95-4.492 15-2.41 2.716-6.972 5.95-15.019 5.95z"/><path d="m239.052 307.76a5.5 5.5 0 0 1 0-11c3.156 0 5.43-.745 6.76-2.213 1.822-2.009 1.933-5.368 1.822-6.493a5.5 5.5 0 0 1 10.929-1.245c.107.9.886 8.951-4.491 15-2.41 2.717-6.972 5.951-15.02 5.951z"/><path d="m271.165 308.762a5.5 5.5 0 0 1 0-11c3.155 0 5.43-.745 6.761-2.213 1.821-2.009 1.931-5.368 1.821-6.493a5.5 5.5 0 0 1 10.929-1.244c.107.9.886 8.95-4.491 15-2.41 2.716-6.973 5.95-15.02 5.95z"/></g></svg>