<svg id="FLAT" height="512" viewBox="0 0 500 500" width="512" xmlns="http://www.w3.org/2000/svg"><path d="m181.717 400.28s-41.264-39.657 6.251-100.586c0 0 5.967 32.979 26.975 29.311 26.616-4.648 16.887-31.367 14.875-43.084a51.89 51.89 0 0 1 1.114-22.879c3.036-10.756 10.171-24.284 26.6-35.163 0 0-11.568 65.735 31.648 68.344 0 0 24.668-2.79 21.969-36.264 0 0 81.649 64.857 17.545 157.61-42.5 23.543-83.228 31.616-119.438 0 0 0-10.669 3.097-27.539-17.289z" fill="#ffa757"/><path d="m231.194 425.723s-28.334-26.609-11.565-61.483a11.071 11.071 0 0 1 18.9-1.619c3.7 4.989 9.836 8.731 19.985 7.193 11.928-1.807 18.92-13.934 18.332-27.19a10.319 10.319 0 0 1 16.874-8.324c19.106 15.875 35.778 45.637 1.343 95.74 0-.003-39.942 5.001-63.869-4.317z" fill="#fff"/><path d="m40.912 66.634 15.374-3.66 43.191 165.446 42.46 168.374-26.354 5.124s-15.374-110.541-33.675-164.713c0 0-32.943-125.915-40.996-170.571z" fill="#8e3329"/><path d="m442.814 136.912 19.766 140.556 17.437 124.45h-23.294s-10.98-129.574-28.55-224.743v-40.263z" fill="#8e3329"/><path d="m485.294 130.724-8.445 17.934-163.585 1.742s-198.171-2.007-291.382 1.648l-7.176-21.322s113.478.13 192.067-2.307 224.095-1.351 278.521 2.305z" fill="#8e3329"/><path d="m415.185 172.323-9.485 207.397 18.369 4.74c-2.211-52.451 5.115-139.78 12.436-209.876-1.794-13.862-1.052-26.652 4.09-37.585 4.788-42.342 8.723-71.93 8.723-71.93h-21.145l-8.465 69.9c.979 12.211.07 23.326-3.952 32.636z" fill="#d87155"/><path d="m83.7 65.069 12.933 9.316s-5.522 29.035-14.166 71.19a107.486 107.486 0 0 0 -6.658 32.055c-5.973 28.391-12.858 60.12-20.141 91.785-21.425 93.156-14.756 170.493-14.756 170.493l-11.562-1.8a16.908 16.908 0 0 1 -14.28-17.508c3.642-78.312 33.237-227.1 33.237-227.1l7.28-26.413a97.812 97.812 0 0 0 9.065-32.9z" fill="#d87155"/><path d="m179.2 96.274a59.076 59.076 0 0 0 -25.483 31.158 42.133 42.133 0 0 0 -2.327 18.683c2.6 21.3 32.724 49.347 87.266 31.686 46.465-15.046 71.441-9.045 84.885-34.369a20.654 20.654 0 0 0 -6.5-26.666 83.417 83.417 0 0 0 -16.974-9.175 58.332 58.332 0 0 1 -14.445-8.191c-15.034-11.606-54.764-34.414-106.422-3.126z" fill="#d14343"/><path d="m343.2 377.291c6.333-13.176 14.882-28.191 25.62-41.073a29.276 29.276 0 0 1 35.338-7.664c11.672 5.731 26.458 15.009 38.5 29.087 24 40.721 3.009 64.685-26.164 85.6-48.615 3.459-68.994-22.794-73.294-65.95z" fill="#9eaeb7"/><path d="m192.644 232.242a13.141 13.141 0 0 0 -11.737-.573c-5.854 2.458-14.877 8.266-10.421 19.777 2.305 5.954 6.344 8.371 10.564 9.029 9.676 1.509 18.092-6.645 17.682-16.43-.191-4.57-1.665-9.193-6.088-11.803z" fill="#9b8181"/><path d="m429.542 134.194-9.834.775-3.952 32.636 20.753 6.979c1.221-11.689 2.441-22.9 3.617-33.384z" fill="#8e3329"/><path d="m75.811 177.63c2.449-11.64 4.743-22.714 6.851-33l-1.88-1.921s-13.974-4.005-17.2-4.638l-8 29.017z" fill="#8e3329"/><path d="m422.436 112.447a36.479 36.479 0 0 0 -13.492 14.664l40.378 41.336c7.509-3.212 11.252-10.579 12.658-20.527 0 0-12.88-19.473-39.544-35.473z" fill="#2b2b38"/><path d="m42.68 130.682 8.92-14.776s25.256 2.769 45.864 34.444c-.311 9.967-4.814 16.985-12.73 21.6.001-.001-10.058-24.672-42.054-41.268z" fill="#2b2b38"/><path d="m323.544 143.432a20.64 20.64 0 0 0 -5.369-25.806c-2.485 18.5-28.223 14.6-28.223 14.6l-29.082-5.115c-27.837-.932-37.954 15.432-41.609 26.522a22.294 22.294 0 0 1 -17.518 14.944c-18.675 3.107-36.264-3.621-43.654-6.541 11.938 16.284 39.243 29.147 80.57 15.765 46.465-15.046 71.441-9.045 84.885-34.369z" fill="#892121"/><g fill="#9b8181"><path d="m313.964 228.246a5.5 5.5 0 0 1 -5.306-4.064l-1.044-3.857a5.5 5.5 0 1 1 10.617-2.874l1.044 3.857a5.5 5.5 0 0 1 -5.311 6.938z"/><path d="m284.918 65.422a5.5 5.5 0 0 1 -4.477-8.689l4.505-6.331c1.637-2.3 1.291-5.012-.9-7.079-6-5.654-7.118-13.995-2.792-20.756l5.171-8.08a5.5 5.5 0 0 1 9.265 5.93l-5.17 8.083a5.173 5.173 0 0 0 1.073 6.824 16.107 16.107 0 0 1 2.316 21.459l-4.5 6.331a5.492 5.492 0 0 1 -4.491 2.308z"/><path d="m238.75 65.422a5.5 5.5 0 0 1 -4.477-8.689l4.5-6.331c1.637-2.3 1.291-5.012-.9-7.079-6-5.654-7.119-14-2.792-20.756l5.17-8.079a5.5 5.5 0 1 1 9.265 5.929l-5.164 8.083a5.172 5.172 0 0 0 1.072 6.824 16.1 16.1 0 0 1 2.317 21.459l-4.505 6.331a5.492 5.492 0 0 1 -4.486 2.308z"/><path d="m192.581 65.422a5.5 5.5 0 0 1 -4.477-8.689l4.5-6.331c1.637-2.3 1.291-5.012-.9-7.079-6-5.654-7.118-13.995-2.792-20.756l5.171-8.08a5.5 5.5 0 0 1 9.266 5.93l-5.166 8.083a5.173 5.173 0 0 0 1.073 6.824 16.107 16.107 0 0 1 2.316 21.459l-4.5 6.331a5.492 5.492 0 0 1 -4.491 2.308z"/></g><circle cx="199.233" cy="136.999" fill="#892121" r="5.712"/><circle cx="176.203" cy="134.194" fill="#892121" r="5.712"/><circle cx="190.597" cy="117.781" fill="#892121" r="5.712"/><path d="m256.533 128.966s-21.192 6.928-28.12 37.087c-2.6 11.309.019 18.779 4.3 23.7a21.992 21.992 0 0 0 26.6 4.8c9.1-4.685 21.879-14.046 45.225-15.883 0 0 13.485-2.142 11.789-14.82 0 0-6.737-15.83-33.327-5.053 0 0 11.427-9.048 6.944-26.573s-33.411-3.258-33.411-3.258z" fill="#d14343"/><path d="m276.035 168.992a5.5 5.5 0 0 1 -1.1-10.888c9.664-1.983 14.524-9.864 16.9-16.127a5.5 5.5 0 1 1 10.285 3.9c-4.741 12.5-13.61 20.671-24.974 23a5.491 5.491 0 0 1 -1.111.115z" fill="#892121"/><path d="m424.148 422.731c-9.766 6.673-23.065 2.6-28.118-8.1-11.282-23.881-37.575-33.605-52.825-37.342a260.457 260.457 0 0 0 -13.493 33.631l14.655 51.714c53.347 16.512 91.095-4.717 91.095-4.717a101.718 101.718 0 0 0 13.888-8.717 36.015 36.015 0 0 0 13.827-21.662 60 60 0 0 0 1.532-12.011c-.693-24.641-9.791-43.36-21.631-57.384 4.981 28.49-.665 52.109-18.93 64.588z" fill="#65777f"/><path d="m70.073 388.71a133.556 133.556 0 0 0 -23.134 22.19s-11 43.589 39.573 58.023c59.6 17.012 82.922-8.605 84.657-15.072 6.231-23.225-14.161-65.143-40.218-78.171s-60.878 13.03-60.878 13.03z" fill="#9eaeb7"/><path d="m359.8 446.385q-.105-.678-.211-1.347c-4.554-28.467-12.208-43.2-45.672-54.628-27.525-9.4-50.964 16.487-60.988 43.222 1.562 30.929 16.11 49.181 52.141 46.463 36.305 1.442 55.597-9.059 54.73-33.71z" fill="#9eaeb7"/><path d="m277.663 488.048h51.885a29.82 29.82 0 0 0 27.029-16.809c3-6.335 4.811-14.562 3.222-24.854-.07-.455-.143-.9-.215-1.346-9.476 24.649-39.052 28.3-59.7 27.6a23.8 23.8 0 0 1 -21.826-16.97c-4.78-15.537-21.139-25.633-21.139-25.633l-3.986 3.6a83.409 83.409 0 0 0 -4.722 18.52s-5.668 28.17 29.452 35.892z" fill="#65777f"/><path d="m149.24 457.958a16.415 16.415 0 0 1 -15.056 10.7c-26.871.471-88.721-4.244-87.244-57.76-9.8 12.006-19.02 28-19.084 45.783-.115 31.794 47.582 31.355 47.582 31.355h59.587a29.592 29.592 0 0 0 20.779-8.384 57.17 57.17 0 0 0 15.365-25.8 40.194 40.194 0 0 0 .892-14.026l-3.471-8.448s-12.584 8.622-19.35 26.58z" fill="#65777f"/><path d="m264.1 459.639a33.593 33.593 0 0 0 -1.322-17.206 57.06 57.06 0 0 0 -25.349-31.343 46.78 46.78 0 0 0 -48.823 1.046 75.446 75.446 0 0 0 -6.389 4.543c-13.438 28.631-11.131 50.1 22.724 57.222 24.359 8.214 43.866 2.875 59.159-14.262z" fill="#9eaeb7"/><path d="m229.8 488.041a34.911 34.911 0 0 0 34.293-28.4c-8.456 5.371-21.823 9.568-42.959 9.288-44.324-.587-42.02-36.58-38.91-52.244-9.371 7.437-18.221 18.274-21.815 33.773-9.064 39.085 28.322 37.587 28.322 37.587z" fill="#65777f"/></svg>