<svg id="FLAT" height="512" viewBox="0 0 500 500" width="512" xmlns="http://www.w3.org/2000/svg"><path d="m142.965 264.157s-3.294-45.572-52.161-65.338c-37.651-15.23-30-59.469-24.5-78.974a38.115 38.115 0 0 1 8.639-15.463 38.14 38.14 0 0 0 9.241-17.908l4.122-19.433a38.077 38.077 0 0 1 6.979-15.212c9.523-12.475 32.238-34.355 75.687-36.99a2.5 2.5 0 0 1 1.719 4.459c-8.124 6.544-19.406 19.834-11.61 39.51 6.115 15.434 19.643 10.327 31 2.126 0 0 29.395-21.892 62.887 7.208 10.922 9.49 23.713 6.543 35.992-1.739a41.739 41.739 0 0 1 31.894-6.5 71.574 71.574 0 0 1 12.277 3.844c24.159 9.883 42.278-2.439 51.063-25.806 0 0 1.5-12.42 16.563-11.97a1.476 1.476 0 0 1 .677 2.755c-4.058 2.342-8.874 7.752-10.651 20.2-3.089 21.62-16.311 47.1-47.811 41.152a43.214 43.214 0 0 0 -18.342.335c-12.889 3.163-32.656 11.322-39.816 32.087 0 0-4.2 16.332 21.814 14.582a1.791 1.791 0 0 1 1.185 3.216c-4.37 3.368-9.851 8.647-12.018 15.146-3.843 11.53-12.079 18.668-37.885 14.276s-32.944 11.53-33.493 31.3-4.941 48.317-51.062 47.219c.005-.005-17.016 29.645-32.39 15.918z" fill="#ffa757"/><path d="m145.71 155.443 17.29 17.62a21.886 21.886 0 0 1 3.2 26.517l-.313.527a21.893 21.893 0 0 0 -3.073 11.467l.47 36.66 19.766-13.726 1.223 21.592c-17.144 23.687-26.356 52.45-28.413 85.793-10.447 6.654-17.795 4.177-20.571-11.776l1.64-47.292-1.039-105.508a20.5 20.5 0 0 1 3.08-11.008z" fill="#d87155"/><path d="m149.9 106.149a46.906 46.906 0 0 0 -3.5 13.3 10.381 10.381 0 0 0 4.235 9.3l7.105 5.24a10.487 10.487 0 0 0 16.177-5.067c.7-2.109 1.391-4.539 2.021-7.328 2.872-12.722-7.39-23.477-18.312-21.725a10.279 10.279 0 0 0 -7.726 6.28z" fill="#8e3329"/><path d="m210.53 117.858-11.764 14.942a7.836 7.836 0 0 0 .038 9.742 12.948 12.948 0 0 0 15.371 3.744l3.6-1.6a8.94 8.94 0 0 0 4.975-10.631c-1.521-5.302-4.87-12.063-12.22-16.197z" fill="#8e3329"/><g fill="#ffa757"><path d="m350.464 123.394a39.8 39.8 0 0 1 11.891-7.64 16.9 16.9 0 0 1 16.926 2.4 27.407 27.407 0 0 1 6.168 6.758 9.005 9.005 0 0 1 -1.283 11.055c-4.913 5-14.884 10.695-31.61 2.1a9.064 9.064 0 0 1 -2.092-14.673z"/><path d="m207.025 35.351a5.5 5.5 0 0 1 -.6-10.967l7.16-.8a5.5 5.5 0 1 1 1.215 10.938l-7.16.8a5.56 5.56 0 0 1 -.615.029z"/><path d="m294.147 206.8h-6.365a5.5 5.5 0 0 1 0-11h6.365a5.5 5.5 0 0 1 0 11z"/><path d="m432.8 30.854h-3.15a5.5 5.5 0 0 1 0-11h3.15a5.5 5.5 0 0 1 0 11z"/></g><path d="m192.64 175.982a5.5 5.5 0 0 1 -2.54-10.382l5.007-2.6a5.5 5.5 0 1 1 5.075 9.759l-5.007 2.6a5.484 5.484 0 0 1 -2.535.623z" fill="#8e3329"/><path d="m165.2 308.338a40.179 40.179 0 0 1 5.311-19.964l14.181-24.766-.425-7.508-12.51 12.765a47.207 47.207 0 0 0 -13.375 29.966c-.945 14.426-4.058 33.3-13.8 35.322-4.226.878-7.2-.927-9.3-4.036l-2.562 73.983h32.48z" fill="#8e3329"/><path d="m143.578 485.166h53.666a43.634 43.634 0 0 0 25.6-8.3 43.633 43.633 0 0 1 25.6-8.3h100.691v-66.98h-124.635l-53.908-12.309h-30.734z" fill="#ffcec7"/><path d="m139.859 389.278 3.719 95.888h23.9c11.227-13.353.2-23.589.2-23.589 6.762-2.254 12.728-5.967 12.728-18.562s-7.838-16.123-7.838-16.123c5.936-3.915 7.584-7.714 7.584-7.714 9.668 9.915 25.2 3.972 25.2 3.972-7.46-8.241-12.734-19.167-16.424-29.686l-18.333-4.186z" fill="#e88b89"/><path d="m107.631 456.7h35.947a14.231 14.231 0 0 1 14.231 14.231 14.231 14.231 0 0 1 -14.231 14.231h-25.461a10.486 10.486 0 0 1 -10.486-10.486v-17.976a0 0 0 0 1 0 0z" fill="#ffcec7"/><path d="m107.631 431.343v25.357h47.363a14.23 14.23 0 0 0 14.231-14.231 14.193 14.193 0 0 0 -4.859-10.709c-17.507-2.426-41.231-4.274-56.735-.417z" fill="#ffcec7"/><path d="m156.773 371.316h-38.656a10.486 10.486 0 0 0 -10.486 10.484v17.976h47.363a14.23 14.23 0 0 0 14.231-14.231z" fill="#ffcec7"/><path d="m154.8 400.994-47.166 2.748v21.166l47.058 1.717c7.86 0 13.57-4.849 13.57-12.708-.003 0-.862-13.139-13.462-12.923z" fill="#ffcec7"/><path d="m137.514 434.491s13.576 2.82 26.843-2.718a14.158 14.158 0 0 0 -9.363-3.532 14.232 14.232 0 0 0 0-28.463 14.23 14.23 0 0 0 14.231-14.231v-14.231h-12.452a19.259 19.259 0 0 0 -19.259 19.259z" fill="#e88b89"/><path d="m205.351 423.15 19.149-21.563a60.317 60.317 0 0 1 -17.331-20.087 19.451 19.451 0 0 0 -17.161-10.185h-22.348a17.472 17.472 0 0 0 -17.318 17.623v37.943s26.078 1.244 26.893-24.051c0 .001 7.335 19.905 28.116 20.32z" fill="#ffcec7"/><path d="m107.631 395.494v8.248c13.423.637 25.966 1.065 36.952.279v-8.492c-10.442-.736-22.674-.536-36.952-.035z" fill="#e88b89"/><path d="m107.631 424.908v6.435c13.423.422 25.966.645 36.952.018v-6.254c-10.442-.591-22.674-.528-36.952-.199z" fill="#e88b89"/><path d="m166.68 454.346c-15.033-2.375-34.429-1.616-59.049-.7v6.114c29.943 1.325 47.921.934 58.193-.354 3.569-.447 4.385-4.506.856-5.06z" fill="#e88b89"/></svg>