<svg id="FLAT" height="512" viewBox="0 0 500 500" width="512" xmlns="http://www.w3.org/2000/svg"><path d="m466.737 459.531a5.486 5.486 0 0 1 -4.226-1.978l-356.194-427.099a5.5 5.5 0 0 1 8.448-7.045l356.193 427.1a5.5 5.5 0 0 1 -4.221 9.023z" fill="#2b2b38"/><path d="m300.578 138.237c39.822 28.463 158.66 134.292 154.858 303.363-.158 7.043 3.626 13.612 8.194 18.974l7.55 8.864s27.156-118.338-48.114-235.96c0 0-38.377-91.26-110.142-133.811l-10.941 6.581c-8.589 5.165-9.559 26.162-1.405 31.989z" fill="#8e3329"/><path d="m364.39 124.727-20.375-20.071c-37.592-33.42-125.154-95.707-245.56-83.87 0 0 7.188 23.221 47.548 21.562 34.463-1.416 109.239 25.789 168.908 71.635 39.582 8.52 57.186 44.215 73.626 81.346l34.529 38.149 5.156-7.089a15.417 15.417 0 0 0 .231-17.817c-11.805-17.13-38.714-55.172-64.063-83.845z" fill="#d87155"/><path d="m343.934 139.1 25.239 30.1 14.507-21.378c-6.35-7.972-12.87-15.836-19.29-23.1a234.883 234.883 0 0 0 -20.377-20.069l-29.106 9.329a317.634 317.634 0 0 1 29.027 25.118z" fill="#8e3329"/><path d="m242 379.25s35.195 3.889 59.048 33.8 12.336 45.5 3.32 56.4z" fill="#87a574"/><path d="m225.786 393.172s-9.858 34.068 16.313 65.571l14.911-1.3-5.7 13.412s28.5 22.04 51.327.116z" fill="#87a574"/><path d="m374.642 135.112.3-.086a19.98 19.98 0 0 0 -1.572-8.931 13.919 13.919 0 0 0 -19.675-6.3 133.58 133.58 0 0 0 -24.146 17.828c-8.974 17.548 39.574 68.646 55.606 68.785 6.38-5.39 15.426-11.627 26.168-15.117 10.329-3.355 9.636-18.559-1.029-20.61-.338-.064-.685-.121-1.043-.168 0 0 3.012-17.692-13.175-19.2-.003.004-2.964-16.596-21.434-16.201z" fill="#cdb859"/><path d="m24.049 141.3 19.893 40.377 247.4 287.746a8.608 8.608 0 0 0 11.293 1.556 8.6 8.6 0 0 0 2.049-12.426c-32.409-41.964-196.629-252.359-280.635-317.253z" fill="#f4bd87"/><path d="m163.906 220.192s-35.195-3.889-59.049-33.8-12.336-45.5-3.32-56.4z" fill="#87a574"/><path d="m180.116 206.27s9.859-34.07-16.316-65.57l-14.91 1.3 5.7-13.413s-28.5-22.04-51.327-.115z" fill="#87a574"/><path d="m381.854 458.147-19.893-40.378-247.401-287.745a8.606 8.606 0 0 0 -11.292-1.556 8.6 8.6 0 0 0 -2.049 12.426c32.409 41.96 196.629 252.354 280.635 317.253z" fill="#f4bd87"/><g fill="#896d2c"><path d="m365.525 139.851c-13.193 7.795-24.406 18.737-33.839 32.506l-5.18-7.207s15.668-22.234 37.657-28.448a1.73 1.73 0 0 1 1.362 3.149z"/><path d="m387 155.418c-13.659 6.947-25.539 17.16-35.822 30.306l-4.715-7.519s17.04-21.2 39.377-26.016a1.73 1.73 0 0 1 1.16 3.229z"/><path d="m404.524 174.92c-14.347 5.387-27.288 14.216-38.968 26.138l-3.85-8s19.29-19.176 42.023-21.478a1.729 1.729 0 0 1 .795 3.34z"/><path d="m377.815 186.315c-18.764 2.752-16.109-18.128-16.109-18.128-21.843 3.648-15.947-18.5-15.947-18.5-14.2 2.663-16.308-6.158-16.21-12.056-2.975 2.761-5.987 5.8-8.95 9.153a14 14 0 0 0 7.1 22.843l.217.051s-.352 13.639 18.093 12.886c0 0-4.141 15.433 13.551 16.563 0 0-1.288 9.8 5.608 14.655a10.554 10.554 0 0 0 13.525-1.394c1.654-1.678 3.84-3.755 6.462-5.971-11.945-2.458-7.34-20.102-7.34-20.102z"/></g></svg>