<svg id="flat" height="512" viewBox="0 0 500 500" width="512" xmlns="http://www.w3.org/2000/svg"><path d="m228.78 83.136c11.9-24.2-18.114-32.764-26.519-9.593a51.168 51.168 0 0 0 -3 14.2c-.249 2.921-.77 7.415.192 10.743-1.229 2.52 1.928 5.342 4.7 4.082 9.337-4.237 19.867-9.939 24.627-19.432z" fill="#bfcc7f"/><path d="m236.729 126.9c11.109-22.065-16.464-30.133-23.983-8.722-2.287 6.862-3.458 14.236-2.314 21.511-1.221 2.553 1.9 5.256 4.691 4.065 8.168-3.486 17.399-8.735 21.606-16.854z" fill="#bfcc7f"/><path d="m195.9 28.187c-3.418-7.854-11.229-11.4-19.376-8.033-8.907 3.679-9.235 14.155-7 22.195 2.638 9.661 12.11 25.205 21.421 29.7 1.418 2.171 5.234 2.487 5.778-.68 1.216-2.925 2.017-11.826 2.239-16.747.438-8.673.464-18.33-3.062-26.435z" fill="#bfcc7f"/><path d="m249.073 154.373c-3.038-8.141-13.789-7.2-18.612-1.111-6.52 7.712-8.326 19.934-8.584 29.664.782 7.356 14.442-1.285 17.268-3.69 6.663-5.4 12.583-16.078 9.928-24.863z" fill="#bfcc7f"/><path d="m202.808 101.545c2.694-.457 3.064-4.54 1.02-5.876-1.042-3.265-4.048-6.664-5.82-8.9a49.517 49.517 0 0 0 -11.719-11.041c-7.659-4.943-18.538-5.782-24.142 2.8-5.947 9.113 2.377 17.872 10.353 21.639 9.134 4.314 20.592 3.026 30.308 1.378z" fill="#bfcc7f"/><path d="m213.849 142.9c2.684-.521 3.062-4.479 1.034-5.847-.915-2.777-3.334-5.559-4.875-7.528a44.369 44.369 0 0 0 -10.265-9.819c-7-4.635-17.106-5.4-22.131 2.64-5.278 8.441 2.675 16.352 9.975 19.622 7.845 3.511 17.982 2.537 26.262.932z" fill="#bfcc7f"/><path d="m208.717 187.179c3.666.674 20.559.233 17.37-6.257-5.415-7.714-12.838-15.722-21.744-19.371-7.327-3.042-17.453-.064-17.143 9.217 1.837 9.278 12.84 15.312 21.517 16.411z" fill="#919951"/><path d="m237.99 243.452c-3.122-16.14-12.822-41.344-32.82-39.186a2.823 2.823 0 0 0 -1.366.171 2.655 2.655 0 0 0 -1.423.677c-7.31 4.257-4.22 16.912.209 22.354 3.257 4 7.814 6.256 12.5 8.173 6.757 2.764 12.656 5.448 17.887 10.73 2.223 2.25 5.558-.099 5.013-2.919z" fill="#919951"/><path d="m317.57 116.345c-5.831-14.337-24.917-9.412-34.7-2.4a40.489 40.489 0 0 0 -14.216 18.752c-.792 2.165 1.62 4.316 3.69 3.691 7.367-2.224 14.823-2.359 22.447-1.907 5.28.313 10.655 1.128 15.532-1.48 5.702-3.055 9.29-10.317 7.247-16.656z" fill="#bfcc7f"/><path d="m278.089 105.658c-2.966-10.846-11.421-24.483-24.558-19.4-6.962 3.324-9.342 12.444-6.2 19.159 2.36 5.044 7.172 8.433 11.01 12.3a57.37 57.37 0 0 1 11.37 15.426 3.019 3.019 0 0 0 5.181 0c4.196-8.214 5.713-18.572 3.197-27.485z" fill="#bfcc7f"/><path d="m337.384 83.574c-2.28-13.8-20.022-13.14-30.155-8.412a36.364 36.364 0 0 0 -16.408 15.07c-.992 1.773.218 4.827 2.591 4.515 7.3-.962 14.326.063 21.458 1.687 4.664 1.063 9.293 2.312 13.948.494a13.555 13.555 0 0 0 8.566-13.354z" fill="#bfcc7f"/><path d="m349.1 39.086c-8.726-10.546-23.093-2.172-29.989 6.22a36.463 36.463 0 0 0 -8.092 21.643c-.07 2.154 2.649 3.9 4.515 2.59 5.466-3.839 11.516-6.091 17.926-7.829 4.722-1.28 9.867-2.017 13.543-5.56 4.408-4.25 5.828-11.912 2.097-17.064z" fill="#bfcc7f"/><path d="m303.494 67.423c-1.082-10.893-7.922-24.12-20.423-20.489a13.686 13.686 0 0 0 -7.843 15.175c1.018 5.117 4.9 8.939 7.866 13.017a53.233 53.233 0 0 1 8.373 15.858c.8 2.64 4 2.754 5.483.717a35.256 35.256 0 0 0 6.544-24.278z" fill="#bfcc7f"/><path d="m284.6 196.388c-8.272-12.206-24.871-5.443-33.783 2.823a39.542 39.542 0 0 0 -11.61 21.025 3.042 3.042 0 0 0 4.407 3.388c6.991-3.442 14.579-4.712 22.271-5.465 5.1-.5 10.152-.7 14.382-3.933 5.333-4.049 7.433-11.839 4.333-17.838z" fill="#bfcc7f"/><path d="m299.226 154.134c-6.358-13.9-25.018-8.026-34.316-.231a39.942 39.942 0 0 0 -12.991 20.2c-.533 2.007 1.48 4.585 3.69 3.691 7.42-3 15.136-3.828 23.078-4.045 5.264-.144 10.563.013 15.066-3.142a14.634 14.634 0 0 0 5.473-16.473z" fill="#bfcc7f"/><path d="m272.712 261.839c20.721-22.6-16.135-48.563-35.3 4.361a3.189 3.189 0 0 0 2.621 5.668c10.894-2.989 23.577-2.545 32.679-10.029z" fill="#919951"/><path d="m279.208 291.982c-15.405-14-38.253 11.852-38.2 28.179-1.507 2.055-.1 6.167 2.977 4.926 5.372-2.166 10.266-4.191 16-5.332 5.553-1.107 11.261-2.228 15.962-5.59 6.967-4.98 10.32-15.765 3.261-22.183z" fill="#919951"/><path d="m166.932 211.659c-12.108 2.18-9.645 20.4-5.522 28.2 5.613 10.821 17.965 14.247 27.745 20.128 1.212 3.324 6.762 2.392 6.695-1.356-.259-15.844-8.794-48.137-28.918-46.972z" fill="#bfcc7f"/><path d="m218.842 246.062c-19.253-7.839-22.453 28.72-12.349 37.951a1.692 1.692 0 0 0 1.545.476c3.095-.282 4.709-1.718 6.948-3.947 2.885-2.87 6.173-5.585 8.352-9.061 4.385-6.998 3.717-21.236-4.496-25.419z" fill="#bfcc7f"/><path d="m148.509 251.273c-5.273 5.861-2.429 16.846 1.947 22.371a26.2 26.2 0 0 0 11.192 8.188 3.643 3.643 0 0 0 6.739-.6c1.715-4.454 4.2-8.8 4.112-13.7a22.8 22.8 0 0 0 -4.211-12.176c-4.247-6.041-13.796-10.731-19.779-4.083z" fill="#bfcc7f"/><path d="m146.86 276.976a2.032 2.032 0 0 1 -.41-.522 3.98 3.98 0 0 1 .3.281 2.424 2.424 0 0 0 -.6-.8c-1.128-2.422-3.822-3.625-5.924-5.064l-12.419-8.48c-8.5-5.8-21.769-13.3-31.054-4.907-11.574 10.459 3.074 27.967 14.277 30.93 7.405 1.958 14.585-.923 21.566-3.192 4.424-1.438 9.169-2.712 13.247-4.991a2.64 2.64 0 0 0 1.017-3.255zm-3.156 3.367c.653.185.788.484 0 0z" fill="#bfcc7f"/><path d="m146.752 276.735a2.6 2.6 0 0 1 .108.241c.12.089.116-.002-.108-.241z" fill="#bfcc7f"/><path d="m159.694 280.1c-11.793.116-25.756 12.092-21.812 24.577 3.448 8.486 14.3 6.988 20.282 2.452a23.113 23.113 0 0 0 7.481-9.533c1.918-4.816.885-10 .661-15.021-.165-3.702-4.729-4.49-6.612-2.475z" fill="#919951"/><path d="m197.7 310.624c1.6-5.067.214-10.416-.251-15.554-.341-3.755-5.1-4.477-6.818-2.331a28.731 28.731 0 0 0 -13.576 5.1c-6.362 4.521-12.693 15.521-8.361 23.164 8.16 12.479 26.067.697 29.006-10.379z" fill="#919951"/><path d="m223.643 322.21a31.7 31.7 0 0 0 -16.87-.668c-8.21 2.019-19.452 10.776-17.6 20.337 4.184 16.111 28.076 10.043 34.765-1 2.733-4.347 3.529-9.658 5.059-14.478 1.089-3.439-2.827-5.426-5.354-4.191z" fill="#919951"/><path d="m83.984 369.676c11.171-.107 26.715-4.666 33.294-14.377 1.509-2.228-.727-4.521-2.938-4.361-5.833-4.428-14.884-7.28-21.773-7.708-8.043-.5-21.639 2.876-24.8 11.4-3.847 10.391 8.162 15.122 16.217 15.046z" fill="#919951"/><path d="m85.381 400.4c-4.9-9.293-10.993-20.933-20.623-25.487-7.775-3.678-21.18-2.443-20.957 8.724.552 14.945 27.273 24.608 39.933 23.3 3.633-.427 4.205-5.366 1.647-6.537z" fill="#919951"/><path d="m134.037 401.26c-2.908-9.571-6.605-21.691-14.912-27.617-6.939-4.95-20.017-5.441-20.951 5.554-.727 14.235 21.022 26.555 33.474 27.663 3.294.225 4.079-3.598 2.389-5.6z" fill="#919951"/><path d="m80.135 334.726c2.259 2.189 6.993.346 5.81-3.313-4.182-12.928-11.616-29.524-24.262-36.057-21.436-9.134-30.89 25.8-2.772 34.861a118.983 118.983 0 0 0 21.224 4.509z" fill="#bfcc7f"/><path d="m112.578 353.593c.582 2.071 3.181 3.666 4.875 1.558 7.306-9.092 7.257-25.024 4.191-35.734-1.286-4.494-3.415-9.519-7.684-11.946-3.691-2.1-8.81-2.067-12.053.845-11.793 13.284-2.2 35.872 10.671 45.277z" fill="#bfcc7f"/><path d="m143.064 378.234c-.642 2.708 3.254 3.877 5.119 2.378 5.083-4.085 7.833-11.769 9.573-17.86a45.834 45.834 0 0 0 1.656-16.394c-.661-7.906-6.482-19.62-16.444-14.646-8.039 4.013-10.257 17.345-9.213 25.3.896 6.838 4.445 15.738 9.309 21.222z" fill="#bfcc7f"/><path d="m195.983 368.9c-12.258-15.366-26.674 6.573-27.339 18.984-.718 7.123.476 16.765 3.828 23.524a2.943 2.943 0 0 0 4.227 3.458c6.018-2.693 10.654-9.231 14.079-14.666 5.068-8.468 10.495-21.954 5.205-31.3z" fill="#bfcc7f"/><path d="m221.567 415.157c-12.258-15.366-26.674 6.573-27.338 18.984-.718 7.123.476 16.766 3.828 23.524a2.943 2.943 0 0 0 4.227 3.458c6.018-2.693 10.654-9.231 14.079-14.666 5.067-8.472 10.494-21.957 5.204-31.3z" fill="#919951"/><path d="m46.258 411.519c-13.5 3.238-30.475 9.167-38.937 20.791-6.8 9.342-.777 20.69 10.42 22.4 20.374 2.192 26.808-21.6 31.447-36.946 2.876-1.82 1.012-7.189-2.93-6.245z" fill="#919951"/><path d="m83.057 401.48c-11.257 6.637-24.668 25.02-21.331 38.62 3.179 11.221 15.874 8.866 21.82 1.494 7.654-9.494 5.654-24.176 4.326-35.654 1.217-2.488-1.647-6.14-4.815-4.46z" fill="#919951"/><path d="m136.827 403.756c-13.228 1.553-34.777 14.363-35.14 29.137.148 11.685 13.788 12.126 21.339 7.068 9.561-6.405 13.185-20.105 16.254-30.75 1.587-2.061.788-5.751-2.453-5.455z" fill="#919951"/><path d="m180.353 423.471c-12.811-3.122-39.209 1.618-43.217 16.272-2.8 11.665 11.561 15.167 20.064 12.161 9.889-3.5 17.361-13.664 23.556-22.035 2.477-1.118 2.959-5.469-.403-6.398z" fill="#919951"/><g fill="#bfcc7f"><path d="m346.956 219.891c-.184 2.885 4.695 3.876 5.991.662-.546 1.355.813-1.388.966-1.734a114.578 114.578 0 0 0 5.883-20.148c1.77-9.447 2.286-21.642-6.122-28.3-12.086-8.445-20.786 1.9-21.779 14.076-1.677 13.677 5.605 26.071 15.061 35.444z"/><path d="m317.505 241.7c4.452 3.413 10.635 4.539 15.864 6.22a33.73 33.73 0 0 1 12.833 6.925 2.683 2.683 0 0 0 5.235.665c1.973-7.434-4.444-20.148-8.522-26.477-19.148-27.633-43.033-3.28-25.41 12.667z"/><path d="m327.021 293.821a31.252 31.252 0 0 1 10.8 7.967 2.678 2.678 0 0 0 5.217 1.025c2.695-7.169-2.138-20.636-5.438-27.4-4.327-8.219-14.452-18.82-24.528-13.044-8.7 4.986-8.65 16.927-1.547 23.308 4.275 3.842 10.375 5.735 15.496 8.144z"/><path d="m306.221 340.635c4.813 3.646 8.269 6.79 11.067 11.762-.985 3.232 3.028 4.592 4.825 2.221 4.324-6.474 2.349-22.1.147-29.428-2.669-8.281-9.736-19.355-20.007-16.8-9.778 2.434-12.827 13.937-7.755 21.969 2.741 4.341 7.724 7.246 11.723 10.276z"/><path d="m286.96 389.847c5.132 3.216 9.036 6.083 12.324 10.878-.61 2.864 3.388 4.582 4.894 1.991 3.767-6.649.706-20.657-1.661-27.756-11.276-30.844-39.735-14.874-28.469 4.966 3.077 4.538 8.391 7.088 12.912 9.921z"/><path d="m488.925 162.124c-5.937-3.067-14.108-1.323-19.983.957-13.533 5.251-21.428 17.7-26.518 30.749-2.359 1.357-1.91 5.737 1.405 5.6-.308.013-.393.027-.333.042a38.666 38.666 0 0 0 7.932-.28c15.741-2.1 38.813-4.137 43.8-22.421 1.198-5.657-1.015-11.915-6.303-14.647z"/><path d="m483.455 269.324c-5.937-3.067-14.108-1.323-19.983.957-13.533 5.251-21.428 17.7-26.518 30.749-2.36 1.357-1.91 5.737 1.4 5.6-.308.013-.393.027-.333.042a38.678 38.678 0 0 0 7.933-.28c15.74-2.1 38.812-4.137 43.8-22.421 1.202-5.657-1.011-11.915-6.299-14.647z"/><path d="m398.711 210.157c3.245 6.064 5.66 11.1 5.98 17.762-2.075 2.149.579 5.81 3.211 4.229 3.836-2.449 5.515-5.654 7.426-9.765 6.626-12.163 12.616-40.6-5.68-45.294-10.306-2.088-18.574 7.208-17.662 17.145.53 5.78 4.048 10.921 6.725 15.923z"/></g><path d="m311.776 420.61a66.257 66.257 0 0 0 -19.068 14.8c-1.269-12.105-8.653-32.22-23.991-29.348-9.68 2.54-12.622 14.1-7.29 21.96 3.076 4.538 8.39 7.088 12.911 9.921 5.132 3.216 9.036 6.083 12.324 10.878-.607 2.869 3.386 4.579 4.894 1.991a13.778 13.778 0 0 0 1.746-6.677 3.751 3.751 0 0 0 1.512-1.26c5.618-1.331 10.268-.977 16.255.166 5.42 1.035 11.487 3.008 17.053 2.055 23.747-6.151 13.929-39.154-16.346-24.486z" fill="#919951"/><path d="m348.428 375.038c-7.619.588-22.708 3.534-27.544 9.6a2.69 2.69 0 0 0 3.614 3.951c6.519 1.1 11.23 4.3 16.784 8.115 4.51 3.1 9.009 6.922 14.615 7.652 23.37 1.209 25.003-31.062-7.469-29.318z" fill="#919951"/><path d="m382.551 342.977c-7.619.589-22.709 3.535-27.544 9.6a2.69 2.69 0 0 0 3.614 3.951c6.519 1.1 11.23 4.3 16.783 8.115 4.511 3.1 9.009 6.922 14.616 7.651 23.369 1.211 25.006-31.06-7.469-29.317z" fill="#919951"/><path d="m424.061 315.661c-7.619.588-22.709 3.535-27.544 9.6a2.69 2.69 0 0 0 3.614 3.951c6.519 1.1 11.23 4.294 16.783 8.114 4.511 3.1 9.009 6.923 14.616 7.652 23.37 1.21 25.006-31.061-7.469-29.317z" fill="#919951"/><path d="m351.519 254.132c.054-.217.1-.425.153-.635 7.42-7.071 18.965-6.725 27.22-12.382 7.163-5.494 8.349-17.058.245-22.383-8.646-5.68-18.6 2.007-23.728 8.9a57.828 57.828 0 0 0 -7.957 16.217c-1.22 3.618-2.04 6.59-1.018 10.287a2.658 2.658 0 0 0 5.085-.004z" fill="#bfcc7f"/><path d="m457.869 224.161c-2.787-11.085-17.137-12-26.291-10.312-6.052 1.118-11.79 3.616-17.255 6.377-3.757 1.9-6.78 3.621-8.9 7.284a2.686 2.686 0 0 0 4.258 3.173c6.432.2 11.412 2.462 17.383 5.425 4.826 2.394 9.933 5.669 15.5 5.751 9.347.141 17.736-8.029 15.305-17.698z" fill="#bfcc7f"/><path d="m403.386 250.916c-7.613.656-22.675 3.738-27.466 9.841a2.69 2.69 0 0 0 3.632 3.938c6.5 1.044 11.256 4.178 16.833 7.938 4.532 3.055 9.077 6.843 14.682 7.53 23.444 1.009 24.721-31.29-7.681-29.247z" fill="#bfcc7f"/><path d="m354.229 304.926c-6.9 3.49-19.984 12.631-21.889 20.28a2.687 2.687 0 0 0 4.927 1.986c5.618-1.331 10.268-.977 16.255.166 5.419 1.035 11.487 3.008 17.053 2.055 23.747-6.152 13.925-39.155-16.346-24.487z" fill="#bfcc7f"/><path d="m411.589 289.281c-6.946-4.477-15.912-.325-18.414 7.194-2.542 9.264 3.095 19.178.307 28.447-2.823 1.777-.847 5.25 2.012 4.9 3.386-.52 5.634-2.611 8.03-4.951 8.588-7.671 20.332-26.451 8.065-35.59z" fill="#bfcc7f"/><path d="m444.359 192.2a416.932 416.932 0 0 0 -99.19 107.776 295.547 295.547 0 0 0 6.787-46.42c.832-10.625 2.121-21.731 1.489-32.383-.215-3.633-6.183-4.995-6.79-.919-2.214 20.268-1.9 40.858-5.423 61.019a234.216 234.216 0 0 1 -12.376 46.51c-24.6 45.964-41.174 96.671-46.6 148.635-.427 4.166 5.919 4.024 6.445 0 2.6-35.413 20.484-70.265 32.752-84.427 32.018-38.512 77.216-62.422 120.435-86.008 3.972-2.225.465-8.111-3.549-6.071-50.163 26.129-103.259 56.416-134.139 105.337 24.852-81.372 75.337-155.528 143.636-207.1 3.491-2.641.064-8.627-3.477-5.949z" fill="#4f424c"/><path d="m243 236.176c7.274-52.132 37.489-130.679 74.261-168.66 3.174-3.085-1.687-7.944-4.855-4.855-37.474 38.617-66.991 115.976-75.365 168.972-8.751-55.262-21.941-110.048-40.541-162.867-1.433-4.036-7.854-2.359-6.486 1.788 30.986 92.446 48.979 189.163 51.286 286.691a299.077 299.077 0 0 0 -14.549-43.317 299.741 299.741 0 0 0 -24.634-46.734c-1.873-2.9-3.783-5.778-5.777-8.594-1.792-2.529-3.272-5.412-6.187-6.647-1.42-.6-3.632.043-3.456 1.983.515 5.665 6.228 11.155 9.275 15.851a297.012 297.012 0 0 1 16.728 29.341c-21.052-13.13-45.085-23.187-70.04-24.877-4.152-.195-4.051 6.052 0 6.4 15.884 1.359 31 6.379 45.456 12.925a149.687 149.687 0 0 1 17.583 9.071c5.626 3.507 9.76 7.926 14.359 12.4a307.654 307.654 0 0 1 19.842 67.316c.694 3.759 1.134 7.746 1.743 11.663q-.351 42.081-4.439 84c-.407 4.145 6.05 4.1 6.469 0 7.655-73 6.11-146.473-2.552-219.094.269-7.605.908-15.214 1.879-22.756z" fill="#4f424c"/><path d="m198.874 445.359c-23.04-51.253-68.357-90.321-117.074-116.632-3.7-1.621-6.926 3.411-3.254 5.566 37.218 21.844 72.676 48.541 97.39 84.4-30.524-21.806-71.44-22.726-106.8-14.241-9.336 2.293-20.953 5.13-28.775 11-2.191 1.644-1.05 5.968 2.05 4.862 7.826-2.792 15.164-6.284 23.262-8.427 42.621-11.316 98.119-8.566 124.711 31.624 5.527 10.925 7.91 22.811 11.46 34.392 1.065 3.356 6.691 2.971 6.422-.869-.872-10.92-5.266-21.634-9.392-31.675z" fill="#4f424c"/></svg>