<svg id="flat" height="512" viewBox="0 0 500 500" width="512" xmlns="http://www.w3.org/2000/svg"><g fill="#4f424c"><path d="m387.093 349.4c-5.7 3.7-9.8 10.757-13.656 16.23-12.693 18.345-23.875 39.188-24.13 61.982-.015 2.681 4.333 3.445 4.819.652 3.449-21.487 12.422-41.626 24.92-59.356 3.7-5.433 9.013-10.818 11.264-17.035.647-1.79-1.669-3.477-3.217-2.473z"/><path d="m384.176 355.44a41.537 41.537 0 0 0 4.369 13.133 5.21 5.21 0 0 0 4.909 2.751c3.109-.262 4.3-3.278 5.154-5.918-.115 4.535.815 9.864 3.909 12.068 6.811 4.849 8.276-4.387 8.276-4.387 1.15 6.743 5.34 15.616 9.982 20.639 5.578 6.036 11.442 2.177 11.245-.156-1.267-14.973-8.757-24.392-16.2-33.052-5.848-6.806-15.505-10.054-24.882-11.729a5.8 5.8 0 0 0 -6.762 6.651z"/><path d="m358.791 233.013c2.669 3.337 6.541 18.07-1.5 16.206a9.776 9.776 0 0 1 -3.485-2.284 96.986 96.986 0 0 1 -13.506-14.935c-1.115 10.544-12.331 14.1-14.446-3.516a36.724 36.724 0 0 1 2.08-17.3c1.943-3.748 20.622 5.216 30.857 21.829z"/><path d="m362.276 140.158c-4.538 118.976-.612 237.493-6.623 356.287l-14.907.7c2.271-117.312 9.375-234.73.934-351.949z"/><path d="m327.965 314.638c12.634 17.935 15.409 36.7 16.792 58.006.21 2.163 3.716 3.095 4.144.56 1.93-11.446-.087-24.318-3.572-35.3-2.91-9.164-7.111-18.948-14-25.868-1.681-1.69-4.723.517-3.367 2.6z"/><path d="m330.963 251.542c1.27 3.741 5.8 5.508 8.659 8.027a53.117 53.117 0 0 1 9.537 10.911 52.292 52.292 0 0 1 5.949 12.4c1.394 4.333 1.422 9.272 3.484 13.315 1.061 2.081 3.986 1.326 4.651-.608 2.372-8.648-3.985-21.843-8.687-29.105-3.664-5.437-15.165-19.021-22.168-17.447a2.056 2.056 0 0 0 -1.425 2.511z"/><path d="m329.391 404.943c2.274 4.308 7.523 7.42 10.729 11.17a69.883 69.883 0 0 1 15.041 30.143c1.1 4.881.525 10.683 2.735 15.174a2.617 2.617 0 0 0 4.494 0c2.346-5.021.629-11.8-.526-17.023a74.031 74.031 0 0 0 -16.026-31.91c-3.375-3.912-8.373-10.111-13.664-11.175a2.5 2.5 0 0 0 -2.783 3.621z"/><path d="m230.526 140.158q-4.208 178.464-.586 357l-12.723-.006c1.4-117.311 5.8-234.676.577-351.949z"/><path d="m220.451 189.651c16.486 21.485 25.068 33.266 25.653 61.485.137 2.977 4.939 4.007 5.495.744 2.186-12.818-1.143-26.313-6.733-37.893-2.823-5.849-16.171-26.318-21.994-28.494-2.574-.961-3.813 2.452-2.421 4.158z"/><path d="m309.285 259.9c3.183-7.748 4.181-16.114 7.854-23.8a76.717 76.717 0 0 1 14.28-20.557c2.779-2.858-1.591-7.237-4.377-4.378a78.072 78.072 0 0 0 -15.868 23.261c-3.264 7.511-6.655 17.177-5.094 25.47.339 1.8 2.656 1.336 3.205 0z"/><path d="m284.676 376.976c-5.448 2.021-9.685 7.95-13.137 12.407a80.791 80.791 0 0 0 -14.851 32.706c-1.55 7.216-3.27 15.473-1.711 22.761.523 2.444 3.836 2.036 4.555 0 2.335-6.616 2.284-14.058 3.787-20.933a84.658 84.658 0 0 1 5.347-16.839 76.288 76.288 0 0 1 8.065-13.688c3.163-4.309 8.371-8.2 10.5-13.1.69-1.589-.489-4.082-2.551-3.317z"/><path d="m169.6 140.158q-4.209 178.464-.586 357l-12.724-.006c1.4-117.311 5.8-234.676.577-351.949z"/><path d="m133.138 299.963c9.666 11.967 17.5 24.342 21.839 39.213 2.471 8.47 3.218 17.308 5.509 25.8.608 2.253 3.852 1.7 3.963-.536a90.42 90.42 0 0 0 -27.274-68.51c-2.7-2.608-6.3 1.235-4.037 4.037z"/><path d="m158.965 386.635c17.435 17.736 21.764 26.435 26.416 50.848.586 2.6 4.188 1.783 4.392-.594 1.7-19.81-11-43.615-27.711-54.269-2.54-1.62-4.971 1.926-3.1 4.015z"/><path d="m163.275 384.3a2.935 2.935 0 0 0 -3.826-2.118 54.253 54.253 0 0 0 -20.522 13.154c-3.047 2.773-4.709 8.185.165 9.651 5.579 1.065 10.626-3.687 13.508-7.985.612 2.437-.147 5.549 1.939 7.041a3.491 3.491 0 0 0 3.365.278c5.696-3.241 6.707-14.256 5.371-20.021z"/><path d="m160.2 246.377c-.918 5.332 4.717 12.543 7.057 17.182 6.386 12.444 12.23 25.33 15.045 39.1 1.707 8.176 1.628 16.4 2.83 24.583.348 2.373 4.166 2.218 4.643 0 4.108-22.388-6.318-45.441-15.924-65.078-1.6-3.142-3.241-6.259-4.869-9.385-1.446-2.777-2.469-6.3-5.38-7.789-1.207-.617-3.132-.179-3.4 1.383z"/><path d="m199.521 342.164c6.539-13.422 9.031-29.747 22.414-38.612 1.658-1.148 1.609-3.987-.592-4.526-10.887-2.172-19.651 21.554-22.926 29.572-1.388 3.8-3.2 8.4-2.741 12.525.207 1.877 2.773 3 3.845 1.041z"/><path d="m261.068 349.593c2.457-22.092 11.455-32.936 29.733-44.31 2.667-1.914 1.2-6.851-2.394-5.679-19.617 7.86-32.407 29.228-32.842 49.989-.117 3.6 5.149 3.452 5.5 0z"/><path d="m274.661 249.782c-11.5 10.109-20.9 35.375-20.6 50.551.368 2.785 4.015 3.561 5.022.679 1.28-3.666 1.412-7.812 2.334-11.611a107.8 107.8 0 0 1 3.927-12.627c3.326-8.806 8.683-15.874 13.276-23.935 1.472-2.582-1.836-4.877-3.961-3.057z"/><path d="m370.967 332.354c2.227-7.19 2.708-14.7 5.39-21.835 6.749-17.15 19.455-33.437 36.847-40.594 3.843-1.5 2.141-7.777-1.719-6.234-19.17 7.934-33.383 25.437-40.564 44.575-2.68 7.281-5.236 16.314-3.6 24.088.4 1.912 3.126 1.686 3.648 0z"/><path d="m399.677 205.25c-19.392 5.414-39.734 30.539-35.742 51.131.472 2.436 3.94 2.1 4.6 0 1.966-6.252 2.711-12.626 5.537-18.642a51.4 51.4 0 0 1 8.655-12.884c5.606-6.1 12.274-10.071 19.064-14.6 2.506-1.671 1-5.876-2.112-5.008z"/></g><path d="m454.592 301.276c-5.536-15.21-26.633-41.2-39.109-39.3 0 0-7.644 11.083 3.937 27.564l7.573-1.039 20.044 19.6c3.912-1.328 6.974-3.232 7.555-6.825z" fill="#7bad9e"/><path d="m410.718 145.238c8.482-4.468 2.862-10.752 1.065-13.239 3.151 1.218 11.518.11 7.735-8.614-3.731-8.6-29.069-31.537-29.069-31.537l-265.649 2.152c-14.576 11.747-24.855 24.246-21.707 38.924.919 5.343 7.485 8.27 12.079 5.943-1.079 2.176-4.9 10.48 1.923 11.616 3.032.5 6.593-4.1 8.078-5.22a163.257 163.257 0 0 0 -11.453 24.921 4.49 4.49 0 0 0 .717 4.422c1.96 2.282 4.739.957 6.8-.432a76.966 76.966 0 0 0 18.133-17.042c-1.339 3.054-4.176 7.1-1.831 9.652 8.422 9.159 20.379-8.692 24.677-14.546-2.282 4.108-4.114 10.243-.023 12.653a5.778 5.778 0 0 0 5.7-.112c3.843-2.119 5.351-6.331 8.183-9.3-1.341 2.294 1.475 6.442 4.674 6.18 3.733-.306 6.347-3.65 8.791-6.489a56.152 56.152 0 0 1 20.959-15.17c-1.918 5.875-2.484 13.351 1.083 18.682 4.748 5.239 13.754-5.447 16.352-9.218-1.568 3.309-.626 7.859 2.662 9.5 3.123 1.559 7.328-.845 8.027-4 1.055 4.179 7.394 6.509 11.66 4.361 4.948-2.493 4.924-7.83 6.912-13 1.407 6.636 6.134 12.8 9.294 18.8a10.6 10.6 0 0 0 3.275 3.781c7.064 4.69 11.552-3.033 10.53-8.727 1.821 3.307 5.792 5.581 9.544 4.705 5.436-1.27 11.169-13.889 11.169-13.889 3.839 7.31 3.447 14.489 9.721 19.857 9.063 7.688 13.121-4.832 14.717-9.128 2.86 8.109 12.672 6.354 13.744-.568 15.932 32.208 36.45 21.167 39.494 6.944a24.246 24.246 0 0 0 10.442 5.972 6.449 6.449 0 0 0 7.836-7.933c7.432 3.06 16.391 8.406 22.825 3.591 7.946-5.951-.306-18.561-9.069-24.492z" fill="#4f424c"/><path d="m200.04 213.109-5.356 60.047 4.113 57.552-2.485 19.083v80.238l-.134 4.874c-2.432 8.988-6.3 12.815-11.717 11.07.2-83.836-.433-166.086-1.773-248.957 9.029.749 15.155 5.628 17.352 16.093z" fill="#7bad9e"/><path d="m190.817 141.7-8.917 10.784q.426 22.309.785 44.532a48.593 48.593 0 0 1 17.2 17.824l.155-1.731c-2.302-17.485-7.062-54.141-9.223-71.409z" fill="#4d7a70"/><path d="m196.178 434.9a26.778 26.778 0 0 1 -11.721 11.07q-.061 25.136-.22 50.472h10.254z" fill="#4d7a70"/><path d="m198.9 312.441c-2.129-30.595-1.817-61.716 3.371-91.975a23.6 23.6 0 0 0 -.711-14.612c-2.082-5.706-2.651-12.136-3.059-18.276q-1.786-26.924-2.346-53.912c-6.116 1.891-14.249 8.3-14.249 8.3v10.515s9.537 0 8.436 25.9c-.3 7.107 1 11.655 1.681 18.74.717 6.478 4.32 14.331 3.636 20.989-2.426 1.031-5.014.862-7.581.785-1.734.01-2.579 2.556-.92 3.4a13.149 13.149 0 0 0 8.047.881c-5.021 34.086-4.055 43.359-3.233 86.509-.291 9.281 4.182 17.864 3.977 27.117-1.544 3.026-3.1 5.865-6.881 6.291-2.209.354-1.718 4.189.533 3.941a11.946 11.946 0 0 0 5.628-2.056c-1.324 5.557-2.492 11.154-2.283 16.911.351 33.351.251 67.308.311 90.96a29.653 29.653 0 0 0 -4.736.691c-2.509.407-1.891 4.46.595 4.4a35.888 35.888 0 0 0 4.157-.148c.459 13.481-.906 25.538 1.222 38.655h5.537c.569-50.639-3.183-84.047-1.992-124.773.312-10.666.7-22.359 3.768-32.769a19.116 19.116 0 0 0 -.345-11.874c-1.663-4.596-2.186-9.67-2.563-14.59z" fill="#4f424c"/><path d="m195.928 100.364-14.9.431q.472 20.646.874 41.175a83.324 83.324 0 0 1 14.257-8.3q-.351-16.653-.231-33.306z" fill="#4f424c"/><path d="m246.276 417.123c.046-58.427-.284-116.2-1-174.078 4.08-8.72 8.486-12.312 13.11-12.5-1.872 56.022-.908 138.634-.793 192.88-3.833 2.092-7.608.139-11.317-6.302z" fill="#7bad9e"/><path d="m258.39 230.54c1.035-3.493-4.2-74.7-4.39-80.068 0-8.743-10.248-3.524-10.181-.028q.894 46.46 1.457 92.6a62.72 62.72 0 0 1 13.114-12.504z" fill="#4d7a70"/><path d="m257.6 423.42a33.621 33.621 0 0 1 -11.324-6.3q-.03 39.431-.284 79.322h8.931s2.337-14.381 2.677-73.022z" fill="#4d7a70"/><path d="m260.647 312.441c-2.129-30.595-1.817-61.716 3.371-91.975a23.6 23.6 0 0 0 -.711-14.612c-2.082-5.706-2.651-12.136-3.058-18.276q-1.567-23.609-2.19-47.266c-2.731-1.134-11.177-1.711-14.446-.361l.206 10.492c15.287 2.169 10.705 58.495 11.489 67.052-1.945.781-3.974.13-5.966-.022-1.712-.108-2.881 2.43-1.475 3.562a9.411 9.411 0 0 0 7.362 1.6c-1.932 26.043-.9 52.067-.06 78.137-2.008.349-4.189-.042-6.073.807a2.052 2.052 0 0 0 -.413 3.2c1.684 1.487 4.321 1.55 6.587 1.319.123 8.211.068 16.434-.454 24.6a35.417 35.417 0 0 0 -8.786-5.459q.139 22.813.2 45.7c3.723 3.844 7.11 7.9 8.449 13.653 3.081 14.47-.64 30.11-.246 44.761-1.673.237-3.472.092-5.08.624-1.712.566-2.469 3.317-.551 4.212a11.037 11.037 0 0 0 5.556.722c-.224 20.511.177 41.02.562 61.527h6.86c.57-50.639-3.183-84.047-1.992-124.773.312-10.666.7-22.359 3.768-32.768a19.119 19.119 0 0 0 -.345-11.875c-1.658-4.587-2.183-9.662-2.564-14.581z" fill="#4f424c"/><path d="m258.07 140.312q-.526-19.97-.391-39.948l-14.9.431q.449 19.633.834 39.156a31.186 31.186 0 0 1 14.457.361z" fill="#4f424c"/><path d="m368.273 198.441c-.582 75.2 1.173 184.8-.694 260.114-3.644 3.033-9.543.8-11.715-4.58.286-83.02-.175-164.413-1.4-246.329 3.656-7.268 8.136-10.895 13.809-9.205z" fill="#7bad9e"/><path d="m353.81 167.962q.357 19.872.652 39.684a27.532 27.532 0 0 1 13.811-8.046v-1.159l-6-33.789z" fill="#4d7a70"/><path d="m367.579 458.555a19.8 19.8 0 0 1 -11.716-4.58q-.073 21.16-.21 42.47h9.33z" fill="#4d7a70"/><path d="m368.273 156.636q-1.128-28.12-.929-56.272l-14.9.431q.639 27.969 1.156 55.735c4.857.784 9.8-.052 14.673.106z" fill="#4f424c"/><path d="m313.469 105.417c-1.817 26.258 1.235 52.5 3.108 78.552a29.608 29.608 0 0 1 -2.117 5.479c-2.658 6.367-2.557 13.5-2.38 20.4.686 26.758.036 66.217 5.511 86.234a49.688 49.688 0 0 1 1.428 20.045 306.179 306.179 0 0 0 -2.872 48.679c1 43.741.021 87.505.031 131.258l-13.051.384c5.717-130.445-8.214-260.189-1.612-390.592z" fill="#4f424c"/><path d="m379.959 32.491a162.609 162.609 0 0 0 -48.011-5.491c4.7-12.853-11.607-12.9-17.625-12.13s-11.69 3.218-17.111 5.945c3.508-2.753 8.013-5.823 8.569-10.425-2.166-3.373-13.224-1.16-16.638.081-4.768 1.534-9.314 3.7-14.071 5.267 3.425-5.612 6.163-8.936-3.012-7.774a42.147 42.147 0 0 0 -22.882 11.336c-3.411-5.811-6.915-11.742-13.356-14.976-2.588-1.141-6.464-2.3-9.011-.685-1.4 2.435 1.1 6.855 2.4 9.076a35.99 35.99 0 0 0 -25.011-8.032 3.888 3.888 0 0 0 -2.275 6.786 23.178 23.178 0 0 0 5.189 3.509c-13.124-4.928-26.291-9.229-39.57-7.395a4.632 4.632 0 0 0 -2.672 7.839c2.573 2.579 5.065 4.612 5.065 4.612-14.147-3.594-29.962-5.034-42.757.406a5.652 5.652 0 0 0 .678 10.627l7.661 2.192a33.988 33.988 0 0 0 -24.819 11.015c-.7.776-1.419 1.694-.729 2.932a2.825 2.825 0 0 0 2.993 1.31q15.608-2.856 30.992-6.794c-4.326 8.527 11.342 10.308 15.31 10.447a147.613 147.613 0 0 0 -64.793 14.931s-24.168 20.27 32.835 13.309l-2.308 23.683h70.183l18.451-10.874 1.648 12.2 57.661-5.053 57 10.976s41.045 17.134 50.012-8.9-24.971-34.863-24.971-34.863l22.076-23.787z" fill="#7bad9e"/><path d="m279.835 189.856c.758 2.43 3.017 4.181 4.737 5.957a73.152 73.152 0 0 1 6.716 7.775 52.156 52.156 0 0 1 9.383 27.674c.21 3.651 5.6 3.7 5.709 0 .334-10.974-2.118-21.24-8.549-30.284a63.547 63.547 0 0 0 -7.458-8.626c-2.1-2.054-4.4-4.789-7.2-5.838-1.946-.731-3.924 1.478-3.342 3.342z" fill="#4f424c"/><path d="m292.31 340.14a129.844 129.844 0 0 1 26.447-27.746s6.192-4.685 11.344-1.608c0 0 7.217 6.672 2.53 20.973l-13.164 5.289-7.868 6.73-1.322-6.009-14.062 11.331c-3.591-1.283-5.976-3.465-3.905-8.96z" fill="#7bad9e"/><path d="m320.023 269.013c-4.634-8.456-23.765-33.111-41.745-22.352 0 0-6.369 9.814 0 22l13.573-3.879 6.617-2.632 8.9 15.239s13.258 5.548 12.655-8.376z" fill="#7bad9e"/><path d="m261.36 347.341s-1.8-7.146-3.16-10.615c-6.048-17.483-13.885-36.348-34.737-38.25 0 0-10.64 7.677-7.219 24.432 0 0 3.262 11.559 13.432 1.016 5.512 6.772 9.861 12.863 13.937 10.216 0 0 12.735 26.626 17.747 13.201z" fill="#7bad9e"/><path d="m150.627 243.44c-10.613.524-40.351 3.292-58.16 19.876 0 0-6.634 15.311 23.225-3.108 0 0 2.9 16.688 20.259-4.647 0 0 15.292-.193 14.676-12.121z" fill="#7bad9e"/><path d="m136.424 191.588c4.665 7.051 10.784 12.95 15.17 20.3a91.176 91.176 0 0 1 6.044 12.087c1.53 3.726 2.411 7.59 4.576 11.015a2.589 2.589 0 0 0 4.786-1.29c.26-8.5-5.368-18.1-9.714-25.133-4.438-7.184-10.485-15.666-18.007-19.829-1.739-.963-4.053 1.043-2.854 2.854z" fill="#4f424c"/><path d="m131.108 295.916a104.357 104.357 0 0 0 -36.987 39.084c-1.948 3.717 2.3 5.131 5.525 3.92 9.727-3.251 16.616-11.727 22.946-19.8-1.993 3.421-4.887 8.767-1.983 11.458 8.862 8.212 12.31-5.958 13.2-14.428 5.325 12.232 11.3 4.612 10.117-3.8a46.674 46.674 0 0 0 -4.662-14.127 5.752 5.752 0 0 0 -8.156-2.307z" fill="#4f424c"/><path d="m370.312 312.441c-2.129-30.595-1.816-61.716 3.371-91.975a23.6 23.6 0 0 0 -.711-14.612c-2.081-5.706-2.651-12.136-3.058-18.276q-1.026-15.459-1.647-30.942c-4.7-3.307-9.554-4.065-14.667-.107q.108 5.722.206 11.433c13.187 7.307 9.656 33.565 10.956 46.641-2.022.524-4.244.316-5.932 1.688a1.717 1.717 0 0 0 .344 2.665c1.58 1.117 3.83.714 5.659.635.342 27.582-2.06 55.175-1.468 82.761.274 11.61 1.489 23.029 1.727 34.554a6.875 6.875 0 0 1 -4.292.094c-2.34-.686-3.838 2.769-1.67 3.96a8.848 8.848 0 0 0 6 .879c-2.971 41.475.111 82.907-.335 124.422a14.078 14.078 0 0 1 -4.456.076c-2.369-.272-2.744 3.467-.552 4.076a14.2 14.2 0 0 0 4.978.5c-.048 8.512-.032 17.026.223 25.535h6.462c.569-50.639-3.183-84.047-1.993-124.773.312-10.666.7-22.359 3.768-32.768a19.111 19.111 0 0 0 -.345-11.875c-1.662-4.597-2.186-9.672-2.568-14.591z" fill="#4f424c"/><path d="m454.589 301.277c-6.385 4.573-14.343-.292-18.255-5.984-2.464-3.241-4.449-6.837-7.075-9.948-1.728-2.174-2.748-1.164-4.62.065-2.1.959-4.272-1.186-5.406-3.2a32.145 32.145 0 0 1 -3.75-20.236 8.634 8.634 0 0 0 -6.517 3.665c.751 9.016 2.754 16.536 4.764 25.355.577 2.53 1.276 5.18 3.1 7.024s7.316 1.514 7.3-7.453c1.68 12.451 12.73 14.36 12.025 7.447 2.049 12.7 18.726 25.036 23.053 18.235a4.608 4.608 0 0 0 -.209-3.073 118.168 118.168 0 0 0 -4.41-11.897z" fill="#4d7a70"/><path d="m261.913 361.882c1.2-1.171.991-7.36-.555-14.541-8.076 6.035-14.836-10.738-16.337-16.694a2.195 2.195 0 0 0 -3.479-1.129c-5.978 4.009-8.667-5.318-10.285-9.5a2.245 2.245 0 0 0 -4.044-.522q-.8 1.32-1.65 2.612a3.008 3.008 0 0 1 -5.4-.833 33.452 33.452 0 0 1 3.3-22.8c-2.049 0-4.942-.537-6.038 1.689-1.829 2.058-7.8 24.676-1.81 34.712 3.517 5.585 10.66 4.828 12.872-1.4a23.026 23.026 0 0 0 1.044-7.852c2.459 20.633 11.451 19 13.062 10.4 1.95 8.627 4.158 17.74 10.394 24.011 2.384 2.395 6.507 4.211 8.926 1.847z" fill="#4d7a70"/><path d="m320.25 285.842c3.165-.29 4.552-2.68 3.7-5.655a42.258 42.258 0 0 0 -3.942-11.168c-1.936 7.12-9.792 4.463-13.518.19a23.863 23.863 0 0 1 -6.388-12.033c-.406-1.794-3.341-2.337-4.148-.542-.656 1.458-2.02 6.072-4.6 4.667-1.168-.635-1.865-5.4-2.139-6.688a2.17 2.17 0 0 0 -3.928-.513c-1.145 2.38-3.017 10.523-5.654 4.382-1.78-4.142-1.61-9.226-1.366-11.814a10.833 10.833 0 0 0 -5.5 9.669c.381 5.97 1.362 15.337 6.147 19.227 5.784 3.3 8.991-4.388 7.636-8.841.7 3.195 2.368 7.707 5.811 8.659 3.766.407 4.365-8.959 5.041-11.724 3.103 10.413 10.247 23.702 22.848 22.184z" fill="#4d7a70"/><path d="m334.766 319.1c-.443-3.26-1.768-6.608-4.668-8.313.528 2.522 4.625 14.215-2.222 20.907a1.114 1.114 0 0 1 -1.834-.531c-.245-.891-.516-1.869-.616-2.208a2.06 2.06 0 0 0 -3.939 0 19.753 19.753 0 0 1 -2.756 6.225c-2.635 3.488-3.02.378-3.094-2.326-.064-2.36-3.057-2.749-4.133-.759-5.594 9.457-19.477 16.355-19.189 8.045-2.352 3.839-8.29 12.316-4.816 16.436 1.919 1.824 5.076.58 7.254-.925a45.2 45.2 0 0 0 13.911-15.444c-1.294 3.433-1.6 9.01 2.765 10.134 5.834.64 9.521-9.524 11.406-14-.67 3.613.5 9.625 5.259 8.661 8.065-5.261 7.835-16.952 6.672-25.902z" fill="#4d7a70"/><path d="m162.934 244.528c-3.706-1.485-8.273-1.2-12.307-1.087-2.11 3.29-3.975 7.752-8.008 8.534-2.371.452-4.608-.749-6.987.169-2.273.877-3.912 3.243-5.666 4.844-1.176 1.072-6.29 6.254-8.407 5.146-1.556-.815-1.345-3.636-3.307-4.7-3.369-1.833-6.187 1.009-8.932 2.668-2.655 1.786-16.842 9.175-16.845 3.228a88.84 88.84 0 0 0 -19.629 22.8c-1.917 3.552 1.591 5.266 4.819 4.181 14.134-4.259 26.169-17.037 36.924-26.86-6.918 9.582-4.021 17.944 4.655 14.211 7.553-3.25 10.933-11.057 15.233-17.368-.8 12.932 11.286 10.821 14.28-2.633 3.308 12.273 12.207 3.717 17.274-4.018a6.086 6.086 0 0 0 -3.097-9.115z" fill="#4d7a70"/><path d="m436.228 117.507c2.541-2.609-1.1-7.822-2.2-10.573l7.771 7.912c3.6 4.328 11.253 9.114 15.516 3.251 9.285-17.607-79.815-52.368-92.979-52.217 2.846-.019 9.05.479 11-5.453.628-1.911-.367-3.988-.972-5.906 5.951 3.1 11.148 9.528 17.855 9.3 7.532-.257 5.163-7.487 3.555-10a173.061 173.061 0 0 0 24.472 8.37c3.094 1.174 6.383-.337 5.659-4.037-.48-2.25-2.271-3.769-4.024-5.124a120.851 120.851 0 0 0 -41.924-20.53c-2.178 5.7-10.474 12.575-32.781 9.538a1.525 1.525 0 0 0 -.992 2.822c3.414 2.026 6.356 4.265 6.524 7.3.453 8.21-6.954 11.185-12.948 11.584a1.819 1.819 0 0 0 -.927 3.29c7.279 5.26 17.786 12.763 24.863 18.955a5.141 5.141 0 0 1 -3.737 8.98 62.934 62.934 0 0 1 -10.236-1.369 2.617 2.617 0 0 0 -3.014 3.579 33.049 33.049 0 0 1 2.051 6.272 5.377 5.377 0 0 1 -8.338 5.487 68.482 68.482 0 0 1 -20.93-23.192 1.512 1.512 0 0 0 -2.837.667 40.1 40.1 0 0 1 -1.355 9.177 6.472 6.472 0 0 1 -10.437 3.257c-5.546-4.692-13.088-12.01-17.805-20.421a1.066 1.066 0 0 0 -2 .521 25.771 25.771 0 0 1 -1.075 6.938c-3.361 12.768-20.117-5.605-24-10.394a1.529 1.529 0 0 0 -2.727 1.039c.049 5.821.252 19.729-7.1 21.11-5.946 1.2-10.288-4.668-11.421-9.837a2.414 2.414 0 0 0 -4.511-.465c-.526 1.079-1.027 2.176-1.595 3.22-2.84 6.05-10.392 8-13.126.81-1.4-4.17-.1-8.228.61-12.279a2.413 2.413 0 0 0 -3.881-2.3q-13.442 10.84-27.8 20.475a13.387 13.387 0 0 1 -5.484 2.187c-5.923.871-6.349-3.286-5.974-6.156a1.246 1.246 0 0 0 -1.83-1.249 139.091 139.091 0 0 1 -18.553 8.132c-1.259.445-2.693.873-3.818-.312-1.885-2.237.278-5.037 1.985-6.645a.962.962 0 0 0 -1.126-1.528 84.715 84.715 0 0 1 -14.922 5.7c-2.073.574-4.625.972-5.849-1.268a4.261 4.261 0 0 1 .617-4.78 109.815 109.815 0 0 1 17.359-16.131 1.754 1.754 0 0 0 -1.2-3.156 370.385 370.385 0 0 1 -46.873 1.262c-4.036-.139-9.645-2.347-8.181-6.269a142.921 142.921 0 0 0 -36.583 25.325 3.046 3.046 0 0 0 -.469 3.939c.96 1.315 2.614.975 3.987.572a167.267 167.267 0 0 0 24.565-9.362 7.593 7.593 0 0 0 -2.7 7.261c10.094 2.641 32.6-4.861 36.243-5.889a186.736 186.736 0 0 0 -77.14 54.4c-1.719 1.829-3.634 5.2-1.145 7.184 1.263.893 2.455.309 3.528-.266a132.358 132.358 0 0 0 24.046-16.539c-2.54 2.763-5.476 7.925-1.674 10.88 2.652 1.832 5.863-.278 8.147-2.312a203.425 203.425 0 0 0 16.919-17.01c-.941 4.8 4.983 6.6 8.6 4.5 3.245-1.694 5.317-4.964 7.608-7.743a1.5 1.5 0 0 1 2.544.353 5.387 5.387 0 0 0 3.764 3.094c6.587.639 12.032-6.094 16.629-10.1a1.489 1.489 0 0 1 2.547.954c.282 3.829 2.379 7.548 6.883 6.8 4.624-1.158 7.872-5.324 11.265-8.439a1.481 1.481 0 0 1 2.548 1.132c.032 2.468-.417 6.231 3.009 6.665a4.7 4.7 0 0 0 3.2-1.044 78.584 78.584 0 0 0 6.857-6.023 1.486 1.486 0 0 1 2.5 1.35c-.59 3.456-1.133 7.793 1.159 10.716 3.45 3.319 8.356.254 11.115-2.567q12.047-11.019 23.062-23.1a.825.825 0 0 1 1.415.747c-1.456 5.906-3.738 12.231.95 15.533 6.446 4.541 12.281.546 14.673-2.753a.823.823 0 0 1 1.484.343c1.093 4.245 2.447 12.744 8.19 12.621 6.978-.7 7.742-9.311 8.726-14.821a.825.825 0 0 1 1.606-.128 44.943 44.943 0 0 0 6.235 12.992 8.078 8.078 0 0 0 6.044 3.506c5.5.339 7.639-5.271 8.513-9.991q.707-3.813 1.108-7.674a1.54 1.54 0 0 1 2.761-.78c2.482 3.371 4.185 7.251 8.878 9.3 3.708 1.837 8.673-.853 8.578-5.051a1.545 1.545 0 0 1 2.739-.961c4.079 5.064 8.743 9.589 15.062 11.547a7.434 7.434 0 0 0 9.917-8.483 1.539 1.539 0 0 1 2.651-1.207 129.175 129.175 0 0 0 25.516 21.049c6.35 4.522 17.117 7.954 22.264.213a6.1 6.1 0 0 0 .856-2.245 2.418 2.418 0 0 1 3.837-1.586q4.1 3.017 8.313 5.86c5.361 3.612 13.112 11.516 17.844 6.765 7.305-7.334-3.471-18.834-9.792-24.487a1.2 1.2 0 0 1 1-2.068c2.7.423 5.753.4 7.162-1.4 2.441-3.26.3-6.823-1.975-9.892-2.241-6.472 18.75 11.413 28.873-3.141 3.075 4.767 10.584 17.262 17.203 11.917z" fill="#4d7a70"/><path d="m166.953 67.068c7.2-5.769 14.513-11.034 22.017-16.375 1.637-1.165.7-4.419-1.493-3.541a60.823 60.823 0 0 0 -23.3 17.144 1.961 1.961 0 0 0 2.772 2.772z" fill="#4d7a70"/><path d="m171.539 79.306c5.7-5.363 11.787-10.567 17.191-16.218 1.512-1.582-.436-4.308-2.389-3.1-6.865 4.258-12.881 10.663-17.665 17.106-1.273 1.715 1.414 3.572 2.863 2.209z" fill="#4d7a70"/><path d="m192.874 73.4a44.908 44.908 0 0 0 5.413-6.333c1.236-1.728-1.383-3.5-2.826-2.181a25.774 25.774 0 0 0 -5.144 6.541 1.635 1.635 0 0 0 2.557 1.973z" fill="#4d7a70"/><path d="m284.949 55.113c6.347 5.3 11.735 11.215 17.5 17.1 1.466 1.5 4.212-.484 2.971-2.292-4.725-6.886-11.568-12.764-18.412-17.472-1.57-1.08-3.539 1.426-2.056 2.665z" fill="#4d7a70"/><path d="m306.1 60.561c2.892 2.794 5.234 5.973 7.877 8.978 1.325 1.507 3.716-.428 2.737-2.112a40.355 40.355 0 0 0 -8.2-9.282c-1.629-1.457-4.009.877-2.416 2.416z" fill="#4d7a70"/><path d="m323.545 64.138c3.143 0 3.148-4.883 0-4.883s-3.145 4.883 0 4.883z" fill="#4d7a70"/><path d="m241.1 50.954a33.944 33.944 0 0 0 -6.309 17.425c-.164 2.252 3.608 2.806 3.986.539a44.977 44.977 0 0 1 5.708-15.985c1.329-2.188-1.959-4.017-3.385-1.979z" fill="#4d7a70"/><path d="m246.034 62.065c-3.156 4.4-3.409 11.69-2.518 16.851.435 2.513 3.78 1.528 4.054-.549.35-5.148 1.717-10.178 2.246-15.277.017-2.153-2.67-2.574-3.782-1.025z" fill="#4d7a70"/><path d="m107.664 123.535c-4.086 3.868-10.138 6.945-14.481 1.247-1.377-1.807-3.838-2.028-5.177 0a79.16 79.16 0 0 1 -10.616 12.988c-1.713 1.681-3.976 4.488-6.24 5.291-5.527 1.959-3-5.683-1.83-8.136a3.006 3.006 0 0 0 -4.7-3.625c-6.331 5.208-13.848 14.1-22.155 15.61-2.712.492-2 4.684.637 4.706 7.526.065 12.884-5.8 18.465-10.083.274 4.591 4.3 8.713 9.075 7.944 7.415-1.385 15.963-12.824 20.484-18.707 6.8 4.755 17.935 4.418 21.115-4.57.959-2.7-2.709-4.434-4.577-2.665z" fill="#4f424c"/><path d="m455.5 115.275c-6.867 4.822-14.915-2.724-18.025-8.641-1.878-3.351-6.894-.384-5.132 3 .5.894 2.227 4.214 1.5 5.4-1.024 1.665-3.279-.018-4.3-.657a20.308 20.308 0 0 1 -6.9-8.03 2.925 2.925 0 0 0 -4.554-.587c-5.178 5.407-12.141 6.919-19.324 5.416-2.163-.453-3.9 2.808-1.608 3.813a22.285 22.285 0 0 0 22.216-2.751c3.337 5.03 8.885 10.234 14.863 9.43a5.631 5.631 0 0 0 4.99-3.961c6.319 5.245 14.927 8.449 19.973 1.272 1.532-2.179-1.521-5.235-3.699-3.704z" fill="#4f424c"/><path d="m167.217 246.083c-.826-2.155-4.454-2.082-4.323.585a11.44 11.44 0 0 1 -2.807 8.816c-1.137 1.3-7.946 7.682-8.809 2.564-.467-2.768-4.36-2.257-5.111 0-.8 2.4-2.407 6.839-4.76 8.344-4.116 2.634-6.608-3.268-6.387-6.481.174-2.532-3.546-3.41-4.717-1.277a52.392 52.392 0 0 1 -8.64 11.88c-1.311 1.325-4.288 4.878-6.264 4.723-4.272-.789-.844-7.335.14-9.64 1.053-2.238-1.6-4.59-3.535-2.728-11.25 10.843-23.921 18.255-37.772 25.216-1.778.894-.543 3.852 1.36 3.227 12.214-4.01 23.589-11.269 33.46-19.7-.663 4.519.307 8.737 6.185 8.3 6.52-.489 12.451-7.217 16.408-13.406 5.016 8.344 13.381 6.05 17.4-2.241 8.855 4.1 22.113-8.931 18.172-18.182z" fill="#4f424c"/><path d="m457.683 314.679c-11.062.95-16.7-8.645-21.034-17.284-.732-1.459-3.355-1.6-4.041 0-2.37 5.528-5.843-4.606-6.2-6.3-.421-1.97-3.854-2.127-4.143 0-.309 2.278-.423 7.214-5.5 3.477-.958-.705-1.557-2.966-1.98-3.991a40.832 40.832 0 0 1 -2.432-8.878c-.953-5.73-2.1-13.124 1.849-17.952 1.108-1.357-.326-3.777-2.028-2.629-7.949 5.2-4.231 22.462-1.638 30.1 1.4 3.742 3.789 9.722 8.586 9.93a5.642 5.642 0 0 0 5.189-2.732c1.42 3.408 6.3 6.582 9.715 4.386 4.756 9.5 12.615 18.029 24.253 16.22 2.437-.381 1.887-4.56-.596-4.347z" fill="#4f424c"/><path d="m260.243 358.818c-10.2 3.314-13.825-16.33-15.14-23.287-.386-2.04-3.219-2.1-4.194-.548-4.87 7.769-8.936-2.924-9.1-7.728-.083-2.444-3.653-3.038-4.327-.585-5.036 15.868-11.1 5.17-11.75-5.419-.569-7.375 1.565-13.641 4.36-20.32.828-1.978-2.15-2.846-3.226-1.361-6.651 9.176-7.227 23.72-2.423 33.829 2.872 6.872 10.42 8.624 14.512 1.7 1.634 5.379 7.74 10.113 12.593 5.951 2.4 10.533 8.421 28.2 20.39 21.786 2.178-1.161.695-4.794-1.695-4.018z" fill="#4f424c"/><path d="m329.027 312.413a26.5 26.5 0 0 1 .239 27.181c-1.712 1.79-4.9 1.14-4.694-1.644.195-2.657-3.612-2.856-4.407-.6-1.155 3.153-4.317 9.842-7.981 10.255-3.339-.352-2.342-4.657-2.125-7.029.206-2.256-2.9-2.679-3.965-1.074-3.3 4.969-10.388 15.977-17.2 15.73-1.967-.072-2.261 2.8-.454 3.355 7.006 1.938 12.89-6.574 17.085-11.13.671 3.829 5.477 5.4 8.826 4.082 3.256-1.138 5.738-4 7.554-7.183 4.506 4.522 11.2-.614 12.894-5.645 4.164-9.241 3.594-20.567-2.747-28.635-1.365-1.735-4.131.498-3.025 2.337z" fill="#4f424c"/><path d="m288.7 275.34c1.876 3.023 6.834 2.239 8.669-.574a23.157 23.157 0 0 0 8.6 11.024c5.476 3.541 14.089 4.747 19.006-.352 1.875-1.945-.48-4.43-2.695-3.493-13.508 5.715-20.642-7-22.54-18.634-.487-2.985-5.22-2.217-5.2.7.012 1.533.244 3.442-.286 4.914-1.679 4.664-3.111.88-3.479-1.886-.4-3.017-4.649-3.2-4.84 0-.171 2.851-.64 9.64-6.762 4.9-1.992-1.543-2.937-4.909-3.477-7.2a21.836 21.836 0 0 1 1.116-13.433c.588-1.515-1.588-2.576-2.625-1.528-5.886 5.949-3.7 19.753 1.811 25.339 3.243 3.435 9.602 4.331 12.702.223z" fill="#4f424c"/><path d="m118.406 86.025c-8.084 2.561-15.908 6.126-24.4 7.313-3.66.648-9.7 2.157-6.4-3.963a2.337 2.337 0 0 0 -3.174-3.175q-5.806 2.822-11.786 5.237c-2.618 1.054-10.883 5.455-13.184 2.2a1.752 1.752 0 0 0 -3.185 1.342c1.79 10.025 20.187-.413 25.746-2.5-.041 4.2 3.286 6.813 9.161 6.219 9.557-.965 20.8-3.2 29.05-8.335 2.237-1.395.823-5.104-1.828-4.338z" fill="#4f424c"/><path d="m427.718 57.685c-.186-2.093-3.177-2.729-3.806-.515-1.374 4.841-9.639 2.431-13.064 1.489-5.439-1.5-10.347-4.174-15.261-6.871-1.527-.838-3.8.575-3.146 2.418.73 2.048 2.268 4.9-1.489 6.169-4.2.96-11.171-5.677-14.867-7.837-1.87-1.277-3.566 1.129-2.807 2.808 2.527 5.588-3.2 8.967-8.167 7.735a1.95 1.95 0 0 0 -1.036 3.758c6.294 2.173 13.306-1.8 14.107-7.595 4.338 3.319 9.385 6.736 14.491 5.194a6.487 6.487 0 0 0 5.058-6.3c6.017 3.895 30.346 12.573 29.987-.453z" fill="#4f424c"/><path d="m161.458 46.693c-3.849.169-17.9 2.95-17.01-3.749.37-1.319 1.488-2 1.715-3.506a2.45 2.45 0 0 0 -3.542-2.723c-10.424 4.59-20.961 6.449-32.01 8.723-2.138.439-1.6 3.725.506 3.738 9.441.057 19.077-2.529 28.023-5.915-.181 11.4 15.3 10.793 23.037 8.746 2.923-.671 2.357-5.588-.719-5.314z" fill="#4f424c"/><path d="m299.988 104.816c9.87 14.441 24.054 31.867 40.485 38.7 2.473.932 3.45-2.6 1.661-3.939-7.4-5.527-14.644-10.675-21.081-17.383-6.164-6.424-11.493-13.6-17.644-20.015-1.692-1.764-4.767.532-3.421 2.64z" fill="#4f424c"/><path d="m136.488 104.608c-9.5 14.258-11.2 18.038-28.458 23.8-2.485.861-2.26 4.943.653 4.819 12.978-.538 30.095-13.759 31.6-27.044.1-1.813-2.589-3.087-3.8-1.573z" fill="#4f424c"/><path d="m111.6 113.34c-1.621 4.282-3.273 7.811-7.007 10.692-2.721 2.1-5.946 3.683-7.882 6.614-1.054 1.6 1.074 3.8 2.682 2.682 3.636-2.527 8.037-4.352 10.964-7.771 2.71-3.167 4.763-7.534 4.576-11.766a1.706 1.706 0 0 0 -3.333-.451z" fill="#4f424c"/><path d="m356.749 120.568c2.152 14.721 19.074 30.107 33.51 32.245 2.053.3 3.715-2.5 1.537-3.646-6.719-3.546-13.1-6.628-18.679-11.947-5.614-5.351-8.657-11.762-12.764-18.171-1.274-1.988-3.917-.625-3.6 1.519z" fill="#4f424c"/><path d="m381.122 94.772c1.211 15.1 21.651 28.359 34.838 17.954 1.583-1.249-.135-3.885-1.93-3.314-6.638 2.111-12.043 2.391-18.163-1.529-5.383-3.448-7.9-8.951-11.413-14.014-.917-1.321-3.486-1.019-3.332.9z" fill="#4f424c"/><path d="m210.367 96.727c-5.575 4.346-10.021 10.758-15.062 15.762-5.155 5.119-10.963 9.628-15.993 14.846-1.715 1.78.485 4.8 2.681 3.475 6.311-3.812 11.9-9.361 17.026-14.607 4.918-5.034 11.134-10.9 14.049-17.392a1.728 1.728 0 0 0 -2.7-2.084z" fill="#4f424c"/></svg>