<svg id="flat" height="512" viewBox="0 0 500 500" width="512" xmlns="http://www.w3.org/2000/svg"><path d="m146.667 379.132c-10.522 3.184-14.989 14.985-24.257 19.769-4.171 2.043-9.051 2.379-13.106 4.644-9.609 5.369-11.727 19.7-21.772 24.2-5.734 2.569-12.792 1.21-18.209 4.393-3.383 1.988-5.593 5.454-8.52 8.066-7.582 6.766-21.629 5.766-26.15-3.335-4.016-8.086.71-17.958 7.175-24.26s14.7-10.773 20.29-17.86c5.983-7.578 9.18-18.251 18.035-22.1 6.4-2.781 14.128-1.072 20.4-4.121l29.372-8.724c13.304 2.071 20.16 7.79 16.742 19.328z" fill="#8fad96"/><path d="m169.5 345.861c-6.638.782-13.079 3.135-19.762 3.221-10.035.13-20.783-4.725-29.637 0-8.2 4.372-11.2 15.417-19.568 19.46 13.437 9.3 36.921-6.44 46.142 10.6 6.649-3.168 26.567-2.217 31.918-24.269-1.931-4.62-4.73-7.963-9.093-9.012z" fill="#617a68"/><path d="m154.533 376.969c4.967-1.015 10.116-1.651 14.981-2.959 8.42-2.265 16.45-6.7 25.169-6.662a25.655 25.655 0 0 1 22.778 14.869l-2.053-14.5c-9.552-15.113-28.169-23.927-45.912-21.846a15.519 15.519 0 0 1 .758 22.1c-4.213 4.467-10.054 6.572-15.721 8.998z" fill="#4f424c"/><path d="m53.745 91.928s-13.115-2.446-19.527-4.354c-15.824-4.71-16.9-17.378-14.98-18.595 4.061-2.57 8.735 1.081 11.342 2.926-1.96-3.322-5.4-10.711-2.1-13.422 4.306-3.534 7.839 3.04 9.3 4.934 1.162-3.114.914-8.611 5.313-8.866 6.788-.005 8.572 10.006 9.6 15.522 1.207 6.398 1.052 21.855 1.052 21.855z" fill="#b73067"/><path d="m114.186 146.333a2 2 0 0 1 -2.668 2.614c-13.27-7.158-25.194-2.4-39.263-2.857-7.745-.342-15.952-2.961-20.455-9.272-4.084-5.724-4.349-13.254-6.752-19.862a31.863 31.863 0 0 0 -11.677-15.164c-3.192-2.218-6.827-3.875-8.97-7.377-4.236-7.436 3.94-11.9 10.94-10.858a35.185 35.185 0 0 1 11.745 3.406c-.035-6.232 1.445-20.954 9.416-21.524 5.049-.123 8.011 5.192 7.919 9.7.038 2.529-.386 5.468 1.444 7.213a7.41 7.41 0 0 0 3.414 1.514c9.415 2.375 19.26 5.076 26.234 11.833 13.828 14.226 10.443 32.079 18.673 50.634z" fill="#ef6093"/><path d="m108.63 137.98c-5.671-9.183-8.708-16.823-12.581-26.864a2.042 2.042 0 0 0 -3.933 1.084 87.351 87.351 0 0 0 7.061 22.952 31.372 31.372 0 0 0 -24.212-2.538c-2.131.671-1.512 3.4.495 3.66 4.627.6 19.33 3.359 25.574 7.872 4.349 3.143 8.746-4.303 7.596-6.166z" fill="#b73067"/><path d="m176.677 95.164s-4.011-11.135-5.427-16.9c-3.494-14.224 5.717-20.733 7.511-19.807 3.789 1.955 3.092 7.171 2.849 9.993 1.664-2.99 5.776-8.938 9.332-7.626 4.637 1.71 1.19 7.363.4 9.336 2.905-.508 7-3.164 9.17.088 3.049 5.193-3.814 11.05-7.574 14.312-4.363 3.784-16.261 10.604-16.261 10.604z" fill="#b73067"/><path d="m162.414 165.473a1.955 1.955 0 0 1 -3.507-.985c-.46-12.748-9.679-20.326-15.38-30.859-3.213-6.081-4.89-13.538-2.08-19.815 2.549-5.694 8.193-9.275 12.173-14.079a28.275 28.275 0 0 0 6.368-15.735c.265-3.438-.1-6.963 1.621-10.175 3.72-6.566 10.932-2.3 13.219 3.5a31.207 31.207 0 0 1 2.662 10.515c4.824-2.842 16.974-8.471 20.852-2.2 2.1 3.838-.646 8.251-4.022 10.16-1.918 1.163-4.359 2.157-4.873 4.341a6.576 6.576 0 0 0 .372 3.291c2.407 8.272 4.756 17.019 2.713 25.388-4.624 16.797-19.624 22.302-30.118 36.653z" fill="#ef6093"/><path d="m165.65 156.719c4.87-7.843 9.561-13.079 15.772-19.871a1.746 1.746 0 0 0 -2.329-2.6 74.719 74.719 0 0 0 -14.881 14.152 26.827 26.827 0 0 0 -7.284-19.5 1.6 1.6 0 0 0 -2.614 1.774c1.306 3.77 4.8 16.079 3.721 22.58-.749 4.526 6.628 5.055 7.615 3.465z" fill="#b73067"/><path d="m54.7 186.787s-10.35 3.579-15.7 4.82c-13.2 3.063-19.115-5.538-18.237-7.187 1.855-3.482 6.672-2.774 9.281-2.516-2.747-1.575-8.2-5.451-6.945-8.726 1.638-4.269 6.828-1.013 8.643-.256-.435-2.694-2.844-6.516.192-8.484 4.841-2.759 10.177 3.661 13.151 7.179 3.443 4.083 9.615 15.17 9.615 15.17z" fill="#b73067"/><path d="m119.672 200.894a1.754 1.754 0 0 1 -.905 3.151c-11.759.194-19.095 8.721-28.877 13.874-5.665 2.9-12.584 4.363-18.359 1.688-5.238-2.426-8.484-7.692-12.881-11.431a26.158 26.158 0 0 0 -14.488-6.08c-3.135-.283-6.356 0-9.276-1.558-6.172-3.457-2.187-10.186 3.28-12.253a28.882 28.882 0 0 1 9.763-2.337c-2.577-4.563-7.645-15.719-1.784-19.319 3.572-1.894 7.624.691 9.352 3.842 1.054 1.789 1.944 4.059 3.958 4.56a6.072 6.072 0 0 0 3.05-.305c7.682-2.128 15.8-4.2 23.523-2.206 15.529 4.496 20.42 18.487 33.644 28.374z" fill="#ef6093"/><path d="m112.541 196.54c-7.92-4.743-13.23-9.35-20.121-15.451a1.746 1.746 0 0 0 -2.56 2.37 74.688 74.688 0 0 0 14.39 14.652 26.827 26.827 0 0 0 -19.385 7.6 1.6 1.6 0 0 0 1.816 2.585c3.748-1.366 16-5.053 22.517-4.082 4.538.672 4.949-6.714 3.343-7.674z" fill="#b73067"/><path d="m441.053 191.048s8.1-8.633 12.587-12.514c11.084-9.576 21.067-4.327 21.058-2.308-.02 4.263-4.983 6.012-7.608 7.078 3.42.124 10.587 1.084 11.034 4.848.583 4.908-6.019 4.406-8.136 4.6 1.772 2.357 6 4.8 4.088 8.209-3.241 5.075-11.576 1.623-16.19-.244-5.352-2.169-16.833-9.669-16.833-9.669z" fill="#b73067"/><path d="m374.356 210.743a3 3 0 0 1 -1.175-5.358 30.884 30.884 0 0 0 8.4-8.437c3.574-5.876 6.188-12.327 10.145-17.953s9.837-10.508 16.706-10.857c6.23-.316 11.985 3.085 18.073 4.447a28.267 28.267 0 0 0 16.915-1.48c3.182-1.325 6.158-3.25 9.8-3.178 7.54.33 7.015 8.693 2.886 13.366a31.187 31.187 0 0 1 -8.159 7.151c4.723 3.005 15.259 11.271 11.432 17.576-2.462 3.609-7.639 3.177-10.877 1.033-1.908-1.179-3.9-2.9-6.081-2.367a6.561 6.561 0 0 0 -2.763 1.827c-6.275 5.9-13 11.969-21.384 13.951-16.026 3.389-27.753-6.383-43.918-9.721z" fill="#ef6093"/><path d="m382.681 211.685c11-.442 19.3.685 30.162 2.27a2.081 2.081 0 0 0 1-4.036 89.092 89.092 0 0 0 -23.923-5.216 31.989 31.989 0 0 0 14.38-20.238c.47-2.228-2.265-3.045-3.5-1.392-2.846 3.811-12.659 15.49-19.793 18.778-4.969 2.29-.556 9.923 1.674 9.834z" fill="#b73067"/><path d="m272.345 83.89s-11.555-5.138-17.045-8.307c-13.556-7.822-11.767-19.74-9.726-20.439 4.31-1.478 7.817 2.917 9.816 5.191-1.077-3.495-2.625-11.064 1.016-12.838 4.748-2.312 6.56 4.527 7.5 6.6 1.756-2.616 2.736-7.74 6.848-7.008 6.261 1.487 5.705 11.111 5.441 16.423-.314 6.158-3.85 20.378-3.85 20.378z" fill="#b73067"/><path d="m315.709 144.747a3 3 0 0 1 -4.742 2.824c-3.312-2.376-7.528-4.824-11.778-5.737-7.186-1.543-14.614-1.915-21.681-3.932s-14.059-6.236-16.824-13.045c-2.508-6.176-1.1-13.178-1.86-19.8a30.208 30.208 0 0 0 -7.435-16.55c-2.455-2.746-5.443-5.073-6.649-8.773-2.272-7.789 6.248-10.1 12.475-7.608a33.349 33.349 0 0 1 10.085 5.722c1.374-5.821 6.015-19.357 13.721-17.71 4.512 1.219 5.888 6.6 4.864 10.614-.52 2.34-1.558 4.957-.253 6.968a7 7 0 0 0 2.814 2.147c8.16 4.259 16.645 8.915 21.59 16.678 9.133 15.164 3.196 30.49 5.673 48.202z" fill="#ef6093"/><path d="m314.6 139.082c-4.1-10.212-5.83-18.414-7.98-29.175a2.081 2.081 0 0 0 -4.139.406 89.073 89.073 0 0 0 3.111 24.287 31.984 31.984 0 0 0 -23.886-6.752c-2.258.3-2.11 3.154-.138 3.763 4.545 1.4 18.839 6.73 24.33 12.348 3.825 3.912 9.536-2.806 8.702-4.877z" fill="#b73067"/><path d="m427.955 81.351s1-13.3 2.2-19.885c2.958-16.243 15.433-18.695 16.852-16.916 3 3.757-.123 8.8-1.673 11.593 3.089-2.31 10.059-6.534 13.113-3.546 3.983 3.895-2.168 8.123-3.891 9.787 3.222.816 8.66-.029 9.392 4.316.745 6.747-9.013 9.61-14.384 11.234-6.228 1.883-21.609 3.417-21.609 3.417z" fill="#b73067"/><path d="m379.085 148.171a1.4 1.4 0 0 1 -2.052-1.669c1.636-4.455 3.714-11.67 2.887-17.92-1.018-7.685-3.284-15.2-3.789-22.933s1.205-16.179 6.989-21.343c5.245-4.683 12.7-5.767 19.008-8.875a31.861 31.861 0 0 0 13.8-13.259c1.856-3.414 3.108-7.208 6.355-9.72 6.932-5.021 12.255 2.622 11.985 9.693a35.166 35.166 0 0 1 -2.106 12.046c6.259-.691 20.9-.892 22.421 7.016.672 5.005-4.289 8.528-8.776 8.928-2.509.313-5.477.211-7.012 2.221a7.4 7.4 0 0 0 -1.134 3.558c-1.335 9.618-2.948 19.7-8.906 27.367-13.089 15.762-31.704 13.788-49.67 24.89z" fill="#ef6093"/><path d="m388.192 142.923c8.529-6.957 15.847-11.044 25.481-16.3a2.081 2.081 0 0 0 -1.619-3.831 89.083 89.083 0 0 0 -22.262 10.2 31.986 31.986 0 0 0 -.659-24.814c-.962-2.064-3.639-1.075-3.634.989.012 4.756-.821 19.988-4.551 26.9-2.598 4.813 5.515 8.267 7.244 6.856z" fill="#b73067"/><path d="m328.864 167.542c-3.652-10.271-10.091-22.923-19.6-28.881-2.192-1.323-4.589 1.274-3.415 3.415 2.518 4.591 6.527 8.4 9.354 12.869a65.008 65.008 0 0 1 8.889 21.331c2.228-1.41 3.849-4.256 4.772-8.734z" fill="#8fad96"/><path d="m328.851 167.547a27.508 27.508 0 0 1 -4.772 8.731 60.779 60.779 0 0 1 -.839 28.611c-.435 1.655-.889 3.277-1.183 4.96-.127.724-.793 2.555.068.724-1.429 3.04 3.1 5.708 4.534 2.65-.123.26-.116.3-.034.217a19.39 19.39 0 0 0 3.312-7.043 65.926 65.926 0 0 0 -1.086-38.85z" fill="#617a68"/><path d="m349.27 216.835c11.52-3.788 23.513-4.7 35.235-7.843 2.852-.766 2.218-5.02-.689-5.087-13.46-.31-28.22 3.153-40.81 8.3.166 3.573 2.194 5.184 6.264 4.63z" fill="#8fad96"/><path d="m343.007 212.207a80.452 80.452 0 0 0 -19.52 11.182c-5.344 4.157-12 9.243-14.506 15.724-.643 1.662 1.464 2.863 2.806 2.157 6.054-3.182 10.681-9.439 16.265-13.473a78.286 78.286 0 0 1 21.306-10.989 19.587 19.587 0 0 1 -6.351-4.601z" fill="#617a68"/><path d="m248.678 381.02a25.652 25.652 0 0 0 -2.071-27.122c-5.277-6.941-13.686-10.611-20.609-15.912-8.161-6.25-14.818-15.154-24.67-18.086-7.744-2.3-16.516-.537-23.754-4.128-4.16-2.065-7.4-5.732-11.663-7.569-10.109-4.355-41.2-11.949-47.026-14.308-3.637-1.474-7.732-1.117-11.587-1.849-9.983-1.895-17.742-13.648-13.274-22.775 3.969-8.109 14.678-10.37 23.614-9.078s17.493 5.1 26.521 5.223c9.655.132 20.068-3.829 28.513.852 6.1 3.382 9.272 12.416 15.511 15.536 8.3 4.152 19.055-2.034 27.506 1.8 9.138 4.148 11.83 15.63 18.042 23.512 3.946 5.008 9.4 8.585 13.936 13.061 12.952 12.768 17.546 33.316 11.266 50.385z" fill="#4f424c"/><path d="m253.693 357.859c5.969-18.809 26.695-25.91 41.226-36.863 5.565-4.233 10.691-9.35 17.261-11.742 7.045-2.565 14.867-1.664 22.2-3.222 8.123-1.725 15.693-6.466 23.994-6.224 8.036.233 15.236 5.12 23.188 6.3 11.71 1.738 23.984-4.678 35.217-.943 8.062 2.681 13.863 10.131 21.951 12.731 4.762 1.531 9.895 1.239 14.85 1.923a37.831 37.831 0 0 1 14.8 5.36c6.634 4.14 12.1 10.814 12.987 18.584s-3.879 16.317-11.493 18.1c-12.8 3-23.73-12.684-36.827-11.509-6.564.589-12.252 5.412-18.838 5.643-12.7.443-21.258-15.8-33.96-15.494-5.256.127-10.1 3.185-15.356 3.358-8.216.269-14.889-6.351-22.649-9.066-22.043-7.882-72.357 21.656-90 35.776z" fill="#4f424c"/><path d="m305.533 252.077c21.257-38.437 47.954-70.67 81.336-109.9 2.926-3.418-2.019-8.113-5.269-4.957-30.244 29.422-61.675 66.215-87.894 113.233z" fill="#8fad96"/><path d="m292.064 278.948c-3.83 8.481-7.442 17.341-10.885 26.807-6.629 8.12-12.826 12.931-17.421 9.965 4.143-11.21 8.664-22.128 13.445-32.6 5.18-6.433 10.981-7.378 14.861-4.172z" fill="#617a68"/><path d="m290.065 257.139c-3.615 6.745-8.232 15.087-12.861 25.981 5.069-2.573 10.044-4.187 14.861-4.172l10.905-22.135a34.787 34.787 0 0 0 -12.905.326z" fill="#4f424c"/><path d="m143.726 279.718c-14.34-2.186-22.84-7.149-37.68-.284-5.869 2.766-11.21 7.15-17.656 7.9-8.44.048-15.8-.221-22.772 5.577-3.3 2.642-5.91 6.091-9.339 8.564-9.858 7.111-27.053 5.437-32.429 18.116-4.58 14.409 11.133 24.109 23.963 18.946 6.336-2.342 11.447-7.267 17.754-9.686 9.948-3.816 21.445-.912 31.518-4.387a44.461 44.461 0 0 0 11.924-6.894l20.918-21.364 22.838-4.094z" fill="#8fad96"/><path d="m180.742 293.449c-.168-7.857-6.232-13.229-15.376-17.3-7.265.988-14.256 4.237-21.639 3.567.534 5.142-4.134 9.311-8.993 10.781-8.6 2.511-21.7-.358-26.176 9.472-2.231 5.5 1.254 11.726.451 17.6 7.156-5.373 13.882-11.536 22.591-12.3 8.438-.736 20.553 6.926 26.468.864 8.548-8.756 16.169-12.198 22.674-12.684z" fill="#617a68"/><path d="m165.5 276.133c7.135 3.638 11.672 10.117 15.242 17.321 15.724-1.174 24.928 14.916 24.928 14.916l-6.026-16.5a36.052 36.052 0 0 0 -34.144-15.737z" fill="#4f424c"/><path d="m260.807 272.381c6.33-4.638 15.714-9.972 33.368-.915 5.726 2.938 12.679 3.081 18.885 1.38 3.65-1 7.141-2.74 10.915-3.029 5.579-.426 10.544 2.95 15.606 5.335 24.645 11.611 28.332-12.359 24.5-17.971-6.612-8.488-18.457-3.624-27.269-14.17a27.653 27.653 0 0 0 -23.59-6.018c-9.946 2.4-19.312 9.654-29.758 5.994l-32.444 4.183z" fill="#8fad96"/><path d="m283.463 242.98c-5.262-1.466-10.339-4.136-15.759-5.093-9.686-1.71-19.8 2.389-26.91 9.189-5.762 5.747-10.557 12.975-18.755 15.2a19.939 19.939 0 0 0 10.917 12.463c8.969 4.111 13.567 4.208 13.567 4.208 5.947-.781 9.879-2.986 14.784-6.928.289-5.127-4.894-10.384-2.4-14.93 6.281-8.844 19.947 4.851 24.556-14.109z" fill="#617a68"/><path d="m222.037 262.27c-13.05 3.049-23.4 10.277-24.728 24.556l8.362 21.544c-4.375-25.481 8.051-32.52 31.605-29.4a34.077 34.077 0 0 0 9.5-.065 61.167 61.167 0 0 1 -24.739-16.635z" fill="#4f424c"/><path d="m138.846 205.666a110.506 110.506 0 0 0 -19.469-6.7c-2.983-.706-6.475-1.841-9.536-1.1a2.524 2.524 0 0 0 -.6 4.562c2.345 1.388 5.248 1.74 7.847 2.463a137.907 137.907 0 0 1 15.391 5.211c3.538-.779 6.184-1.996 6.367-4.436z" fill="#8fad96"/><path d="m182.317 246.889c-4.819-18.53-26.86-33.674-43.473-41.217a26.6 26.6 0 0 1 -6.369 4.446c13.945 5.635 26.912 14.159 36.491 25.864 3.466 4.152 5.777 9.246 9.336 13.244 1.728 1.942 4.415-.174 4.015-2.337z" fill="#617a68"/><path d="m160.452 186.34c.158-11.317 2.644-22.921 5.389-33.93.584-2.282-2.739-3.839-3.9-1.644-4.5 8.526-6.588 18.1-7.733 27.619.478 5.144 2.499 7.888 6.244 7.955z" fill="#8fad96"/><path d="m154.218 178.386c-1.679 14.277-.867 31.634 8.885 42.936 2.177 2.524 5.608-.689 4.343-3.351a70.164 70.164 0 0 1 -6.993-31.654 29.2 29.2 0 0 1 -6.235-7.931z" fill="#617a68"/><g fill="#8fad96"><path d="m128.939 202.453a16.87 16.87 0 0 0 -8.176-2.592 90.479 90.479 0 0 1 -16.4-15.923c-1.364-1.6-4.2.539-2.945 2.272 2.307 3.2 4.761 7.4 7.689 11.036-3.678-1.106-7.42-2.07-11.025-2.908a1.684 1.684 0 0 0 -1.282 3.062 55.048 55.048 0 0 0 10.616 4.57 22.927 22.927 0 0 0 -7.161 6.356c-1.424 1.859 1.47 3.595 3.018 2.329 3.855-3.152 6.762-5.364 11.911-5.444 4.272-.067 8.417 1.079 12.659 1.3 2.329.127 2.724-2.911 1.096-4.058z"/><path d="m117.13 155.468a2.473 2.473 0 0 0 3.87-2.982 15.238 15.238 0 0 0 -4.187-5.166c-5.794-7.521-7.5-17.008-8.343-26.269-.245-1.892-3.171-2.748-3.66-.5a37.046 37.046 0 0 0 .561 16.506 108.06 108.06 0 0 0 -11.571-9.573c-1.98-1.331-3.763 1.492-2.4 3.11a122.608 122.608 0 0 0 10.734 10.6 50.983 50.983 0 0 0 -10.725-.9c-1.724.051-2.758 2.7-.952 3.516 4.129 1.871 8.7 2.545 13.033 3.834 5.432 1.623 9.327 4.256 13.64 7.824z"/><path d="m177.859 146.692a44.339 44.339 0 0 0 -13.438 10.222c1.562-5.083 3.245-10.134 5-15.243.722-2.1-2.482-3.4-3.555-1.5a77.9 77.9 0 0 0 -6.261 14.552 42.562 42.562 0 0 0 -8-13.857c-1.344-1.6-4.205.562-2.927 2.258 7.262 9.157 7.372 19.2 6.964 30.4a1.79 1.79 0 0 0 1.448 1.952c.837 1.231 3.283 1.22 3.638-.557a34.716 34.716 0 0 1 7.416-15.851c3.341-3.883 7.814-6.531 11.763-9.726 1.556-1.262-.43-3.471-2.048-2.65z"/><path d="m316.129 134.3c-.567-7.007.543-14.041.786-21.038.076-2.2-3.141-2.535-3.752-.508-2.027 6.716-3.652 15.39-3.1 23.559-3.433-4.09-7.06-9.9-11.956-12.245a1.935 1.935 0 0 0 -2.806 2.157c1.509 5.519 6.607 9.9 10.008 14.341-6.5-2.588-14.17-4.334-21.065-3.34-1.832.265-1.746 3.275 0 3.616 12.79 1.938 24.431 4.345 33.1 14.822a2.254 2.254 0 0 0 2.238.478 2.348 2.348 0 0 0 2.561-3.429c-3.002-6.003-5.465-11.624-6.014-18.413z"/><path d="m409.039 135.89c-7.036-1.633-15.463 1.38-22.223 4.38 4.321-5.264 10.047-10.007 13.508-15.877 1.309-2.218-1.34-5-3.592-3.591-5.275 3.314-9.54 8.785-13.609 13.6.765-7.423-.323-15.045-3.4-20.863-.838-1.582-3.665-.925-3.494.947 1.613 11.684 1.624 21.327-3.335 32.306q-.943 1.327-1.788 2.689a45.512 45.512 0 0 0 -7.8 7.928c-1.566 2.067 1.511 5.054 3.576 3.576 6.582-4.714 12.895-9.716 20.168-13.361a82.142 82.142 0 0 1 11.229-4.554c3.721-1.222 7.769-1.868 11.212-3.77a1.884 1.884 0 0 0 -.452-3.41z"/><path d="m385.843 209.929c-.67-.216-1.353-.432-2.042-.647 6.925-1.9 14.089-3.635 19.852-8.074 2.037-1.576-.3-4.074-2.212-3.8-6.325.905-12.279 3.726-18.523 5.054 4.581-6.2 7.72-14.448 9.8-19.673.917-2.3-2.66-3.606-3.876-1.635-3.118 5.051-6.21 10.159-9.517 15.087a35.518 35.518 0 0 1 -5.121 6.445c-1.794 1.664-4 2.458-5.979 3.758a23.042 23.042 0 0 0 -4.211.462c-2.153.449-2.022 3.7 0 4.226 6.713 1.755 13.558 2.5 20.211 4.651 6.339 2.046 12.276 5.284 18.635 7.2 1.958.59 3.652-2.118 2.052-3.525-5.33-4.691-12.389-7.374-19.069-9.529z"/></g><path d="m281.179 305.755c-5.118 4.059-11.21 8.258-17.421 9.965-16.919 47.533-23.88 80.293-29.906 139.551l14.429.673c3.964-53.421 21.909-120.069 32.898-150.189z" fill="#4f424c"/><path d="m337.78 386.369c8.811 4.441 13.913 15.914 23.737 17.994 6.147 1.3 12.759-1.516 18.726.452 3.726 1.229 6.617 4.151 10.03 6.087 8.839 5.015 22.359 1.074 24.857-8.776 2.22-8.751-4.481-17.4-12.131-22.2s-16.637-7.43-23.6-13.177c-7.447-6.146-12.824-15.9-22.291-17.8-6.841-1.369-14.036 1.933-20.813.275-9.014-2.2-14.279-12.345-23.2-14.888-7.883-2.246-15.652 2.021-23.594 4.744 0 0-1.854 17.847 16.039 25.59s32.24 21.699 32.24 21.699z" fill="#8fad96"/><path d="m315.465 357.035c-4.967-1.154-10.232-1.235-14.9-3.286a19.512 19.512 0 0 1 -11.069-14.67c-7.833 3.083-16.228 1.956-24.451 2.452a46.364 46.364 0 0 0 -16.6 4.51c-3.617 10.667 7.468 17.507 23.173 23.145 9.794.223 20.01-1.813 28.94 2.116 7.4 3.253 12.941 10.277 20.783 12.221 5.413 1.309 11.394.131 16.439 2.85 2.277-13.621-9.124-26.304-22.315-29.338z" fill="#617a68"/><path d="m262.016 362.145a61.633 61.633 0 0 1 -13.571-16.1 48.692 48.692 0 0 0 -24.591 26.613l1.053 14.609a25.653 25.653 0 0 1 19.128-19.34c9.029-1.992 18.354 1.1 27.581 1.254a84.694 84.694 0 0 1 -9.6-7.036z" fill="#4f424c"/><path d="m102.7 141.6c51.963 50.929 116.443 165.712 119.34 313.672h16.026c-4.066-143.336-76.919-273.318-131.916-317.548-2.515-2.032-5.795 1.583-3.45 3.876z" fill="#8fad96"/><path d="m43.4 320.253c17.275 1.419 28.461-15.541 45.92-16.26 5.419-.621 10.636-1.224 15.6-3.671 5.574-2.749 10.271-6.672 16.546-7.821 12.315-1.973 24.937 2.923 37.132-.66 6.947-1.895 13.647-5.975 20.974-3.485 3.114 1.058 4.251-3.656 1.333-4.836-5.487-2.22-10.953-.941-16.375.887-6.751 2.276-12.834 3.9-20.041 3.558-12.649-.593-23.91-2.691-35.381 4.022-6.025 3.525-11.078 5.912-18.117 6.737-5.768.677-11.237 1.354-16.565 3.833-10.251 4.763-19.083 14.093-31.026 14.063-2.388-.006-2.285 3.4 0 3.633z" fill="#4f424c"/><path d="m52.342 423.432c11.949 1 21.159-9.119 27.336-17.915 4.122-5.87 8.108-11.125 14.958-13.915 16.26-5.449 19.8-4.546 32.872-17.444 16.128-14.306 44.832-18.35 65.038-11.736 2.226.775 3.836-2.917 1.625-3.854-18.882-7.7-42.674-3.968-60.629 4.909-5.916 3.327-10.334 8.282-15.414 12.665-10.651 9.191-26.307 7.805-36.053 18.322-4.334 4.676-7.19 10.47-11.345 15.28-5.332 6.173-11.434 7.829-18.874 10.1a1.837 1.837 0 0 0 .486 3.588z" fill="#4f424c"/><path d="m241.709 360.256c14.209-.937 28.2-2.48 42.48-2.627 14.146-.272 27.752-1.458 40.092 6.839 4.732 2.808 9.474 5.7 14.854 7.083 6.152 1.586 12.474 1.707 18.532 3.812 12.3 4.272 21.92 13.136 32.351 20.543 2.128 1.512 4.575-1.8 2.755-3.57-9-8.757-19.579-16.748-31.337-21.388-6.259-2.47-12.615-2.933-19.128-4.265-6.7-1.37-12.162-5.2-18.016-8.5-12.02-6.78-24.766-6.1-38.16-5.862-14.73.26-30.658.133-44.909 4.341-1.909.567-1.639 3.738.486 3.594z" fill="#4f424c"/><path d="m217.424 270.546c8.992 5.15 19.434.865 27.152-4.707 4.257-3.072 8.269-6.636 13.059-8.884 6.2-2.91 12.825-2.318 19.331-.937 40.828 10.92 34.895-12.085 69.532 8.254a2.5 2.5 0 0 0 2.52-4.311c-9.431-6.087-20.146-11.318-31.664-9.566-5.856.891-11.452 3.254-17.376 3.718-16.389.551-32.125-10.153-47.819-.342-9.5 5.646-20.273 19.145-32.558 13.051-2.465-1.223-4.609 2.331-2.177 3.724z" fill="#4f424c"/></svg>