<svg id="flat" height="512" viewBox="0 0 500 500" width="512" xmlns="http://www.w3.org/2000/svg"><path d="m192.746 370.552c-15.755-22.746-46.4-33.134-72.735-24.655a1.522 1.522 0 0 0 .093 2.932c34.389 8.61 51.644 29.166 60.318 49.868 9.591.003 13.437-12.086 12.324-28.145z" fill="#4f424c"/><path d="m192.746 370.552a64.532 64.532 0 0 0 -6.912-8.194c1.182 12.229 3.119 26.269-5.417 36.341 7.914 18.888 8.69 37.9 8.815 48.066l14.68-.4 7.922-8.812c-1.495-23.153-5.903-47.494-19.088-67.001z" fill="#4f424c"/><g fill="#c9967d"><path d="m57.311 324.563c36.4 20.128 66.876 54.113 76.93 95.078 1.3 5.672 1.174 11.747 2.708 17.3.781 2.826 5.473 3.155 6.057 0 1.267-44.783-42.8-101.106-83.364-117.9-3.24-1.314-5.194 3.83-2.331 5.526z"/><path d="m115.691 126.78c3.321 7.209 8.637 13.827 12.793 20.6a523.006 523.006 0 0 1 32.336 61.95 594.862 594.862 0 0 1 24.75 67.192c2.254 7.4 3.868 15.668 7.6 22.484a2.231 2.231 0 0 0 4.127-1.118c-.112-7.759-3.029-15.778-5.218-23.16q-3.534-11.912-7.563-23.669a556.35 556.35 0 0 0 -38.539-87.692q-5.89-10.665-12.306-21.028c-3.989-6.436-7.931-13.772-13.228-19.222-2.531-2.605-6.12.688-4.749 3.663z"/><path d="m312.159 156.015c-26.612 62.9-42.347 160.121-32.237 227.769.721 2.725 4.758 2.1 4.836-.654-5-59.959 1.851-120.452 18.222-178.311 4.354-15.689 9.931-30.908 14.9-46.393 1.062-3.313-4.25-5.681-5.719-2.411z"/><path d="m7.64 281.924c-1.6-.577-3 1.455-2.17 2.823 2.092 3.241 4.944 6.048 6.369 9.71-2.739.025-5.583.195-7.58 1.451-1.656 1.041-2 3.9 0 4.857 3.5 1.67 8.248.365 11.99-.075 1.922-.226 3.727-1.845 3.041-3.992-1.85-5.798-5.59-12.598-11.65-14.774z"/><path d="m77.451 51.336c-1.921-1.043-4.332 1.106-3.095 3.094 3.625 5.831 7.429 11.09 8.016 18.237q-3.091-2.2-6.2-4.37c-1.61-1.13-4.643-4.329-6.485-1.849-2.089 2.814 1.815 5.758 3.73 7.293 3.5 2.806 7.067 5.524 10.671 8.193a2.588 2.588 0 0 0 3.463-.08c5.067-2.589 1.157-11.886-.127-15.957-1.851-5.407-4.724-11.711-9.973-14.561z"/><path d="m348.509 90.485c-2.742-1.545-5.2 2.751-6.812 4.364-1.171 1.18-2.316 2.386-3.455 3.6-.452-6.465 1.952-12.02 4.158-17.913.868-2.321-2.232-3.5-3.781-2.2-4.224 3.537-5.711 9.566-6.438 14.8-.465 4.136-2.668 13.636 2.777 15.216a2.8 2.8 0 0 0 3.615-.633c2.3-2.527 4.6-5.063 6.79-7.681 1.965-2.387 6.559-6.689 3.146-9.553z"/><path d="m494.856 187.469c-5.31-.489-10.607 3.246-14.492 6.478-2.776 2.37-10.347 7.989-7.52 12.123a2.656 2.656 0 0 0 3.023 2.133c3.793-.349 7.585-.741 11.358-1.262 2.663-.368 6.2-.561 6.737-3.777a1.8 1.8 0 0 0 -.8-1.972c-2.261-1.127-9.857-.131-11-.047a130.934 130.934 0 0 1 13.838-9.462c2.1-1.176.96-4.021-1.144-4.214z"/><path d="m304.827 372.385c6.673-14.732 12.18-30.079 20.936-43.813 25.293-41.266 62.773-75.248 106.008-96.924 3.8-1.8.486-7.44-3.3-5.646-55.921 27.8-111.254 83.342-127.458 144.775-.354 2.148 2.672 3.9 3.814 1.608z"/></g><path d="m298.153 448.327c3.933-40.264 59.8-84.388 107.746-33.983a1.517 1.517 0 0 1 -1.642 2.458c-24.264-9.074-66.606-16.256-83.018 32.135h-17.059z" fill="#4f424c"/><path d="m352.683 373.42c28.341-20.556 60.042-27.661 76.035-28.807a1.517 1.517 0 0 0 .388-2.944c-33.041-12.193-71.724-.034-96.011 24.381 1.07 7.15 9.086 8.325 19.588 7.37z" fill="#bfcc7f"/><path d="m294.171 439.644 7.706 8.683c9.179-35.448 29.2-59.347 51.193-75.185-7.147-.4-14.412-2.686-19.974-7.091-20.416 19.683-32.555 46.479-38.925 73.593z" fill="#919951"/><path d="m322.837 332.536c25.942-38 66.244-54.883 110.77-52.783a1.516 1.516 0 0 1 .316 2.977c-46.258 12.945-84.221 45.539-109.077 87.048-12.592 0-12.167-19.733-2.009-37.242z" fill="#bfcc7f"/><path d="m322.848 332.543c-18.331 26.852-29.5 64.242-29.913 112.948l11.245 2.836c.351-27.305 6.305-55.271 20.671-78.545-5.958-7.424-6.435-24.982-2.003-37.239z" fill="#919951"/><path d="m240.686 446.765c-20.19-76.2-2.989-133.308 27.887-193.87a1.52 1.52 0 0 0 -2.148-1.985c-71.961 39.112-66.989 154.845-45.541 195.855z" fill="#919951"/><path d="m215.632 272.312c4.68-56.258 12.829-112.036 21.181-168.1a1.51 1.51 0 0 0 -2.639-1.212c-18.392 21.825-40.54 71.35-40.894 157.7 4.686 15.179 15.882 17.877 22.352 11.612z" fill="#bfcc7f"/><path d="m233.751 103.314c-12.245 59.5-19.137 120.176-24.367 180.677-.253 3.146 4.635 3.121 4.9 0 4.813-60.416 14.105-120.358 24.188-180.038.306-2.731-4.039-3.2-4.72-.639z" fill="#919951"/><path d="m215.638 272.313c-9.42 3.16-17.543-4.06-22.35-11.615-1.725 46.249 11.078 121.421 21.621 178.694-5.109-56.625-3.846-112.081.729-167.079z" fill="#919951"/><path d="m186.811 277.013c-41.455-54.013-107.133-49.73-129.222-46.488a1.514 1.514 0 0 0 -.124 2.972c44.447 10.4 75.31 30.686 96.772 55.067 19.287 5.322 33.276 4.878 32.574-11.551z" fill="#bfcc7f"/><path d="m206.9 315.907q-.459-2.37-.872-4.766a144.837 144.837 0 0 0 -19.225-34.12c-7.146 10-20.5 13.13-32.565 11.545a165.749 165.749 0 0 1 13.573 17.705c14.962 6.486 28.558 10.656 39.089 9.636z" fill="#919951"/><path d="m222.353 409.6c-.028-23.2-9.31-82.486-15.454-93.7a92.427 92.427 0 0 0 -39.093-9.634c22.8 34.248 31.636 72.8 34.745 103.33 5.04 7.062 15.349 9.096 19.802.004z" fill="#919951"/><path d="m56.275 234.514c96.3 27.812 130.983 78.6 145.6 175.553l6.653 14.71c-10.059-116.684-62.815-172.713-151.19-194.126-2.518-.648-3.486 3.03-1.063 3.863z" fill="#919951"/><path d="m134.01 421.1c-15.46-26.219-56.577-26.382-74.837-3.02a1.512 1.512 0 0 0 1.749 2.338c20.483-7.891 52.862-3.5 63.012 18.4 7.766 5.239 14.127-4.075 10.076-17.718z" fill="#bfcc7f"/><path d="m57.734 310.7c-7.666-6.3-29.653-21.261-38.263-15.211l-.584.014c-7.155 14.825 30.126 37.95 40.567 16.7-.562-.524-1.143-1.025-1.72-1.503z" fill="#f4dcd0"/><path d="m124.576 117.813c-4.642-12.92-22.486-47.2-36.871-40.42a7.9 7.9 0 0 0 -2.971 1.623c-6.117 16.056 25.266 43.284 29.576 47.666 5.256-2.145 10.952-4.096 10.266-8.869z" fill="#f4dcd0"/><path d="m308.08 149.736c2.014-12.183 10.841-42.5 23.915-43.755 0 0 10.662 2.785 6.779 14.99s-17.938 34.95-17.938 34.95c-6.162 2.764-10.579 1.119-12.756-6.185z" fill="#f4dcd0"/><path d="m464.115 200.651c-12.493 1.5-27.772 10.766-35.585 16.717 0 0-2.3 6.545 3.367 10.063s27.561-6.255 27.561-6.255l9.773-12.509z" fill="#f4dcd0"/><path d="m288.511 441.89c-9.8-69.758-62.821-79.544-91.267-79.646a2.089 2.089 0 0 0 -.579 4.1c27.985 7.9 69.348 33.425 69.674 82.278h19.961z" fill="#4f424c"/><path d="m254.069 327.111c-43.739-40.959-108.879-28.3-134.168-21.228a1.514 1.514 0 0 0 .433 2.971c42.91-.545 74.751 9.927 98.52 26.006 17.585 10.146 41.246 13.54 35.215-7.749z" fill="#bfcc7f"/><path d="m254.065 327.116c-9.617 8.3-23.015 9.781-35.211 7.744 23.269 15.741 38.8 36.856 49.4 58.285 10.727-6.261 10.651-22.666 1.237-47.84a105.8 105.8 0 0 0 -15.426-18.189z" fill="#919951"/><path d="m268.245 393.148c9.41 19.036 14.934 38.316 18.523 54.29l9.5-6.115c-2.1-43.594-12.233-74.434-26.778-96.017 5.199 17.365 3.431 38.802-1.245 47.842z" fill="#919951"/><path d="m310.655 335.8c23.732-113.179 97.416-166.352 150.345-203.546a1.517 1.517 0 0 0 -1.115-2.738c-98.012 16.295-162.02 111.414-173.875 205.384 3.438 18.187 16.777 19.364 24.645.9z" fill="#bfcc7f"/><path d="m309.562 336.888c-7.175 6.81-18.175 6.928-23.542-1.992a385.461 385.461 0 0 0 -2.9 79.473c3.7 13.123 14.793 16.328 19.922 8.3-.588-32.4 2.233-61.175 7.622-86.87-.364.373-.719.741-1.102 1.089z" fill="#919951"/><path d="m222.346 409.6c-6.273 3.715-14.5 4.53-20.475.466 1.474 14.473 1.817 27.048 2.041 36.3l16.972.4q1.516-19.735 1.462-37.166z" fill="#919951"/><path d="m286.607 418.822a19.026 19.026 0 0 1 -3.485-4.453c.683 11.35 1.768 22.755 3.178 34.249l17.88.319c-.612-8.8-.98-17.95-1.131-26.263a17.654 17.654 0 0 1 -16.442-3.852z" fill="#919951"/><path d="m305.659 367.637c13.531-95.794 72.742-185.075 157.075-232.9 3.056-1.732.282-6.5-2.756-4.715-84.5 49.9-146.778 138.911-158.1 237.109-.194 2.133 3.475 2.66 3.776.511z" fill="#919951"/><path d="m163.1 420.12a1.514 1.514 0 0 0 -1.5-2.251c-5.3.608-16.28 3.489-22.087 16.681a41.573 41.573 0 0 0 -5.432-13.331c.18 6.472-1.408 14.9-10.151 17.6a30.824 30.824 0 0 1 2.558 8.165l31.912-.284c-2.77-11.523 2.076-22.021 4.7-26.58z" fill="#919951"/><path d="m63.732 320.65c.3-3.276-1.8-6.116-4.278-8.442-9.974 8.435-23.854 2.221-32.5-5.4-3.574-2.882-7.3-6.445-7.475-11.3a6.8 6.8 0 0 0 -1.746 1.767c-13.816 15.243 42.167 44.64 45.999 23.375z" fill="#e5b6a0"/><path d="m124.575 117.813c-17.159 16.3-35.413-26.1-39.84-38.8-13.472 12.639 13.954 50.106 28.723 52.353 8.518 1.446 13.991-5.466 11.117-13.553z" fill="#e5b6a0"/><path d="m342.033 112.631c-1.217-3.209-4.046-6-7.467-6.282a7.628 7.628 0 0 0 -2.571-.358c7.347 8.431-3.007 29.553-7.5 38.268-3.343 6.974-9.5 10.326-16.413 5.477-1.392 8.14 4.745 13.948 12.649 10.967 13.54-6.273 25.507-33.825 21.302-48.072z" fill="#e5b6a0"/><path d="m464.116 200.659c5.229 10.9-3.966 15.062-11.9 19.765-7.183 4.485-19.787 6.4-23.678-3.053-11.688 9.722-.046 19.524 11.692 16.784 11.049-.7 43.955-15.36 33.863-29.646-1.882-3.264-5.528-4.247-9.977-3.85z" fill="#e5b6a0"/></svg>