<svg id="flat" height="512" viewBox="0 0 500 500" width="512" xmlns="http://www.w3.org/2000/svg"><g fill="#4f424c"><path d="m292.869 412.779c15.645-30.3 52.492-50.174 83.084-28.846a53.6 53.6 0 0 1 12.669 13.876 1.645 1.645 0 0 0 2.982-1.276c-16.284-70.03-70.612-44.013-82.133-35.218-12.029 9.184-20.671 23.326-21.319 38.446z"/><path d="m220.544 410.6c-8.924-18.737-39.484-32.49-60.2-33.749-18.531-1.126-37.307 7.344-49.027 21.684a1.647 1.647 0 0 1 -2.883-1.384 64.806 64.806 0 0 1 21.366-35.718c43.329-37.259 84.637 8.427 96.083 26.717z"/><path d="m290.081 378.744c12.75-50.342 35.9-114.763 85.13-138.932 7.535-3.379 44.095-12.053 55.094 43.025a1.649 1.649 0 0 1 -2.77 1.5c-51.076-49.683-89.117 31.034-95.161 48.52z"/><path d="m174.933 239.153c-36.9-15.251-77.549 3.412-98.57 35.706a1.645 1.645 0 0 0 2.014 2.452c23.965-10.7 42.32-11.788 56.486-7.616a2.506 2.506 0 0 0 2.716-.9c1.5-1.892 3.336-3.653 5.419-4.173 5.62-.705 5.053 4.246 3.646 8.057a2.42 2.42 0 0 0 1.02 2.765c22.2 13.85 30.6 41.863 35.256 53.065 0 0 27.271-19.058 30.745-58.708 0-.001-12.165-20.16-38.732-30.648z"/><path d="m335.683 99.567c-41.1-29.838-81.52 18.62-95.036 55.146a205.29 205.29 0 0 0 -6.847 19.687 2.452 2.452 0 0 0 1.492 2.973l13.747 5.2q-8.441 2.523-17.045 4.439a2.447 2.447 0 0 0 -1.863 1.867c-14.165 64.474 6.613 129.3 27.393 190.87l42.61-115.024c-6.034-20.507-7.086-42.138-7-63.514a194.636 194.636 0 0 1 5.045-42.293 2.436 2.436 0 0 0 -1.134-2.686c-3.924-2.286-10.88-6.447-11.462-7.681 4.233-.234 11.686-1.324 14.8-1.8a2.454 2.454 0 0 0 1.925-1.58c5.086-13.677 12.626-24.37 23.44-26.255 18.129-3.159 20.994 20.842 22.164 27.251 3.425.243 7.349-16 7.349-16-2.888-12.007-9.697-23.182-19.578-30.6z"/></g><path d="m172.7 295.358c-19.581-4.168-43.39-3.683-58.586-.146l-24.883 8.6a101.622 101.622 0 0 0 -15.545 9.488s25.667 14.013 63.061 5.618 35.953-23.56 35.953-23.56z" fill="#bfcc7f"/><path d="m176.659 296.282c-1.292-.328-2.616-.629-3.957-.916-6.99 8.362-15.529 15.326-25.706 18.985-23.347 7-49.765 3.849-73.306-1.044a114.445 114.445 0 0 0 -15.2 13.611 1.641 1.641 0 0 0 1.483 2.737c23.911-4.078 44.82-3.167 62.954.9a2.436 2.436 0 0 0 2.569-1.029 21.775 21.775 0 0 1 8.006-7.279 5.666 5.666 0 0 1 8.341 4.971 22.106 22.106 0 0 1 -.884 6.258 2.427 2.427 0 0 0 1.444 2.966 142 142 0 0 1 52.622 35.931l6.025-28.658c-1.575-28.915-24.391-47.433-24.391-47.433z" fill="#919951"/><path d="m176.3 296.2c13.653 23.333 20.461 49.828 18.717 76.177 16.53 17.72 24.75 34.977 26.059 39.861l14.881-.57 7.593-11.546c2.15-14.647.364-87.009-67.25-103.922z" fill="#4f424c"/><path d="m412.6 348.028c10.072 8.385 20.574 20.713 29.714 37.581a1.645 1.645 0 0 0 3.1-.707c2.409-33.154-23.726-110.5-79.685-93.4 0 0-8.574 20.033 9.851 28.845 17.365 4.913 29.193 14.581 37.02 27.681z" fill="#bfcc7f"/><path d="m412.6 348.034c-2.542-30.566-44.865-32.309-46.866-56.53-21.2 5.851-39.183 23.208-52.971 42.416-6.36 10.329-10.831 23.856-1.236 35.323 12.187-17.067 24.59-28.026 42.608-33.288a2.472 2.472 0 0 0 1.793-2.393c-.031-5.992 2.013-16.2 4.748-16.233 6.17-.084 7.187 8.471 7.553 13.61a2.427 2.427 0 0 0 2.512 2.264 68.984 68.984 0 0 1 15.922 1.109c7.237 1.369 16.392 5.782 25.937 13.722z" fill="#919951"/><path d="m283.265 392.994 9.6 19.785c2.76-15.311 9.718-30.667 18.659-43.532a71.723 71.723 0 0 1 1.233-35.325c-15.939 22.212-26.278 46.886-29.492 59.072z" fill="#4f424c"/><path d="m391.629 179.405a71.55 71.55 0 0 1 20.844-7.471 2.305 2.305 0 0 0 1.917-2.077c.641-7.227 2.878-33.971 2.25-48.386a106.6 106.6 0 0 1 17.766 44.687 2.3 2.3 0 0 0 1.978 1.961c26.564 3.344 43.35 28.884 49.52 53.179a1.65 1.65 0 0 0 3.237-.382c.876-22.436 4.1-107.064-53.156-128.906a33.092 33.092 0 0 1 -11.49-3.335c-59.531-12.44-114.756 56.53-141.952 145.856l21.694 7.506 55.973-55.55c13.27-7.354 23.295-8.916 31.419-7.082z" fill="#bfcc7f"/><path d="m391.629 179.406c-15.086-23.579-53.571-39.31-80.7 31.236-4.271 10.542-17.179 21.293-28.382 23.891a310 310 0 0 0 -10.582 56.491l12.725 94.842c1.2.28 2.415.5 3.637.694 13.671-45.416 13.961-52.342 22.218-84.574a2.43 2.43 0 0 0 -.694-2.449q-5.361-4.927-11.028-9.5a59.1 59.1 0 0 1 14.053-1.8 2.467 2.467 0 0 0 2.338-1.692c22.218-68.001 54.775-95.811 76.415-107.139z" fill="#919951"/><path d="m292.869 412.779c1.721-25.108 5.882-55.231 9.435-75.386 0 0-6.379 15.181-10.385 27.842a.987.987 0 0 1 -1.921-.161c-2.96-34.166-18.021-74.048-18.021-74.048a449.491 449.491 0 0 0 -14.023 114.482l12.165 6.727z" fill="#4f424c"/><path d="m10.515 138.213c.047-.022.094-.041.141-.063-.043-.018-.087-.038-.129-.057z" fill="#8fad96"/><path d="m249.835 258.076c-13.843-34.687-35.537-66.688-63.885-90.7l-10.8 5.208 4.644-10.227c-45.7-36.449-111.865-49.233-165.76-25.729a1.644 1.644 0 0 0 -.04 3.007c22.733 10.325 51.945 28.452 81.812 53.26a2.449 2.449 0 0 0 3.5-.382 150.058 150.058 0 0 1 23.807-24.247q-4.443 14.628-9.3 29.125a14.079 14.079 0 0 0 3.77 14.732c10.963 10.283 21.822 21.433 32.292 33.4a2.441 2.441 0 0 0 2.738.665l13.577-5.389-4.425 10.01a10.278 10.278 0 0 0 1.35 10.562c18.315 27.105 37.894 38.158 72.49 52.675 10.095-18.024 18.413-36.252 14.23-55.97z" fill="#bfcc7f"/><path d="m251.032 261.135c-.392-1.022-.815-2.032-1.221-3.049-1.678 16.718-13.178 35.305-30.906 36.71-16.466.242-32.749-9.612-45.252-19.646a380.984 380.984 0 0 1 40.206 68.361c4.062-.556 10.488-2.052 13.225 1.788 1.824 5.879-1.414 12.572-5.5 16.811q1.367 3.591 2.653 7.225s10.014 18.817 24.628 26.8c12.557-13.329 20.747-29.513 20.8-51.016-2.565-28.879-8.434-57.431-18.633-83.984z" fill="#919951"/><path d="m270.119 412.235a427.7 427.7 0 0 0 -.454-67.117c-4.322 14.376-10.525 28.516-19.223 39.978-5.493 7.437-22.486-10.729-26.211-15.757a307.9 307.9 0 0 1 11.725 42.326z" fill="#4f424c"/><path d="m45.057 136.689c108.389-4.936 179.017 99.35 201.468 194.39 4.564 18.018 8.281 36.743 8.3 55.4 0 4.343 6.755 4.351 6.75 0-.019-16.734-3.091-33.58-6.878-49.821-22.189-99.366-94.89-213.158-209.641-203.976-2.548.164-2.601 4.058.001 4.007z" fill="#4f424c"/><path d="m424.492 88.691c-96.958 33.692-133.961 144.232-147.864 237.057l2.023 15.076a2.454 2.454 0 0 0 2.2-2.085c13.705-96.693 50-216.957 155.136-246.723a74.9 74.9 0 0 0 -11.495-3.325z" fill="#4f424c"/><path d="m200.755 340.358a61.069 61.069 0 0 0 -3.845-15.383c-22.335-20.282-52.964-29.733-82.789-29.753a107.1 107.1 0 0 0 -24.88 8.6c38.216-7.392 88.459 2.805 111.514 36.536z" fill="#4f424c"/><path d="m307.783 345.926c10.275-22.472 29.306-44.671 54.44-49.869 14.156-2.051 28.668 4.8 38.977 14.013 11.539 10.315 19.819 24.46 26.423 38.307 1.109 2.324 5.1.68 4.2-1.77-27.36-74.735-97.713-74.828-128.322-2.487-.961 2.449 3.215 4.236 4.284 1.806z" fill="#4f424c"/></svg>