<svg id="flat" height="512" viewBox="0 0 500 500" width="512" xmlns="http://www.w3.org/2000/svg"><path d="m126.22 277.177a70.2 70.2 0 0 0 43.285 19.815c-5.872 23.013-32.13 9.69-52.508-6.411-1.057-7.369 2.916-13.404 9.223-13.404z" fill="#e57e80"/><path d="m187.721 296.392a81.271 81.271 0 0 1 -18.216.6c-7.851 7.07-18.206 10.657-28.21 13.672 20.317 8.2 42.858 10.364 64.157 4.874-2.069-8.649-7.865-15.098-17.731-19.146z" fill="#bc5b65"/><path d="m246.16 311.593-23.694-27.086a100.158 100.158 0 0 1 -34.745 11.88c6.375 5.945 11.856 12.734 17.731 19.147 13.636-2.941 27.179-6.546 40.708-3.941z" fill="#4f424c"/><path d="m127.378 278.244c-14.412-12.759-18.765-33.994-17.015-53.06l-14.452.928c-7.1 38.444 13.14 62.666 24.5 72.324-3.806-6.967-.891-18.395 6.967-20.192z" fill="#4f424c"/><path d="m327.207 344.646c8.785-48.992 85.734-27.62 66.119-127.093l-12.483.768c6.718 23.441 2.92 51.567-15.931 68.355-13.463 12.038-51.866 19.579-85.23 7.85z" fill="#4f424c"/><path d="m322.463 494.348c-3.664-3.232-6.236-8.376-11.049-10.265-2.731-1.073-5.945-.816-8.426-2.382-2.814-1.777-3.8-5.311-5.271-8.3-8.327-16.928-26.752-13.6-26.752-13.6s-8.011 20.107-2.68 37.2h53.206a1.505 1.505 0 0 0 .972-2.653z" fill="#4f424c"/><path d="m325.757 326.139c-8.171-8.37-18.049-14.813-27.992-20.882-4.951-1.556-11.306-5.747-18.083-10.731-13.533-8.2-27.6-17.494-36.735-30.533-11.279-10-45.541-14.24-40.743 6.632 13.627 27.047 38.463 38.631 53.18 58.339 11.678 15.639 9.878 51.23-37.311 71.886-22.276 34.554-6.633 45.428 30.892 42.635 37.946-15.655 71.315-37.536 96.72-70.249 1.77-17.38-7.756-34.565-19.928-47.097z" fill="#e57e80"/><path d="m345.685 373.236a56.8 56.8 0 0 0 -.346-12.506c-2.26-16.084-26.186-14.418-25.837 1.82.432 28.322-20.187 47.855-29.851 41.061-6.334-4.272-3.569-14.711-3.569-14.711-12.644 19.772-40.193 35.545-48.43 41.105 0 0-14.168 10.979-21.852 1.919s9.817-22.977 9.817-22.977l-8.677-4.2-15.6 7.732c-21.99 20.663-38.129 56.2-38.129 56.2 16.354 19.943 59.315 16.9 104.762 20.481a50.038 50.038 0 0 1 5.594-29.355c17.77-51.18 67.667-31.486 72.118-86.569z" fill="#bc5b65"/><path d="m187.4 220.041c0 25.246 4.271 42.6 10.781 55.522 2.109-22.918 28.189-20.313 44.771-11.574-7.956-11.364-11.831-25.047-8.559-41.73-15.159-3.459-33.056-5.694-46.993-2.218z" fill="#4f424c"/><path d="m424.984 92.806a33.119 33.119 0 0 1 -5.03-10.14c-13.164-41.676-48.275-48.029-63.765-48.753a119.482 119.482 0 0 0 -38.738 4.969 14.019 14.019 0 0 1 -15.892-6.158c-17.549-29.2-56.734-35.6-87.211-24.795-8.9 2.921-17.99 7.774-24.285 14.777a13.8 13.8 0 0 1 -12 4.4c-21.78-2.362-40.285 6.331-52.643 26.658a30.663 30.663 0 0 1 -22.467 15.174c-18.879 2.395-37.14 9.856-52.993 20.517-17.018 10.452-33.233 32.045-19.481 51.09 0 0-7.4 77.8 175.818 77.8s221.012-5.967 221.012-5.967 34.165-71.431-2.325-119.572z" fill="#7bb7b7"/><path d="m424.984 92.806a35.747 35.747 0 0 1 -5.03-10.14c-6.05-19.154-16.737-30.833-28.024-37.948 14.148 27.4-5.435 64.4-36.007 67.634-6.311.7-15.018-2.053-12.217-9.9 4.654-7.768 6.333-17.295 3.079-25.937a3.927 3.927 0 0 0 -7.055-.665c-11.282 19.09-33.368 31.432-55.522 31.329a3.934 3.934 0 0 0 -2.4 7.1 41.5 41.5 0 0 0 35.446 6.419c2.951-.862 6.011 2.175 4.6 4.908-18.6 36.161-81.54 26.274-95.5 1.164-1.252-2.253-1.48-5.63.974-6.42 11.114-3.575 14.136-6.83 18.023-14.862 1.767-3.651-.707-7.624-4.568-6.382a59.7 59.7 0 0 1 -60.534-14.6 4.094 4.094 0 0 0 -6.973 3.179 36.651 36.651 0 0 0 7.589 20.3c1.671 2.105 0 4.125-2.451 5.222-27.681 12.372-49.834 9.521-68.206-12.62-7.208-8.687-5.924-21.423-2.876-32.561-20.332 2.926-40.29 9.543-57.371 21.429-17.02 10.454-33.233 32.046-19.482 51.09l7.834 36.483s52.236 56.806 185.437 37.218l191.314 11.754s52.487-92.051 9.92-133.194z" fill="#4d8489"/><g fill="#4f424c"><path d="m270.855 469.2c-11.4 18.518-50.144 18.286-51.075-7.373-.119-3.278-5.074-4.2-5.893-.8-1.321 5.489-3.161 11.139-7.566 14.963-5.133 4.456-11.81 4.21-16.551-.651-16.241-18.4 12.776-47.242 27.627-57.542 9.826-6.777 20.849-11.617 30.385-18.841 16.583-12.563 29.074-31.982 26.8-53.507-5.256-39.562-54.394-45.778-67.24-95.495-10.759 2.9-10.579 13.8-9.166 25.611 13.627 27.048 37.084 34.637 51.8 54.345 11.678 15.639 13.208 43.1-33.982 63.755-30.029 13.145-52.052 43.624-59.481 76.324 0 0-3.209 9.405-8.134 14.565-4.284 4.489-9.853 7.4-15.772 9.522a1.5 1.5 0 0 0 .5 2.923h135.178c-1.108-9.655.757-20.362 2.57-27.799z"/><path d="m205.452 315.534a25.566 25.566 0 0 0 -3.245-7.764c-39.744 10.287-76.745-10.463-84.745-22.464-.123 2.931-.022 8.514 1.737 11.8.744.846 1.211 1.329 1.211 1.329v.015c23.432 18.5 56.24 24.267 85.043 17.084z"/><path d="m475.591 122.646c-11.36-10.508-37.821-12.026-50.591-29.852 8.146 20.949 10.108 39.834-2.049 64.292-15.189 30.554-58.946 34.221-76.99 18.381 0 0-10.29-10.228-28.255-12.782a4.957 4.957 0 0 0 -3.153 9.2c9.183 4.854 25.448 9.264 22.086 22.376a14.016 14.016 0 0 1 -4.989 7.095c-19.533 14.966-48 15.674-68.987 3.42a5.208 5.208 0 0 1 .426-9.185 39.326 39.326 0 0 0 14.265-11.167 3.64 3.64 0 0 0 -3.92-5.729 66.7 66.7 0 0 1 -48.083-4.194 2.416 2.416 0 0 0 -3.474 2.654c.763 3.378 3.336 8.338 10.965 13.816a4.905 4.905 0 0 1 .774 7.309c-4.162 4.512-12.642 5.364-19 3.157-8.153-2.827-15.43-8.64-24.042-9.191-13.974-.9-25.032 12.116-38.761 14.869-35.834 6.9-42.6-44.528 1.257-28.063 6.324 2.8 13.477-.589 19.531-3.767 15.417-8.094 26.068-27.525 44.609-28.944 3.517-.269 4.471-5.236.854-6.306-26.552-7.345-47.035 23.356-71.1 17.523-7.812-2.025-14.269-9.314-22.552-8.581-8.085.714-15.44 5.817-23.184 8-7.027 1.983-17.654 3.688-20.731-4.977a16.107 16.107 0 0 1 -.767-3.471 7.1 7.1 0 0 0 -9.586-5.927c-11.1 4.34-28.055 6.223-37.228-4.411-11.114 6.228-22.595 19.26-24.74 31.818s3.74 26.658 15.2 32.222c-16.223 11.55-13.629 37.053 4.587 45.1 29.2 10.257 57.114-11.578 85.759-15.864 25.636 11.335 57.449 9.269 81.013-5.91 20.6 16.628 42.4 9.209 49.713 2.306 22.906 15.478 54.089 18.617 80.2 9.207a54.222 54.222 0 0 1 39.507 1.4c34.873 15.342 92.7 10.346 113.343-25.22 4.737-9.964 3.722-23.233-4.614-30.461 12.716-4.742 34.973-30.298 2.707-60.143z"/><path d="m278.848 319.517c25.849 30.145 17.935 58.987-8.109 85.5-2.029 2.129 1.205 5.371 3.233 3.232 10.34-10.906 20.824-25.234 24.233-40.134 9.383-53.872-54.9-74.083-76.791-114.326-1.217-2.078-4.091-.258-3.158 1.846 12.165 27.406 41.869 41.73 60.592 63.882z"/><path d="m258.7 414.078c-2.446-.239-4.235 3.269-1.56 4.422 2.914.9 5.09-3.733 1.56-4.422z"/><path d="m254.664 476.237c-.353-13.668 5.336-26.816 13.251-37.714 7.9-10.745 19.486-16.159 29.155-24.88 6.521-5.881 13.4-12.71 17.521-20.583 14.944-28.969 2.9-64.292-16.826-87.8 0 0-11.852-7.245-18.082-10.732 20.326 17.574 36.651 40.153 37.248 67.82.482 19.079-5.818 32.383-19.864 45.038-8.551 8.469-19.607 13.633-27.937 22.37a72.278 72.278 0 0 0 -20.165 46.011v21.233h6.035z"/><path d="m217.63 467.658c5.17-19.378 12.743-29.831 28.816-41.759 1.7-1.363-.469-3.906-2.258-2.927-14.594 7.982-33.394 26.355-30.219 44.686.351 2.03 3.075 1.561 3.661 0z"/></g><path d="m161.776 74.752c-4.233.809-4.294 9.19-1.41 11.508 1.314 1.032 3.8.954 4.173-1.1.282-1.578-.133-3.208-.095-4.816.335-2.188.62-6.007-2.668-5.591z" fill="#4d8489"/><path d="m150.545 69.133c-5.339 1.214-4.627 10.021.271 11.238a2.216 2.216 0 0 0 2.684-2.681c-.258-1.172-.9-1.8-.859-3a14.927 14.927 0 0 1 .3-2.843q-.15-1.172-.056-.376c.36-1.28-.949-2.885-2.335-2.336z" fill="#4d8489"/><path d="m352.517 68.964c1.723 2.78 1.6 6.117 2.225 9.19a2.572 2.572 0 0 0 4.663.479c2.121-3.867.084-9.259-2.441-12.414-2.057-2.572-6.119-.277-4.447 2.745z" fill="#4d8489"/><path d="m361.518 58.185c-.366 1.741.685 3.292 1.215 4.928a20.405 20.405 0 0 0 1.843 5 1.888 1.888 0 0 0 3.406-.445c.855-2.983-1.235-9.59-4.287-10.717a1.782 1.782 0 0 0 -2.177 1.236z" fill="#4d8489"/></svg>