<svg id="flat" height="512" viewBox="0 0 500 500" width="512" xmlns="http://www.w3.org/2000/svg"><path d="m407.386 294.812c-.146-26.423 8.885-53.645 28.179-71.7 7.429-7.27 18.723-13.352 29-8.743 14.9 8.053 15.741 28.478 15.013 43.663a1.543 1.543 0 0 1 -3.035.3c-3.713-13.8-13.061-29.286-27.565-19.035-18.433 13.029-18.877 43.619-14.974 65.852z" fill="#4f424c"/><path d="m324.747 181.507c15.864 10.314 49.764 41.111 13.606 86.97 0 0 21.439 10.605 37.9 4.572 0 0 20.1-92.043-50.634-94.384a1.544 1.544 0 0 0 -.872 2.842z" fill="#4f424c"/><path d="m386.663 173.561c-7.481-38.931-27.11-71.361-74.221-69.609a1.543 1.543 0 0 0 -.416 3.009c45.182 14.5 57.851 63.829 57.215 109.255l13.021-10.563c3.711-10.2 5.823-20.753 4.401-32.092z" fill="#bfcc7f"/><path d="m386.661 173.562c-3.247 15.349-8.33 30.051-17.426 42.653-.346 24.677-4.612 48.2-9.731 64.369l28.149 8.46c.719-21.575 7.27-72.492-.992-115.482z" fill="#919951"/><path d="m426.985 175.017c6.848-4.742 26.711-5.118 34.087 18.63a1.542 1.542 0 0 0 3-.23c1.971-12.73 1.181-24.951-.648-30.568-1.991-6.113-8.811-8.846-15.215-8.274-.002 0-17.856 13.236-21.224 20.442z" fill="#919951"/><path d="m415.22 230.808c7.934-65.138 39.688-67.768 48.2-67.959-2.224-9.223-9.707-15.477-20.746-16.779-42.6-2.47-59.755 70.754-58.708 103.98 11.252 4.094 21.609-3.09 31.254-19.242z" fill="#bfcc7f"/><path d="m391.83 246.5a48.27 48.27 0 0 1 -7.856 3.552 154.069 154.069 0 0 0 2.862 27.705l27.431 11.451c-1.481-23.611-.941-42.79.961-58.4a154.9 154.9 0 0 1 -23.398 15.692z" fill="#919951"/><path d="m16.505 279.287c43.381 18.17 53.708 70.9 52.5 113.533l11.686-8.789c9.689-63.822-14.035-110.451-64.241-104.594z" fill="#4f424c"/><path d="m84.809 291.531c-8.415-29.576-26.112-57.189-62.094-66.5l.728.361c19.268 18.367 38.76 51.915 48.8 97.5 0 0 6.943.894 12.564-8.731 3.541-6.061.002-22.63.002-22.63z" fill="#4f424c"/><path d="m241.139 306.832-15.421 80.31-89.27 12.794-28.224-10.4 2.612-178.424c18.551-57.412 56.539-88.271 83.074-116.922a18.58 18.58 0 0 1 10.7-5.225c36.943 21.624 61.29 69.184 36.529 217.867z" fill="#b6c3dd"/><path d="m265.7 410.2h-132.4s-57.5.055-54.247-30.6 46.06-40.288 46.06-40.288c-12.489 23.265-7.078 44.122 22.135 38.381 46.711-6.329 92.5-49.049 69.4-97.558-6.438-11.744-17.683-20.967-21.471-33.733-5.034 3.172-10.069 6.342-15.149 9.436-3.218 1.959-6.644-1.867-4.978-4.978q18.4-34.9 36.4-69.974c9.018-31.219 9.849-65.359-6.843-91.914 9.341-1.491 15.525 5.194 22.288 10.452 0 0 34.959 35.944 49.879 60.1l62.656 230.007z" fill="#7b8aa5"/><path d="m265.7 410.2c-9.382 2.225-164.073-11.169-178.476-12-5.563-4.395-9.042-10.4-8.17-18.6 3.256-30.656 46.06-40.288 46.06-40.288-12.489 23.265-7.078 44.122 22.135 38.381 46.711-6.329 92.5-49.049 69.4-97.558-6.438-11.744-17.683-20.967-21.471-33.733-5.034 3.172-10.069 6.342-15.149 9.436-3.218 1.959-6.644-1.867-4.978-4.978q18.4-34.9 36.4-69.974c9.018-31.219 9.849-65.359-6.843-91.914 9.341-1.491 15.525 5.194 22.288 10.452 0 0 34.959 35.944 49.879 60.1l62.656 230.007z" fill="#7b8aa5"/><path d="m83.248 298.854c-11.977-71.354-40.886-105.037-65.176-119.68a1.543 1.543 0 0 1 .895-2.855c40.25 1.848 68.8 39.093 75.637 76.545-1.142 20.357-3.304 38.772-11.356 45.99z" fill="#bfcc7f"/><path d="m90.42 380.087c.384-4.89 1.467-16.047 1.51-30.287 5.741-34.31 9.754-70.3.907-104.367-1.952 12.111-3.757 24.251-6.153 36.28-2.778 13.943-4.74 30.249-14.455 41.182a306.481 306.481 0 0 1 6.959 65.735z" fill="#4f424c"/><path d="m62.3 378.023c4.851-16.552 18.283-28.44 25.453-43.9 5.567-12.267 6.5-26.05 7.53-39.483q2.293-29.887 5.778-59.668c1.015-8.669 2.119-17.394 4.857-25.681 10.251-25.163 25.574-45.246 43.542-67.235-39.3 60.719-39.4 77.284-30.364 147.956a14.233 14.233 0 0 0 20.523 10.6c11.965-6.067 26.925-13.327 40.622-21.54a4.3 4.3 0 0 1 5.791 6.081c-18.909 28.055-41.654 48.443-69.345 73.532-9.7 9.359-32.752 27.087-15.151 39.3-15.696 2.815-34.836 5.685-39.236-19.962z" fill="#7b8aa5"/><path d="m357.4 286.108c-.6-35.621-29.154-29.3-44.9-51.371-3.03-5-4.146-10.9-5.312-16.631a490.93 490.93 0 0 0 -12.771-49.45c-2.244-7.132-4.711-14.332-9.065-20.41-4.137-5.776-9.783-10.267-15.352-14.679l-43.1-34.141a263.876 263.876 0 0 1 15.41 22.275c7.46 11.639 15.22 24.434 13.962 38.2-.649 7.109-3.686 13.752-6.713 20.217q-13.817 29.51-28.59 58.558a2.452 2.452 0 0 0 3.882 2.883c3.407-3.258 9.365-8.622 14.691-13.364a17.467 17.467 0 0 1 22.959-.241c10.62 9.059 24.979 22.885 28.218 33.811 4.587 15.477 1.114 32.448-6.079 46.9-4.627 9.295-10.686 17.736-17.227 25.829a2.9 2.9 0 0 0 4.065 4.1c10.162-8.219 19.33-18.318 32.03-19.381l15.209 58.769a322.314 322.314 0 0 1 43.087-31.067q-1.843-30.428-4.404-60.807z" fill="#4f424c"/><path d="m297.033 367.022c10.862-32.445 19.562-57.687 41.761-81.967l23.469-14.255 27.552 31.974-15.188 74.1-53.305 18.426c-13.722-5.324-24.814-12.569-24.289-28.278z" fill="#b6c3dd"/><path d="m293.829 401.959-5.183-16.031a123.8 123.8 0 0 0 8.386-18.906c3.205 13.257 17.139 15.654 28.837 11.7 12.714-3.875 29.358-18.24 39.88-36.144 7.039-13.128-12.947-17.48-5.329-32.438a125.388 125.388 0 0 0 4.682-12.738 12.548 12.548 0 0 0 -14.121-15.936 59.723 59.723 0 0 0 -12.186 3.586c3.8-4.329 19.61-22.881 23.6-27.176l6.874-2.111 45.988 49.835-17.724 100.236z" fill="#7b8aa5"/><path d="m265.7 410.2 217.842 1.033c.073-18.8-.526-41.858-13.014-55.91-2.868-3.226-6.316-6.025-8.408-9.8a33.424 33.424 0 0 1 -3-9.547q-2.166-10.457-4.333-20.914a20.209 20.209 0 0 0 -2.4-7.05c-24.71-21.476-54.083-37.827-82.571-53.936-2.6-.431-5.249 1.6-7.421 3.8 15.83 15.042 31.014 33.059 37.594 53.864 18.659 65.107-59.872 118.894-111.062 74.345-.002.006-17.327 19.77-23.227 24.115z" fill="#4f424c"/><g fill="#7b8aa5"><path d="m336.209 305.993c-3.765 3.453-6.1 8.973-7.66 13.783-.584 2.5 2.5 3.528 3.92 1.653a51.629 51.629 0 0 0 3.82-6.5c1.111-2.032 2.746-4.169 3.122-6.478.264-1.623-1.5-3.734-3.2-2.461z"/><path d="m338.717 321.087c-1.557 3-3.706 5.854-4.683 9.1a2.506 2.506 0 0 0 4.153 2.418c2.245-2.54 3.512-5.859 5.215-8.776 1.616-3.084-2.924-5.775-4.685-2.739z"/><path d="m329.35 344.848c3.228 0 3.233-5.016 0-5.016s-3.232 5.016 0 5.016z"/><path d="m147.319 243.268c-3.033 2.181-4.453 6.07-6.223 9.275-1.72 3.116-4.827 6.835-4.64 10.5a2.308 2.308 0 0 0 3.439 1.973c3.189-1.985 4.38-6.4 5.991-9.67 1.591-3.225 4.136-6.823 4.183-10.5a1.84 1.84 0 0 0 -2.75-1.578z"/><path d="m153.56 261.457c-2.951 1.658-4.846 5.34-6.557 8.166a57.15 57.15 0 0 0 -5.129 10.1c-1.245 3.47 4.259 5.773 5.954 2.51 1.614-3.106 2.9-6.367 4.569-9.454 1.5-2.767 3.939-5.645 4.486-8.765a2.293 2.293 0 0 0 -3.323-2.554z"/><path d="m166.6 236.684c-3.587 4.857-7.713 10.046-9.219 15.966a2.533 2.533 0 0 0 4.6 1.941c1.683-2.266 2.483-5.254 3.75-7.781 1.291-2.576 2.759-5.056 4.213-7.541 1.184-2.023-1.781-4.512-3.349-2.585z"/><path d="m178.985 141.21c-4.273 5.165-9.167 10.567-12.35 16.49a2.709 2.709 0 0 0 4.675 2.733c3.653-5.61 6.6-11.532 10.693-16.894 1.315-1.719-1.628-4.009-3.018-2.329z"/><path d="m183.85 154.912c-2.477 2.895-4.817 5.9-7.163 8.9-2.206 2.823-5.89 5.989-6.407 9.6-.3 2.123 1.641 4.065 3.753 2.885 3.114-1.741 4.593-5.763 6.353-8.755 2.067-3.515 4.189-6.992 6.114-10.589.864-1.614-1.351-3.564-2.65-2.045z"/><path d="m167.661 351.63c1.859-1.575 3.244-3.857 4.7-5.8 1.356-1.815 3.671-3.948 3.365-6.375a2.351 2.351 0 0 0 -2.923-2.226c-2.533.633-3.65 3.452-4.919 5.518-1.344 2.188-2.94 4.374-3.764 6.82-.732 2.171 2.06 3.323 3.545 2.064z"/><path d="m182.377 347.557c3.628-.886 5.335-5.32 7.155-8.283a69.121 69.121 0 0 0 5.942-11.4c.826-2.176-2.341-3.846-3.839-2.235a69.092 69.092 0 0 0 -7.582 10.436c-1.9 3.027-4.955 6.374-4.127 10.095a2.024 2.024 0 0 0 2.451 1.391z"/></g><path d="m269.373 273.825c3.093 9.327-4.852 19.24-11.4 25.472a5.341 5.341 0 0 1 -8.92-2.9c-1.411-7.578-4.224-18.457-9.613-27.248-9.674-21.794 18.782-29.349 29.933 4.676z" fill="#b6c3dd"/><path d="m376.137 306.259q-.406.332-.025 0a9.085 9.085 0 0 0 -3.284 4.069 3.088 3.088 0 0 0 4.482 3.446c1.532-.8 2.555-2.541 3.362-4.012a2.9 2.9 0 0 0 -4.535-3.5z" fill="#b6c3dd"/><path d="m258.419 351.752a4.087 4.087 0 0 0 -2.859-.683c-1.2.168-4.507 3.88-4.721 4.613a3.972 3.972 0 0 0 4.255 5.057c1.272-.253 3.693-2.662 3.821-2.869.129-.124 2.794-3.917-.496-6.118z" fill="#4f424c"/><path d="m243.972 372.606a2.533 2.533 0 0 0 -3.933-3.169c-19.355 20.948-51.961 28.991-70.383 31.014-25.09 2.755-50.47.294-75.416-3.551-12.781-1.551-26.889-5.894-31.938-18.877-2.671 7.269-7.744 19.256-18.769 28.969a1.828 1.828 0 0 0 1.19 3.212h197.593a24 24 0 0 1 -7.7-7.8c-3.81-10.135 6.135-25.284 9.356-29.798z" fill="#4f424c"/></svg>