<svg id="flat" height="512" viewBox="0 0 500 500" width="512" xmlns="http://www.w3.org/2000/svg"><path d="m174.205 251.723a2.014 2.014 0 0 0 -2.205 3.241c20.431 21.984 25.868 56.17 34.538 86 9.5 32.676 24.962 63.565 48.3 87.671a182.206 182.206 0 0 1 67.7-61.479c27.48-14.555 49.531-40.211 57.441-66.822a2.782 2.782 0 0 0 -2.462-3.573c-47.421-.494-93.521 42.085-117.387 80.858-2.616-61.05-47.686-111.153-85.925-125.896z" fill="#4f424c"/><g fill="#d37569"><path d="m372.369 219.221a262.025 262.025 0 0 0 -32.7 25.9 69.177 69.177 0 0 0 1.925-19.576c-1.1-2.391-5.474-.009-5.771 2.231-1.215 10.092-2.674 20.547-8.261 29.316a274.95 274.95 0 0 0 -31.523 40.013c.369-5.5-.128-11.217-2.986-14.916a2.278 2.278 0 0 0 -3.825.808c-1.214 3.74-.074 7.59-.049 11.48a59.123 59.123 0 0 1 -3.363 19.8c-12.11 22.321-21.12 46-25.565 70.887-1.264 7.157-2.96 15.02-1.821 22.273.345 2.2 3.663 2.251 4.289.214 1.879-6.112 2.049-12.757 3.2-19.041a233.149 233.149 0 0 1 19.5-58.722c7.989-16.308 21.206-31.631 39.635-35.581 3.715-.8 2.426-6.282-1.274-5.72a46.619 46.619 0 0 0 -18.829 7.586 273.488 273.488 0 0 1 26.031-32.533c7.437-4.991 16.123-6.474 25.033-6.615 3.737-.059 4.093-5.618.292-5.852a51.141 51.141 0 0 0 -14.024 1.054 292.113 292.113 0 0 1 33.933-27.473c3.13-2.182-.633-7.679-3.847-5.533z"/><path d="m305.54 243.2c-7.728-.394-16.751 8.237-21.645 13.461-4.852 5.178-9.7 12.358-4.36 18.648.09.413 7.3 8.466 10.507 12.216a3.377 3.377 0 0 0 5.284-.415c3.685-5.989 30.174-42.889 10.214-43.91z"/><path d="m353.344 279.152c-3.776-2.714-8.745-1.993-12.839-.515-5.727 2.068-28.776 10.2-18.544 16.608 6.679 4.182 12.39 11.34 19.471 14.867 16.036 7.56 22.386-23.264 11.912-30.96z"/><path d="m372.979 246.106c-16.385.148-22.047 8.283-20.043 10.961 4.158 5.557 8.27 12.547 13.747 16.871 9.232 7.29 17.242-5.16 18.76-13.209 1.689-8.954-3.114-14.708-12.464-14.623z"/><path d="m336.727 231.911c5 2.974 10.619-9.213 12.83-12.481 6.963-11.42-5.739-19.641-16.556-16-15.926 5.144-7.091 22.878 3.726 28.481z"/><path d="m402.539 196.844c-8.911-9.178-30.769-11.151-31.687 5.574 0 0-3.488 23.123-.139 23.25 9.918.374 21.379-.85 30.034-6.259 9.258-5.787 9.708-15.369 1.792-22.565z"/></g><path d="m243.875 197.838a132.951 132.951 0 0 1 4.905-25.075c1.211-4.132-5.3-5.753-6.481-1.626q-1.923 6.707-3.163 13.545c-2.451-13.106-13.568-47.651-.174-75.946 1.757-3.711-3.869-6.84-5.6-3.1a97.726 97.726 0 0 0 -7 20.68c-.736-2.918-11.971-46.809-20.291-64.142-1.506-3.137-6.322-.737-5.428 2.438 4.117 14.632 9.377 28.928 13.636 43.542a106.938 106.938 0 0 0 -20.579-14.385c-3.556-1.863-6.035 3.086-2.941 5.311 5.5 3.955 10.874 7.951 16.527 11.722 14.83 10.555 18.279 43.87 21.888 60.346-3.166-5.272-6.609-10.562-10.85-14.866-2.288-2.321-5.655.769-4.247 3.437 4.923 8.573 14.065 22.538 18.828 29.841 5.311 17.9 22.961 184.572 25.373 240.578.18 4.163 6.538 4.041 6.491-.151-.608-53.617-5.124-108.709-21.321-220.56.076-3.876.071-7.763.427-11.589z" fill="#ffb38a"/><path d="m266.209 144.023c-3.04-5.875-12.045-10.35-17.715-.97-3.285 5.435-4.858 11.757-6.063 18.014-.779 4.048-2.5 10.64.392 14.193 3.177 3.906 7.368 1.527 11.335.71 4.916-1.011 10.292.866 14.23-3.135 3.441-3.5 2.611-8.112 2.065-12.522-.691-5.571-1.636-11.251-4.244-16.29z" fill="#ffb38a"/><path d="m208.945 128.668c-6.026-9.956-16.855-12.723-22.789-1.041-4.09 8.388-3.679 18.641-2.183 27.6 1.073 6.432 4.135 7.815 10.371 7.33a51.672 51.672 0 0 1 23.907 3.692c2.763 1.139 6.72-1.678 4.5-4.719-3.646-5.017-10.851-28.474-13.806-32.862z" fill="#ffb38a"/><path d="m249.156 110.644c20.44-2.112 9.258-20.226.62-29.231-3.075-3.539-7.535-6.6-12.426-5-3.389 1.115-6.263 2.474-7.733 9.226-2.673 14.252 1.258 30.883 19.539 25.005z" fill="#ffb38a"/><path d="m41 364.044a2.011 2.011 0 0 0 -.635 3.825c27.056 12.4 47.344 36.756 71.553 54.617 15.231 12.121 30.895 15.715 49.973 16.871-3.619-16.106-7.493-32.772-17.53-45.879-24.267-29.965-66.791-33.799-103.361-29.434z" fill="#4f424c"/><path d="m454.38 367.032a285.854 285.854 0 0 0 30.179-33.432 2.779 2.779 0 0 0 -1.345-4.3c-62.039-21.041-133.464-1.56-185.373 37.188 0 0-20.236 26.384 27.5 29.378s73.411-19.679 73.411-19.679z" fill="#8fad96"/><path d="m438.564 381.362q8.1-6.986 15.8-14.346a103.387 103.387 0 0 1 -38.3-3.176c-8.485-2.379-16.743-5.846-25.5-6.8-20.822-2.273-40.265 9.773-57.427 21.782-4.069 2.847-8.266 5.788-13.122 6.832-11.573 2.633-23.176-7.259-22.157-19.154a167.146 167.146 0 0 0 -36.081 37.419s-1.171 19.71 4.124 29.1l100.025-5.282c4.957-16.261 25.291-25.576 40.9-18.994z" fill="#617a68"/><path d="m326.939 451.346c15.037-2.554 35.39-6.228 38.98-23.616-17.423.389-45.322-14.958-88.618-4.262a9.682 9.682 0 0 1 -11.908-6.81q-1.647-6.411-3.613-12.735a174.42 174.42 0 0 0 -23.68 49.389s61.329 2.279 88.839-1.966z" fill="#4f424c"/><path d="m133.617 421.406a200.654 200.654 0 0 0 -23.152-14.966 141.044 141.044 0 0 0 -68.4 23.983s-17.14 20.89 29.235 20.052 62.317-29.069 62.317-29.069z" fill="#8fad96"/><path d="m133.613 421.411c-7.57 4.169-16.887 4.457-25.648 5.075a224.99 224.99 0 0 0 -48.66 8.89c-5.861 2.292-16.192 3.277-17.241-4.953-8.254 5.3-19.288 12.385-26.261 16.865a2 2 0 0 0 1.09 3.676c12.681.063 25.414 4.756 38.266 4.945 18.312.529 50.011-12.395 58.993 10.3a220.1 220.1 0 0 0 44.336 6.77c6.18-18.663-4.007-35.66-24.875-51.568z" fill="#617a68"/><path d="m151.868 418.1c-10.592-11.265-26.733-13.239-41.4-11.652a121.507 121.507 0 0 0 29.081 42.267c7.309 6.927 17.2 13.6 18.942 24.267 22.253 1.144 44.561-1.06 60.149-8.258z" fill="#4f424c"/><path d="m267.3 472.289c23.3-.95 46.973-2.565 70.236-5.454-1.385-3.55-2.661-7.142-3.8-10.779 10.153-.106 12.3 10.02 22.211 8.2 9.457-1.483 18.813-3.2 28.009-5.22a2.785 2.785 0 0 0 .844-5.105c-33.181-19.742-74.422-28.446-110.722-14.219-9.078 12.217-12.405 23.288-6.778 32.577z" fill="#617a68"/><path d="m274.084 439.714a244.91 244.91 0 0 0 -32.331 14.462l-7.726 19.09c10.949-.217 22.07-.522 33.273-.979 7.9-14.315 7.625-26.599 6.784-32.573z" fill="#4f424c"/><path d="m217.969 340.646c-38.649-53.225-98.511-90.146-163.311-101.232a2.775 2.775 0 0 0 -2.489 4.656c11.682 12.135 20.937 26.883 28.618 41.813 23.732 49.978 30.823 110.005 70.272 151.282 0 0 41.916 37.01 75.155-1.145l1.873-70.692z" fill="#8fad96"/><path d="m249.265 396.86a257.022 257.022 0 0 0 -31.3-56.21c-11.565 3.307-20.125 14.706-10.245 37.85 20.3 47.562-9.163 82.174-56.657 58.659 23.65 25.552 65.794 46.654 99.134 32.655a21.174 21.174 0 0 0 9.676-17.232c.734-19.094-3.29-38.125-10.608-55.722z" fill="#617a68"/><path d="m71.322 253.753c81.459 42.992 144.258 119.768 168.378 208.883 1.09 4.107 7.474 2.364 6.374-1.757-24.474-89.566-88.235-170.915-172.349-211.235-2.74-1.188-5.095 2.481-2.4 4.109z" fill="#4f424c"/><path d="m40.194 445.661c15.8-4.425 31.446-9.7 47.729-12.288q12.409-2.219 24.976-3.346 6.029-.53 12.074-.8c3.69-.163 7.181.164 10.6-1.331 2.259-.99 1.162-3.958-.611-4.67-3.644-1.462-7.968-.646-11.844-.436a279.172 279.172 0 0 0 -36.873 4.479c-15.94 3.048-33.245 6.853-47.757 14.344-2.289 1.181-.673 4.622 1.706 4.048z" fill="#4f424c"/><path d="m275.115 430.905c15.989-2.427 28.441-18.789 39.263-29.383 38.146-37.524 88.644-63.306 142.76-64.21 3.738-.086 3.681-5.524 0-5.766-63.983-2.785-121.783 35.945-163.5 81.366-6.158 5.848-12.958 9.877-20.02 14.438a1.955 1.955 0 0 0 1.497 3.555z" fill="#4f424c"/><path d="m197.562 95.89c-1.717-8.224-5.21-17.211-12.461-22.4-7.522-5.386-16.888-1.987-20.792 6.053-5.284 12.56-3.331 26.916 13.813 23 4.972-.638 20.82-.043 19.44-6.653z" fill="#ffb38a"/><path d="m215.915 36.66c-1.55-10.129-10.4-12.866-19.21-9.7-8.2 2.952-15.133 9.548-16.1 18.568a10.772 10.772 0 0 0 4.281 10.272c4.66 3.642 17.76 14.486 22.317 11.046 8.464-6.393 10.385-19.255 8.712-30.186z" fill="#ffb38a"/></svg>