<svg id="flat" height="512" viewBox="0 0 500 500" width="512" xmlns="http://www.w3.org/2000/svg"><path d="m180.441 262.882c-9.14-15.22-21.093-28.094-14.528-50.043a12.076 12.076 0 0 1 22.263-2.133 41.327 41.327 0 0 1 5 16.15c.768 12.067-12.735 36.026-12.735 36.026z" fill="#4f424c"/><path d="m135.46 260.149a.827.827 0 0 1 -.417-1.518c33.99-19.226 48.286 17.3 39.794 40.57-7.13-33.213-29.258-38.601-39.377-39.052z" fill="#4f424c"/><path d="m159.18 406.484c8.311-19.048 22.881-31.576 31.881-32.5-.878-4.38-11.157-8.284-21.628-1.563-16.178 10.384-10.253 34.063-10.253 34.063z" fill="#4f424c"/><path d="m175.311 227.416c2.321 22.856 2.532 47.21-2.652 69.682-9.591 42.735-24.976 87.953-13.245 131.748.785 2.48 5.106 2.21 4.789-.648-4.52-30.611-2.186-61.518 5.256-91.5 4.977-21.869 12.054-43.2 13.039-65.746a302.1 302.1 0 0 0 -.858-43.533c-.408-4.019-6.74-4.057-6.329-.003z" fill="#4f424c"/><path d="m113.653 211.98c.926-1.3-1.094-66.989 23-69.419 4.385.3 7.864 4.564 9.348 9.2 2.3 7.2.848 15.382-2.35 22.143s-29.998 38.076-29.998 38.076z" fill="#617a68"/><path d="m119.58 300.417c-6.448-50.374-47.757-67.445-75.777-34.964a.782.782 0 0 0 1.012 1.147c28.503-14.823 61.027 8.5 74.765 33.817z" fill="#617a68"/><path d="m127.5 350.321c-11.477-50.4 14.154-60.865 33.962-59.143a1.658 1.658 0 0 1 .835 2.982c-9.297 6.897-34.277 28.024-34.797 56.161z" fill="#617a68"/><path d="m85.508 350.647a41.032 41.032 0 0 1 -13.36-11.818c-8.409-11.364-22.835-13.66-43.015-9.652a.952.952 0 0 1 -.8-1.663c24.676-20.834 39.435-14.561 57.175 23.133z" fill="#8fad96"/><path d="m85.061 354.984s-6.216-29.668 15.615-42.5a.85.85 0 0 0 -.232-1.558c-37.017-8.906-23.121 34.498-15.383 44.058z" fill="#8fad96"/><path d="m102.978 408.143c-1.787-10-6.278-28.768-20.493-32.681-15.389-4.236-23.917 4.14-26.7 10.372a1.246 1.246 0 0 0 1.581 1.66c27.891-10.139 41.654 10.928 45.612 20.649z" fill="#8fad96"/><path d="m210.262 324.279c6.369-21.044 18.249-43.7 51.962-51.557a1.126 1.126 0 0 0 .351-2.044c-6.528-4.144-20.092-8.945-34.851 2.534-10.375 8.07-16.694 26.288-17.462 51.067z" fill="#8fad96"/><path d="m169.64 183.466c18.171 5.792 49.438 24.791 46.369 89.26 8.735-33.067 12.238-58.284 1.258-74.592-18.4-27.326-40.443-20.209-47.765-16.773a1.133 1.133 0 0 0 .138 2.105z" fill="#8fad96"/><path d="m158.758 327.875c29.477 4.124 44.441 29.563 50.506 48.254-.189-14.188-.008-74.513-50.846-50.426a1.145 1.145 0 0 0 .34 2.172z" fill="#8fad96"/><path d="m280 375.992s1.642-44.262 35.059-38.407a.822.822 0 0 0 .876-1.166c-2.408-4.9-10.685-12.562-22.305-6.391-16.005 8.499-14.069 32.155-13.63 45.964z" fill="#617a68"/><path d="m279.752 348.762c-11.068-20.729-31.907-30.6-50.4-24.629a1.136 1.136 0 0 1 -1.291-1.7c19.445-29.795 51.639-13.419 51.691 26.329z" fill="#617a68"/><path d="m326.1 403.843c-.379-7.586 9.954-54.756 37.808-49.709a.852.852 0 0 0 .942-1.152c-2.135-4.963-12.929-11.531-23.736-6-18.073 9.242-15.65 44.236-15.014 56.861z" fill="#8fad96"/><path d="m297.879 291.791c10.487 1.851 33.477 12.686 30.425 48.5.88-7.174 6.313-30.746-1.217-43.033-12.999-22.625-34.658-7.096-29.208-5.467z" fill="#8fad96"/><path d="m337.647 295.422s-1.448-16.364-1.256-24.069c-.281-11.3 8.706-34.672 21.248-36.533 8.021-.156 11.431 9.123 9.862 15.938-.988 6.031-3.894 11.639-7.562 16.581s-22.292 28.083-22.292 28.083z" fill="#8fad96"/><path d="m425.448 238.778s4.235-38.2 37.5-33.994a1.3 1.3 0 0 0 1.377-1.73c-2.108-6.061-12.878-13.777-27.551-6.335-20.717 10.511-11.326 42.059-11.326 42.059z" fill="#617a68"/><path d="m379.413 262.58a1.279 1.279 0 0 1 -1.27-1.942c2.534-4.093 9.172-12.029 22.364-11.581 22.5.765 30.034 27.734 32.889 50.144-7.048-31.788-36.945-38.866-53.983-36.621z" fill="#617a68"/><path d="m365.642 299.607c7.426 3.089 26.537 9.889 20.216 48 4.892-10.438 8.339-30.1 5.011-41.14-5.91-19.6-20.492-11.938-25.405-8.556a.969.969 0 0 0 .178 1.696z" fill="#4f424c"/><path d="m379.319 397.216c10.96-25.266 24.895-29.427 35.4-26.815a.643.643 0 0 0 .735-.874c-1.831-4.742-11.284-10.864-22.843-5.1-11.967 5.959-12.382 29.698-13.292 32.789z" fill="#4f424c"/><path d="m112.159 238.5a139.68 139.68 0 0 1 20.872-64.576c2.154-3.445-3.35-6.661-5.444-3.182a148.3 148.3 0 0 0 -21.049 63.229c-6.681-21.961-14.736-43.778-25.3-64.037-1.917-3.674-7.086-.448-5.465 3.194 36.582 79.369 52.084 167.413 51.846 254.5-.129 4.164 6.34 4.16 6.469 0 .565-18.282-.455-36.69-1.892-54.906-3.196-40.512-21.06-118.259-20.037-134.222z" fill="#617a68"/><path d="m102.584 377.851c.881-6.981 4.132-13.406 5.076-20.234.286-2.071-2.185-4.262-3.937-2.292-4.3 4.842-6.085 12.392-7.141 18.928-6.019-16.022-13.7-33.179-24.813-46.307-1.985-2.344-5.55.653-4.141 3.195 4.191 7.563 9.112 14.672 13.131 22.353s17.269 35.7 22.284 74.251c.486 3.732 6.3 3.816 5.93 0a209.773 209.773 0 0 0 -6.669-35.891c.088-4.648-.304-9.379.28-14.003z" fill="#8fad96"/><path d="m213.155 370.811c.393-66.82 9.422-134.777 32.78-197.616 1.383-3.374-4.448-5.865-5.931-2.5-23.812 60.669-31.7 127.281-32.925 192.105-.312 21.93 2.048 43.713 4.922 65.4.476 4.606 7.325 3.636 6.238-.844-4.404-18.148-4.849-37.947-5.084-56.545z" fill="#8fad96"/><path d="m255.1 229.345c-2.436-2.84-7.52.989-5.245 4.047 36.025 50.689 25.845 134.576 22.483 194.235-.384 4.285 6.217 4.209 6.654 0 4.226-57.227 14.06-151.927-23.892-198.282z" fill="#617a68"/><path d="m245.326 217.991c-4.589-2.56-8.5 4.14-4.034 6.9 4.588 2.562 8.499-4.139 4.034-6.9z" fill="#617a68"/><path d="m354.119 259.651c1.837-3.945-4.038-7.4-5.869-3.431-24.8 53.736-29.156 114.024-24.313 172.356.315 3.793 6.14 3.906 6 0-2.902-57.114-1.047-116.449 24.182-168.925z" fill="#8fad96"/><g fill="#4f424c"><path d="m484.8 343.659c-8.807-4.19-17.544-2.231-24.306.991a200.373 200.373 0 0 1 18.558-16.12c20.554-12.852 18.12-41.845-1.984-47.72a1.235 1.235 0 0 0 -1.423 1.806c4.241 7.133 18.22 27.447-2.955 42.336 0 0-57.844 38.91-68.235 101.718-.619 3.74 4.574 5.352 5.786 1.595 4.16-11.859 23.009-79.515 57.234-77.638 8.242.59 17.146 3.749 22.706 13.076a.747.747 0 0 0 1.324-.085c2.695-6.31 1.977-15.829-6.705-19.959z"/><path d="m385.966 362.215c4.094-19.131 11.8-37.567 24.074-52.917 2.66-3.327-2.044-8.083-4.723-4.723-27.438 34.468-33.558 81.665-28.092 124.31.6 3.2 5.456 2.326 5.525-.748.246-10.931-.977-21.869-.628-32.833a186.46 186.46 0 0 1 3.844-33.089z"/><path d="m248.008 347.418c-5.742 8.187-9.925 18.092-13.035 27.971-.392-5.406-1.349-11.443-4.958-14.138a1.843 1.843 0 0 0 -2.517.66c-1.23 2.744-.668 4.279-.095 7.254a95.5 95.5 0 0 1 1.615 13.184c.7 8.26-1.388 16.541-.6 24.657a146.653 146.653 0 0 0 -.486 20.754c.182 3.842 6.168 3.869 6 0a140.883 140.883 0 0 1 3.889-40.08c3.321-13.4 9.192-25.038 15.163-37.352a2.885 2.885 0 0 0 -4.976-2.91z"/><path d="m228.28 351.966c1.751-4.133-4.527-6.8-6.255-2.637-1.751 4.134 4.526 6.795 6.255 2.637z"/><path d="m353.69 391.5a52.6 52.6 0 0 0 -5 8.954c-.391-2.628-4.1-9.373-6.513-5.3-1.453 3.86 1.028 8.577 1.469 12.579a66.449 66.449 0 0 1 .124 8.64 71.157 71.157 0 0 0 -1.257 10.98c-.107 3.32 5.24 4.161 5.892.8 1.156-5.955 2.089-11.837 3.909-17.648 1.808-5.777 4.523-11.133 6.685-16.764 1.259-3.272-3.542-4.741-5.309-2.241z"/><path d="m63.119 398.351a43.508 43.508 0 0 0 -6.669 15.942 128.941 128.941 0 0 0 -28.014-38.485c-3.206-2.984-7.973 1.737-4.823 4.823 14.1 13.812 25.132 29.837 32.026 48.4a3.391 3.391 0 0 0 3.156 2.4 3.3 3.3 0 0 0 3.274-3.273 49.116 49.116 0 0 1 5.968-26.939 2.85 2.85 0 0 0 -4.918-2.868z"/></g><path d="m85.8 151.267s3.1 11.773 2.794 16.226c-.5 11.015-10.173 16.867-19.519 10.415-4.1-2.819-8.583-9.513-11.421-13.766 9.505-7.891 18.927-13.415 28.146-12.875z" fill="#b73067"/><path d="m267.257 158.759s-6.656 13.165-12.675 17.254c-5.42 4.046-14.425 5.672-18.916-.433-1.625-2.289-2.029-5.213-2.165-8.017-.361-7.455.771-15.3-2.3-22.1-.001-.002 21.253 3.511 36.056 13.296z" fill="#ea5995"/><path d="m72.274 113.094a14.153 14.153 0 0 1 -10.255.367c-7.753-2.829-17.156-1.186-23.179 4.541-4.279 4.068-6.758 9.664-10.572 14.17-3.379 3.994-7.719 7.033-11.682 10.448-7.471 5.67-14.573 18-6.063 25.731 6.113 5.1 14.531.848 22.1 1.282 5.3.3 10.168 2.955 15.383 3.92a24.743 24.743 0 0 0 18.359-3.935c4.153-2.873 7.364-6.993 11.678-9.616 12.241-6.672 27.229-3.267 34.036-18.86 1.645-3.788 2.006-8.7-.93-11.61-1.544-1.527-3.729-2.219-5.434-3.563-3.782-2.979-4.512-8.472-7.647-12.124-6.747-7.407-17.429-4.108-25.794-.751z" fill="#ef6093"/><path d="m63.673 127.793c-7.631 2.439-18.073 6.977-21.673 13.817-1.277 2.929.34 5.761 4.4 5.915 2.652.1 5.753-.885 8.651-1.881 7.823-2.693 17.48-6.349 22.553-12.635 2.075-2.653 1.688-10.721-13.931-5.216z" fill="#b73067"/><path d="m310.294 143.669c.641-3.915-4.5-9.658-7.215-12.553-4.182-4.774-5.319-11.481-8.656-16.88a23.921 23.921 0 0 0 -18-11.073c-6.58-.566-13.125 1.644-19.725 1.416-8.671-.3-16.723-4.759-25.362-5.559-7.791-.721-16.128 1.916-21.108 7.952-2.2 2.67-3.7 5.891-6.061 8.42-3.334 3.566-8.055 5.414-12.232 7.942-10.961 6.084-11.434 18.042.96 22.586 4.987 1.619 10.377 1.09 15.608.732 8.793-.6 18.132-.539 25.735 3.918 3.668 2.15 6.714 5.209 10.215 7.621 10.094 6.953 24.572 8.834 34.95 2.314 12.474-7.836 27.654 2.917 30.891-16.836z" fill="#ff89c1"/><path d="m237.427 129.25c-3.989-2.822-3.238-9.581 1.193-11.37 8.948-3.386 26.532 1.608 32.155 8.948 2.684 3.263.07 6.295-3.467 6.838-10.058 2.084-20.818.877-29.881-4.416z" fill="#ea5995"/><path d="m288.786 77.843c-13.648 6.54-24.237 22.882-32.5 35.174a77.873 77.873 0 0 0 -4.839-28.259c-1.516-4.05-8.1-2.2-6.486 1.788 5.282 13.061 6.074 27.9 3.221 41.648-.687 3.311 4.218 5.92 5.82 2.454a135.88 135.88 0 0 1 26.76-38.99c3.6-3.66 7.675-7 10.593-11.25 1.183-1.73-1.046-3.218-2.569-2.565z" fill="#ea5995"/><path d="m60.039 87.725a88.842 88.842 0 0 0 -4.965 36.5 49.521 49.521 0 0 0 -6.887-6.064c-2.7-1.968-6.162 2.486-3.592 4.656a50.679 50.679 0 0 1 12.918 16.183c1.715 3.419 6.741.963 5.955-2.511a83.787 83.787 0 0 1 2.944-47.011c1.437-4.008-4.947-5.735-6.373-1.753z" fill="#b73067"/><path d="m70.678 71.422c-3.738-3.563-9.078 1.824-5.535 5.535 3.737 3.563 9.078-1.824 5.535-5.535z" fill="#b73067"/><path d="m472.35 377.323a105.051 105.051 0 0 0 -36.458 35.277c4.664-77.429 4.863-158.039-23.379-231.349-1.463-3.561-7.283-2.155-5.922 1.632 28.24 78.43 27.9 162.616 21.869 244.743-.223 3.041 4.712 4.539 5.961 1.615a98.219 98.219 0 0 1 41.158-46.4c3.556-2.067.339-7.599-3.229-5.518z" fill="#617a68"/><path d="m422.876 158.3c7.156 36.678-30.016 43.244-40.1 8.8z" fill="#b73067"/><path d="m426.346 117.5c7.346-1.978 8.181-1.462 15.711-.375s15.913 4.821 18.343 12.031c5.723 16.976-10.571 27-29.578 30.922-6.9 1.424-11.517 8.179-17.852 11.269-15.638 8.166-28.516-2.984-43.749-2.234-8.406.761-23.888 15.707-32.46-4.239-2.4-5.589 6.7-16.044 12.88-20.732s12.9-8.924 17.562-15.116c1.991-2.642 3.563-5.588 5.648-8.157 5.577-6.955 14.679-10.008 23.409-9.21 10.212.23 12.34 11.208 30.086 5.841z" fill="#ef6093"/><path d="m409.781 129.262c7.319-.589 17.423 6.586 6.728 11.6-12.73 6.2-27.589 11.219-41.163 7.19-4.57-1.361-4.446-16.713 34.435-18.79z" fill="#b73067"/><path d="m408.053 70.282a140.115 140.115 0 0 0 -12.927 52.572 97.757 97.757 0 0 0 -17.726-26.567c-2.055-2.129-5.977.708-4.2 3.238 9.554 13.577 17.829 26.863 22.489 42.98.976 3.375 6.667 2.894 6.353-.86a134.52 134.52 0 0 1 11.841-67.956c1.817-3.917-4.007-7.348-5.83-3.407z" fill="#b73067"/><path d="m368.192 85.427c-4.048-2.363-8.157 3.074-4.9 6.367 4.355 4.051 9.971-3.172 4.9-6.367z" fill="#b73067"/></svg>