<svg id="icons" height="512" viewBox="0 0 340 340" width="512" xmlns="http://www.w3.org/2000/svg"><path d="m38.435 183.684s-34.094-55.627 24.405-83.261c0 0-1.682-32.518 38.309-36.606h18.035s8.225-30.147 47.9-30.864c18.527-.336 30.124 9.661 37.223 20.413 0 0 31.877-12.518 51.616 12.245a50.509 50.509 0 0 1 9.528 20.7l1.736 17.342s44.363 13.635 34.673 63.52l-8.613 96.54-32.659 18.3c-91.934 8.625-161.631-7.525-211.024-46.3z" fill="#ffeec8"/><path d="m301.857 167.175c4.83-24.867-3.771-40.724-13.613-50.377 5.645 13.6 3.126 24.12-.229 30.785a11.555 11.555 0 0 1 -12.523 5.958c-9.85-1.82-19.25 2.237-19.25 2.237-8.362-5.08-17.061-4.28-22.907-2.7a1.757 1.757 0 0 0 .1 3.415 22.273 22.273 0 0 1 14.286 9.317 6.6 6.6 0 0 0 5.885 2.963 34.992 34.992 0 0 1 7.552.324 5.744 5.744 0 0 1 4.343 8.074c-6.068 13.359-5.089 29.642-2.843 39.49 8.92 39.108-41.51 50.772-49.585-1.847-6.739-43.908-46-56.645-46-56.645s-7.324 1.465-16.864 13.105c-35-16.092-59.134-1.551-71.482 10.169a9.746 9.746 0 0 1 -15.189-2.153 105.2 105.2 0 0 0 -9.675-13.89c-22.595-26.291-6.646-55.115-6.4-55.538-36.392 29.166-9.032 73.825-9.032 73.825l11.126 52.038c49.393 38.771 119.09 54.921 211.024 46.3l32.658-18.3z" fill="#eab198"/><path d="m163.334 288.736s17.71-19.924 69.119-12.3c25.705 3.812 38.813-5.309 45.495-15.384a36.7 36.7 0 0 0 4.907-28.8c-3.383-14.107-4.532-27.2-1.7-37.235 8.837-31.3 29.958-36.278 40.023-36.8a2.406 2.406 0 0 1 2.085 3.828c-11.66 15.6-9.557 49.77-8.393 61.782a63.368 63.368 0 0 1 .18 10.915c-4.185 55.052-50.171 60.039-76.558 58.286a91.432 91.432 0 0 0 -35.929 5.066c-22.075 7.64-36.812 5.47-36.812 5.47z" fill="#80b297"/><path d="m20.844 155.169c12.981 6.551 40.107 26.006 35.894 72.935l84.455 44.821 24.56 30.639s-19.966 0-34.153-6.829a33.53 33.53 0 0 0 -21.807-2.346c-19.41 4.3-56.778 8.294-76.923-17.792-23.87-30.906-12.546-72.828-12.546-72.828s5.427-26.891-2.768-45.451a2.411 2.411 0 0 1 3.288-3.149z" fill="#80b297"/><path d="m142.443 181.4c-7.261-3.965-17.976-6.754-32.144-2.541-20.385 6.06-26.471 19.077-28.288 26.309 0 0-26.3-7.459-33.37 25.53-3.462 16.158 1.366 27.229 7.2 34.319 0 0 18.723 20.1 49.27 6.946 5.434-2.34 13.562-1.879 19.329-.555 6.293 1.443 10.454 1.844 17.217-6.665z" fill="#ffeec8"/><path d="m123.614 275.336c6.292 1.444 14.874 1.177 21.638-7.332 12.174-15.316 8.64-76.974 8.64-76.974a35.965 35.965 0 0 0 -11.453-9.627c-4.316 5.348-24.337 31.831-26.692 65.717a25 25 0 0 1 -11.23 19.242c-10.73 6.974-28.342 12.985-48.674-1.354a39.257 39.257 0 0 0 13.22 10.458 50.174 50.174 0 0 0 37.208.79 29.925 29.925 0 0 1 17.343-.92z" fill="#eab198"/><path d="m174.12 301.8a17.958 17.958 0 0 1 -17.307-.981c-9.973-6.248-25.447-20.571-27.392-49.932-2.232-33.682 21.28-62.679 32.23-74.251a8.658 8.658 0 0 1 11.809-.691c11.262 9.288 33.353 32.639 31.886 72.042-1.271 34.15-19.816 48.313-31.226 53.813z" fill="#80b297"/><path d="m82.011 205.165a22.434 22.434 0 0 1 13.179 11.446 1.99 1.99 0 0 0 3.774-.666c.67-7.16-1.061-17.488-14.89-22.09z" fill="#eab198"/><path d="m265.442 86.314c-25.606-1.37-36.323 20.216-36.323 20.216l9.4 7.34c13.162-17.788 28.664-10.215 28.664-10.215a77.917 77.917 0 0 0 -1.741-17.341z" fill="#eab198"/><path d="m213.108 96.127c31.244-2.309 36.61 17.9 34.384 35.125a3 3 0 0 1 -5.906.247c-3.111-14.137-11.984-24.855-29.029-29.468a3 3 0 0 1 .551-5.904z" fill="#eab198"/><path d="m145.913 89.128a45.121 45.121 0 0 0 -27.359-.653 69.421 69.421 0 0 1 .47-23.93c.1-.475.16-.728.16-.728a96.3 96.3 0 0 0 -18.034.007c-2.664 12.255 1.022 23.5 4.494 30.662-6.172 4.523-10.431 12.335-13.3 19.955a3.753 3.753 0 0 0 6.356 3.759c12.432-14.589 27.555-21.425 46.068-21.734a3.76 3.76 0 0 0 1.145-7.338z" fill="#eab198"/><path d="m20.175 253.11a3.491 3.491 0 0 1 -3.438-2.908c-1.833-10.794 1.568-21.713 10.107-32.454a25.474 25.474 0 0 0 5.249-16.789 3.492 3.492 0 0 1 6.943-.757 32.177 32.177 0 0 1 -6.724 21.891c-7.252 9.122-10.176 18.186-8.691 26.941a3.5 3.5 0 0 1 -3.446 4.076z" fill="#3e6a51"/><path d="m185.114 247.269a3.49 3.49 0 0 0 -4.4 2.244c-.6 1.859-2.4 5.569-7.686 9.527a19.584 19.584 0 0 0 -2.458 2.2v-51.683a3.492 3.492 0 0 0 -6.983 0v19.468a34.228 34.228 0 0 0 -13.412-10.961 3.492 3.492 0 0 0 -2.627 6.471c.655.271 16.039 6.872 16.039 27.039v51.99a3.492 3.492 0 1 0 6.983 0v-23.19c.191-4.042 1.287-11.73 6.645-15.746 6.483-4.857 9.093-9.729 10.141-12.96a3.492 3.492 0 0 0 -2.242-4.399z" fill="#3e6a51"/><path d="m290.873 285.25a3.492 3.492 0 0 1 -2.111-6.276c11.614-8.793 14.354-24.826 7.717-45.145-7.608-23.29.123-34.762.456-35.239a3.491 3.491 0 0 1 5.75 3.962c-.15.234-5.943 9.592.432 29.109 7.633 23.369 4.032 42.149-10.139 52.88a3.475 3.475 0 0 1 -2.105.709z" fill="#3e6a51"/><g fill="#eab198"><circle cx="74.902" cy="141.175" r="3.553"/><circle cx="95.451" cy="128.725" r="3.553"/><circle cx="94.846" cy="149.878" r="3.553"/><circle cx="187.841" cy="76.208" r="3.553"/><circle cx="201.03" cy="96.29" r="3.553"/><circle cx="179.87" cy="96.456" r="3.553"/><circle cx="223.717" cy="197.034" r="3.553"/><circle cx="246.228" cy="188.638" r="3.553"/></g><circle cx="187.047" cy="236.299" fill="#3e6a51" r="3.553"/><circle cx="81.699" cy="236.025" fill="#eab198" r="3.553"/><circle cx="96.637" cy="248.02" fill="#eab198" r="3.553"/></svg>