<svg id="icons" height="512" viewBox="0 0 340 340" width="512" xmlns="http://www.w3.org/2000/svg"><path d="m130.926 163.74a165.375 165.375 0 0 0 -28.814-1.179q-5.785.232-11.477 1.026c-1.738 1.109-4.242 1.335-7.06 1.2a119.41 119.41 0 0 0 -41.6 17.035 8.6 8.6 0 0 1 -5.931 4.123 120.9 120.9 0 0 0 -15.03 13.187l-.442.458a37.233 37.233 0 0 0 -9.05 36.779c3.8 12.2 13.675 26.19 37.02 36.722 2.22 1 4.382 2.114 6.508 3.3 4.566 2.549 16.785 7.5 42.834 7.5 35.086 0 85.521 0 89.143-50.589 3.682-51.486-56.101-69.562-56.101-69.562z" fill="#efc88f"/><path d="m130.926 163.739a148.022 148.022 0 0 0 -17.619-1.286c1.531 10.3 7.663 32.224 32.136 53.3 9.628 8.29 9.589 23.471-.371 31.359-5.653 4.476-13.782 7.943-25.449 8.27-29.287.82-86.675-4.473-109.41-25.1a35.525 35.525 0 0 0 1.305 6.088c3.8 12.2 13.674 26.189 37.019 36.721 2.22 1 4.383 2.115 6.511 3.3 4.567 2.549 16.786 7.5 42.832 7.5 35.086 0 85.521 0 89.143-50.59 3.685-51.485-56.097-69.562-56.097-69.562z" fill="#cc9364"/><path d="m161.4 58.579q-5.715 1.314-11.478 2.407c-7.162 1.361-20.841 5.879-28.661 20.842-12.057 37.65 9.028 92.62 49.649 113.514 62.809 49.233 116.02 66.363 146.807 24.818a142.792 142.792 0 0 0 9.362-20.281c9.29-24.924-4.5-57.057-19.154-73.778-3.026-.05-4.59-2.3-5.5-5.537-1.435-1.345-2.791-2.767-4.117-4.221a228.35 228.35 0 0 0 -26.108-24.227 7.751 7.751 0 0 1 -6.01-4.607c-18.989-14.046-44.349-28.016-72.561-30.87a11.472 11.472 0 0 1 -7.065-.474 99.239 99.239 0 0 0 -11.95.325 14.2 14.2 0 0 1 -8.283 1.09q-2.457.432-4.931.999z" fill="#efc88f"/><path d="m40.915 206.13a3.493 3.493 0 0 0 3.456 3.026 3.4 3.4 0 0 0 .47-.032 3.491 3.491 0 0 0 2.995-3.926 109.686 109.686 0 0 0 -5.861-23.369q-3.023 1.969-5.935 4.116a102.569 102.569 0 0 1 4.875 20.185z" fill="#cc9364"/><path d="m66.324 243.44a3.492 3.492 0 0 1 -3.348-2.507c-.869-2.952-3.685-5.746-4.6-6.491a3.492 3.492 0 1 1 4.4-5.42c.535.434 5.27 4.4 6.9 9.939a3.495 3.495 0 0 1 -3.351 4.479z" fill="#b27952"/><path d="m90.635 163.587c-2.369.33-4.722.738-7.058 1.208 5.1 13.591 12.829 40.343 6.907 66.067a3.491 3.491 0 0 0 2.62 4.186 3.544 3.544 0 0 0 .786.09 3.494 3.494 0 0 0 3.4-2.71c6.21-26.959-1.239-54.158-6.655-68.841z" fill="#b27952"/><g fill="#cc9364"><path d="m107.539 267.266a3.491 3.491 0 0 1 -2.94-5.37c9.44-14.8 8.5-45.075 8.491-45.379a3.493 3.493 0 0 1 3.368-3.612h.124a3.494 3.494 0 0 1 3.488 3.37c.045 1.331 1.012 32.772-9.585 49.38a3.487 3.487 0 0 1 -2.946 1.611z"/><path d="m139.893 229.759a3.491 3.491 0 0 1 -3.045-1.778c-6.492-11.518-.563-19.893 3.479-22.713a3.492 3.492 0 0 1 4.021 5.71c-.679.5-6.27 4.964-1.417 13.574a3.493 3.493 0 0 1 -3.038 5.207z"/><path d="m166.335 57.591a64.05 64.05 0 0 1 -7.135 11.151 3.492 3.492 0 0 0 5.405 4.423 76.655 76.655 0 0 0 10.012-16.665q-4.117.363-8.282 1.091z"/><path d="m128.132 142.2a3.492 3.492 0 0 1 -1.715-6.535 96.22 96.22 0 0 0 18.069-13.265 3.492 3.492 0 0 1 4.743 5.127 103.227 103.227 0 0 1 -19.387 14.221 3.475 3.475 0 0 1 -1.71.452z"/><path d="m186.566 56.175c-1.684 6.884-7.254 20.235-16.519 30.7a3.491 3.491 0 1 0 5.228 4.629c9.933-11.22 16.6-26.153 18.355-34.859q-3.504-.352-7.064-.47z"/></g><path d="m218.734 101.849a3.479 3.479 0 0 1 -2.469-1.022c-2-2.006-6.4-.965-7.782-.442a3.491 3.491 0 0 1 -2.517-6.513c.388-.152 9.582-3.636 15.236 2.017a3.491 3.491 0 0 1 -2.468 5.96z" fill="#b27952"/><path d="m208.5 200.1a3.491 3.491 0 0 1 -2.647-5.766 159.463 159.463 0 0 0 20.01-29.883 3.492 3.492 0 0 1 6.186 3.242 166.553 166.553 0 0 1 -20.9 31.191 3.488 3.488 0 0 1 -2.649 1.216z" fill="#b27952"/><path d="m266.191 87.51a98.819 98.819 0 0 1 -10.1 25 3.492 3.492 0 1 0 6.035 3.515 104.786 104.786 0 0 0 10.074-23.909q-2.882-2.29-6.009-4.606z" fill="#cc9364"/><path d="m174.889 200.138a3.491 3.491 0 0 1 -2.047-6.321c15.053-10.88 25.891-27.113 26-27.275a3.491 3.491 0 0 1 5.825 3.851c-.467.706-11.62 17.437-27.735 29.084a3.476 3.476 0 0 1 -2.043.661z" fill="#cc9364"/><path d="m303.175 121.248c-.251-.226-.483-.47-.729-.7a51.706 51.706 0 0 1 -8.905 17.018 3.491 3.491 0 1 0 5.385 4.444 56.454 56.454 0 0 0 9-15.907 58.191 58.191 0 0 0 -4.751-4.855z" fill="#b27952"/><path d="m280.757 211.3a3.492 3.492 0 0 1 -1.818-6.475 56.331 56.331 0 0 0 22.7-27.093 3.492 3.492 0 0 1 6.631 2.19 62.4 62.4 0 0 1 -25.7 30.867 3.469 3.469 0 0 1 -1.813.511z" fill="#b27952"/><path d="m264.472 184.832a3.487 3.487 0 0 1 -2.709-1.286c-6.163-7.562-2.72-16.013-.039-19.426a3.492 3.492 0 0 1 5.5 4.3c-.446.586-4.119 5.727-.053 10.717a3.493 3.493 0 0 1 -2.7 5.7z" fill="#cc9364"/><path d="m248.833 226.643a3.492 3.492 0 0 1 -3.492-3.481c-.018-6.014-4.034-7.687-4.492-7.857a3.468 3.468 0 0 1 -2.172-4.413 3.509 3.509 0 0 1 4.448-2.188c.374.125 9.164 3.208 9.2 14.436a3.493 3.493 0 0 1 -3.481 3.5z" fill="#b27952"/><circle cx="115.36" cy="195.342" fill="#cc9364" r="3.553"/><circle cx="161.902" cy="108.532" fill="#cc9364" r="3.553"/><circle cx="248.832" cy="134.045" fill="#cc9364" r="3.553"/><path d="m282.3 235.138c-26.99 5.813-44.668-3.255-55.413-13.28a151.923 151.923 0 0 0 -42.055-28.2c-35.463-15.669-46.344-40.753-49.568-52.316a68.745 68.745 0 0 0 -5.392-13.373c-10.829-20.7-10.548-36.675-8.6-46.134-.4.762-.787 1.544-1.154 2.361-9.188 20.5-8.824 40.578-3.851 53.106a66.268 66.268 0 0 1 3.165 10.021c2.885 12.924 15.244 43.931 58.785 63.164a207.472 207.472 0 0 1 46.233 28.237c20.927 16.6 65.407 21.893 86.791-8.312a118.731 118.731 0 0 0 6.466-10.257c-8.838 6.217-20.387 11.745-35.407 14.983z" fill="#cc9364"/></svg>