<svg id="icons" height="512" viewBox="0 0 340 340" width="512" xmlns="http://www.w3.org/2000/svg"><path d="m177.811 108.061c0-10.436 2.689-37.553-23.251-56.669-26.406-19.459-59.5 2.675-59.5 2.675s-31.4-31.556-57.576-6.422c-23.411 22.477-25.171 49.98-25.171 60.416 0 9.61-3.476 77.157 26.994 100.154a20.884 20.884 0 0 0 29.106-3.35q.339-.416.671-.858h51.956q.333.442.671.858a20.884 20.884 0 0 0 29.106 3.35c30.471-22.997 26.994-90.544 26.994-100.154z" fill="#719b56"/><path d="m100.293 14.836 6.223 5.579a10.477 10.477 0 0 1 3.215 10.263 81.174 81.174 0 0 0 .215 37.635h-22.974s-4.44-40.542 13.321-53.477z" fill="#3e6a51"/><path d="m138.429 73.034c-8.068-11.812-22.93-16.1-35.293-9.676-.108.056-.214.113-.32.169a16.337 16.337 0 0 1 -15.5 0c-.106-.057-.214-.114-.322-.17-12.371-6.423-27.239-2.127-35.3 9.7-5.3 7.761-10.38 20.052-10.032 38.452v41.47a111.746 111.746 0 0 0 7.63 41.089c4.452 11.251 11.276 23.352 21.512 31.166a21.643 21.643 0 0 0 13.153 4.437h22.23a21.639 21.639 0 0 0 13.153-4.437c10.236-7.814 17.06-19.915 21.512-31.166a111.746 111.746 0 0 0 7.63-41.089v-41.47c.34-18.418-4.753-30.709-10.053-38.475z" fill="#a9db89"/><path d="m226.644 147.3s-9.343-40.948 21.51-51.461c31.948-10.887 41.878 27.693 41.878 27.693z" fill="#b73d49"/><path d="m327.657 184.9c0-12.037 3.282-43.314-28.385-65.361-32.234-22.444-72.628 3.084-72.628 3.084s-38.33-36.4-70.286-7.407a93.033 93.033 0 0 0 -30.727 69.684c0 11.083-4.244 88.991 32.953 115.515 11.14 7.943 26.588 6.528 35.531-3.863q.412-.48.818-.991h63.421q.405.512.818.991c8.944 10.391 24.391 11.806 35.532 3.863 37.196-26.515 32.953-104.428 32.953-115.515z" fill="#b73d49"/><path d="m244.716 51.961 3.812 6.518a8.969 8.969 0 0 1 -.374 9.657c-5.8 8.336-15.934 29.663-7.938 70.272l-25.875 1.3s-8.55-67.047 30.375-87.747z" fill="#3e6a51"/><path d="m279.581 144.5c-9.849-13.623-27.991-18.564-43.083-11.16l-.392.195a20.971 20.971 0 0 1 -18.924 0l-.394-.2c-15.1-7.408-33.251-2.453-43.1 11.184-6.464 8.952-12.671 23.129-12.247 44.351v47.83a122.636 122.636 0 0 0 9.315 47.392c5.435 12.977 13.765 26.934 26.261 35.946a27.433 27.433 0 0 0 16.056 5.118h27.137a27.438 27.438 0 0 0 16.057-5.118c12.5-9.012 20.825-22.969 26.26-35.946a122.636 122.636 0 0 0 9.315-47.392v-47.83c.427-21.233-5.791-35.415-12.261-44.37z" fill="#f7616c"/><ellipse cx="200.74" cy="174.962" fill="#ffe9e9" rx="21.017" ry="16.622" transform="matrix(.3 -.954 .954 .3 -26.378 313.979)"/><ellipse cx="76.466" cy="101.337" fill="#eaffdc" rx="17.976" ry="14.217" transform="matrix(.3 -.954 .954 .3 -43.141 143.886)"/></svg>