<svg id="icons" height="512" viewBox="0 0 340 340" width="512" xmlns="http://www.w3.org/2000/svg"><path d="m27.933 310.082c-.035-.039-.07-.078-.1-.119a3.32 3.32 0 0 1 .428-4.675c7.008-5.834 15.189-9.414 23.683-9.519 15.389-.191 21.337-8.977 21.453-9.063a3.32 3.32 0 0 1 4.659 4.608c-.1.135-6 5.649-6.416 11.336-.488 6.65-1.222 8.186-3.039 12.481-.714 1.689-3.107 1.89-4.617.849a3.317 3.317 0 0 1 -.849-4.617 17.369 17.369 0 0 0 2.405-7.963 27.067 27.067 0 0 1 .46-3.749 43.561 43.561 0 0 1 -13.754 2.749 32.806 32.806 0 0 0 -19.746 7.99 3.319 3.319 0 0 1 -4.567-.308z" fill="#eab198"/><g fill="#719b56"><path d="m149.143 220.79c8.011-2.715 23.258-9.3 41.944-5.712 28.706 5.521 30.883-8.324 30.883-8.324a26.724 26.724 0 0 0 18.672-3.264c17.4-10.631 4.349-26.918 4.349-26.918s-20.627-16.25-48.055 2.82a310.76 310.76 0 0 0 -47.793 41.398z"/><path d="m187.19 83.046s-23.934-5.02-27.711 17.629c-.73 4.375 1.338 8.643 4.724 12.025a5.5 5.5 0 0 1 .048 7.866c-3.582 3.474-7.61 10.355-1.034 19.978 18.036 26.391.381 57.818.381 57.818s20.61-22.855 36.891-48.036c13.655-26.702 9.721-49.246-13.299-67.28z"/><path d="m200.4 150.6s3.536-17.86-4.728-29.069c-16.527-22.417-11.53-36.951-4.146-45.317a25.905 25.905 0 0 0 5.765-24.129c-2.05-7.23-2.206-14.755 1.28-21.745 12.604-25.287 40.909-15.99 40.909-15.99s29.481 10.684 18.221 37.3a29.832 29.832 0 0 0 -1.352 19.759c2.09 7.379 1.811 18.041-10.517 28.064a25.383 25.383 0 0 0 -9.332 16.427c-.774 6.239-4.963 14.59-19.167 22.1.002 0-7.381 3.652-16.933 12.6z"/><path d="m304.568 116.689c-8.59-6.42-23.214-9.86-42.117 14.034 0 0-9.721-8.671-23.255 9.481a126.092 126.092 0 0 1 -21.346 22.071l-20.914 17.117s14.781-9.746 40.029-.438a18.315 18.315 0 0 0 20.876-5.653 26.257 26.257 0 0 0 1.824-2.7s16.086 11.707 27.448-8.857a14.945 14.945 0 0 1 9.062-7.007c5.479-1.57 13-5.519 15.924-15.455a20.941 20.941 0 0 0 -7.531-22.593z"/><path d="m228.2 130.548a37.723 37.723 0 0 0 -5.09 5.067c-5.132 6.135 2.236 14.749 9.131 10.695a24.893 24.893 0 0 0 6.959-6.11l2.536 2.772-59.459 54.405-9.188-10.04 27.943-49.233z"/></g><path d="m123.048 242.19a3.32 3.32 0 0 1 -.15-4.692l3-3.2c19.365-20.6 12.135-43.968 11.818-44.952a3.319 3.319 0 0 1 6.311-2.06c.371 1.132 8.842 28.015-13.29 51.556l-3 3.194a3.32 3.32 0 0 1 -4.689.154z" fill="#a9db89"/><path d="m124.9 245.291a3.32 3.32 0 0 1 .581-4.658l2.936-2.285.082-.061c16.243-11.855 34.829-10.95 35.613-10.906a3.319 3.319 0 0 1 -.37 6.628c-.193-.009-17.039-.765-31.289 9.61l-2.894 2.253a3.32 3.32 0 0 1 -4.659-.581z" fill="#a9db89"/><path d="m124.043 240.255c-.059-.055-.116-.112-.171-.172a3.32 3.32 0 0 1 .187-4.691c60.143-55.5 60.835-103.238 60.823-103.7a3.319 3.319 0 0 1 6.635-.2c.065 2.011-.367 51.026-62.955 108.786a3.319 3.319 0 0 1 -4.519-.023z" fill="#a9db89"/><path d="m123.489 246.586a3.32 3.32 0 0 1 .581-4.658l4.525-3.521c39.216-37.857 87.6-51 89.641-51.545a3.32 3.32 0 0 1 1.7 6.417c-.485.128-48.9 13.315-86.858 50.024a3.314 3.314 0 0 1 -.269.234l-4.664 3.63a3.32 3.32 0 0 1 -4.656-.581z" fill="#a9db89"/><path d="m280.888 141.867a3.321 3.321 0 0 0 -3.945-2.541c-.532.115-45.723 10.253-96.527 47.232a304.822 304.822 0 0 0 51.484-107.529c5.8-22.778 6.844-37.547 6.886-38.165a3.319 3.319 0 0 0 -6.624-.446c-.01.146-1.057 14.836-6.695 36.973a300.187 300.187 0 0 1 -88.777 147.558l-14.463 13.234a3.319 3.319 0 1 0 4.481 4.9l14.464-13.235c5.6-5.124 16.968-14.376 16.968-14.376 36.84-33.709 60.773-47.48 120.2-69.656a3.516 3.516 0 0 0 2.548-3.949z" fill="#a9db89"/><path d="m112.89 228.081c-11.113-9.475-23.693-9.341-39.086 9.874-8.994 26.8 1.087 46.8 24.271 62.131 17.971 12 37.4 8.7 48.476-5.927a28.81 28.81 0 0 0 5.809-15.2 27.689 27.689 0 0 0 -1.393-11.216z" fill="#ffeec8"/><path d="m115.53 225.348-2.884-3.152a28.486 28.486 0 0 0 -20.038-9.428 27.635 27.635 0 0 0 -14.185 3.441 30.148 30.148 0 0 0 -15.49 23.7 20.268 20.268 0 0 1 .788 10.7q.342 1.37.812 2.723c1.3 3.721 3.023 8.092 5.322 13.19 3.6 7.991 4.153 14.854 3.3 20.44a4.29 4.29 0 0 0 4.143 4.921c4.33.152 11.2 1.81 20.78 8.207-18.307-15.656-32.338-35.7-16.908-59.649 16.586-25.741 34.36-15.093 34.36-15.093z" fill="#eab198"/><path d="m146.036 284.753c4.756-4.384 7.008-10.889 4.931-17.015a29.486 29.486 0 0 0 -6.182-10.417l-32.14-35.121a28.481 28.481 0 0 0 -19.914-9.424c-.858-.029-1.745-.006-2.645.049-.535.245-9.855 4.357-6.69 15.385 3.736 13.016 16.588 36.769 41.519 54.111a25.209 25.209 0 0 0 12.532 4.624c3.107.217 6.407-.18 8.589-2.192z" fill="#f980a0"/><path d="m93.919 278.689a3.319 3.319 0 0 0 .208-4.689l-31.194-34.092a31.464 31.464 0 0 0 .789 10.7l25.507 27.876a3.32 3.32 0 0 0 4.69.205z" fill="#eab198"/><path d="m83.4 228.206a62.3 62.3 0 0 0 2.191 6.231c15.176-17.926 29.943-9.089 29.943-9.089l-2.885-3.152a28.481 28.481 0 0 0 -19.914-9.424c-.858-.029-1.745-.006-2.645.049-.539.244-9.859 4.357-6.69 15.385z" fill="#b2446b"/><circle cx="59.179" cy="323.942" fill="#eab198" r="3.378"/><circle cx="103.191" cy="288.824" fill="#eab198" r="3.378"/></svg>