<svg id="icons" height="512" viewBox="0 0 340 340" width="512" xmlns="http://www.w3.org/2000/svg"><path d="m213.569 26.837a19.513 19.513 0 0 0 .5 10.985 124.294 124.294 0 0 1 5.553 24.278 21.646 21.646 0 0 0 1.008 10.619 158.62 158.62 0 0 1 .138 15.892c-58.142 88.924-178.368 89.595-184.916 14.489a106.413 106.413 0 0 1 6.548-12.394c2.233-1.085 3.4-3.221 3.945-5.962q3.125-4.408 6.88-8.744a8.614 8.614 0 0 0 5.049-5.456 129.95 129.95 0 0 1 11.22-10.126 210.813 210.813 0 0 1 57.322-33.3c3.955-.173 6.881-1.255 8.912-3.126 21.589-6.954 38.625-7.993 47.265-7.952a25.089 25.089 0 0 0 12.424-3.215 11.826 11.826 0 0 1 10.947-.338l.553.267a12.4 12.4 0 0 1 6.652 14.086z" fill="#f980a0"/><path d="m215.035 126.041a174.449 174.449 0 0 0 5.733-37.426c-17.433 1.228-60.707 7.726-97.585 41.358-23.007 20.981-59.253 17.4-77.236-8.02a87.992 87.992 0 0 1 -10.092-18.853c-18.043 40.418-4.755 78.747-4.755 78.747 6.366 19.9 7.373 33.329 7.143 40.955a17.162 17.162 0 0 0 6.116 13.622 10.6 10.6 0 0 0 14.157-.442 10.593 10.593 0 0 1 7.934-2.914c80.932 4.698 134.121-52.24 148.585-107.027z" fill="#b2446b"/><path d="m309.644 117.569.136-.492a14.155 14.155 0 0 0 -4.154-14.283 14.155 14.155 0 0 0 -15.329-2.389l-1.271.576a24.888 24.888 0 0 1 -11.83 2.171c-3.506.987-7.562.952-12.577-.862-22.585-.921-52.314 1.347-80.4 13.568a14.115 14.115 0 0 1 -7.625 3.591 128.72 128.72 0 0 0 -32.434 23.315c-.15 2.243-2.208 3.818-4.928 5.161a162.987 162.987 0 0 0 -11.981 14.888c.171 2.7-1.305 4.533-3.929 5.773-31.14 47.914-30.028 100.959-28.238 120.84a23.265 23.265 0 0 1 -3 13.575 38.071 38.071 0 0 0 -3.8 9.619 9.926 9.926 0 0 0 9.391 12.308 59.617 59.617 0 0 0 10.36-.691 23.294 23.294 0 0 1 8.824.318 171.015 171.015 0 0 0 39.966 4.13 16.462 16.462 0 0 1 7.677-.254c4.807-.263 9.829-.736 15.015-1.478a15.606 15.606 0 0 1 7.041-1.161 156.019 156.019 0 0 0 58.956-24.043 7.494 7.494 0 0 1 5.762-4.077 164.378 164.378 0 0 0 15.149-12.735 12.343 12.343 0 0 1 5.239-5.182 188.131 188.131 0 0 0 16.3-19.306s12.695-19.163 20.222-49.41c-.341-4.381.41-7.521 2.12-9.571.834-4.3 1.545-8.779 2.092-13.419a23.937 23.937 0 0 1 .984-11.594 169.24 169.24 0 0 0 -3.97-46.463 25.385 25.385 0 0 1 .232-12.423z" fill="#f980a0"/><g fill="#b2446b"><circle cx="99.75" cy="95.59" r="3.553"/><circle cx="234" cy="159.284" r="3.553"/><circle cx="137.02" cy="294.092" r="3.553"/><path d="m164.5 328.427a156.559 156.559 0 0 0 -14.763-24.116 3.492 3.492 0 0 0 -5.59 4.185 155.291 155.291 0 0 1 12.676 20.184q3.738-.042 7.677-.253z"/><path d="m186.56 325.788a163.4 163.4 0 0 0 -34.369-54.359 3.491 3.491 0 0 0 -5.087 4.783 156.809 156.809 0 0 1 32.414 50.734q3.476-.496 7.042-1.158z"/><path d="m236.964 271.975a3.492 3.492 0 1 0 -5.927 3.693c4.37 7.013 10.278 17.7 14.473 26.073 1.928-1.3 3.851-2.652 5.766-4.073-4.257-8.415-10.013-18.793-14.312-25.693z"/><path d="m150.989 179.889c-7.882-6.06-17.349-12.744-23.73-17.072q-2.046 2.871-3.928 5.773c6.276 4.256 15.62 10.852 23.4 16.835a3.491 3.491 0 0 0 4.255-5.536z"/><path d="m271.656 279.746a374.68 374.68 0 0 0 -25.193-42.828 3.491 3.491 0 1 0 -5.72 4 373.209 373.209 0 0 1 25.68 44.011q2.636-2.495 5.233-5.183z"/><path d="m176.767 174.01a3.492 3.492 0 1 0 4.321-5.486 441.21 441.21 0 0 0 -36.923-25.758q-2.088 2.069-4.116 4.267c-.274.3-.538.6-.808.9a432.555 432.555 0 0 1 37.526 26.077z"/><path d="m216.515 147.425a3.492 3.492 0 0 0 4.429-5.4 330.775 330.775 0 0 0 -36.72-26.162q-3.837 1.669-7.625 3.59a321.78 321.78 0 0 1 39.916 27.972z"/><path d="m296 181.081a3.492 3.492 0 0 0 -5.555 4.232c5.006 6.57 12.708 17.765 17.744 25.726q1.149-4.617 2.116-9.572c-4.726-7.142-10.345-15.184-14.305-20.386z"/><path d="m313.376 176.455a255.808 255.808 0 0 0 -27.925-34.165 3.491 3.491 0 0 0 -5 4.873c10.183 10.453 23.514 26.3 31.943 40.885.442-3.762.777-7.629.982-11.593z"/><path d="m285.944 119.772a3.492 3.492 0 0 0 4.938-4.938 165.964 165.964 0 0 0 -13.686-11.7c-.268-.017-.537-.025-.806-.05-3.64-.347-7.584-.627-11.771-.8 12.713 9.554 18.618 14.782 21.325 17.488z"/><path d="m78.62 100.076a296.976 296.976 0 0 0 -32.272-15.328q-2.108 2.97-3.947 5.96a289.491 289.491 0 0 1 32.874 15.5 3.492 3.492 0 0 0 3.345-6.13z"/><path d="m79.172 80.033c-7-3.438-15.172-7.069-20.893-9.488q-2.664 2.706-5.046 5.455c5.519 2.277 14.952 6.412 22.861 10.3a3.491 3.491 0 1 0 3.078-6.267z"/><path d="m153.558 69.617a3.491 3.491 0 0 0 2.107-6.277c-7.989-6.036-16.353-11.8-24.857-17.127a3.491 3.491 0 1 0 -3.708 5.917c8.332 5.222 16.527 10.868 24.356 16.782a3.472 3.472 0 0 0 2.102.705z"/><path d="m152.561 42.966a3.492 3.492 0 0 0 3.9-5.8c-7.1-4.772-14.314-9.5-20.728-13.176q-4.338 1.4-8.911 3.126c8.533 4.284 19.878 11.911 25.739 15.85z"/><path d="m220.631 72.751c-.224-3.787-.576-7.34-1.011-10.647-5.912-5.575-12.632-11.646-17.923-16.163a3.492 3.492 0 1 0 -4.534 5.311c7.054 6.022 16.691 14.852 23.435 21.473.01.01.023.016.033.026z"/></g></svg>