<svg id="icons" height="512" viewBox="0 0 340 340" width="512" xmlns="http://www.w3.org/2000/svg"><path d="m186.774 167.175s18.144-15.329 42.013 2.241c0 0 27.982 22.666 45.9-9.128a19.838 19.838 0 0 1 15.121-10.049c12.069-1.281 29.9-6.561 28.231-26.715-2.51-30.39-38.278-18.524-38.278-18.524s-13.009-31.6-46 5.082z" fill="#719b56"/><path d="m191.164 122.705a60.9 60.9 0 0 0 -3.984-12.879c-15.036-35.232-17.082-43.519 2.034-57.348 0 0-8.541-32.131 16.472-40.062 19.386-6.147 28.164 8.818 29.043 22.5a36.858 36.858 0 0 0 7.98 20.247c7.889 10.08 15.642 27.445-.916 47.057a38.37 38.37 0 0 0 -8.9 19.043c-1.182 8-6.063 19.866-22.281 32.057-9.482-1.098-15.567-11.02-19.448-30.615z" fill="#a9db89"/><path d="m186.774 167.175a129.662 129.662 0 0 0 23.838-13.862c-12.986-8.7-19.451-30.608-19.451-30.608 4.576 24.927-12.928 35.927-12.928 35.927z" fill="#719b56"/><path d="m190.962 163.359s-23.36-32.628-63.131.965-57.146 60.621-72.4 80.506c0 0-30.394 39.118-33.519 70.984a11.969 11.969 0 0 0 14.911 12.794c21.476-5.617 62.209-23.957 114.366-72.194.002 0 67.767-59.656 39.773-93.055z" fill="#fc997e"/><path d="m195.4 151.722a3.4 3.4 0 0 1 -.339-4.4c24.573-33.68 16.869-62.7 16.788-62.993a3.4 3.4 0 0 1 6.538-1.853c.372 1.3 8.794 32.351-17.837 68.851a3.4 3.4 0 0 1 -5.15.4z" fill="#719b56"/><g fill="#e0625c"><path d="m148.791 168.506c-3.039-2.68-8.172-6.89-12.609-10.449q-2.8 1.838-5.718 4.129c4.651 3.709 10.577 8.545 13.833 11.417a3.4 3.4 0 0 0 4.494-5.1z"/><path d="m114.934 175.69a250.6 250.6 0 0 1 26.278 25.034 3.4 3.4 0 0 0 5.095-4.5 253.078 253.078 0 0 0 -26.279-25.143q-2.619 2.331-5.094 4.609z"/><path d="m74.663 265.444a3.4 3.4 0 0 0 0-4.8c-5.436-5.425-13.068-12.076-18.636-16.582-.2.258-.393.519-.589.773 0 0-1.328 1.71-3.452 4.7 5.386 4.369 12.672 10.727 17.877 15.921a3.4 3.4 0 0 0 4.8-.012z"/><path d="m83.526 307.885c-3.86-4.959-9.609-11.867-14.027-16.6a3.4 3.4 0 0 0 -4.968 4.635c4.071 4.364 9.311 10.633 13.038 15.378q2.917-1.622 5.957-3.413z"/><path d="m131.45 228.178a3.4 3.4 0 0 0 -4.5 5.095 230.965 230.965 0 0 1 23.174 24.112c.356-.327.706-.641 1.063-.971 0 0 1.492-1.315 3.93-3.65a238.1 238.1 0 0 0 -23.667-24.586z"/><path d="m132.358 251.784a3.4 3.4 0 1 0 -4.9 4.713c3.237 3.362 7.23 7.861 10.454 11.766q2.538-2.187 5.118-4.475c-3.303-3.997-7.368-8.572-10.672-12.004z"/><circle cx="159.207" cy="183.028" r="3.457"/></g></svg>