<svg id="icons" height="512" viewBox="0 0 340 340" width="512" xmlns="http://www.w3.org/2000/svg"><path d="m159.57 171.968 36.017-9.693-8.81 36.9-54.141 30.999z" fill="#719b56"/><path d="m13.1 327.48a17.32 17.32 0 0 1 -4.868-15.613 3.492 3.492 0 1 1 6.894 1.116 10.332 10.332 0 0 0 2.912 9.56 6.863 6.863 0 0 0 5.211 2.259c4.661-.13 9.772-4.738 11.349-6.5a3.491 3.491 0 0 1 5.222 4.635c-.778.879-7.846 8.589-16.344 8.847a13.855 13.855 0 0 1 -10.376-4.304z" fill="#b2446b"/><path d="m287.634 204.164s9.325 21.925-13.61 35.787c0 0-9.014 23.28-33.265 19.656a30.322 30.322 0 0 1 -19.323-10.482 16.133 16.133 0 0 0 -16.847-4.9c-4.405 1.273-10 .414-16.287-6.157-15.335-16.013-20.363-15.017-34.237-11.225 0 .002 68.045-71.571 133.569-22.679z" fill="#719b56"/><path d="m255.387 126.642a21.262 21.262 0 0 1 -18.54 4.635 40.884 40.884 0 0 0 -7-.906c-40.939 15.948-65.2 81.034-35.079 83.129a78.17 78.17 0 0 0 8.291-3.564c17.51-8.756 27.818-5.788 40.16 2.093 9.6 6.133 21.14 10.97 33.12-1.651 0 0 14.827 12.95 32.606-11.573a80.984 80.984 0 0 1 11.321-12.433c5.5-4.979 12.439-13.734 11.719-25.837-.867-14.562-17.718-24.968-26.578-29.457a63.191 63.191 0 0 1 -9.182-5.74c-7.175-5.338-23.469-13.885-40.838 1.304z" fill="#a9db89"/><path d="m191.486 200.453-10.2-7.774c-6.928 9.132-14.442 17.714-22.761 24.489 0 0 16.109 3.629 36.245-3.674-11.845-5.004-3.284-13.041-3.284-13.041z" fill="#719b56"/><path d="m229.846 130.374c-10.52-.423-23.9 3.367-34.854 20.534-17.837 27.96-9.544 34.343-24 52.806 35.224-12.315 40.559-35.775 41.352-43.465a5.951 5.951 0 0 1 2.316-4.085 40.667 40.667 0 0 0 15.186-25.79z" fill="#719b56"/><path d="m134.621 225.066s47.528-42.383 100.538-50.747c0 0-44.464 18.57-86.581 64.705z" fill="#b2446b"/><path d="m124 114.185s-20.748-8.094-31.557 10.1 2.9 32.953 20.563 35.326c0 0-.708 14.4 18.878 23.991a19.121 19.121 0 0 1 9.354 9.668 14.382 14.382 0 0 1 .24 11.158s29.366-33.905-17.478-90.243z" fill="#719b56"/><path d="m157.82 4.066s-36.908-2.109-44.29 34.8c-1.836 9.18.993 17.545 6.279 24.932a9.85 9.85 0 0 1 -2.178 13.824c-7.56 5.348-16.412 15.244-14.382 31.634 1.765 14.262 11.79 22.366 21.094 26.871a18.808 18.808 0 0 1 10.779 16.373c.075 3.947 1.634 9.127 6.089 15.81 0 0 9.755 13.445 6.328 29 0 0 13.445-17.663 35.59-19.772 16.193-1.542 19.514-13.137 20.13-19.258a9.9 9.9 0 0 1 3.043-6.244c6.707-6.314 20.911-24.2-.366-48.236a27.6 27.6 0 0 1 -5.246-27.5c4.042-11.359 6.585-27.625-1.743-44.281-15.291-30.59-41.127-27.953-41.127-27.953z" fill="#a9db89"/><path d="m171.728 133.369s-3.823 40.631-48.993 79.812l14.232 14.232s43.809-45.763 34.761-94.044z" fill="#b2446b"/><path d="m29.523 212.736a62.719 62.719 0 0 0 -3.538 8.954 17.407 17.407 0 0 1 -1.934 7.94c-2.579 14.231-1.273 31.914 6.375 53.857 0 0 .547 1.227 1.256 3.347 0 0 22.036 61.943 102.839 38.767 55.485-15.914 28.967-77.473 28.967-77.473a54.844 54.844 0 0 0 -4.688-5.328l-43.76-43.766c-23.035-23.034-60.565-20.068-79.626 4.266-1.1 2.58-2.349 4.756-3.993 5.884q-1.005 1.722-1.898 3.552z" fill="#f980a0"/><g fill="#b2446b"><circle cx="61.152" cy="233.972" r="3.553"/><path d="m50.152 218.033-14.719-14.719a52.207 52.207 0 0 0 -4 5.878l13.778 13.779a3.492 3.492 0 1 0 4.938-4.938z"/><path d="m65.45 261.151-39.459-39.46a67.312 67.312 0 0 0 -1.936 7.94l36.457 36.457a3.491 3.491 0 0 0 4.938-4.937z"/><path d="m172.8 154.567c.026-.073.064-.139.085-.214 4.9-17.142 22.252-24.393 22.427-24.465a3.491 3.491 0 0 0 -2.616-6.474 51.441 51.441 0 0 0 -17.7 13q.192-3.8.184-7.7c0-.089.012-.174 0-.264 0-.028-.007-.054-.009-.083a164.813 164.813 0 0 0 -1.386-20.184c-.423-3.278-.921-6.434-1.466-9.453-2-10.808 6.895-18.006 7.295-18.324a3.491 3.491 0 0 0 -4.3-5.5 29.9 29.9 0 0 0 -6.585 7.739 157.463 157.463 0 0 0 -5.679-17.6 3.492 3.492 0 0 0 -6.463 2.647 186.22 186.22 0 0 1 10.575 44.622 27.3 27.3 0 0 0 -15.533-6.065 3.492 3.492 0 0 0 -.334 6.975c.629.034 15.142.984 16.832 14.978.173 19.368-3.5 40.434-15.646 58.409a3.491 3.491 0 1 0 5.786 3.909 97.341 97.341 0 0 0 14.533-35.953z"/><path d="m295.943 170.257a3.491 3.491 0 0 0 -2.927-3.976 122.872 122.872 0 0 0 -22.449-.675 22.7 22.7 0 0 0 5.071-10.51 3.492 3.492 0 0 0 -6.911-1c-.061.385-1.614 9.425-12.774 12.881-.374.052-.744.1-1.122.156a164.076 164.076 0 0 0 -25.97 5.971 31.046 31.046 0 0 0 3.912-11.821 3.491 3.491 0 1 0 -6.962-.537 24.28 24.28 0 0 1 -12.872 18.315c-.066.034-.12.081-.183.118a154.72 154.72 0 0 0 -36.583 22.579 3.49 3.49 0 0 0 -.457 4.916c.07.085.144.166.22.242a3.493 3.493 0 0 0 4.7.216 148.094 148.094 0 0 1 50.528-27.388c13.522-3.153 25.577 7.126 25.732 7.261a3.492 3.492 0 0 0 4.6-5.253 43.777 43.777 0 0 0 -11.175-6.718c23.914-4.335 41.282-1.905 41.648-1.851a3.491 3.491 0 0 0 3.974-2.926z"/><path d="m163.367 247.975c3.215 11.36 1.006 30.584-21.561 53.151-32.806 32.808-84.495 26.146-109.963-13.8 2.138 6.584 5.419 20.6.19 33.677a3.475 3.475 0 0 0 4.182 4.655 50.976 50.976 0 0 1 36.956 3.126c14.358 6.82 41.339 11.317 67.25 1.618 33.935-12.702 44.401-54.76 22.946-82.427z"/><path d="m156.142 298.4-16.707-16.707a3.491 3.491 0 0 0 -4.937 4.938l16.702 16.703z"/><path d="m107.32 323.876-27.373-27.376a3.492 3.492 0 0 0 -4.938 4.938l27.373 27.373z"/><path d="m168.539 288.22-34.629-34.629a3.491 3.491 0 0 0 -4.938 4.937l34.63 34.63z"/></g><ellipse cx="78.824" cy="210.786" fill="#ffeef5" rx="12.365" ry="11.241" transform="matrix(.878 -.478 .478 .878 -91.202 63.357)"/></svg>