<svg id="icons" height="512" viewBox="0 0 340 340" width="512" xmlns="http://www.w3.org/2000/svg"><path d="m30.384 24.182s-42.077 53.962-14.454 114.027c6.079 13.218 12.841 23.929 29.132 34.055a106.134 106.134 0 0 1 23.938 20.714s34.037-57.258 9.886-113.228c-20.236-46.896-48.502-55.568-48.502-55.568z" fill="#80b297"/><path d="m157.941 12.634s-52.564 42.974-54.341 103.707a227.411 227.411 0 0 0 5.11 56.4s70.362-27.931 73.558-82.225-24.327-77.882-24.327-77.882z" fill="#80b297"/><path d="m166.847 86.543a3.5 3.5 0 0 0 -4.344 2.329c-.1.32-2.37 7.362-11.22 12.683a281.624 281.624 0 0 0 9.559-60.975 3.492 3.492 0 0 0 -6.979-.26 267.593 267.593 0 0 1 -3.416 32.48c-3.3-8.084-8.324-11.932-8.68-12.2a3.491 3.491 0 0 0 -4.181 5.592c.468.359 10.653 8.081 8.091 29.313 0 0-6.128 22.589-7.585 24.1a48.273 48.273 0 0 0 -9.861-20.07 3.491 3.491 0 1 0 -5.368 4.466c4.068 4.89 12.917 17.939 7.269 33.468a124.219 124.219 0 0 1 -23.864 32.776c-1.141 1.118-20.394 20.236-31.663 46.163.181-27.96-7.945-48.3-19.6-77.432 0 0-7-13.752 5.193-29.806a34.538 34.538 0 0 0 2.06-3.448 27.279 27.279 0 0 0 4.08-12.922 3.491 3.491 0 1 0 -6.979-.215 20.452 20.452 0 0 1 -3.125 9.608c-.672 1.144-1.35 2.268-2.02 3.379a87.848 87.848 0 0 0 -6.331 11.825 287.566 287.566 0 0 1 -8.225-52.91 3.492 3.492 0 0 0 -6.977.3c.035.8.466 10.094 2.281 23.16a24.95 24.95 0 0 0 -12.105-6.54 3.492 3.492 0 0 0 -1.106 6.893c.493.086 12.047 2.309 16.673 19.531a198.661 198.661 0 0 0 9.476 32.2l.1.259c-8.332-5.844-15.764-6.681-16.231-6.728a3.492 3.492 0 0 0 -.7 6.948c.139.014 13.965 1.579 23.758 17.059 9.044 23.589 14.383 42.5 12.369 68.956a224.862 224.862 0 0 0 -.632 24.813c0 .065-.006.129-.006.2 0 .083.018.162.024.244.888 23.735 6.227 31.842 6.519 32.266.681.99 4.272 1.33 4.871.918a3.469 3.469 0 0 0 .91-4.834c-.06-.093-4.566-7.411-5.333-28.832.269-38.977 37.228-75.69 37.576-76.032 10.5-10.083 18.783-22.144 25.322-34.87.009-.017.017-.035.026-.052a190.829 190.829 0 0 0 10.76-25.6 9.885 9.885 0 0 1 5.025-5.742c13.5-6.822 16.8-17.682 16.937-18.141a3.481 3.481 0 0 0 -2.348-4.32z" fill="#3e6a51"/><g fill="#b73d49"><circle cx="234.55" cy="52.207" r="22.763"/><circle cx="307.997" cy="62.768" r="25.469"/><circle cx="177.073" cy="186.711" r="29.441"/><circle cx="210.843" cy="251.542" r="28.315"/></g><path d="m257.313 204.7a27.28 27.28 0 0 1 -6.155 17.3c-13.69 10.175-23.885 6.719-29.851-13.243 1.181-15.6 9.335-23.944 21.23-28.384a27.394 27.394 0 0 1 14.776 24.327z" fill="#f7616c"/><path d="m251.155 222c-4.421 1.686-11.677 3.366-17.6-.486a13.735 13.735 0 0 1 -5.939-9.181 18.882 18.882 0 0 1 2.993-14.152l11.927-17.8a27.4 27.4 0 1 0 8.619 41.619z" fill="#b73d49"/><path d="m238.536 140.526a591.808 591.808 0 0 1 -55.663 65.3c-18.616 25.98-39.415 46.679-64.321 57.441q-10.913 8.56-22.73 17.092l-6.755-4.193a12.6 12.6 0 0 0 -14.2.625l-.252.19a14.307 14.307 0 0 0 -5.5 8.919l-1.563 8.706a13.722 13.722 0 0 1 -4.6 8.028 181.109 181.109 0 0 1 -32.026 21.647 2.655 2.655 0 0 0 1.249 5h37.13a26.786 26.786 0 0 0 16.43-5.627c6.459-5.012 16.785-13.209 29.474-23.931 27.9-34.42 57.021-63.835 88.254-84.648 20.882-23.119 40.914-48.328 56.894-74.219-6.68-2.831-13.95-2.956-21.821-.33z" fill="#e89e85"/><path d="m271.347 88.237s-9.838 20.826-32.813 52.287a131.032 131.032 0 0 0 21.821.333 278.533 278.533 0 0 0 24.045-47.957z" fill="#aa5b4f"/><path d="m115.209 299.726c24.277-20.514 57.2-50.271 88.253-84.649l-16.933-10.377-3.66 1.129a667.27 667.27 0 0 1 -64.319 57.441c1.199 8.313 2.02 22.788-3.341 36.456z" fill="#b76553"/><path d="m197.62 264.945a27.592 27.592 0 0 1 -27.592 27.593c-9.781-1.305-17.744-6.7-22.055-20.31l10.537-18.9c15.6-3.486 29.665-4.195 38.3 4.957a27.653 27.653 0 0 1 .81 6.66z" fill="#f7616c"/><path d="m167.611 237.456a27.594 27.594 0 0 0 2.417 55.082c-9.952-2.211-14.3-12.674-14.17-18.466a20.231 20.231 0 0 1 3.58-11.5 14.977 14.977 0 0 1 17.23-5.4 34.956 34.956 0 0 0 20.139 1.111 27.6 27.6 0 0 0 -29.196-20.827z" fill="#b73d49"/><path d="m160.943 249.159a27.585 27.585 0 1 1 -8.461-46.171z" fill="#f7616c"/><path d="m152.479 203c-.468.741-6.418 10.529-3.877 25.7a34.81 34.81 0 0 0 12.34 20.464 27.59 27.59 0 0 0 -8.463-46.164z" fill="#b73d49"/><circle cx="188.961" cy="218.259" fill="#f7616c" r="31.547"/><path d="m320.073 105.19a26.547 26.547 0 0 1 -8.057 19.083c-12.821 5.833-23.174 5.169-25.741-15.995l9.894-29.578a26.629 26.629 0 0 1 23.904 26.49z" fill="#f7616c"/><path d="m299.233 121.664c-10.955-6.381-4.317-19.131-4.317-19.131l-.027.019c4.363-8.9 3.234-17.823 1.453-23.829a26.863 26.863 0 0 0 -2.895-.16c-14.706 0-27.366 11.93-26.887 26.627.641 19.681 17.445 26.627 26.887 26.627a26.535 26.535 0 0 0 18.565-7.548 20.034 20.034 0 0 1 -12.779-2.605z" fill="#b73d49"/><path d="m289.331 83.145a30.1 30.1 0 1 1 -42.491-27.437l40.722 17.248a30.032 30.032 0 0 1 1.769 10.189z" fill="#f7616c"/><path d="m126.805 229.787a3.491 3.491 0 0 1 -2.405-6.023 19.378 19.378 0 0 0 3.748-5.206 3.492 3.492 0 0 1 6.208 3.2 26.269 26.269 0 0 1 -5.148 7.071 3.481 3.481 0 0 1 -2.403.958z" fill="#b73d49"/><path d="m245.549 212.312a3.493 3.493 0 0 1 -3.211-2.118 16.9 16.9 0 0 1 -1.149-10.534 3.492 3.492 0 0 1 6.749 1.8 10.277 10.277 0 0 0 .818 5.988 3.493 3.493 0 0 1 -3.207 4.868z" fill="#b73d49"/><path d="m245.536 94.452a3.495 3.495 0 0 1 -3.4-4.311 9.574 9.574 0 0 0 -1.148-7.294 3.511 3.511 0 0 1 .84-4.851 3.474 3.474 0 0 1 4.832.778 16.677 16.677 0 0 1 2.265 13 3.493 3.493 0 0 1 -3.389 2.678z" fill="#b73d49"/><path d="m259.232 53.046a29.968 29.968 0 0 0 -12.388 2.67 26.257 26.257 0 0 0 14.038 16.868c7.9 3.9 18.072 3.708 26.677.373a30.109 30.109 0 0 0 -28.327-19.911z" fill="#b73d49"/><circle cx="277.372" cy="38.234" fill="#f7616c" r="27.518"/><ellipse cx="267.848" cy="30.424" fill="#ffe9e9" rx="6.845" ry="6.249" transform="matrix(.847 -.531 .531 .847 24.765 146.951)"/><ellipse cx="178.22" cy="208.76" fill="#ffe9e9" rx="7.428" ry="6.782" transform="matrix(.707 -.707 .707 .707 -95.416 187.165)"/></svg>