<svg id="icons" height="512" viewBox="0 0 340 340" width="512" xmlns="http://www.w3.org/2000/svg"><path d="m23.163 285.3c-5.087-14.312-5.945-30.317-4.819-43.469 2.232-26.07 15.049-50.276 35.95-66.018a87.379 87.379 0 0 1 17.431-10.242s64.738-2.723 36.841 80.293-85.403 39.436-85.403 39.436z" fill="#a9db89"/><path d="m130.286 305.418 12.879-125.753c-3.5-7.094-9.785-11.914-16.013-15.137a53.088 53.088 0 0 0 -30.571-5.688 87.026 87.026 0 0 0 -24.851 6.736c12.31 4.853 30.125 18.441 25.194 56.246-6.992 53.607-40.655 70.325-73.751 63.469 4.682 13.173 12.936 24.916 26.534 31.679 49.225 24.481 80.579-11.552 80.579-11.552z" fill="#719b56"/><path d="m237 85.782s-31.441 44.5 15.542 107.91c12.719 17.165 24.8 28.591 35.664 36.128a21.57 21.57 0 0 0 33.883-18.245c-.411-19.022-6.3-45.193-28.1-74.074-40.757-53.989-56.989-51.719-56.989-51.719z" fill="#80b297"/><path d="m183.158 73.2s-15.126 1.714-42.116 20.993c-24.077 17.2-70.341 39.825-110.367 11.45a19.687 19.687 0 0 1 -1.912-30.582c10.085-9.144 27.986-18.386 59.189-18.535 23.021-.111 39.728 1.776 58.04 8.208 0 .001 20.557 7.874 37.166 8.466z" fill="#80b297"/><path d="m196.937 171.947a59.238 59.238 0 0 0 -53.772 7.683c-16.555 11.677-32.887 32.707-32.451 70.179a100.527 100.527 0 0 0 3.469 25.872s16.928 58.008 90.941 30.859c18.357-6.734 27.051-20.617 27.472-67.872.398-44.602-30.134-64.768-35.659-66.721z" fill="#a9db89"/><path d="m300.693 199.875c-30.337-33.707-49.6-66.633-57.253-97.861-6.276-25.612-4.329-44.9.213-55.912s19.72-25.034 24.481-28.725a3.492 3.492 0 0 0 -4.279-5.519c-4.955 3.842-37.894 36.111-40.255 38.504-28.1 24.68-73.275 24.765-110.091 21.9-40.92-3.174-61.229 12.138-62.074 12.796a3.491 3.491 0 0 0 4.265 5.532c.188-.144 19.27-14.314 57.269-11.361 27.725 2.156 60.07 2.653 87.206-7.31a714.662 714.662 0 0 0 -88.31 105.858 3.492 3.492 0 1 0 5.773 3.93 710.675 710.675 0 0 1 80.662-98.068c-.323.542-.647 1.081-.97 1.635-13.765 23.558-29.8 62.588-28.018 114.739a3.491 3.491 0 0 0 3.488 3.372h.12a3.492 3.492 0 0 0 3.371-3.609c-1.72-50.339 13.184-88.29 26.913-110.711a211.751 211.751 0 0 1 32.622-40.955c-3.214 12.436-5.131 31.229.834 55.568 7.93 32.359 27.728 66.3 58.844 100.871a3.492 3.492 0 0 0 5.191-4.672z" fill="#3e6a51"/><path d="m172.719 204.425a37.271 37.271 0 0 1 -8.369-.973 3.491 3.491 0 1 1 1.592-6.8c2.354.55 8.457 1.616 14.274-.393a3.492 3.492 0 1 1 2.28 6.6 29.976 29.976 0 0 1 -9.777 1.566z" fill="#3e6a51"/><path d="m242.785 244.141c-1.968-33.3-15.752-52.557-30.2-63.655a56.747 56.747 0 0 0 -15.651-8.494c.6.328 33.9 18.731 21 76.786-8.352 37.591-35.4 47.846-53.719 50.368a53.26 53.26 0 0 1 -37-8.057c-5.464-3.662-10.585-8.684-13.015-15.377 7.94 28.507 27.931 42.305 43.981 48.914a54.925 54.925 0 0 0 46.455-1.9c18.604-9.783 40.938-31.41 38.149-78.585z" fill="#719b56"/><g fill="#eaffdc"><ellipse cx="143.165" cy="241.211" rx="14.252" ry="17.856"/><ellipse cx="47.397" cy="223.354" rx="14.83" ry="11.837" transform="matrix(.348 -.937 .937 .348 -178.483 190.013)"/></g></svg>