<svg id="icons" height="512" viewBox="0 0 340 340" width="512" xmlns="http://www.w3.org/2000/svg"><path d="m212.424 126.8c-17.69 18.753-51.319 43.276-104.877 40.706a75.6 75.6 0 0 0 -42.238 10.443c-16.673 26.37-23.794 52.354-15.231 77.7 17.4 23.808 41.568 36.867 71.054 41.482 51.919 2.069 92.819-29.955 129.724-74.339 17.024-41.44 31.264-81.407 28.812-112.537z" fill="#996a9e"/><path d="m246.034 89.969-18.12 16.408s-5.006 9.41-15.9 20.856a51.494 51.494 0 0 0 10.94-.233 4.209 4.209 0 0 1 4.741 4.429 69.958 69.958 0 0 0 3.99 27.367 9.575 9.575 0 0 0 9.538 6.324 77.463 77.463 0 0 0 17.294-2.815 3.734 3.734 0 0 1 4.525 5.035c-12.3 28.717-60.208 124.189-146.35 103.451-55.435-13.346-54.728-68.037-51.38-92.834a71.308 71.308 0 0 0 -29.112 32.884c-4.418 10.162-7.26 22.4-7.26 37.077 0 65.985 67.01 77.327 92.652 77.327 0 0 144.276 3.359 167.867-181.26l2.735-23.249z" fill="#663f70"/><path d="m300.465 14.751h8.476s8.205 31.8-12.308 65.984c2.834 12.391-3.071 26.734-14.126 42.227 0 0-11.987 15.553-35.171 19.249-8.545 1.363-5.413-29.774-5.413-29.774a2.226 2.226 0 0 0 -3.116-2.843c-9.645 5.225-26.608 10.607-42.334-3.477a2.584 2.584 0 0 1 2.017-4.494c8.377 1.014 21.513.038 29.424-13.366 12.308-20.857 26.475-28.678 48.206-19.146 0 0 17.3-13.718 17.075-47a7.285 7.285 0 0 1 7.27-7.36z" fill="#a9db89"/><ellipse cx="117.82" cy="213.391" fill="#edd3ef" rx="20.472" ry="18.054" transform="matrix(.988 -.153 .153 .988 -31.238 20.52)"/><path d="m296.633 80.735s-7.266 7.518-23.865 1.4a2.716 2.716 0 0 0 -3.3 3.926 37.457 37.457 0 0 0 8.576 9.759 6.61 6.61 0 0 1 2.018 7.372c-3.317 9.115-12.111 28.655-27.994 33.949a5.241 5.241 0 0 1 -6.115-2.292c-2.179-3.619-4.851-10.6-4.028-22.413a45.524 45.524 0 0 0 -2.518 29.185 8.167 8.167 0 0 0 9.266 6.173 45.958 45.958 0 0 0 32.577-21.589c-2.8 34.892 14.649 39.1 23.734 38.979a2.576 2.576 0 0 0 2.1-4.063c-4.665-6.329-6.409-15.667-1.214-29.446 15.721-41.709-9.237-50.94-9.237-50.94z" fill="#719b56"/></svg>