<svg id="icons" height="512" viewBox="0 0 340 340" width="512" xmlns="http://www.w3.org/2000/svg"><path d="m194.329 102.769s-3.547 10.324-3.784 31.4a60.691 60.691 0 0 1 -3.6 19.929c-6.781 18.781-24.946 52.144-69.592 58.883 0 0-47.793 4.867-82.223-23.237a5.482 5.482 0 0 0 -8.485 6.485c10 22.491 34.8 54.4 95.453 58.571 0 0 132.281 9.491 139.1-117.45v-45.123l-31.136-24.283s-31.426 20.12-35.733 34.825z" fill="#b73d49"/><path d="m226.287 9.21h5.766a9.654 9.654 0 0 1 8.9 5.932c2.574 6.129 5.68 17.3 5.115 34.81a21.147 21.147 0 0 0 6.674 16.264 33.082 33.082 0 0 1 10.558 19.221s-12.035 18.847-33.538 21.064c0 0-4.2-9.289.011-25.694 0 0-6.872 11.306-24.828 14.41-4.171.721-7.684 3.583-10.62 7.552 0 0-5.431-21.424 13.19-34.825a50.473 50.473 0 0 1 18.8-8.084s6.819-29.33-2.631-46.346a2.928 2.928 0 0 1 2.603-4.304z" fill="#719b56"/><path d="m238.62 121.315a466.574 466.574 0 0 0 -14.646 52.385c-8.065 37.519-29.838 97.323-71.481 107.633-41.3 10.226-77.3-2.011-77.3-2.011s-31.144-9.9-53.171 1.494c-6.19 3.2-4.495 12.482 2.412 13.41 2.662.357 5.545.808 8.559 1.375 0 0 14.5-2.167 24.838 1.528 31.006 11.086 90.82 35.63 139.169 14.59 89.418-38.909 117.77-199.712 117.77-199.712-25.331-22.176-50.708-22.43-76.15 9.308z" fill="#f7616c"/><path d="m304.9 85.22s-41.42-9.114-62.632 26c0 0-1.448 3.7-3.648 10.094a42.752 42.752 0 0 0 27.115-11.09s7.612 12.849 4.413 24.4a2.05 2.05 0 0 0 2.114 2.612c4.844-.359 14.483-2.024 22.112-9.312a4.222 4.222 0 0 1 7.105 3.583c-5.165 40.647-27.372 139.645-122.172 178.32a104.829 104.829 0 0 1 -68.026 4.287 94.539 94.539 0 0 1 -24.161-10.519c-19.777-12.266-40.951-10.826-54.132-7.987 11.426 2.15 24.732 5.972 35.033 12.784 31.659 20.935 66.8 26.066 103.779 20.05 47.629-7.75 103.389-58.324 134.37-147.953 4.018-10.934 10.972-31.646 12.29-51.985v-19.984z" fill="#b73d49"/><path d="m242.269 111.221s16.321-1.939 27.019-12.732a1.857 1.857 0 0 1 3.18 1.23 34.337 34.337 0 0 0 3.109 12.089 30.993 30.993 0 0 1 2.387 13.947 1.427 1.427 0 0 0 1.934 1.418c4.393-1.664 14.442-6.715 18.085-19.021a4.15 4.15 0 0 1 6.67-2.057 41.747 41.747 0 0 1 13.808 22.405s14.873-31.086-18.105-55.087a116.086 116.086 0 0 0 .649-53.816 9.283 9.283 0 0 0 -9.07-7.122h-3.615a2.905 2.905 0 0 0 -2.89 3.266 144.292 144.292 0 0 1 1 25.158 39.229 39.229 0 0 1 -19.85 31.824c-9.82 5.548-24.03 16.432-24.311 38.498z" fill="#a9db89"/><g fill="#ffe9e9"><path d="m237.626 177.217c-2.158 8.814-6.63 25.192-12.83 38.134a5.572 5.572 0 0 0 3.268 7.694 5.575 5.575 0 0 0 6.615-2.533c4.125-7.266 12.651-23.451 16.566-39.455a5.6 5.6 0 0 0 -3.307-6.531l-2.787-1.137a5.574 5.574 0 0 0 -7.525 3.828z"/><path d="m247.436 160.307 3.551.969a4.93 4.93 0 0 0 5.973-3.188c.61-1.82 1.3-3.994 1.874-6.095a4.94 4.94 0 0 0 -3.51-6.087l-3.7-.965a4.928 4.928 0 0 0 -6.024 3.559c-.42 1.652-.948 3.586-1.566 5.57a4.936 4.936 0 0 0 3.402 6.237z"/></g></svg>