<svg id="icons" height="512" viewBox="0 0 340 340" width="512" xmlns="http://www.w3.org/2000/svg"><path d="m107.551 61.069s16.118-22.088 46.7-31.056a14.89 14.89 0 0 1 13.972 3.127l8.218 7.191s26.508-12.049 47.661 8.469a38.972 38.972 0 0 0 11.749 7.913c10.176 4.362 27.752 15.778 23.192 41.615l-62.918 30.581z" fill="#719b56"/><path d="m69.191 197.445s-61.108-94.439 27.952-159.283a20.431 20.431 0 0 1 27.4 3.031 52.381 52.381 0 0 1 6.626 9.527 23.812 23.812 0 0 0 20.006 12.639c10.985.444 26.364 6.4 35.167 23.4l-92.97 110.979a152.439 152.439 0 0 1 -24.181-.293z" fill="#a9db89"/><path d="m122.158 71.2c-.393.465-6.433 7.773-11.147 22.11a47.7 47.7 0 0 0 -7.1-8.734c-6.171-6.225-4.6-13.091-4.507-13.446a3.492 3.492 0 0 0 -6.753-1.782c-.118.443-2.8 10.96 6.3 20.145 8.494 8.567 9.027 12.755 8.106 20.134a125.9 125.9 0 0 0 -1.521 15.027 3.492 3.492 0 0 0 3.342 3.635h.149a3.494 3.494 0 0 0 3.487-3.345c1.37-32.555 14.805-49.032 14.986-49.244a3.492 3.492 0 0 0 -5.337-4.5z" fill="#f6fcde"/><path d="m122.822 138.755s-9.008-48.2-53.278-51.076a37.383 37.383 0 0 1 -11.439-4.139c-26.264 56.178 11.086 113.9 11.086 113.9a152.439 152.439 0 0 0 24.181.293l27.762-33.133z" fill="#719b56"/><path d="m136.383 115.681c-14.431 8.063-40.1 29.658-43.011 82.052 89.133-6.124 129.977-91.48 129.977-91.48l-16.014-3.793a33.378 33.378 0 0 1 -20.989-15.7c-7.082-.616-22.416.189-34.588 15.8a50.946 50.946 0 0 1 -15.375 13.121z" fill="#719b56"/><path d="m129.552 257.806-6.462-106.85a58.458 58.458 0 0 1 25.773-26.656 33.856 33.856 0 0 0 12.984-12.711c4.985-8.368 16.245-19.611 40.394-17.8a34 34 0 0 0 20.027-4.669c11.323-6.771 31.965-15.191 53.191-4.142a37.649 37.649 0 0 1 18.478 20.707s-44.967 161.674-164.385 152.121z" fill="#a9db89"/><path d="m222.034 114.233h-.06a3.491 3.491 0 0 0 -3.49 3.432c-.006.3-.636 30.5-10.8 58.5a3.491 3.491 0 1 0 6.564 2.382c10.573-29.135 11.195-59.486 11.216-60.764a3.492 3.492 0 0 0 -3.43-3.55z" fill="#f6fcde"/><path d="m174.439 157.7a3.491 3.491 0 0 0 -6.824-1.479c-.249 1.14-5.856 28.165 13.47 49.448a3.491 3.491 0 1 0 5.169-4.694c-16.854-18.558-11.867-43.027-11.815-43.275z" fill="#f6fcde"/><path d="m294.566 142.73s5.933-19.439-.6-36.966c-13.529 1.607-37.566 9.524-53.5 45.4a18.45 18.45 0 0 1 -11.887 10.357 74.032 74.032 0 0 0 -46.579 38.379 31.172 31.172 0 0 1 -15.7 14.565c-10.889 4.608-27.394 15.675-37.342 41.873.372.946.59 1.465.59 1.465 119.422 9.556 165.018-115.073 165.018-115.073z" fill="#719b56"/><path d="m150.434 181.007a33.485 33.485 0 0 0 -12.53-9.955 25.882 25.882 0 0 1 -14.804-20.093c-20.624 42.6 6.455 106.847 6.455 106.847a160.369 160.369 0 0 0 16.436.48c4.959-5.4 8.355-9.346 8.355-9.346 14.354-34.656 4.321-56.954-3.912-67.933z" fill="#719b56"/><path d="m156.4 305.712s120.5 7.335 158.689-116.242a128.876 128.876 0 0 0 5.8-45.56 105.256 105.256 0 0 0 -2.073-15.8 14.4 14.4 0 0 0 -16.471-11.125c-14.724 2.714-38.612 12.08-52.282 43.656a26.34 26.34 0 0 1 -15.186 14.318c-12.37 4.473-31.885 14.68-41.36 36.31a26.2 26.2 0 0 1 -19.275 15.23c-16.49 3.008-40.91 13.473-42.625 48.969-.003.003 4.112 22.562 24.783 30.244z" fill="#a9db89"/><path d="m131.614 275.471a38.193 38.193 0 0 0 1.7 5.788c3.907 10.544 19.5 7.4 19.069-3.837-.756-19.825.54-46.044 21.853-50.92-27.776 2.798-41.12 17.871-42.622 48.969z" fill="#719b56"/><path d="m40.585 80.307a40.829 40.829 0 0 1 12.672 9.273 23.955 23.955 0 0 0 13.523 7.394c13.618 2.382 39.315 13.039 44.268 59.2a31.907 31.907 0 0 0 15.25 23.8c12.672 7.738 27.525 26.379 16.626 70.771-5.236 21.327 1.493 39.7 13.473 54.974 0 0-91.389 6.209-125.33-92.4-22.8-66.253-13.679-108.17-6.922-126.236a12.1 12.1 0 0 1 16.44-6.776z" fill="#a9db89"/><g fill="#f6fcde"><path d="m130.8 302.516c-6.365-3.522-14.49-11.176-19.3-16.6-1.029-2.516-6.235-16.468-.849-29.186 6.877-16.235 5.828-29.768 5.78-30.336a3.492 3.492 0 0 0 -6.959.581 63.866 63.866 0 0 1 -5.247 27.025 40.057 40.057 0 0 0 -2.9 17.844 145.613 145.613 0 0 1 -12.879-28.879 160.387 160.387 0 0 0 -20.191-40.455c-.813-1.187-1.6-2.386-2.38-3.591-.6-2.148-3.11-12.653 2.7-19.805 12.164-14.965 9.46-26.991 9.339-27.495a3.471 3.471 0 0 0 -4.166-2.569 3.51 3.51 0 0 0 -2.634 4.159c.081.379 1.879 9.4-7.957 21.5a23.718 23.718 0 0 0 -4.9 11.145c-25.274-48.006-27.11-105.489-27.127-106.107a3.492 3.492 0 0 0 -6.981.19c.079 2.9 2.341 73.976 38.342 126.523a154.936 154.936 0 0 1 17.625 33.845c-10.292-8.005-23.126-12.793-31.616-15.313-8.456-2.508-13.676-5.574-16.565-7.7a3.492 3.492 0 0 0 -4.143 5.622c3.338 2.46 9.3 5.98 18.722 8.777 11.813 3.5 32.744 11.666 40.363 26.964 7.526 17.7 22.07 39.754 40.545 49.975a3.491 3.491 0 1 0 3.38-6.11z"/><path d="m272.3 209.644c.019-.024.044-.041.063-.066a22.179 22.179 0 0 1 12.415-8.125c18.09-4.451 31.284-15.274 37.653-21.466a3.508 3.508 0 0 0 .666-4.148 3.5 3.5 0 0 0 -5.542-.888c-5.8 5.6-18.025 15.664-34.389 19.706a256.46 256.46 0 0 0 23.232-43.489 3.556 3.556 0 0 0 -1.189-4.306 3.5 3.5 0 0 0 -5.215 1.523c-18.1 43.27-43.3 71.759-65.283 89.932 12.147-29.4-4.344-64.772-5.2-66.575a3.492 3.492 0 0 0 -6.3 3c.233.49 22.94 49.288-5.479 76.19-16.125 10.78-29.86 25.26-40.825 43.049a32.944 32.944 0 0 1 -9.014 9.822 3.492 3.492 0 0 0 2.341 6.579c.609-.211 6.109-2.309 11.51-11.073a165.792 165.792 0 0 1 15.969-21.69l.016-.013a30.5 30.5 0 0 1 18.872-8.9c45.969-4.325 74.259-23.961 75.441-24.8a3.491 3.491 0 0 0 -4.023-5.707c-.275.193-28.061 19.409-72.073 23.549-.5.047-1 .107-1.5.174 2.419-1.885 4.9-3.684 7.44-5.375a218.162 218.162 0 0 0 50.414-46.903z"/><circle cx="70.964" cy="137.557" r="3.553"/></g></svg>