<svg id="icons" height="512" viewBox="0 0 340 340" width="512" xmlns="http://www.w3.org/2000/svg"><path d="m315.024 66.168a25.028 25.028 0 0 0 -5.519-4.518 28.78 28.78 0 0 0 8.574-4.8c7.577-6.082 4.639-17.474-4.466-17.121-10.422.4-16.582 4.411-16.582 4.411a37.814 37.814 0 0 0 4.513-7.183c3.91-8-2.821-15.606-11.075-12.5a44.936 44.936 0 0 0 -13.515 8 12.852 12.852 0 0 0 -.068-2.412c-.7-5.766-7.814-7.485-12.422-3.14a75 75 0 0 0 -9.911 11.567v.016a101.342 101.342 0 0 0 -14.642 32.19l-15.365 21.6 1.442 4.466c28.01 7.195 58.284 5.4 81.2-7.828h.011q2.13-1.228 4.173-2.591c7.238-4.825 8.938-14.613 3.652-20.157z" fill="#3e6a51"/><path d="m222.872 139.413 45.583-29.794s47.787 2.433 35.64 32.3c0 0 14.354 2.744 13.5 17.354-.378 6.493-7.448 11.184-12.391 11.742 0 0-.465 12.322-15.107 11.431l-63.61-29.418z" fill="#3e6a51"/><path d="m197.252 90.353 20.109-34.426s-.989-25.574-19.636-43.072c-6.936-6.509-17.97-1.933-17.244 7.262.052.662.14 1.353.268 2.076a26.993 26.993 0 0 0 -12.213-11.844c-11.593-5.26-21.507 7.517-13.869 17.822a41.963 41.963 0 0 0 3.7 4.308s-14.989 5.61-1.656 25.847c0 0 24.408 33.843 40.541 32.027z" fill="#3e6a51"/><path d="m181.526 61.95c-3.525.039-7.227 2.178-10.747 7.977 0 0-5-13.177-16-17.759-10.175-4.238-20.194 6.91-14.744 16.49a30.317 30.317 0 0 0 4.089 5.465s-22.091 7.035 7.405 27.645c0 0-13.813 2.342-2.107 16.942 0 0 16.574 8.449 35.783-13.533s-3.679-43.227-3.679-43.227z" fill="#80b297"/><path d="m192.142 110.326a146.145 146.145 0 0 0 12.576-17.073l-5.553-16.414s-8.185-14.975-17.639-14.871a25.054 25.054 0 0 0 3.306 16.945s7.87 13.787-6.814 28.1a41.269 41.269 0 0 1 -28.595 11.695c.316.394.639.792.993 1.2 13.452 15.674 10.613 22.462 10.613 22.462a176.84 176.84 0 0 0 31.113-32.044z" fill="#3e6a51"/><path d="m254.646 152.145a95.22 95.22 0 0 1 28.6 4.718c6.925 2.393 8.566 11.685 2.7 16.072q-.381.285-.8.565a31.9 31.9 0 0 1 13.847 10.569c5.075 7.095-1.337 16.94-9.79 14.787a18.014 18.014 0 0 1 -3.5-1.308 6.555 6.555 0 0 1 .252.609 9.555 9.555 0 0 1 -11.847 12.321 40.466 40.466 0 0 1 -3.976-1.456c-36.395-23.173-36.702-52.781-15.486-56.877z" fill="#80b297"/><path d="m239.273 91.5-27.3 4.336-143.173 137.552-11.248 29.525 16.871 1.406s81.314-46.165 164.85-172.819z" fill="#5b723d"/><path d="m241.5 81.778s-80.142 133.566-183.948 181.135l-11.014 40.07 25.776-7.967s126.052-95.9 168.59-172.965z" fill="#719b56"/><path d="m174.343 126.232a3.493 3.493 0 0 1 -1.25-3.427c4.1-20.285-11.65-35.36-11.81-35.51a3.492 3.492 0 0 1 4.765-5.105c.769.716 18.778 17.819 13.89 42a3.495 3.495 0 0 1 -5.595 2.043z" fill="#3e6a51"/><path d="m257.264 181.651c7.3-13.454-9.034-19.989-9.034-19.989l6.416-9.513a134.15 134.15 0 0 0 -29.943 2.67l-10.026 16.444 33 19.579c7.994 10.158 16.023 15.438 22.455 18.177 7.354-16.163-12.868-27.368-12.868-27.368z" fill="#3e6a51"/><path d="m225.97 141.88c-27.295 34.427-90.218 106-173.946 152.3 0 0 4.961-5.88 8.487-16.786a133.081 133.081 0 0 1 13.636-29.8c15.912-25.407 45.953-64.949 93.921-101.356a188.489 188.489 0 0 0 18.014-14.674c9.469-12.365 10.969-21.774 5.87-28.734-8.007 8.156-17.787 17.087-28.088 24.129-4.567 3.122-9.1 6.292-13.48 9.673-29.437 22.722-121.646 98.868-124.655 163.438l-4.541 3.582a9.437 9.437 0 0 0 -.828 14.082l10.377 10.377a9.437 9.437 0 0 0 13.345 0l3.251-3.25a23.994 23.994 0 0 1 5.655-4.2c18.2-9.737 114.56-64.817 190.4-177.242-3.599-4.748-9.424-5.227-17.418-1.539z" fill="#a9db89"/><path d="m194.417 114.138.044 1.114c.095-.48.159-.948.217-1.414z" fill="#719b56"/><path d="m261.872 114.1-20.968 7.95s-5.207 7.557-14.935 19.828a33.854 33.854 0 0 1 17.419 1.537q9.485-14.057 18.484-29.315z" fill="#719b56"/><path d="m186.082 131.566c12.731-11.656 28.456-29.051 33.874-47.708l-8.162-3.5a275.2 275.2 0 0 1 -19.843 22.472 47.925 47.925 0 0 1 -5.869 28.736z" fill="#719b56"/><path d="m240.045 180.407c6.062.088 7.867-8.292 2.408-10.929-9.248-4.468-29.689-9.7-53.892 14.37l-24.787 25.992s12.378-8.681 33.475 2.582a12.138 12.138 0 0 0 16.541-5.085l.141-.282s23.675 27.776 29.64 3.169c0 0 12.863 6.152 15.472-8.016s-20.043-21.908-20.043-21.908a5.117 5.117 0 0 0 1.045.107z" fill="#80b297"/><path d="m196.249 81.631a72.046 72.046 0 0 0 -4.259-7.989 9.992 9.992 0 0 1 5.851-14.895 25.563 25.563 0 0 1 3.227-.638s-13.919-5.122-9.9-14.71c4.073-9.708 15.49-2.813 15.49-2.813-3.081-7.873-4.289-15.161.976-20.43a9.576 9.576 0 0 1 12.6-1.115c1.962 1.529 3.756 4.042 4.589 8.159 0 0 6.031-9.776 16.454-4.081 10.112 5.526 1.547 22.314 1.547 22.314s17.851 7.672 9.156 27.13c-17.573 22.269-43.812 34.501-55.731 9.068z" fill="#80b297"/><g fill="#3e6a51"><circle cx="232.875" cy="191.407" r="3.553"/><path d="m194.441 123.435c3.53-2.143 6.841-4.228 9.991-6.268 26.747-33.358 25.105-59.44 25.015-60.6a3.491 3.491 0 0 0 -6.963.526c.018.253 1.342 24.006-22.581 54.539a30.86 30.86 0 0 1 -5.462 11.803z"/><path d="m249.544 175.966a3.492 3.492 0 0 1 2.641-5.957c12.8.632 24.965 6.56 25.477 6.812a3.491 3.491 0 0 1 -3.084 6.265c-.113-.055-11.414-5.544-22.738-6.1a3.478 3.478 0 0 1 -2.296-1.02z"/><path d="m159.576 214.128 2.476-5.945a20.449 20.449 0 0 1 7.67-9.32c20.5-13.325 39.324-13.64 47.4-12.958a3.577 3.577 0 0 1 3.18 4.41 3.571 3.571 0 0 1 -3.609 2.733c-8.582-.328-34.658.577-57.117 21.08z"/></g><path d="m52.024 294.179-9.8 6a2.3 2.3 0 0 1 -3.3-2.922c2.849-6.208 9.365-15.731 23.832-22.213.005 0-3.069 12.788-10.732 19.135z" fill="#719b56"/><path d="m251.973 72.56c-8.044 3.125-18.912 8-28.142 14.421a19.636 19.636 0 0 1 -18.6 2.309 19.116 19.116 0 0 1 -8.987-7.657c11.722 25.943-1.8 41.8-1.8 41.8 36.512-22.163 52.134-38.789 57.529-50.873z" fill="#3e6a51"/><path d="m239.439 130.342a44.064 44.064 0 0 1 5.966 1.979 9.29 9.29 0 0 0 11.008-2.724 31.531 31.531 0 0 0 3.325-5.636s19.891 23.563 31.34 4.258c0 0 8.992 8.07 17.248-1.507 3.446-4 2.04-8.32-.768-12 0 0 9.464-5.5 3.74-14.748-2.349-3.795-7.722-6.019-12.83-6.7a8.383 8.383 0 0 1 -6.864-5.7c-1.064-3.22-4.579-6.727-14.54-7.519-15.289-1.216-26.427-.758-41.819 10.5-6.559 6.863-31.445 29.122 4.194 39.797z" fill="#80b297"/><path d="m283.443 103.927a3.492 3.492 0 0 0 -2.543-4.227c-.464-.115-11.532-2.781-27.448.716-13.407 2.945-32.817 11-51.66 32.34a73.488 73.488 0 0 0 -3.35 9.561 47.3 47.3 0 0 1 11.663-8.3c16.463-17.291 32.915-24.093 44.462-26.7 14.343-3.232 24.452-.89 24.654-.842a3.493 3.493 0 0 0 4.222-2.548z" fill="#3e6a51"/><path d="m239.435 130.359c-4.782-2.919-10.308-7.625-12.725-14.623-4.858-14.07 7.454-24.326 8.539-25.2a117 117 0 0 0 -9.835 8.134 97.371 97.371 0 0 0 -26.975 43.639s17.149-17.976 40.996-11.95z" fill="#3e6a51"/></svg>