<svg id="icons" height="512" viewBox="0 0 340 340" width="512" xmlns="http://www.w3.org/2000/svg"><path d="m138.362 74.233s-55.789-12.366-100.04 27.456a90.242 90.242 0 0 0 -29.631 69.863c1.051 34.604 11.309 92.658 45.05 136.048 0 0 24.026 27.569 72.4 6.98 58.2-24.773 119.806-69.964 126.151-143.146 1.226-14.145.178-38.63-6.21-51.31-12.365-24.534-44.812-41.883-107.72-45.891z" fill="#f7616c"/><path d="m254.853 112.99c-12.36-24.536-49.71-50.262-116.491-38.757l-1.271 11.967c-8.4.658-20.619-.053-24 .1a44.865 44.865 0 0 0 -5.621.75 10.978 10.978 0 0 0 -5.328 18.762c6.981 6.524 16.1 10.592 27.121 12.091a89.945 89.945 0 0 0 12.16.845 73.573 73.573 0 0 0 23.314-3.624 24.433 24.433 0 0 1 25.195 5.961l.147.151c7.95 8.274 16.912 22.512 21.053 46.4a43.51 43.51 0 0 1 -28.332 48.287c-20.235 7.311-44.056 22.449-49.246 53.585a66.907 66.907 0 0 1 -15.42 33.277c-11.012 12.531-42.225 22.388-64.376 4.8a155.958 155.958 0 0 0 12.889 14.66 37.392 37.392 0 0 0 39.961 8.072 50.071 50.071 0 0 0 11.581-6.393 15.626 15.626 0 0 1 17.754-.751 69.456 69.456 0 0 0 22.105 8.969 37.63 37.63 0 0 0 27.252-4.222c24.027-13.968 69.882-53.869 79.809-168.359 1.227-14.145-3.868-33.891-10.256-46.571z" fill="#b73d49"/><path d="m159.225 84.988s5.065-60.056 58.469-74.743c22.623-6.222 45.2-2.829 63.7 3.149 0 0 8.05 2.734 15.213 2.4a1.974 1.974 0 0 1 1.878 2.793c-7.504 16.513-46.834 90.543-139.26 66.401z" fill="#80b297"/><path d="m195.651 243.085 10.011-6.461c41.2-9.647 71.88-26.881 83.484-76.958 9.254-10.8 26.961-8.632 32.838 4.657 8.066 18.236 13.847 45.216 4.711 80.19-18.272 69.947-93.643 75.657-93.643 75.657s-41.01 7.243-49.392-31.12c-7.423-33.974 11.991-45.965 11.991-45.965z" fill="#ffeac5"/><path d="m195.651 243.085a68.181 68.181 0 0 0 -7.591 23.748c-3.732 35.252 25.452 51.206 54.159 48.925 31.125-2.473 46.117-18.274 62.726-30.563 0 0-22.606 44.39-74.576 47.766 0 0-48.4 3.265-61.27-31.13-15.132-40.44 26.552-58.746 26.552-58.746z" fill="#f7616c"/><path d="m289.147 159.667s-28.231 61.218-83.485 76.956a13.809 13.809 0 0 1 5.915 2.972c9.541 8.145 23.5 33.51 55.383 18.151 14.612-7.039 21.5-18.087 24.675-27.99a51.3 51.3 0 0 0 .9-27.351c-2.094-8.931-5.535-27.091-3.388-42.738z" fill="#ebb699"/><path d="m270.169 224.5a4.005 4.005 0 0 0 -5.36-4.8c-3.172 1.311-6.913 4.188-10.048 10.311a8.537 8.537 0 0 0 -.966 4.142c.076 2.378 1.148 5.749 6.161 6.441 5.733.791 8.1-8.568 8.1-8.568z" fill="#333"/><ellipse cx="59.998" cy="167.113" fill="#ffe9e9" rx="19.377" ry="20.836"/><path d="m258.3 28.767a164.061 164.061 0 0 0 -28.991 5.427c.925-2.205 1.658-4.567 2.428-7.059.609-1.968 1.238-4 2.023-6.185a3.491 3.491 0 1 0 -6.57-2.365c-.84 2.332-1.522 4.539-2.125 6.487-1.823 5.9-3.048 9.833-6.741 12.709a143.128 143.128 0 0 0 -18.882 8.573 24.425 24.425 0 0 1 5.693-11.619 3.492 3.492 0 0 0 -4.876-5c-.33.32-7.737 7.689-8.4 21.074-11.49 6.824-23.108 17.952-28.19 23.507-9.708 10.61-17.534 15.432-25.273 25.422l2.9 7.265c8.961-11.8 17.609-17.189 27.733-28.2a129.961 129.961 0 0 1 18.541-16.623 17.241 17.241 0 0 1 16.439.375 26.606 26.606 0 0 0 12.784 3.1 33.585 33.585 0 0 0 3.734-.213 3.492 3.492 0 1 0 -.777-6.94 20.863 20.863 0 0 1 -12.431-2.1 26.061 26.061 0 0 0 -6.922-2.577c15.177-8.681 34.474-15.755 58.582-18.111a3.492 3.492 0 0 0 -.679-6.95z" fill="#3e6a51"/><path d="m133.716 109.238h4.539a5.008 5.008 0 0 0 4.98-4.522c4.51-46.607-11.353-75.155-20.223-87.146a8.745 8.745 0 0 0 -12.118-1.922l-11.084 7.917c25.683 19.046 29.544 62.827 29.969 81.815a3.939 3.939 0 0 0 3.937 3.858z" fill="#bc8875"/></svg>