<svg id="icons" height="512" viewBox="0 0 340 340" width="512" xmlns="http://www.w3.org/2000/svg"><path d="m162.4 73.552s8.021-56.359 61.319-64.559c22.58-3.474 45.276 1.134 63.938 7.6 0 0-.707 27.19-30.987 43.746a75.87 75.87 0 0 1 -27.711 8.615c-8.807 1.021-21.66 1.883-32.13.032-12.368-2.186-31.19 2.401-34.429 4.566z" fill="#80b297"/><path d="m262.8 25.845a3.489 3.489 0 0 0 -3.905-3.02c-.418.053-5.406.709-13.131 2.419a17.172 17.172 0 0 0 1.357-3.669 3.492 3.492 0 0 0 -6.789-1.635c-.59 2.453-2.429 5.924-7.77 8.659-10.82 2.426-28.389 10.327-32.6 12.4a30.447 30.447 0 0 0 2.228-8.776 3.492 3.492 0 0 0 -6.95-.689c-.689 6.954-4.259 13.042-10.611 18.094-.03.023-.051.053-.08.077-17.068 11.081-29.43 24.621-36.343 40.017a3.492 3.492 0 1 0 6.372 2.861c11.122-24.783 35.527-40.211 58.036-49.576 2.67.064 12.137.908 17.628 9.442a26.977 26.977 0 0 0 4.279 5.168 3.491 3.491 0 0 0 4.758-5.111 20.046 20.046 0 0 1 -3.164-3.835 26.511 26.511 0 0 0 -11.855-10.071 204.49 204.49 0 0 1 35.515-8.847 3.491 3.491 0 0 0 3.025-3.908z" fill="#3e6a51"/><path d="m113.3 38.117s23.725 31.119 22.492 63.163l15.408-3.389s3.111-35-15.873-63.377a9.352 9.352 0 0 0 -13.027-2.514z" fill="#7f4c45"/><path d="m148.163 91.863a68.679 68.679 0 0 0 -21.277 10.087 41.817 41.817 0 0 0 -15.421 21.84c-3.139 10.36-8.857 28.007-15.517 42.864a84.574 84.574 0 0 1 -16.773 24.739 93.424 93.424 0 0 0 -25.875 79.179c3.517 25.652 19.968 40.782 36.517 49.625 77.47 20.158 111.631-23.064 128.28-91.911l-43.737-130.26a27.6 27.6 0 0 0 -26.197-6.163z" fill="#aecc76"/><g fill="#84994a"><circle cx="77.175" cy="236.237" r="3.553"/><circle cx="93.594" cy="219.28" r="3.553"/><circle cx="95.613" cy="246.061" r="3.553"/><path d="m200.5 160.5c-2.891-14.736-11.049-37.629-20.449-55.158a27.477 27.477 0 0 0 -5.7-7.312l8.035 73.821a48.3 48.3 0 0 0 9.819 24.569c.075.1.151.193.226.291a21.876 21.876 0 0 1 1.04 25.135l-45.578 71.234s-20.419 30.609-58.073 27.114c1.817.972 3.636 1.87 5.439 2.695a105.081 105.081 0 0 0 43.75 9.309h18.923l81.5-98.273s2.085-17.474-26.369-48.4a51.546 51.546 0 0 1 -12.563-25.025z"/></g><path d="m173.211 303.86 18.221-33.8c9.676-7.584 12.837-15.123 17.617-32.675l55.73-103.367s21.477 23.737 9.549 61.138a37.066 37.066 0 0 0 -.788 20.189 167.151 167.151 0 0 1 3.5 18.576c2.23 32.408-7.315 56.633-30.62 71.3-28.181 15.243-55.73 18.796-73.209-1.361z" fill="#ffeac5"/><path d="m256.724 311.183c22.261-21.652 23.327-53.958 20.308-77.258-.711 20.671-7.374 50.186-37.187 64.114-27.754 12.961-51.445 10.391-66.634 5.821l-15.279 28.34c31.218 0 51.655-2.068 63.356-3.816a64.307 64.307 0 0 0 35.436-17.201z" fill="#aecc76"/><path d="m209.55 265.258c5.4-6.575 5.223-18.312 4.118-27.023a2.467 2.467 0 0 0 -4.619-.847l-17.617 32.675c6.224 1.109 13.524.788 18.118-4.805z" fill="#915351"/><path d="m229.43 235.976.53 13.242a11.078 11.078 0 0 0 12.344 10.6l.266-.035c5.469-.746 5.828-6.111 5.289-10.146a10.987 10.987 0 0 0 -3.834-6.916l-10.417-8.793a2.541 2.541 0 0 0 -4.178 2.048z" fill="#915351"/><ellipse cx="131.217" cy="145.79" fill="#ecf7d5" rx="15.511" ry="9.946" transform="matrix(.198 -.98 .98 .198 -37.65 245.573)"/></svg>