<svg id="icons" height="512" viewBox="0 0 340 340" width="512" xmlns="http://www.w3.org/2000/svg"><path d="m156.738 68.055s-52.855-21.533-88.483 12.137-59.083 78.308-54.795 137.815c3.687 51.163 34.59 91.909 69.31 103.826a59.292 59.292 0 0 0 32.466 1.716c6.082-1.4 12.7-3.915 17.228-8.445 0 0 31.713 16.839 66.95 10.181l81.827-148.779s19.185-96.7-86.134-112.757c0 0-22.317-3.133-38.369 4.306z" fill="#ff9773"/><path d="m131.132 89.489s12.4-9.185 32.314-9.209a59.369 59.369 0 0 1 42.194 18.059c.137.139.273.279.41.42a5.539 5.539 0 0 1 -2.473 9.2 106.265 106.265 0 0 1 -49.557 1.89 39.823 39.823 0 0 0 -33.574 8.13q-1.507 1.246-3.046 2.651c-5.064 4.639-12.577-1.562-9.011-7.432a76.038 76.038 0 0 1 22.743-23.709z" fill="#de5d47"/><path d="m211.737 67.213c3.941 1.3 41.708 15.316 47.672 75.834a21.554 21.554 0 0 1 -9.833 20.116 15.545 15.545 0 0 0 -6.648 9.081s-35.305 6.131-39.144 47.318a20.07 20.07 0 0 0 -11.917 19.349 25.393 25.393 0 0 1 -8.777 19.744c-13.391 11.754-39.133 24.861-72.772-2.733-17.845-14.64-22.839-51.74-11.04-100.146 1.57-6.441-7.465-9.675-10.289-3.677-14.076 29.9-24.063 77.642 8.422 135.289 6.769 12.013-.769 27.167-14.472 28.705a46.882 46.882 0 0 1 -14.215-.785 77.7 77.7 0 0 0 14.046 6.525 59.292 59.292 0 0 0 32.466 1.716c6.082-1.4 12.7-3.915 17.228-8.445 0 0 31.713 16.839 66.95 10.181l81.827-148.779s17.059-86.097-69.504-109.293z" fill="#de5d47"/><path d="m13.46 9.755s9.24 95.639 121.452 61.645c0 0 6.788-82.182-121.452-61.645z" fill="#80b297"/><path d="m198.234 266.161-12.8 16.087a27.329 27.329 0 0 0 1.967 36.458c8.064 7.912 21.029 14.834 41.714 14.834 48.264 0 75.854-47.713 75.854-47.713z" fill="#ff9773"/><path d="m198.232 266.163 96.008-112.235a8.916 8.916 0 0 1 14.419 1.225c11.574 19.2 31.377 63.739 6.188 114.7-25.938 52.481-73.564 44.531-94.068 38.114a45.525 45.525 0 0 1 -23.564-16.8c-.092-.128-.183-.256-.273-.386a20.166 20.166 0 0 1 1.29-24.618z" fill="#ffd066"/><path d="m209.552 240.481a15.487 15.487 0 0 0 11.242 14.991c6.452 1.918 16.772 3.548 27.54-.561 2.065-1.884 5.069-3.256 8.4-4.446a62.072 62.072 0 0 0 17.97-20.285 108.255 108.255 0 0 0 6.685-17.119c2.06-9.291 1.623-18.876-2.58-27.411-6.6-13.393-23.009-5.842-23.924 3.057l-6.793-.472c-6.592.445-15.9 3.784-17.966 18.6l-6.839 3.7c-2.861 2.773-5.349 7.543-4.485 15.665l-7.964 8.665a14.479 14.479 0 0 0 -1.286 5.616z" fill="#b24242"/><path d="m161.141 100.505c-4.35-18.243-24.419-36.579-45.69-50.706a17.187 17.187 0 0 1 -7.215-10 32.485 32.485 0 0 1 -.656-11.767 3.422 3.422 0 1 0 -6.8-.775 39.4 39.4 0 0 0 .773 14.008q-3.943-2.154-8.113-4.155c-4.12-1.969-8.152-3.7-12.022-5.228a25.634 25.634 0 0 1 -9.118-13.117 27.34 27.34 0 0 0 -1.7-4.525 3.421 3.421 0 0 0 -6.156 2.988 20.486 20.486 0 0 1 1.272 3.389 30.127 30.127 0 0 0 2.8 6.677 163.76 163.76 0 0 0 -22.284-5.56 3.421 3.421 0 0 0 -1.051 6.766 184.179 184.179 0 0 1 57.791 21.539 26.489 26.489 0 0 0 -13.261 9.787 3.421 3.421 0 0 0 5.589 3.943c.91-1.275 9.02-12 19.744-5.734 15.474 11.489 32.712 23.451 39.59 44.587a3.417 3.417 0 0 0 4.312 2.195 3.527 3.527 0 0 0 2.195-4.312z" fill="#3e6a51"/><path d="m71.4 41.806c-5.25 2.294-15.619 9.705-16.637 10.349a3.422 3.422 0 0 0 3.662 5.781c1.255-.8 11.045-7.823 15.709-9.861a3.421 3.421 0 1 0 -2.734-6.269z" fill="#3e6a51"/><g fill="#992e2e"><path d="m228.483 226.434a13.875 13.875 0 0 0 -9.676-.234 20.807 20.807 0 0 0 -7.948 8.672c6.46-3.912 12.039-3.251 15.451-2.108a3.346 3.346 0 0 0 2.173-6.33z"/><path d="m223.294 210.537c.644 10.3 10.208 12.4 15.44 12.319a39.56 39.56 0 0 1 4.9.191 3.315 3.315 0 0 0 3.6-2.547 3.309 3.309 0 0 0 -3.31-4.076q-.544.021-1.123.066c-14.548 1.153-12.669-9.65-12.669-9.65a14.258 14.258 0 0 0 -6.838 3.697z"/><path d="m256.735 250.459c-.1 0-8.526-.525-9.922-6.108-.839-3.356.173-5.376 1.358-6.548a3.694 3.694 0 0 0 .64-4.489 3.627 3.627 0 0 0 -4.627-1.518 6.327 6.327 0 0 0 -2.741 2.225c-3.962 6.237-2.657 18.113 6.889 20.885a39.363 39.363 0 0 0 8.1-4.231c.102-.069.202-.146.303-.216z"/><path d="m248.1 188.238c.132 9.478 4.623 13.326 7.595 14.834a3.271 3.271 0 0 0 4.037-.94 3.334 3.334 0 0 0 -.813-4.812c-4.126-2.84-4.026-8.613-4.026-8.613a24.321 24.321 0 0 0 -6.793-.469z"/><path d="m281.392 213.06a15.6 15.6 0 0 0 -5.918-7.73 4.366 4.366 0 0 0 -6.728 2.84l-.044.236a4.211 4.211 0 0 0 1.813 4.231c4.315 2.974 7.619 8.252 4.188 17.539a62.593 62.593 0 0 0 6.689-17.116z"/></g><path d="m172.914 20.194 4.728 4.8a11.162 11.162 0 0 1 1.908 13.038c-4.932 9.389-12.661 29.279-14.772 64.258a3.155 3.155 0 0 1 -3.154 2.956h-6.086a3.154 3.154 0 0 1 -3.124-2.675c-1.7-11.057-6.413-53.947 16.923-82.217a2.412 2.412 0 0 1 3.577-.16z" fill="#7f4c45"/><circle cx="257.184" cy="219.578" fill="#992e2e" r="3.238"/><ellipse cx="50.512" cy="160.268" fill="#ffded7" rx="17.508" ry="13.734" transform="matrix(.24 -.971 .971 .24 -117.192 170.895)"/></svg>