<svg id="icons" height="512" viewBox="0 0 340 340" width="512" xmlns="http://www.w3.org/2000/svg"><path d="m44.644 288.3a127.673 127.673 0 0 1 70.037-213.114c117.641 24.731 127.819 91.551 117.308 166.469-53.089 55-121.682 104.866-187.345 46.645z" fill="#ffa750"/><path d="m139.746 73.155a128.462 128.462 0 0 0 -25.064 2.034c-.147 11.492 5.318 18.038 5.318 18.038s7.555 10.037 24.561 9.962a32.523 32.523 0 0 1 17.975 5.15c15.764 10.288 44.891 35.218 53.213 82.661a19.765 19.765 0 0 1 -13.474 22.328l-119.358 37.557a9.543 9.543 0 0 0 -5.7 13.328 104.08 104.08 0 0 0 12.137 18.853 7.868 7.868 0 0 1 -5.264 12.794c-10.576 1.048-25.518.433-39.441-7.563a127.649 127.649 0 0 0 220.589-87.808c-.161-69.252-56.249-126.182-125.492-127.334z" fill="#f47b5b"/><path d="m173.8 25.6s15.248 2.04 21.485 23.971c0 0 16.913 61.759 104.209 47.315 0 0-1.213-55.241-42.922-76.641-46.543-23.879-82.772 5.355-82.772 5.355z" fill="#80b297"/><path d="m126.92 264.875 18.3-5.839c66.45-13.613 127.336-29.386 167.175-53.331l15.4-4.914s22.469 99.209-73.96 124.062c-92.718 23.897-126.915-59.978-126.915-59.978z" fill="#ffe5c5"/><path d="m312.4 205.705-167.175 53.331c12.577 24.272 45.823 65.132 108.941 47.1 62.234-17.783 60.154-82.104 58.234-100.431z" fill="#ffa750"/><path d="m216.187 236.4c2.5 5.267 7.874 12.024 18.8 10.7 12.244-1.484 14.325-13.249 14.292-21.257z" fill="#ffe5c5"/><path d="m280.61 56.189a44.12 44.12 0 0 0 -23.658-.354 211.126 211.126 0 0 0 -17.793-13.454 20.425 20.425 0 0 0 2.764-1.166 22.441 22.441 0 0 1 14.959-2.347 3.491 3.491 0 1 0 1.376-6.846 29.658 29.658 0 0 0 -19.527 2.983 12.836 12.836 0 0 1 -10.372.676c-20.712-11.751-36.5-14.313-46.118-14.382h-.2a27.371 27.371 0 0 0 -16.472 5.522c-25.062 18.7-27.03 48.965-27.1 50.244a3.492 3.492 0 0 0 6.972.4c.016-.282 1.917-28.34 24.306-45.041a20.44 20.44 0 0 1 12.3-4.137h.148c7.537.054 19.189 1.8 34.37 9.055.249.192 6.069 4.86 4.917 17.307-.218 2.358-.479 4.573-.731 6.715a92.981 92.981 0 0 0 -.909 11.832 3.492 3.492 0 0 0 3.49 3.444h.049a3.494 3.494 0 0 0 3.444-3.54 86.739 86.739 0 0 1 .861-10.919c.257-2.184.524-4.443.75-6.889a34.683 34.683 0 0 0 -.827-12.015 179.048 179.048 0 0 1 17.821 12.217c-2.169 5.822-5.728 20.079 5.037 32.657a3.491 3.491 0 1 0 5.3-4.54c-7.27-8.5-6.077-18.115-4.536-23.466.813.674 16.069 14.28 23.207 21.711a3.492 3.492 0 1 0 5.037-4.837c-5.44-5.664-10.714-10.757-15.817-15.348a35.9 35.9 0 0 1 14.875 1.186 3.491 3.491 0 1 0 2.073-6.667z" fill="#3e6a51"/><circle cx="36.301" cy="210.104" fill="#f47b5b" r="3.553"/><circle cx="60.483" cy="203.713" fill="#f47b5b" r="3.553"/><circle cx="47.529" cy="182.641" fill="#f47b5b" r="3.553"/><g fill="#ffe5c5"><path d="m182.194 308.135a3.492 3.492 0 0 1 -2.807-5.563l47.293-64.189a3.491 3.491 0 0 1 5.621 4.143l-47.293 64.188a3.486 3.486 0 0 1 -2.814 1.421z"/><path d="m259.544 310.287a3.5 3.5 0 0 1 -3.279-2.293l-24.276-66.339a3.492 3.492 0 1 1 6.558-2.4l24.277 66.34a3.495 3.495 0 0 1 -3.28 4.693z"/><path d="m308.871 269.307a3.5 3.5 0 0 1 -1.358-.276l-67.785-28.631a3.492 3.492 0 0 1 2.718-6.434l67.786 28.634a3.493 3.493 0 0 1 -1.361 6.71z"/><path d="m276.333 236.538a3.563 3.563 0 0 1 -.62 0l-4.681-.386a3.491 3.491 0 0 1 .573-6.959l4.681.385a3.492 3.492 0 0 1 .047 6.957z"/><path d="m262.771 267.744a3.474 3.474 0 0 1 -2.221-.8l-4.293-3.546a3.491 3.491 0 1 1 4.446-5.384l4.297 3.547a3.491 3.491 0 0 1 -2.225 6.183z"/><path d="m227.2 280.357a3.387 3.387 0 0 1 -.537-.042 3.491 3.491 0 0 1 -2.917-3.984l.629-4.066a3.492 3.492 0 1 1 6.9 1.067l-.629 4.067a3.493 3.493 0 0 1 -3.446 2.958z"/><path d="m194.954 259.98a3.492 3.492 0 0 1 -1.113-6.73l3.53-1.409a3.491 3.491 0 1 1 2.588 6.485l-3.529 1.409a3.465 3.465 0 0 1 -1.476.245z"/></g><path d="m135.305 94.942a28.91 28.91 0 0 0 4.738 1.026 4.723 4.723 0 0 0 5.271-3.909c7.4-44.93-3.774-78.494-3.774-78.494l-9.378 4.168a11.9 11.9 0 0 0 -6.322 14.588c6.383 17.408 5.549 45.4 4.94 56.131a6.411 6.411 0 0 0 4.525 6.49z" fill="#3e6a51"/><ellipse cx="73.934" cy="140.947" fill="#ffe5c5" rx="18.494" ry="15.179" transform="matrix(.614 -.789 .789 .614 -82.716 112.787)"/></svg>