<svg id="icons" height="512" viewBox="0 0 340 340" width="512" xmlns="http://www.w3.org/2000/svg"><path d="m109.463 46.791s26.565.984 52.145 23.858 56.285 29.88 82.382 21.787c42.823-13.28 66.672-57.206 66.672-57.206s-61.983-33.943-113.143-28.285c-52.97 5.855-88.056 39.846-88.056 39.846z" fill="#aecc76"/><path d="m264.324 34.813a316.86 316.86 0 0 0 -62.624-4.676 32.672 32.672 0 0 1 11.93-12.837 3.611 3.611 0 0 0 1.4-4.692 3.5 3.5 0 0 0 -4.9-1.355c-6.13 3.726-11.922 8.811-15.683 15.157a8.892 8.892 0 0 1 -7.062 4.249c-5.139.358-12.8.972-17.031 1.4a52.949 52.949 0 0 0 7.22-8.9 3.534 3.534 0 0 0 -.433-4.432 3.493 3.493 0 0 0 -5.388.573c-3.383 5.2-9.061 11.953-16.9 14.635a.175.175 0 0 0 -.024.011c-1.764.248-22.388 3.437-46.315 9.479-25.284 6.386-35.768 2.7-39.223.594a3.609 3.609 0 0 0 -4.757.8 3.494 3.494 0 0 0 .939 5.055c3.058 1.916 8.805 4.226 18.751 4.226 6.671 0 15.233-1.039 26.135-3.931a309.579 309.579 0 0 1 31.407-7.077 24.492 24.492 0 0 1 16.9 3.011c6.447 3.87 14.977 10.793 22.284 22.777a4.027 4.027 0 0 0 5.048 1c1.6-.872 1.806-3.174.853-4.732-8.064-13.188-17.44-20.818-24.682-25.133 9.55-1.191 20.07-2.155 31.267-2.637 6.923.025 29.163 1.545 42.177 19.292a75.206 75.206 0 0 0 14.4 15.077 3.5 3.5 0 0 0 5.166-1.02 3.625 3.625 0 0 0 -1.051-4.626 68.466 68.466 0 0 1 -12.887-13.56 50.743 50.743 0 0 0 -17.92-15.189 293.89 293.89 0 0 1 39.94 4.373 3.489 3.489 0 0 0 4.089-3 3.624 3.624 0 0 0 -3.026-3.912z" fill="#84994a"/><path d="m51.939 42.178 6.561-2.962a10.5 10.5 0 0 1 13.972 5.476 48.036 48.036 0 0 0 5.152 9.141 14.885 14.885 0 0 0 10.824 6.1c15.916 1.282 63.476 9.816 97.149 65.207a171.528 171.528 0 0 0 11.485 16.7c-6.007 4.951-13.575 4.224-22.838-2.669-15.011-22.7-41.866-53.243-83.17-63.059a13.276 13.276 0 0 0 -16.143 15.02c1.065 6.589 3.887 15.341 10 26.735 10.276 19.162 16.974 37.688 20.1 53.576-6.291 1.735-11.781-.546-16.782-5.272a114.449 114.449 0 0 0 -11.8-29.14c-19.549-34.431-16.779-60.515-14.808-69.81a11.473 11.473 0 0 0 -.94-7.52z" fill="#aecc76"/><path d="m89.781 199.853 16.253 1.941c1.659-8.089 1.316-18.489-1.015-30.355a32.556 32.556 0 0 1 -16.786-5.271c5.011 20.372 1.548 33.685 1.548 33.685z" fill="#84994a"/><path d="m197.085 141.834a46.44 46.44 0 0 1 -22.841-2.666c9.878 14.938 14.632 26.482 14.994 26.482.97 0 27.2-3.918 27.2-3.918a121 121 0 0 1 -19.353-19.898z" fill="#84994a"/><path d="m225.639 151.847c-9.709 6.316-13.346 8.619-21.251 8.639-9.28.022-21.806 2.026-32.491 10.609l32.272 82.53c26.695 42 56.99 34.964 88.222 15.164 17.882-19.7 24.13-49.5 15.524-77.368-6.438-20.844-35.573-69.955-82.276-39.574z" fill="#f7616c"/><path d="m227.407 234.679c-.093.087-.176.179-.268.266a97.935 97.935 0 0 0 -1.362-10.531c-7.792-42.206-41.2-51.352-53.875-53.313a47.792 47.792 0 0 0 -10.78 12.337c-7.74 12.559-8.533 28.454-6.718 42.964 4.225 33.78 37.433 82.632 96.057 65.16 10.237-3.051 19.145-5.788 26.4-10.087a67.114 67.114 0 0 0 15.513-12.7c-68.135 15.491-64.967-34.096-64.967-34.096z" fill="#b73d49"/><circle cx="168.788" cy="212.923" r="3.553"/><path d="m123.664 187.122a35.668 35.668 0 0 1 -25.143 4.068c-13.8-2.749-35.071-3.087-52.454 13.7-11.378 10.99-15.989 26.872-17.439 41.927-3.935 40.883 24.372 78.248 64.881 84.983a147.39 147.39 0 0 0 24.185 1.89 104.81 104.81 0 0 0 31.087-4.4c36.021-11.125 58.689-46.643 55-84.161-1.722-17.51-7.8-39.524-25.512-56.057-7.659-7.149-18.284-10.271-28.742-9.628a57.581 57.581 0 0 0 -25.863 7.678z" fill="#f7616c"/><path d="m124.232 322.244a3.492 3.492 0 0 1 -1.922-6.41 32.449 32.449 0 0 1 15.6-5.162 3.492 3.492 0 0 1 .524 6.964 25.538 25.538 0 0 0 -12.283 4.034 3.472 3.472 0 0 1 -1.919.574z" fill="#b73d49"/><circle cx="75.125" cy="241.66" fill="#ffe9e9" r="16.632"/></svg>