<svg id="icons" height="512" viewBox="0 0 340 340" width="512" xmlns="http://www.w3.org/2000/svg"><path d="m126.93 57.409s.366 19.222 31.036 42.543c35.266 26.815 45.459 69.434 31.824 106.393-9.751 26.43-37.7 42.216-52.834 49.067a42.342 42.342 0 0 0 -17.137 14.088z" fill="#b2446b"/><path d="m82.878 57.409s-5.042 21.167-40.566 45.567-38.394 74.635-36.241 88.988 9 41.405 35.882 53.107 40.925 28.347 40.925 28.347z" fill="#b2446b"/><path d="m89.361 11.981 5.753 4.172a12.031 12.031 0 0 1 4.969 9.741v12.521l11.714-26a2.087 2.087 0 0 1 3.972.579l.857 6.367a13.6 13.6 0 0 0 4.522 8.419 13.635 13.635 0 0 1 4.643 10.242c.024 12.628 1.609 42.321 14.839 63.544 17.224 27.63 46.648 91.86-8.252 156.09 0 0-7.784 9.879-11.047 21.981a1.98 1.98 0 0 1 -3.338.861l-5.929-6.141a1.986 1.986 0 0 0 -2.984.145l-5.217 6.578a1.985 1.985 0 0 1 -3.163-.069l-4.5-6.21a1.985 1.985 0 0 0 -3.136-.1l-6.431 7.761a1.986 1.986 0 0 1 -3.405-.621c-2.33-6.663-9.05-22.227-25.489-39.971-22.689-24.49-43.212-80.393 4.575-141.577a107.9 107.9 0 0 0 22.547-58.243 205.875 205.875 0 0 0 .212-27.728 2.7 2.7 0 0 1 4.288-2.341z" fill="#f980a0"/><path d="m294.291 176.6a91.588 91.588 0 0 1 -24.638-30.843c-1.9-3.869-3.638-7.764-5.212-11.589a13.706 13.706 0 0 0 -25.37 0c-1.574 3.825-3.309 7.72-5.212 11.589a91.588 91.588 0 0 1 -24.638 30.843c-16.043 12.95-45.435 43.616-39.36 90.976 8.272 64.491 81.9 61.215 81.9 61.215s73.623 3.276 81.9-61.215c6.065-47.365-23.327-78.031-39.37-90.976z" fill="#b2446b"/><path d="m250.044 163.454a109.051 109.051 0 0 1 -25.144 32.907c-10.85 9.749-27.556 24.563-33.8 47.863-6.563 24.5.165 50.916 18.693 68.236 9.565 8.941 23.161 16.337 41.965 16.326 0 0 47.5 2.391 58.078-47.329a82.3 82.3 0 0 0 -13.046-64.019 125.807 125.807 0 0 0 -25.314-26.763c-12.376-9.819-19.816-23.717-21.432-27.221z" fill="#f980a0"/><path d="m289.791 273.418c-3.333-35.133-38.035-60.514-38.035-60.514s-34.7 25.381-38.035 60.514c-2.783 29.343 7.8 55.4 38.035 55.368 31.261-.701 40.818-26.025 38.035-55.368z" fill="#f9cadc"/><path d="m251.756 252.51s-22.968 13.691-22.968 42.408c0 33.9 22.968 33.868 22.968 33.868s22.969.028 22.969-33.868c0-28.718-22.969-42.408-22.969-42.408z" fill="#ffeef5"/><g fill="#f9cadc"><path d="m86.12 243.091c2.871 2.816 7.792-.282 6.132-3.861-10.2-22-21.374-63.924-2.013-124.008a99.868 99.868 0 0 0 4.4-23.643c.212-3.1-4.432-3.921-5.454-.965a165.1 165.1 0 0 1 -18.042 36.186s-40.616 61.767 14.977 116.291z"/><path d="m120.95 125.649c4.57 21.894 8.232 57.1-3.73 91.888-1.36 3.954 3.429 6.974 6.011 3.787 8.5-10.49 17.975-26.931 17.975-48.085 0-19.7-6.944-37.558-13.695-50.261-2.011-3.784-7.447-1.578-6.561 2.671z"/></g></svg>