<svg id="icon" height="512" viewBox="0 0 340 340" width="512" xmlns="http://www.w3.org/2000/svg"><path d="m45.138 282.972-5.846 33.128s-3.619 11.7 7.516 15.313h18.415l12.761-46.213z" fill="#ffcac0"/><path d="m43.067 294.705 10.47 2.3a8.652 8.652 0 0 1 6.773 7.816l.583 7.937 8.349 4.1 8.742-31.658-32.846-2.227z" fill="#ef837c"/><path d="m65.223 135.161s-17.374 67.826-22.851 110.593a18.542 18.542 0 0 1 -5.411 11c-3.631 3.514-7.82 9.5-5.937 17.4a17.452 17.452 0 0 0 1.426 3.878c7.746 4.308 18.309 6.824 30.823 8.1 25.388-58.941 31.467-111.156 1.95-150.971z" fill="#f5eef7"/><path d="m87.321 264.386s4.515-55.1-8.255-98.709l-10.88-3.492s18.143 72.815-8.859 104.773c-9.906 11.724-19.142 13.5-26.869 11.069a18.711 18.711 0 0 0 15.35 10l29.9 2.126z" fill="#b1a7c6"/><path d="m188.45 132.566s10.388 4.884 12.466 27.046a234.55 234.55 0 0 0 5.845 33.5c-.779 3.567-.344 6.491 2.234 8.281a15.282 15.282 0 0 1 13.851 2.77s10.62-5.541 25.856-2.309c.327 23.212-5.322 42.62-29.016 50.547-29.641-2.841-48.643-16.89-48.595-51.007l10.776-66.236z" fill="#f5eef7"/><path d="m199.4 216.456c.954-11.533 9.6-15.06 9.6-15.06s-.955-3.126-2.234-8.281a14.982 14.982 0 0 0 -9.532 8.281c-2.655 5.418-1.826 11.164-.453 15.379a1.344 1.344 0 0 0 2.619-.319z" fill="#b1a7c6"/><path d="m261.86 236.485-7.86-20.676-13.237 1.718c-1.562 26.615-19.98 29.058-32.724 27.49a26.19 26.19 0 0 1 -20.166-14.217c-15.2-30.262-2.163-78.542-2.163-78.542s-9.939 1.142-23.053 3.908v70.768c9.379 33.68 60.158 31.9 60.158 31.9 30.223 2.848 39.045-22.349 39.045-22.349z" fill="#b1a7c6"/><path d="m54.207 309.238a3.5 3.5 0 1 0 1.715 6.786 11.565 11.565 0 0 1 12.1 5.265l2.2-7.983a18.484 18.484 0 0 0 -16.015-4.068z" fill="#ef837c"/><path d="m260.079 271.937v59.473h18.529v-68.639c-6.289.002-12.489 2.441-18.529 9.166z" fill="#d07a76"/><path d="m260.079 141.705h18.53v84.476h-18.53z" fill="#d07a76"/><path d="m145.56 99.679h-40.186c-19.76 24.25-6.332 65.774-6.332 65.774h52.849s13.428-41.524-6.331-65.774z" fill="#ffcac0"/><path d="m145.56 99.679h-40.186a43.137 43.137 0 0 0 -6.485 11.063 45.9 45.9 0 0 0 15.567 14.673 4.3 4.3 0 0 0 5.715-1.522l2.854-4.62s18.464 17.122 31.269-1.639a46.093 46.093 0 0 0 -8.734-17.955z" fill="#ef837c"/><path d="m154.99 117.184s-11.445 27.178-29.523 39.528c-18.079-12.35-29.524-39.528-29.524-39.528-2.695 44.9 18.861 115.2 18.861 115.2h21.325s21.556-70.3 18.861-115.2z" fill="#f5eef7"/><path d="m98.114 188.635a3.5 3.5 0 0 0 4.79 1.247c4.3-2.52 13.527-7.826 22.938-13.208 6.647 3.853 13.966 8.14 21.237 12.485a3.5 3.5 0 0 0 3.591-6.008c-6.038-3.609-12.107-7.176-17.8-10.49 7.369-4.205 14.093-8.024 17.72-10.062a3.5 3.5 0 0 0 -3.43-6.1c-4.208 2.365-12.576 7.122-21.3 12.1-13.118-7.574-22.868-13.035-23.021-13.12a3.5 3.5 0 0 0 -3.419 6.109c.138.077 8.155 4.567 19.4 11.035-8.145 4.664-15.7 9.011-19.465 11.221a3.5 3.5 0 0 0 -1.241 4.791z" fill="#7f4242"/><path d="m148.874 199.511h-47.741a3.5 3.5 0 0 0 0 7h47.741a3.5 3.5 0 0 0 0-7z" fill="#7f4242"/><path d="m104.673 117.876c.847 25.813 2.924 71.671 7.547 101.1-14.026 5.312-25.322 3.788-33.032-6.72-1.294-15.556-10.588-51.403-18.667-74.544a12.173 12.173 0 0 1 3.5-13.208c6.84-5.95 18.594-15.33 31.684-22.094 4.174 3.59 6.821 9.199 8.968 15.466z" fill="#d07a76"/><path d="m146.042 125.045c-.978 26.5-3.076 67.063-7.3 93.933 0 0 8.481 5.629 18.723 3.7s14.49-12.26 14.49-12.26c1.812-16.4 10.714-50.436 18.486-72.706a12.171 12.171 0 0 0 -3.495-13.208 181.005 181.005 0 0 0 -25.1-18.423q-9.958 4.454-15.804 18.964z" fill="#d07a76"/><path d="m104.157 98.525c-2.856 1.14-5.683 2.462-8.453 3.893.559 7.711 8.969 15.458 8.969 15.458-.385-11.751-.516-19.351-.516-19.351z" fill="#7f4242"/><path d="m146.809 98.525s-.186 10.784-.767 26.521a32.321 32.321 0 0 0 15.805-18.962 106.967 106.967 0 0 0 -15.038-7.559z" fill="#7f4242"/><path d="m102 65.275h5.5a0 0 0 0 1 0 0v22.837a0 0 0 0 1 0 0h-5.5a11.418 11.418 0 0 1 -11.414-11.419 11.418 11.418 0 0 1 11.414-11.418z" fill="#ef837c"/><path d="m154.854 65.275h5.494a0 0 0 0 1 0 0v22.837a0 0 0 0 1 0 0h-5.494a11.418 11.418 0 0 1 -11.418-11.418 11.418 11.418 0 0 1 11.418-11.419z" fill="#ef837c" transform="matrix(-1 0 0 -1 303.783 153.387)"/><path d="m111.86 13.9s-19.53.331-25.489 20.082 7.614 35.309 21.737 34.426h33.875s22.4-3.641 21.958-25.158-17.655-34.66-33.213-34.65c0 0-12.137-.547-18.868 5.3z" fill="#ef6655"/><path d="m108.814 36.809s.986 14.391 20.186 16.791c0 0 3.528-4.657 1.693-13.548 0 0 2.066 6.2 10.466 9.229a8.573 8.573 0 0 1 5.621 8.252l-2.88 31.774h-37.1l-2.639-41.632s-.004-7.056 4.653-10.866z" fill="#ffcac0"/><path d="m148.66 101.128s4.057-21.277-23.176-21.213c0 0-21.327-1.558-24.069 13.028 0 0-3.405 16.311 13.447 24.241l5.105-9.371s4.265 3.328 8.991 6.529a10.626 10.626 0 0 0 13.118-.857c2.668-2.456 5.297-6.317 6.584-12.357z" fill="#ef6655"/><path d="m114.8 232.381h21.325s1.561-5.092 3.789-13.4h-28.9c2.229 8.308 3.786 13.4 3.786 13.4z" fill="#b1a7c6"/><path d="m80.932 264.386a170.384 170.384 0 0 0 -15.709 67.024h92.21l13.658-67.024c-16.374-4.701-57.602-5.464-90.159 0z" fill="#d07a76"/><path d="m80.932 264.386 42.691 8.141a10.367 10.367 0 0 1 8.389 11.047l-2.781 33.28a24.311 24.311 0 0 0 2.618 14.556h25.584l13.658-67.024c-16.374-4.701-57.602-5.464-90.159 0z" fill="#7f4242"/><circle cx="118.144" cy="66.326" fill="#ef837c" r="3.559"/><circle cx="132.79" cy="66.326" fill="#ef837c" r="3.559"/><path d="m260.079 271.937 18.529-9.166v-40.282a20.7 20.7 0 0 0 -2.435-.889c-4.592-1.327-10.927-.89-16.094-.127z" fill="#7f4242"/><path d="m254.548 195.811h-6.285a7.5 7.5 0 0 0 -7.5 7.5v14.219a7.5 7.5 0 0 0 7.5 7.5h15.427z" fill="#ef837c"/><path d="m279.649 242.145h-16.4a8.7 8.7 0 0 1 -8.7-8.705v-3.14a11.227 11.227 0 0 0 0-7v-10.071q1.361-2.123 0-7v-10.418h25.1a8.705 8.705 0 0 1 8.7 8.706v28.923a8.7 8.7 0 0 1 -8.7 8.705z" fill="#ffcac0"/><path d="m273.878 206.229h-19.33v7h19.33a3.5 3.5 0 0 0 0-7z" fill="#ef837c"/><path d="m273.878 223.3h-19.33v7h19.33a3.5 3.5 0 0 0 0-7z" fill="#ef837c"/><g fill="#7f4242"><path d="m171.959 210.418s-6.1 8.56-21.479 8.56h-11.735c-.786 5-1.645 9.53-2.584 13.4h26.72s8.308-2.245 8.758-17.738c.035-1.224.147-2.648.321-4.224z"/><path d="m79.183 212.26c.071.852.123 1.658.144 2.383.449 15.493 8.757 17.738 8.757 17.738h26.716c-.938-3.87-1.794-8.407-2.579-13.4h-17.636a29.719 29.719 0 0 1 -15.402-6.721z"/><path d="m260.079 120.951h18.53v20.754h-18.53z"/></g><path d="m291.1 11.41a61.024 61.024 0 0 1 4.049 22.283v65.469a9.517 9.517 0 0 1 -9.517 9.517 9.517 9.517 0 0 1 -9.517-9.517v-65.811s0-20.542-18.339-21.941a61.024 61.024 0 0 1 4.049 22.283v65.469a9.517 9.517 0 0 1 -9.516 9.517 9.517 9.517 0 0 1 -9.517-9.517v-65.811s0-20.542-18.339-21.941a61.024 61.024 0 0 1 4.049 22.283v69.6a21.514 21.514 0 0 0 21.514 21.514h37.909a21.514 21.514 0 0 0 21.514-21.514v-69.942s.004-20.542-18.339-21.941z" fill="#dce2f9"/><path d="m80.932 264.386h90.159v-24.209a8.4 8.4 0 0 0 -7.832-8.373 514.626 514.626 0 0 0 -74.6-.1 8.386 8.386 0 0 0 -7.723 8.367z" fill="#ffb655"/><path d="m156.282 248.9 9.8 82.506h29.825s-8.651-50.632-24.816-82.506z" fill="#ffb655"/><path d="m156.282 248.9c5.252 21.485 13.76 55 14.809 82.506h-13.658a13.587 13.587 0 0 1 -13.584-13.887l1.515-68.619z" fill="#f27b31"/><path d="m80.932 252.4h89.105a3.5 3.5 0 0 0 3.5-3.5 3.5 3.5 0 0 0 -3.5-3.5h-89.1z" fill="#f27b31"/></svg>