<svg id="icon" height="512" viewBox="0 0 340 340" width="512" xmlns="http://www.w3.org/2000/svg"><path d="m82.217 112.3a53.023 53.023 0 0 0 24.621 6.838l-16.019 43.188c-12.368 1.035-21.72-7.758-28.724-24.2z" fill="#ffcac0"/><path d="m73.239 133.98a38.13 38.13 0 0 0 8.98-21.684 48.035 48.035 0 0 1 -13.17-10.596l-28.086 16.814c5.631 37.529 41.679 65.86 41.679 65.86l8.177-22.048a64.809 64.809 0 0 1 -17.742-15.489 10.293 10.293 0 0 1 .162-12.857z" fill="#ef837c"/><path d="m243 100.8-80.33 10.335c-25.56 1.869-55.832 8-55.832 8-11.746 11.3-17.79 26.868-20.9 39.964l60.792 58.061 52.333 2.226 64.843-17.056s9.155-35.508 50.211-54.094c0 0-35.231-50.766-71.117-47.436z" fill="#f5eef7"/><g fill="#b1a7c6"><path d="m143.333 217.016-3.685-41.89c-25.656-.665-42.717-8.091-53.709-16.024a119.482 119.482 0 0 0 -3.3 25.272s6.431 6.073 18.935 13.219a45.66 45.66 0 0 1 17.683 18.4z"/><path d="m263.906 202.33a68.83 68.83 0 0 1 6.7-15.2c-25.685-16.586-28.817-45.916-28.817-45.916l-5.529 45.071-3.219 24.16z"/><path d="m230.879 123.649-84.089-2.975s-7.048 41.085 17.367 58.847a3.277 3.277 0 0 0 3.866 0 18.6 18.6 0 0 0 4.782-5.051 45.424 45.424 0 0 0 19.523 17.975 9.608 9.608 0 0 0 7.055.483c10.982-3.522 42.494-18.228 31.496-69.279z"/></g><path d="m136.546 114.551c-2.042 5.764-9.163 27.3-13.657 59.057-.86 6.075 17.314 130.617 17.314 130.617l123.123-5.654c1.877-47.283 1.159-90.936-11.5-117.9a49.393 49.393 0 0 1 -5.433-19.406c-1.29-20.21-1.294-36.47-.939-48-16.122 1.316-20.207 28.453-21.37 61.86.213 2.884.454 5.749.727 8.575a20.258 20.258 0 0 1 -20.177 22.193h-25.455a28.075 28.075 0 0 1 -28.06-26.92c-.217-5.286-.381-11.1-.432-17.215-.158-19.089-14.141-47.207-14.141-47.207z" fill="#d07a76"/><path d="m255.072 186.255a59.525 59.525 0 0 1 -3.245-5.58c11.8 41.777-12.085 62.3-12.085 62.3l-100.2 6.461c9.928-71.8-16.571-75.814-16.652-75.826-.86 6.076-1.625 12.521-2.239 19.307a384.842 384.842 0 0 0 -1.452 44.246l27.529 90.417h161.592v-102.258s-36.142-12.974-53.248-39.067z" fill="#7f4242"/><path d="m150.688 161.755c-.159-19.091.781-41.061 4.64-58.773 0 0-14.274 1.518-18.22 10.017 0 0-.2.532-.564 1.548a105.456 105.456 0 0 0 14.144 47.208z" fill="#7f4242"/><path d="m224.086 175.126c4.871-6.872 8.545-16.161 9.031-28.66.89-20.279 7.27-29.249 12.337-33.2.119-3.887.279-7.241.445-10.025a9.3 9.3 0 0 0 -9.288-9.859h-12.985s-2.415 42.673.46 81.744z" fill="#7f4242"/><path d="m155.55 85.291s-5.691-52.662 40.795-54.736c0 0 34.55-3.172 34.966 39.287l-27.157 53.441h-43.554z" fill="#ffcac0"/><path d="m170.967 101.829a20.525 20.525 0 0 1 1.119-5.428.972.972 0 0 0 -1.5-1.1c-1.833 1.335-3.938 3.985-4.545 9.209z" fill="#ef837c"/><path d="m226.414 67.042v26.558s10.8 1.554 15.028-6.666a13.4 13.4 0 0 0 -2.342-15.782c-2.453-2.352-6.388-4.29-12.686-4.11z" fill="#ffcac0"/><path d="m226.414 88.783c9.051-.3 11-6.4 9.287-11.283-1.159-3.306-6.885-4.128-9.287-4.33z" fill="#ef837c"/><path d="m226.414 67.042s-12.14-1.512-12.14 16.287c0 0-.706 12.206-11.53 15.616a13.884 13.884 0 0 0 -8.63 7.466c-1.465 3.315-4.787 6.631-12.215 6.631 0 0-9.811.84-10.932-11.213 0 0-13.787-1.362-15.417-16.538 0 0-18.36 35.6-2.1 68.115 0 0 3.977 8.408 9.373 13.869a3.459 3.459 0 0 0 4.287.532 16.334 16.334 0 0 0 6.1-7.254s2.9 10.983 17.538 19.509a7.2 7.2 0 0 0 7.247-.018c10.01-5.828 37.049-24.684 32.885-56.4-4.927-37.51-4.466-56.602-4.466-56.602z" fill="#342a35"/><path d="m329.553 197.049a75.962 75.962 0 0 0 -15.436-48.813s-31.64 8.728-44.859 37.99c18.33 18.674 38.254 23.757 60.295 10.823z" fill="#ffcac0"/><path d="m271.674 223.968 47.436 12.206a90.666 90.666 0 0 0 10.439-39.125c-28.073 3.738-47.235-1.89-60.287-10.821a62.535 62.535 0 0 0 -4.059 12.218s11.187 10.264 6.471 25.522z" fill="#ef837c"/><path d="m243 264.192s3.152-40.5 35.609-47.16c14.229-2.918 24.619.721 31.8 5.729 0 0 12.232 18.866-22.186 37.729s-45.223 3.702-45.223 3.702z" fill="#ffb583"/><path d="m310.408 222.765c-.056 8.336-4.2 19.828-23.572 27.422h-21.636v4.295s-1.94 18.41-22.2 21.791v6.782c52.751 8.03 71.875-22.411 77.994-37.372a14.9 14.9 0 0 0 -2.168-15.071 41.743 41.743 0 0 0 -8.418-7.847z" fill="#db734e"/><path d="m196.585 265.128c-6.171 14.54-21.11 15.715-21.11 15.715a32.746 32.746 0 0 0 -28.745 32.5v14.234h-86.882c2.465-28.8-12.135-38.986-22.142-42.579a13.539 13.539 0 0 1 -8.859-12.782v-7.094c50.453-2.274 107.34-1.864 167.738.006z" fill="#dce2f9"/><path d="m28.847 254.482v10.641h167.725a33.777 33.777 0 0 0 2.491-10.641c-55.831-4.115-116.448-4.321-170.216 0z" fill="#818db7"/><path d="m136.098 237.849h-46.677l-15.527 16.633h60.463z" fill="#f5eef7"/><path d="m134.357 254.482h27.516l4.645-16.633h-30.418a40.826 40.826 0 0 0 -1.743 16.633z" fill="#c7c4d6"/><path d="m180.192 234.1a14.9 14.9 0 0 0 -11.35-5.248h-11.614a7.742 7.742 0 0 0 -7.742 7.742v10.146a7.742 7.742 0 0 0 7.742 7.742h172.772v-15.136h-138.458a14.9 14.9 0 0 1 -11.35-5.246z" fill="#342a35"/><path d="m40.952 134.378c12.948-3.349 30.048-10.978 35.521-28.204a26.325 26.325 0 0 0 1.152-7.351c.183-7.8 1.15-29.721 6.244-44.274h-20.82c-30.335 14.614-36.681 50.059-33.125 68.812 1.656 8.739 10.991 11.027 11.028 11.017z" fill="#ffb583"/><rect fill="#dce2f9" height="69.757" rx="9.411" width="37.846" x="92.402" y="12.422"/><path d="m17.155 37.867h42.824a0 0 0 0 1 0 0v17.2a0 0 0 0 1 0 0h-42.824a6.118 6.118 0 0 1 -6.118-6.118v-4.96a6.118 6.118 0 0 1 6.118-6.122z" fill="#7f4242"/><path d="m174.654 85.68a3.462 3.462 0 0 1 -.912-.122 23.391 23.391 0 0 0 -3.146-.587 3.5 3.5 0 0 1 .722-6.963 30.405 30.405 0 0 1 4.244.791 3.5 3.5 0 0 1 -.908 6.881z" fill="#ef837c"/><path d="m191.858 85.68a3.5 3.5 0 0 1 -.908-6.881 43.8 43.8 0 0 1 4.9-.92 3.5 3.5 0 0 1 .887 6.943 37.316 37.316 0 0 0 -3.971.736 3.467 3.467 0 0 1 -.908.122z" fill="#ef837c"/><path d="m10 237.849v10.751a5.884 5.884 0 0 0 5.884 5.884h58.01a82.159 82.159 0 0 0 15.527-16.633z" fill="#fe5d77"/><path d="m131.815 285h-94.109c10.007 3.593 24.607 13.782 22.142 42.579h18.432c-1.095-27.814 14.12-27.236 14.12-27.236h27.451a15.073 15.073 0 0 0 12.222-6.251l2.571-3.562a3.49 3.49 0 0 0 -2.829-5.53z" fill="#818db7"/><path d="m45.472 45.342s-23.03 30.4-21.527 76.678a13.292 13.292 0 0 0 16.569 12.47c.145-.036.292-.076.437-.114-2.506-2.031-4.342-5.184-5.057-9.872-2.426-15.906 1.489-32.461 4.627-42.331a12.909 12.909 0 0 1 12.307-9h12.921l14.131-19.581z" fill="#db734e"/><path d="m87.462 62.123-2.1 11.685a10.14 10.14 0 0 1 -9.982 8.351h-11.94a8.388 8.388 0 0 1 -8.15-10.359 30.376 30.376 0 0 1 5.1-10.759z" fill="#db734e"/><path d="m44.812 36.142a45.053 45.053 0 0 0 -5.3 14.752 11.533 11.533 0 0 0 11.348 13.535h32.447a9.1 9.1 0 0 0 9.093-9.094v-17.515a9.319 9.319 0 0 0 -9.317-9.32h-24.941a15.368 15.368 0 0 0 -13.33 7.642z" fill="#ffb583"/><path d="m229.186 225.909h19.414a16.6 16.6 0 0 1 16.6 16.6v11.973c0 18.187-16.589 31.87-40.969 21.021-6.249-4.214-11.648-10.561-11.648-19.911v-13.083a16.6 16.6 0 0 1 16.603-16.6z" fill="#ffb583"/><path d="m224.239 275.5a54.771 54.771 0 0 0 18.761 7.555c23.023 0 22.2-26.353 22.2-26.353v-2.188c-.117 1.018-3.722 28.537-40.961 20.986z" fill="#db734e"/></svg>