<svg id="icon" height="512" viewBox="0 0 340 340" width="512" xmlns="http://www.w3.org/2000/svg"><path d="m37.069 174.041v19.131a75.951 75.951 0 0 0 17.8 49.2c12.978 15.29 34.071 32.16 66.486 32.16 25.593 0 43.752-9.907 56.455-20.356 17.453-14.357 27.184-36.064 27.184-58.663v-21.472z" fill="#7784b2"/><path d="m250.738 102.835 2 207.194 14.945 20.01 14.944-20.01 2-207.194z" fill="#dce2f9"/><circle cx="121.031" cy="174.041" fill="#dce2f9" r="83.963"/><circle cx="121.031" cy="174.041" fill="#d07a76" r="59.973"/><path d="m81.553 128.915a60.213 60.213 0 0 0 -5 4.9l84.705 84.705a60.531 60.531 0 0 0 4.9-5z" fill="#7f4242"/><path d="m62.232 162.2 70.638 70.64a59.542 59.542 0 0 0 7.776-2.124l-76.289-76.29a59.474 59.474 0 0 0 -2.125 7.774z" fill="#7f4242"/><path d="m102.258 117.082 75.733 75.731a59.529 59.529 0 0 0 2.01-7.889l-69.853-69.853a59.585 59.585 0 0 0 -7.89 2.011z" fill="#7f4242"/><g fill="#7784b2"><circle cx="121.031" cy="101.912" r="3.559"/><circle cx="121.031" cy="246.17" r="3.559"/><circle cx="193.16" cy="174.041" r="3.559"/><circle cx="48.902" cy="174.041" r="3.559"/><circle cx="172.034" cy="123.038" r="3.559"/><circle cx="70.028" cy="225.044" r="3.559"/><circle cx="172.034" cy="225.044" r="3.559"/><circle cx="70.028" cy="123.038" r="3.559"/><path d="m250.949 124.726 13.234 3.525v173.942a3.5 3.5 0 0 0 7 0v-172.077l13.147 3.5.3-30.783h-33.892z"/></g><path d="m258.3 30.663h18.766v67.192h-18.766z" fill="#342a35"/><path d="m262.692 9.961h9.98a6.358 6.358 0 0 1 6.358 6.358v18.409a6.123 6.123 0 0 1 -6.123 6.123h-10.45a6.123 6.123 0 0 1 -6.123-6.123v-18.409a6.358 6.358 0 0 1 6.358-6.358z" fill="#ffb655"/><path d="m268.09 111.531h-35.656v-17.392h70.497z" fill="#ffb655"/><path d="m268.09 111.531h34.841v-17.392l-29.348 8.139a7.378 7.378 0 0 0 -5.4 6.835z" fill="#f27b31"/><circle cx="121.031" cy="174.041" fill="#dce2f9" r="11.995"/></svg>