<svg id="icon" height="512" viewBox="0 0 340 340" width="512" xmlns="http://www.w3.org/2000/svg"><path d="m315.534 144.805a16.108 16.108 0 0 0 -10.962 9.627c-4.594 11.487-15.228 32.846-32.912 39.963 0 0-32.314-4.807-28.474-37.853 0 0 2.337-19.228 14.053-30.944 0 0-.3-21.33-8.411-36.652 0 0-13.52 12.918-22.232 30.343 0 0 10.215 50.471-18.927 73 0 0-23.747-15.5-25.866-63.823-.584-13.313 10.677-32.719 15.351-36.819 0 0-1.187-27.9-27.127-57.319v-.062l-.027.034-.027-.031v.062c-25.941 29.419-27.128 57.319-27.128 57.319 5.474 6.954 15.936 23.506 15.352 36.819-2.119 48.325-25.866 63.823-25.866 63.823-29.142-22.532-18.927-73-18.927-73-8.712-17.425-22.232-30.343-22.232-30.343-8.111 15.322-8.411 36.652-8.411 36.652 11.716 11.716 14.053 30.944 14.053 30.944 3.84 33.043-28.474 37.855-28.474 37.855-17.684-7.117-28.318-28.476-32.912-39.963a16.108 16.108 0 0 0 -10.962-9.627l-9.3-2.383s6.476 32.5 17.586 78.8c16.384 68.282 258.114 68.282 274.5 0 11.11-46.3 17.586-78.8 17.586-78.8z" fill="#ffb655"/><path d="m209.4 256.96s-25.185-14.96-39.544-37.674c-14.362 22.714-39.55 37.674-39.55 37.674z" fill="#ffb655"/><g fill="#f27b31"><path d="m48.417 207c.166-6.517 3.157-16.123 18.2-20.173 0 0 15.953-5.8 13.233-23.755a2.829 2.829 0 0 1 3.378-3.228c5.917 1.276 15.6 5.987 11.492 23.323 0 0 23.142 4.21 25.339 27.636 1.043 11.128-3.7 18.067-8.957 22.286a26.13 26.13 0 0 1 -25.114 4.16c-4.649-1.678-9.094-4.832-10.447-10.73a2.82 2.82 0 0 1 4.358-2.955 16.2 16.2 0 0 0 1.391.838c10.065 5.392 21.6-4.463 18.239-15.375-.051-.164-.1-.329-.158-.5a13.033 13.033 0 0 0 -8.437-8.376c-7.627-2.414-23.719-4.666-37.734 8.948a2.816 2.816 0 0 1 -4.783-2.099z"/><path d="m297.388 268.5-1.378-24.84c-42.851 9.1-78.879 13.3-125.866 13.3s-83.015-4.2-125.866-13.3l-1.378 24.84c35.924 31.9 127.186 22.67 127.244 22.664s91.32 9.236 127.244-22.664z"/><path d="m32.751 221.218s19.767 6.557 19.943 28.572c.194 24.272 22.958 31.8 22.958 31.8l-44.066-14.559s2.914-23.372 1.165-45.813z"/></g><circle cx="97.386" cy="268.033" fill="#ffb655" r="9.417"/><path d="m181.956 86.146a55.378 55.378 0 0 0 -11.929-22.546 55.365 55.365 0 0 0 -11.927 22.546 115.871 115.871 0 0 1 11.876 17.631c1.171-3.187 7.587-13.811 11.98-17.631z" fill="#fe5d77"/><path d="m291.583 207c-.166-6.517-3.157-16.123-18.2-20.173 0 0-15.953-5.8-13.233-23.755a2.829 2.829 0 0 0 -3.378-3.228c-5.917 1.276-15.605 5.987-11.492 23.323 0 0-23.142 4.21-25.339 27.636-1.043 11.128 3.695 18.067 8.957 22.286a26.13 26.13 0 0 0 25.114 4.16c4.649-1.678 9.094-4.832 10.447-10.73a2.82 2.82 0 0 0 -4.358-2.955 16.2 16.2 0 0 1 -1.391.838c-10.065 5.392-21.6-4.463-18.239-15.375.051-.164.1-.329.158-.5a13.033 13.033 0 0 1 8.437-8.376c7.627-2.414 23.719-4.666 37.734 8.948a2.816 2.816 0 0 0 4.783-2.099z" fill="#f27b31"/><path d="m200.971 175.874c-20.427-9.667-30.827 2.3-30.827 2.3s-10.688-11.966-31.115-2.3c-22.344 10.573-18.971 34.932-18.971 34.932s-.125 22.72 22.86 26.062c26.036 3.784 26.938-17.586 26.938-17.586 0-10.306-5.422-13.837-9.816-15.006a2.8 2.8 0 0 0 -3.348 3.595c2.351 6.729.291 14.944-8.179 13.347a12.563 12.563 0 0 1 -8.073-5.247 16.177 16.177 0 0 1 -2.652-11.556c.7-5.213 3.487-12.225 12.366-14.315 12.4-2.918 19.948 7.676 19.948 7.676s7.341-10.594 19.743-7.676c8.88 2.09 11.671 9.1 12.367 14.315a16.177 16.177 0 0 1 -2.652 11.556 12.563 12.563 0 0 1 -8.073 5.247c-8.481 1.6-10.536-6.64-8.17-13.374a2.8 2.8 0 0 0 -3.336-3.6c-4.5 1.136-10.125 4.635-10.125 15.038 0 0 .288 21.85 27.226 17.586 22.941-3.632 22.86-26.062 22.86-26.062s3.373-24.359-18.971-34.932z" fill="#f27b31"/><path d="m307.249 221.218s-19.767 6.557-19.943 28.572c-.194 24.272-22.958 31.8-22.958 31.8l44.066-14.559s-2.914-23.372-1.165-45.813z" fill="#f27b31"/><path d="m316.609 272.655a9.47 9.47 0 0 0 -11.988-5.261c-16.5 5.853-55.2 19.253-105.516 18.4a12.614 12.614 0 0 1 -11.105-7.094c-2.277-4.647-7.261-10.035-18.148-10.391-10.887.356-15.816 5.744-18.045 10.391a12.449 12.449 0 0 1 -11 7.092c-50.348.859-89.218-12.545-105.721-18.4a9.469 9.469 0 0 0 -11.986 5.263 8.785 8.785 0 0 0 4.511 11.234c69.2 31.733 229.592 26.391 284.484 0a8.849 8.849 0 0 0 4.514-11.234z" fill="#ffb655"/><circle cx="242.32" cy="268.033" fill="#ffb655" r="9.417"/><circle cx="169.853" cy="288.618" fill="#f27b31" r="12.749"/></svg>