<svg id="icon" height="512" viewBox="0 0 340 340" width="512" xmlns="http://www.w3.org/2000/svg"><path d="m250.1 174.5h-32.106a6.429 6.429 0 0 0 -6.429 6.429v49.278l45.882 6.5z" fill="#ffb655"/><path d="m211.565 189.586h45.882v7h-45.882z" fill="#f27b31"/><path d="m211.565 210.413h45.882v7h-45.882z" fill="#f27b31"/><path d="m268.489 180.93a6.43 6.43 0 0 0 -6.43-6.43h-11.959v55.708h-38.536v66.483h56.925z" fill="#f27b31"/><path d="m307.86 221.554h-32.941a6.43 6.43 0 0 0 -6.43 6.43v29.4l45.152 6.28z" fill="#ffb655"/><path d="m268.489 236.709h40.936v7h-40.936z" fill="#f27b31"/><path d="m318.984 221.554h-11.124v35.826h-39.371v39.311h56.925v-68.707a6.43 6.43 0 0 0 -6.43-6.43z" fill="#f27b31"/><path d="m82.388 141.53s-11.065 19.931-23.455 38.729c-19.862 30.141-69.049 86.271-31.562 129.968a55.351 55.351 0 0 0 42.1 18.938h70.474a55.192 55.192 0 0 0 17.811-2.894c17.164-5.85 47.891-22.01 37.22-60.984-14.557-53.164-48.58-111.392-48.58-111.392l-7.433-16.139z" fill="#fedcc6"/><path d="m140.765 10.554a81.032 81.032 0 0 1 4.515 25.274h-32.829s9.149-18.772 28.314-25.274z" fill="#c68471"/><path d="m37.69 47.823s-14.955-11.54 13.753-24a59.805 59.805 0 0 1 24.857-4.856 72.179 72.179 0 0 0 23.9-3.522 106.05 106.05 0 0 1 40.572-4.891s.187 5.419-17.939 19.247c0 0 2.031 3.857 27.856 2.056 33.628-2.346 26.767 13.243 26.767 13.243l-20.994 27.494-83.6 1.121z" fill="#7f4242"/><path d="m141.263 142.757-2.3-5-56.575 3.773s-1.292 2.326-3.485 6.136l12.375 2.058a382.37 382.37 0 0 1 -20.014 38.758 3.036 3.036 0 0 0 4.8 3.643c9.187-9.524 20.26-23.481 26.852-40.466l5.474.91c-.6 4.727-1.624 11.987-3.077 19.691a1.885 1.885 0 0 0 3.357 1.483 57.387 57.387 0 0 0 9.752-19.506l13.7 2.278z" fill="#c68471"/><path d="m72.859 60.983s-9.3-9.3 16.563-20.42c0 0-29.5-2.042-51.732 7.26 0 0 32.446 33.58 43.564 64.438h22.689s-4.914-35.027-31.084-51.278z" fill="#c68471"/><path d="m147.052 63.252s3.63-7.26-1.361-12.479c0 0 22.916 2.269 31.765-5.672 0 0-19.059 55.588-39.026 67.16h-11.344z" fill="#c68471"/><path d="m72.859 60.983a60.636 60.636 0 0 0 23.6-2.8l15.2 9.383s18.378 2.269 35.395-4.311l-15.2 49.009h-32.676s-5.899-32.903-26.319-51.281z" fill="#fedcc6"/><ellipse cx="298.543" cy="298.866" fill="#ffb655" rx="25.28" ry="32.936" transform="matrix(.838 -.546 .546 .838 -114.794 211.682)"/><path d="m283.182 269.845a19.73 19.73 0 0 0 -2.635 1.436c-11.694 7.629-13.116 26.163-3.177 41.4a38.616 38.616 0 0 0 18.255 15.206c7.492-12.744 6.254-31.859-4.432-48.239a58.884 58.884 0 0 0 -8.011-9.803z" fill="#f27b31"/><path d="m107.371 112.261h10.757a220.6 220.6 0 0 0 -6.471-44.7l-1.357-16.788a44.847 44.847 0 0 1 -13.84 7.4c7.507 17.012 10.088 42.38 10.911 54.088z" fill="#c68471"/><path d="m145.292 131.43s11.3 25.6 3.44 49.193-25.442 35.383-17.8 65.687c0 0-29.1-20.148-1.883-73.222.001 0 13.786-25.656 16.243-41.658z" fill="#7f4242"/><rect fill="#d07a76" height="16.336" rx="8.168" width="76.462" x="74.22" y="108.857"/><path d="m74.22 133.362a8.168 8.168 0 0 0 8.168 8.168h58.846l-7.493-16.337h-51.353a8.168 8.168 0 0 0 -8.168 8.169z" fill="#7f4242"/><path d="m133.741 125.194s2.461 16.41-10.374 36.715c-15.225 24.091-39.24 86.628 22.113 107.583a6.729 6.729 0 0 0 7.926-2.89 6.726 6.726 0 0 0 -2.811-9.519c-14.718-7.24-45.74-29.908-17.142-84.511 0 0 12.458-19.979 13.638-40.706a6.361 6.361 0 0 0 -6.379-6.673z" fill="#d07a76"/><path d="m123.048 260.07a55.455 55.455 0 0 1 10.559-17.57 7.394 7.394 0 0 1 10.467-.232 7.43 7.43 0 0 1 1.269 9.2 136.352 136.352 0 0 0 -7.629 14.532 7.481 7.481 0 0 1 -9.323 4.092c-.394-.136-.792-.281-1.188-.436a7.411 7.411 0 0 1 -4.155-9.586z" fill="#7f4242"/><path d="m311.367 290.588c-6.526-10-17.21-14.2-24.322-9.554a12.475 12.475 0 0 0 -5.312 6.431 3.562 3.562 0 0 0 1.673 4.314 3.508 3.508 0 0 0 4.952-2.049 5.95 5.95 0 0 1 2.512-2.833c3.23-2.107 10.033.464 14.633 7.516a19.937 19.937 0 0 1 3.449 10.483v.049a7.067 7.067 0 0 1 -5.617 6.857 12.532 12.532 0 0 1 -8.571-.968l-.645 6.6a19.045 19.045 0 0 0 13.109.667 11.348 11.348 0 0 0 3.084-1.405c3.575-2.332 5.631-6.63 5.64-11.791a26.712 26.712 0 0 0 -4.585-14.317z" fill="#f27b31"/><ellipse cx="261.732" cy="298.866" fill="#ffb655" rx="25.28" ry="32.936" transform="matrix(.838 -.546 .546 .838 -120.775 191.569)"/><path d="m266.857 318.584a16.355 16.355 0 0 1 -6.524-1.462 3.5 3.5 0 1 1 2.8-6.416c1.48.645 4.28 1.52 6.409.129s2.458-4.32 2.458-5.935a21.437 21.437 0 0 0 -11.652-17.861c-1.483-.651-4.293-1.535-6.428-.138a4.434 4.434 0 0 0 -1.2 1.16 3.5 3.5 0 0 1 -5.7-4.058 11.422 11.422 0 0 1 3.075-2.966c3.573-2.33 8.334-2.482 13.062-.41a28.372 28.372 0 0 1 15.843 24.28c-.008 5.161-2.064 9.459-5.639 11.791a11.747 11.747 0 0 1 -6.504 1.886z" fill="#f27b31"/><path d="m221.108 243.04h-33.661a6.43 6.43 0 0 0 -6.43 6.43v68.14a9.711 9.711 0 0 0 9.711 9.711h30.38c3.144-26.457 2.814-54.721 0-84.281z" fill="#ffb655"/><g fill="#f27b31"><path d="m181.017 260.16h50.539v7h-50.539z"/><path d="m181.017 281.68h50.539v7h-50.539z"/><path d="m181.017 303.981h50.539v7h-50.539z"/><path d="m231.512 243.04h-10.4v84.281h7.123a9.711 9.711 0 0 0 9.711-9.711v-68.14a6.43 6.43 0 0 0 -6.434-6.43z"/></g></svg>