<svg id="icon" height="512" viewBox="0 0 340 340" width="512" xmlns="http://www.w3.org/2000/svg"><path d="m307.073 150.11-8.673-20.649h-17.183v27.59z" fill="#b4453f"/><path d="m284.25 116.986-10.182-24.239h-41.371v31.532z" fill="#f47a6e"/><path d="m307.073 189.211-25.856 26.448v-65.549h25.856z" fill="#c68471"/><path d="m284.25 178.241c-14.723 2.017-32.445 1.577-51.553 0v-61.255h51.553z" fill="#fedcc6"/><path d="m232.697 178.241h51.553v37.418h-51.553z" fill="#c68471"/><path d="m197.062 59.217 20.158-40.467 20.158 40.467a110.91 110.91 0 0 1 -40.316 0z" fill="#f47a6e"/><path d="m237.378 106.847-40.316 4.149v-51.779h40.316z" fill="#fedcc6"/><path d="m156.745 123.267h21.826a5.425 5.425 0 0 0 4.67-2.664l6.556-11.091a5.424 5.424 0 0 1 4.67-2.665h42.911v125.753h-80.633z" fill="#c68471"/><path d="m93.829 106.847 65.529 6.139 4.021-6.139v-25.192h-53.102z" fill="#f47a6e"/><path d="m93.829 128.623v-21.776h69.55v42.228l-71.338 7.976z" fill="#fedcc6"/><path d="m90.386 149.075-2.371 14.084h75.364v-14.084z" fill="#c68471"/><path d="m75.372 175.666-12.957 10.95a21.109 21.109 0 0 0 -7.4 14.217l-.182 2.009a21.105 21.105 0 0 1 -7.6 14.389l-12.457 10.258a19.636 19.636 0 0 0 -7 12.711l-4.746 37.777h56.081z" fill="#83799b"/><path d="m93.829 158.475v-29.852h-21.932v136.831h109.358l10.117-106.979z" fill="#fedcc6"/><path d="m187.754 196.731q-1.237-.213-2.538-.356c-27.246-2.956-37.656 16.45-37.656 16.45-7.968-.257-14.362 6.811-14.362 6.811l-.324-.818a12.936 12.936 0 0 0 -12.03-8.178h-13.767l-21.893 29.36a21.494 21.494 0 0 1 -8.544 6.81l-4.74 2.095v16.549h109.355z" fill="#c68471"/><path d="m104.712 180.719a10.882 10.882 0 0 1 10.882 10.881v50.93a0 0 0 0 1 0 0h-21.765a0 0 0 0 1 0 0v-50.93a10.882 10.882 0 0 1 10.882-10.882z" fill="#342a35"/><path d="m148.476 180.719a10.882 10.882 0 0 1 10.882 10.881v50.93a0 0 0 0 1 0 0h-21.764a0 0 0 0 1 0 0v-50.93a10.882 10.882 0 0 1 10.882-10.882z" fill="#342a35"/><path d="m330.032 229.667-59.073-2.997v81.515h52.57l6.503-23.809z" fill="#fedcc6"/><path d="m330.032 229.667-22.959-40.456h-55.963l16.318 40.456z" fill="#f47a6e"/><path d="m220.151 229.667c16.845-4.1 36.174-3.892 53.917 0v68.322h-53.917c-2.516-23.521-2.878-46.402 0-68.322z" fill="#c68471"/><path d="m220.151 229.667h53.917l-22.958-40.456z" fill="#b4453f"/><path d="m130.05 252.249s-5.249-27.571 21.782-31.631c0 0 7.611-18.758 32.018-15.346v106.289h-49.864z" fill="#95a358"/><path d="m270.959 275.801v32.383h52.57l6.503-19.422v-12.961z" fill="#c68471"/><path d="m177.528 178.241a89.486 89.486 0 0 1 42.623 0v73.83a90.832 90.832 0 0 1 -42.623 0z" fill="#fedcc6"/><path d="m71.9 256.936a20.478 20.478 0 0 1 4.786-3.131l3.738-1.755a20.553 20.553 0 0 0 7.866-6.506 198.545 198.545 0 0 1 17.881-21.415 11.749 11.749 0 0 1 8.363-3.511h4.325a10.385 10.385 0 0 1 9.789 6.918l5.352 15.137a17.2 17.2 0 0 0 7.021 8.8l3.7 2.342a17.2 17.2 0 0 1 7.688 11.241l1.261 6.454-4.655 38.112-84.777 6.741z" fill="#b1a7c6"/><path d="m153.674 271.508-4.15 2.637a11.391 11.391 0 0 0 -5.283 9.615v5.081a4.511 4.511 0 0 1 -4.511 4.511h-21.138s-2.168 13.953-1.887 23.009h45.729z" fill="#83799b"/><path d="m198.84 135.861-21.312 42.38h42.623z" fill="#f47a6e"/><path d="m261.346 321.25 16.695-.079 1.156-36.795h-25.417z" fill="#c68471"/><g fill="#342a35"><path d="m198.84 201.59a7.468 7.468 0 0 1 7.468 7.468v12.6a0 0 0 0 1 0 0h-14.936a0 0 0 0 1 0 0v-12.6a7.468 7.468 0 0 1 7.468-7.468z"/><path d="m294.694 246.566h14.56v21.923h-14.56z"/><path d="m107.912 121.222h13.264v18h-13.264z"/><path d="m136.032 121.222h13.264v18h-13.264z"/><path d="m210.858 73.889h12.723v18h-12.723z"/></g><path d="m113.394 316.361 1.15-1.22s-6.662-16.627-13.268-30.765c-3.955-8.465-10.206-10.666-14.585-11.069a7.362 7.362 0 0 1 -6.231-4.821 27.849 27.849 0 0 0 -8.56-11.543 20.471 20.471 0 0 0 -5.688 8.207l-8.092 21.582 6.122 29.629z" fill="#83799b"/><path d="m253.652 141.267h15.388v21.977h-15.388z" fill="#342a35"/><path d="m177.528 321.25h21.773l20.85-55.796v-13.383h-42.623v32.305z" fill="#c68471"/><path d="m177.528 284.376h-25.417v16.546h-25.417v-16.546h-25.418c1.741 24.647 13.162 35.019 30.358 36.874h45.894z" fill="#fedcc6"/><path d="m240.664 265.454v14.4h-20.681v-14.4h-20.683v55.8h20.85a58.71 58.71 0 0 1 20.345 0h20.85v-55.8z" fill="#fedcc6"/><path d="m230.324 297.989a10.172 10.172 0 0 1 10.176 10.172v13.089a0 0 0 0 1 0 0h-20.349a0 0 0 0 1 0 0v-13.089a10.172 10.172 0 0 1 10.172-10.172z" fill="#342a35"/><circle cx="119.936" cy="261.768" fill="#83799b" r="3.559"/><circle cx="134.035" cy="260.58" fill="#83799b" r="3.559"/><circle cx="133.198" cy="273.942" fill="#83799b" r="3.559"/><path d="m101.276 284.376v36.874h30.358c-24.125-6.417-30.358-36.874-30.358-36.874z" fill="#c68471"/><path d="m39.241 321.25h83.464a40.985 40.985 0 0 1 -27.746-24.431c-8.194-20.484-21.229-16.387-21.229-16.387s-1.3-21.229-28.492-12.477c0 0-17.9-4.856-20.055 24.22s14.058 29.075 14.058 29.075z" fill="#bece82"/><path d="m304.614 300.922h-26.573v20.249c.386.028.771.051 1.156.079h50.835v-36.874h-25.418z" fill="#fedcc6"/><path d="m93.829 149.075v22.28a1.954 1.954 0 0 0 3.568 1.1l10.515-14.763z" fill="#c68471"/><path d="m45.238 267.955s-12.476-10.8-25.139-.186c-8.638 7.24-6.358 16.387-4.036 21.471a6.7 6.7 0 0 1 -.772 6.878c-2.388 3.082-5.355 8.638-5.322 17.193a8.019 8.019 0 0 0 8.041 7.939h21.231c-13.1-6.74-10.157-17.322-7.152-23.138a13 13 0 0 0 1.22-8.864c-4.199-18.248 11.929-21.293 11.929-21.293z" fill="#95a358"/></svg>