<svg id="icon" height="512" viewBox="0 0 340 340" width="512" xmlns="http://www.w3.org/2000/svg"><path d="m158.9 266.073s-2.313 15.105-15.908 20.644-14.853 13.091-14.35 22.657c0 0 6.893 8.56 30.258 8.56 0 0 5.586-32.728 0-51.861z" fill="#f27b31"/><path d="m181.2 266.073s2.314 15.105 15.908 20.644 14.853 13.091 14.35 22.657c0 0-6.893 8.56-30.258 8.56 0 0-5.588-32.728 0-51.861z" fill="#f27b31"/><path d="m181.2 295.534c0 14.144-23.08 13.753-22.3 0v-74.448c7.681-1.1 15.106 2.742 22.3 11.053z" fill="#ffb655"/><path d="m158.9 221.086 22.298 11.053v-36.808h-22.298z" fill="#f27b31"/><path d="m150.307 171.489h39.484a0 0 0 0 1 0 0v23.024a16.46 16.46 0 0 1 -16.46 16.46h-6.565a16.46 16.46 0 0 1 -16.46-16.46v-23.024a0 0 0 0 1 .001 0z" fill="#f27b31"/><path d="m168.283 157.579h-31.946a37.654 37.654 0 0 0 -1.145 7.75 16.559 16.559 0 0 0 7.632 14.493c7.258 4.723 22.659 6.446 35.856 5.168 15.176-4.952 7.692-19.83-10.397-27.411z" fill="#ffb655"/><path d="m203.761 157.579h-58.733c-1.333 1.13-4.673 3.926-4.673 3.926a114.46 114.46 0 0 0 32.3 9.249c6.428.836 10.052 8.173 6.487 13.587q-.217.33-.461.644c7.575-.734 14.428-2.452 18.594-5.163a16.56 16.56 0 0 0 7.633-14.493 37.663 37.663 0 0 0 -1.147-7.75z" fill="#f27b31"/><rect fill="#655baa" height="33.567" rx="11.149" transform="matrix(-.999 -.037 .037 -.999 479.711 161.506)" width="22.298" x="230.21" y="59.505"/><rect fill="#9187c9" height="33.567" rx="11.149" transform="matrix(.999 -.037 .037 .999 -2.771 3.723)" width="22.298" x="87.492" y="59.505"/><path d="m240.963 27.213h-141.828s-2.362 59.643 3.248 87.4c0 0 19.884 13.286 67.666 13.582 47.782-.3 67.666-13.582 67.666-13.582 5.61-27.757 3.248-87.4 3.248-87.4z" fill="#ffb655"/><path d="m104.8 125.324s10.974 41.219 65.25 41.219 65.25-41.219 65.25-41.219z" fill="#f27b31"/><rect fill="#fe5d77" height="40.722" rx="13.525" width="27.051" x="156.524" y="57.342"/><g fill="#f27b31"><path d="m241.142 32.819-21.391 10.262s.019 28.648-1.586 47.35a21.941 21.941 0 0 1 -12.925 18.177c-10.51 4.687-27.22 10.458-46.34 10.812l10.637 8.765c.173 0 .338.007.512.008 47.782-.3 67.666-13.582 67.666-13.582 4.567-22.591 3.851-66.311 3.427-81.792z"/><path d="m98.74 43.081h142.619c-.145-9.518-.4-15.868-.4-15.868h-141.824s-.251 6.35-.395 15.868z"/><path d="m240.688 62.668a104.911 104.911 0 0 0 -12.059.115c.29-.651.592-1.3.916-1.931a34.607 34.607 0 0 1 11.87-13.287c-.029-2.9-.07-5.587-.117-8a41.277 41.277 0 0 0 -17.987 18.1 47.238 47.238 0 0 0 -2.589 6.1 44.44 44.44 0 0 0 -9.057 2.636 3.5 3.5 0 1 0 2.719 6.449c6.206-2.616 14.974-3.693 26.068-3.193h.158.718c.046-2.365.078-4.705.1-7z"/><path d="m236.991 107.789c-.041-.028-.084-.056-.127-.083-3.009-1.911-8.379-7.756-9.6-17.207 2.532.229 5.253.357 8.2.357q2.306 0 4.791-.1h.235c.147-2.3.274-4.642.383-7h-.69c-.049 0-.1 0-.146 0a87.189 87.189 0 0 1 -15.713-.591 3.414 3.414 0 0 0 -.594-.084c-11.764-1.795-18.435-6.686-19.9-14.617-2.048-11.091-5.972-20.107-11.663-26.8a29.134 29.134 0 0 0 -44.249 0c-5.689 6.692-9.613 15.709-11.662 26.8a15.989 15.989 0 0 1 -.6 2.29q-6.066-5.086-16.6-7.03c-2.851-12.271-11.918-21.674-20.246-24.8-.046 2.306-.088 4.882-.119 7.666a29.948 29.948 0 0 1 12.855 16.21 103.992 103.992 0 0 0 -12.136-.132h-.738c.021 2.295.052 4.635.1 7h.718.158c15.453-.686 26.481 1.74 32.166 7.036-5.635 5.332-16.254 7.7-31.756 7.057-.048 0-.1 0-.146 0h-.69c.108 2.358.235 4.7.383 7h.235a98.112 98.112 0 0 0 13.5-.3 42.209 42.209 0 0 1 -11.89 18.792c.283 1.89.592 3.685.931 5.362 0 0 .687.458 2.1 1.2 7.937-6.333 14.39-17.42 16.369-26.527 15.586-3.438 20.886-11.951 22.289-19.55 1.824-9.872 5.226-17.791 10.112-23.538a22.133 22.133 0 0 1 33.583 0c4.888 5.749 8.29 13.668 10.113 23.539a40.948 40.948 0 0 1 0 13.931c-5.931 36.688-41.336 41.656-52.811 4.585a3.574 3.574 0 0 0 -4.25-2.537 3.5 3.5 0 0 0 -2.537 4.25c8.254 32.712 31.682 33.208 32.712 33.213 1.091-.006 26.811-.57 33.769-38.238a16.438 16.438 0 0 1 .618-2.322c3.547 2.962 8.589 5.422 15.683 6.86.893 11.477 6.914 20.256 12.916 24.1.3.209 1.407.949 3.127 1.932 1.032-.563 1.535-.9 1.535-.9.362-1.79.69-3.714.988-5.745-1.064-.64-1.678-1.06-1.706-1.079z"/></g><path d="m204.109 117.221a234.182 234.182 0 0 1 -34.06 2.458c-32.414 0-56.436-6.5-68.024-10.439a5.848 5.848 0 0 0 -7.731 5.542 15.964 15.964 0 0 0 8.265 14.067c23.016 12.472 67.49 12.875 67.49 12.875a258.634 258.634 0 0 0 26.825-1.969c7.809-6.542 9.631-14.155 7.235-22.534z" fill="#ffb655"/><path d="m207.856 33.027h-104.991a10.57 10.57 0 0 1 -10.571-10.57v-12.457h118.806c6.758 5.687 5.581 17.213-3.244 23.027z" fill="#ffb655"/><path d="m211.1 23.078s.283 5.983-3.245 9.949h29.378a10.57 10.57 0 0 0 10.57-10.57v-12.457h-36.703z" fill="#f27b31"/><path d="m237.54 128.849a15.965 15.965 0 0 0 8.264-14.067 5.848 5.848 0 0 0 -7.731-5.542 194.535 194.535 0 0 1 -33.964 7.978c-.124 5.474-1.218 15.853-7.235 22.536 13.641-1.716 29.626-4.921 40.666-10.905z" fill="#f27b31"/><path d="m181.2 317.934v-22.4c0 8.931-22.3 10.5-22.3 0v22.4z" fill="#f27b31"/><path d="m188.107 313.13a121.019 121.019 0 0 1 -18.058 1.279c-22.974 0-36.462-5.542-42.937-9.272a8.508 8.508 0 0 0 -9.734.876 8.55 8.55 0 0 0 .8 13.636c12.509 8.453 40.961 11.728 65.822 9.825 8.617-3.245 12.874-14.151 4.107-16.344z" fill="#ffb655"/><path d="m184 329.472c15.722-1.2 30.009-4.477 37.921-9.823a8.55 8.55 0 0 0 .8-13.636 8.508 8.508 0 0 0 -9.734-.876c-4.544 2.618-12.561 6.121-24.868 7.982l-.011.009s3.045 10.219-4.108 16.344z" fill="#f27b31"/><path d="m175.355 65.6a9.126 9.126 0 0 0 -5.767-1.68 9.381 9.381 0 0 0 -8.7 9.481v3.063a1.808 1.808 0 0 0 2.862 1.468l11.585-8.316a2.475 2.475 0 0 0 .02-4.016z" fill="#fff"/></svg>