<svg id="icon" height="512" viewBox="0 0 340 340" width="512" xmlns="http://www.w3.org/2000/svg"><path d="m250.274 13.024a3.645 3.645 0 0 0 -3.643-3.757h-27.96a3.642 3.642 0 0 0 -3.642 3.733c.424 18.129-.785 41.349-2.013 59.147 14.326 14.252 28.327 25.044 41.7 29.183-2.133-26.281-5.048-67.194-4.442-88.306z" fill="#f47a6e"/><path d="m210.83 99.373 45.99 26.311s-.934-10-2.1-24.355a251.961 251.961 0 0 1 -28.342-22.016h26.652c-.165-2.306-.328-4.644-.489-7h-10.09v-16.885h9.028q-.2-3.526-.379-7h-18.878v-18.987h18.117c-.063-2.434-.106-4.772-.129-7h-35.1c-.008 2.293-.036 4.632-.08 7h9.352v18.987h-9.982c-.109 2.354-.226 4.692-.351 7h20.566v16.885l-21.59-.167z" fill="#b4453f"/><path d="m325.791 327.912a23.812 23.812 0 0 1 -7.651-16.082c-.586-6.635-4.466-23.024-28.615-21.045 0 0-7.832-23.26-36.9-20.268-4.787 16.734-3.494 37.707 0 60.216h72.048a1.629 1.629 0 0 0 1.118-2.821z" fill="#9ea37b"/><path d="m252.628 330.733h-24.678c-1.953-1.327-4.266-1.4-7 0h-41.273a179.053 179.053 0 0 0 -57.485 0h-41.245c-1.841-1.115-4.275-.888-7 0h-24.706v-26.574a8.269 8.269 0 0 0 0-7v-26.642a8.271 8.271 0 0 0 0-7v-15.21a1741.173 1741.173 0 0 1 203.387 0v15.21a7.239 7.239 0 0 0 0 7v26.642q-1.936 2.851 0 7z" fill="#dce2f9"/><path d="m44.678 186.506v33.742h212.513v-33.742a1573.187 1573.187 0 0 0 -212.513 0z" fill="#f5eef7"/><path d="m44.678 169.267h212.513v17.238h-212.513z" fill="#b1a7c6"/><path d="m96.49 82.918h108.889v20.813h-108.889z" fill="#655baa"/><path d="m150.935 27.323-112.94 111.814v14.789l112.94 10.587 112.94-10.587v-14.789z" fill="#f5eef7"/><path d="m37.995 139.137v14.789l12.93 1.212c69.773-39.826 100.01-91.885 100.01-91.885s30.236 52.059 100.01 91.885l12.93-1.212v-14.789l-112.94-111.814z" fill="#b1a7c6"/><path d="m117.406 100.407h67.058v57.914h-67.058z" fill="#342a35"/><path d="m108.272 63.253h-30.021a9.744 9.744 0 0 0 -9.744 9.747v36.6s28.968-21.329 39.765-46.347z" fill="#b4453f"/><path d="m90.814 82.918h120.242v20.813h-120.242z" fill="#d07a76"/><path d="m136.811 82.917h-46v20.814h27.318a278.973 278.973 0 0 0 18.682-20.814z" fill="#7f4242"/><path d="m211.055 82.917h-46a278.973 278.973 0 0 0 18.679 20.814h27.317z" fill="#7f4242"/><path d="m281.893 134.533c-72.97-38.163-109.393-102.217-118.581-120.35a8.97 8.97 0 0 0 -8.012-4.916h-8.733a8.97 8.97 0 0 0 -8.011 4.916c-9.187 18.133-45.61 82.187-118.58 120.35a11.754 11.754 0 0 0 -5.8 13.767l2.979 10.021s82.292-33.13 133.781-121.4c51.958 88.765 133.78 121.4 133.78 121.4l2.979-10.021a11.755 11.755 0 0 0 -5.802-13.767z" fill="#f47a6e"/><path d="m95.402 169.276h20.938v50.963h-20.938z" fill="#7f4242"/><path d="m185.529 169.276h20.938v50.963h-20.938z" fill="#7f4242"/><path d="m37.995 153.926h225.88a0 0 0 0 1 0 0v14.491a6.683 6.683 0 0 1 -6.683 6.683h-212.514a6.683 6.683 0 0 1 -6.683-6.683v-14.491a0 0 0 0 1 0 0z" fill="#d07a76"/><path d="m252.628 263.517h-23.274v-29.817h-7v29.821h-37.943v-29.821h-7v29.821h-51.719v-29.821h-7v29.821h-37.745v-29.821h-7v29.821h-24.706v7h41.326v26.642h-41.326v7h24.706v26.574h7v-26.578h24.924a3.5 3.5 0 0 0 0-7h-8.3v-26.642h105.4v17.167a3.5 3.5 0 0 0 7 0v-17.167h42.661z" fill="#7784b2"/><path d="m252.628 297.159h-80.428a3.5 3.5 0 0 0 0 7h48.75v26.574h7v-26.574h24.678z" fill="#7784b2"/><path d="m179.677 330.733h-17.389a6.561 6.561 0 0 0 -6 0h-13.133a6.971 6.971 0 0 0 -6 0h-14.963v-38.473a28.736 28.736 0 0 1 14.962-25.23l6-2.447a28.785 28.785 0 0 1 7.782-1.066 28.874 28.874 0 0 1 5.354.5l6 1.832a28.75 28.75 0 0 1 17.387 26.413z" fill="#d07a76"/><path d="m137.155 330.733h6v-66.141a28.549 28.549 0 0 0 -6 2.44z" fill="#7f4242"/><path d="m156.288 330.733h6v-64.882a28.488 28.488 0 0 0 -6-1.828z" fill="#7f4242"/><path d="m49.241 233.696h203.387v14.611h-203.387z" fill="#7784b2"/><rect fill="#d07a76" height="19.898" rx="6.571" width="232.666" x="34.602" y="217.171"/></svg>