<svg id="icon" height="512" viewBox="0 0 340 340" width="512" xmlns="http://www.w3.org/2000/svg"><path d="m220.812 222.211h-26.119v-15.877h19.7a3.5 3.5 0 0 0 0-7h-19.7v-23.285a3.5 3.5 0 0 0 -7 0v23.285h-14.193v-29.334a3.5 3.5 0 0 0 -7 0v29.334h-14.193v-24.361a3.5 3.5 0 0 0 -7 0v24.361h-21.6a3.5 3.5 0 1 0 0 7h21.6v15.877h-25.923a3.5 3.5 0 0 0 0 7h25.923v9.889a3.5 3.5 0 0 0 7 0v-9.892h14.193v9.892a3.5 3.5 0 0 0 7 0v-9.892h14.193v9.892a3.5 3.5 0 0 0 7 0v-9.892h26.119a3.5 3.5 0 0 0 0-7zm-68.505 0v-15.877h14.193v15.877zm21.193 0v-15.877h14.193v15.877z" fill="#342a35"/><path d="m227.142 122.289a3.154 3.154 0 0 0 -3.154 3.154v18.694h-21.4v-18.694a3.154 3.154 0 0 0 -3.154-3.154h-16.083a3.154 3.154 0 0 0 -3.153 3.154v18.694h-20.398v-18.694a3.154 3.154 0 0 0 -3.154-3.154h-16.085a3.154 3.154 0 0 0 -3.154 3.154v18.694h-21.4v-18.694a3.154 3.154 0 0 0 -3.154-3.154h-6.689c-3.308 52.413-3.709 102.881 0 150.6h18.736v-51.834a45.1 45.1 0 0 1 45.1-45.1 45.1 45.1 0 0 1 45.1 45.1v22.25c2.384 1.81 1.607 4.314 0 7v22.583h18.924c4.838-43.167 3.824-94.842 0-150.6z" fill="#dce2f9"/><path d="m147.51 163.971a3.5 3.5 0 0 0 -3.5-3.5h-40.11a3.5 3.5 0 1 0 0 7h16v15.335h-29.284v7h32.784a3.5 3.5 0 0 0 3.5-3.5 1.823 1.823 0 0 1 0-.721v-18.114h17.11a3.5 3.5 0 0 0 3.5-3.5z" fill="#7784b2"/><path d="m249.384 174.243v-7h-44.684a3.5 3.5 0 1 0 0 7h14.762v13.03h-2.362a3.5 3.5 0 0 0 0 7h19.42a3.5 3.5 0 0 0 0-7h-10.06v-13.03z" fill="#7784b2"/><path d="m249.384 225.541h-20.719a3.5 3.5 0 0 0 0 7h20.719z" fill="#7784b2"/><path d="m238.107 243.305h-23v7h23a3.5 3.5 0 1 0 0-7z" fill="#7784b2"/><path d="m117.164 242.441h-49.151a3.5 3.5 0 0 0 0 7h49.151a3.5 3.5 0 1 0 0-7z" fill="#7784b2"/><path d="m90.616 122.289h15.552v150.599h-15.552z" fill="#7784b2"/><path d="m234.027 122.289h15.357v150.599h-15.357z" fill="#7784b2"/><path d="m91.616 272.888h-81.616v-32.233a7.148 7.148 0 0 0 0-7.224v-130.893a5.92 5.92 0 0 0 0-7.193v-9.4a13.322 13.322 0 0 1 7.612-12.015c9.666-4.613 21.714-6.869 33.688-6.817a6.56 6.56 0 0 0 7 .3 74.018 74.018 0 0 1 25.78 6.508 13.29 13.29 0 0 1 7.536 11.977v65.3c-1.712 2.276-1.622 4.738 0 7.358z" fill="#dce2f9"/><path d="m56.677 149.154h-11.737a3.839 3.839 0 0 1 -3.84-3.839v-26.471a3.865 3.865 0 0 1 3.379-3.814 47.063 47.063 0 0 1 12.658 0 3.865 3.865 0 0 1 3.379 3.814v26.471a3.839 3.839 0 0 1 -3.839 3.839z" fill="#342a35"/><path d="m330 272.888h-23.078c-2.074-1.3-4.426-1.2-7 0h-51.538v-54.819a9.472 9.472 0 0 0 0-7.265v-52.365a10.426 10.426 0 0 0 0-7.244v-65.253a13.322 13.322 0 0 1 7.616-12.012c12.441-5.939 28.831-7.97 43.926-6.2a6.7 6.7 0 0 0 7 1.114 66.678 66.678 0 0 1 15.541 5.075 13.291 13.291 0 0 1 7.533 11.974v9.538a9.075 9.075 0 0 0 0 7.355v76.641c-2.24 2.319-2.168 4.8 0 7.436v52.613a8.716 8.716 0 0 0 0 7.381z" fill="#dce2f9"/><path d="m295.06 149.154h-11.737a3.839 3.839 0 0 1 -3.839-3.839v-26.471a3.865 3.865 0 0 1 3.379-3.814 47.063 47.063 0 0 1 12.658 0 3.865 3.865 0 0 1 3.379 3.814v26.471a3.839 3.839 0 0 1 -3.84 3.839z" fill="#342a35"/><g fill="#7784b2"><path d="m54.772 96.49a105.449 105.449 0 0 1 19.612 1.91 3.562 3.562 0 0 0 .684.067 3.5 3.5 0 0 0 .677-6.935 110.38 110.38 0 0 0 -17.445-1.967v-22.152c-2.319-.186-4.657-.287-7-.3v25.877a3.5 3.5 0 0 0 3.472 3.5z"/><path d="m10 102.538c4.188-1 15.119-3.46 26.481-4.914a3.5 3.5 0 1 0 -.888-6.943c-10.545 1.349-20.493 3.485-25.593 4.664z"/><path d="m91.616 151.191c-18.065-5.577-37.544-6.955-57.965-4.081a3.5 3.5 0 0 0 .975 6.931c20.18-2.839 39.339-1.312 56.99 4.508z"/><path d="m74.316 189.269a121.976 121.976 0 0 0 -30.488-1.4v-8.982a3.5 3.5 0 0 0 -7 0v9.648c-3.41.406-6.561.9-9.359 1.4a3.5 3.5 0 0 0 .619 6.945 3.441 3.441 0 0 0 .627-.057 139.4 139.4 0 0 1 30.163-2.215v15.769a3.5 3.5 0 0 0 7 0v-15.246c2.382.254 4.778.584 7.179 1.023a3.5 3.5 0 1 0 1.259-6.885z"/><path d="m40.328 257.263a3.5 3.5 0 0 0 3.5-3.5v-18.445a125.892 125.892 0 0 1 25.45.718 3.5 3.5 0 0 0 .983-6.929c-24.071-3.416-49.71 1.755-60.261 4.324v7.224a199.393 199.393 0 0 1 26.828-4.743v17.851a3.5 3.5 0 0 0 3.5 3.5z"/><path d="m330 239.476c-13.414-4.236-29.424-5.324-43.407-4.774v-12.502a3.5 3.5 0 0 0 -7 0v12.922c-3.462.281-6.732.655-9.718 1.1a3.5 3.5 0 0 0 1.031 6.924 162.434 162.434 0 0 1 29.016-1.4v31.136h7v-30.675a96.437 96.437 0 0 1 23.078 4.65z"/><path d="m330 186.863v-7.436c-16.281-5.41-36.91-6.039-51.594-4.682a3.5 3.5 0 1 0 .645 6.971c3.746-.347 7.9-.559 12.253-.588v23.972a172.672 172.672 0 0 0 -42.92 5.709v7.265c6.83-1.905 34.275-8.806 60.135-4.656a3.5 3.5 0 0 0 1.109-6.912 111.555 111.555 0 0 0 -11.324-1.2v-24.067c10.819.425 22.239 2.081 31.696 5.624z"/><path d="m248.384 158.439c7.561-2 31.871-7.676 55.145-5.141a3.5 3.5 0 1 0 .758-6.959c-23.073-2.513-46.388 2.442-55.9 4.856z"/><path d="m330 95.431a122.66 122.66 0 0 0 -23.078-4.19v-22.4c-2.287-.465-4.629-.832-7-1.11v22.993c-3.033-.163-5.932-.242-8.578-.242-.456 0-.906 0-1.345.007a3.5 3.5 0 0 0 .033 7h.035c12.194-.092 28.69 1.495 39.933 5.3z"/><path d="m273.878 97.814a3.559 3.559 0 1 0 -5.033 0 3.559 3.559 0 0 0 5.033 0z"/><circle cx="264.444" cy="180.935" r="3.559"/><circle cx="40.328" cy="165.731" r="3.559"/></g></svg>