<svg id="icon" height="512" viewBox="0 0 340 340" width="512" xmlns="http://www.w3.org/2000/svg"><ellipse cx="309.951" cy="142.908" fill="#bc446b" rx="12.555" ry="9.937" transform="matrix(.37 -.929 .929 .37 62.472 377.954)"/><ellipse cx="164.926" cy="67.315" fill="#bc446b" rx="12.315" ry="9.747" transform="matrix(.475 -.88 .88 .475 27.354 180.478)"/><path d="m297.07 37.771-11.81-6.928 7.148-12.183-14.761-8.66-7.147 12.183-11.81-6.928-8.66 14.761 11.81 6.928-8.029 14.074c5.185 3.068 11.385 3.668 18.4 2.274l4.389-7.692 11.809 6.929z" fill="#ffb655"/><path d="m253.811 51.018-12.281 21.526 14.761 8.66 15.924-27.912z" fill="#f27b31"/><path d="m51.388 72.631s17.341-5.23 46.746-5.617l1.766 32.357a20.533 20.533 0 0 1 -3.305 12.335l-3.313 5.081a11.336 11.336 0 0 0 -1.807 7.082l1.086 17.215-17.832 5.053-1.491-17.414a11.338 11.338 0 0 0 -4.111-7.8l-7.687-6.3a20.536 20.536 0 0 1 -7.44-13.978z" fill="#f27b31"/><path d="m155.137 134.763a106.82 106.82 0 0 0 -17.26 1.619v-2.766a6.807 6.807 0 0 0 -5.957-6.754l-18.69-2.353a7.562 7.562 0 0 0 -8.031 4.866l-1.334 3.585-6.347.859c-7.688 1.43-20.978 5.157-32 14.679l-5.551 34.243 157.06 1.34z" fill="#ffb655"/><path d="m219.864 49.345s20.573-1.395 34.173 16.04a66.391 66.391 0 0 1 33.475 18.974s23.712 12.9 13.948 46.48-39.619 41.25-39.619 41.25l-89.75-49.516s-26.153-70.09 47.773-73.228z" fill="#655baa"/><path d="m249.8 120.113c4.924-17.441 11.826-42.809 11.8-47.908l-41.472 52.245-14.628-7.21c-12.1-6.537-18.229-14.751-16.888-32.881 1.088-14.72 13.281-30.386 13.281-30.386l-20.109 6.29c-24.507 20.929-9.611 60.873-9.611 60.873l89.75 49.516s29.855-7.672 39.619-41.25c3.911-13.449 2.446-23.574-.709-30.888l-8.059-6.261s4.146 38.7-27.549 44.892c-9.825 1.919-18.148-7.401-15.425-17.032z" fill="#3e3a6b"/><path d="m70.586 213.414v102.156h5.072v-.362a14.852 14.852 0 0 1 14.852-14.853h138.744a14.853 14.853 0 0 1 14.852 14.853v.362h5.072v-102.156z" fill="#d07a76"/><path d="m186.831 263.916h-116.245v7h116.245a3.5 3.5 0 0 0 0-7z" fill="#7f4242"/><path d="m70.586 213.414h178.591v15.616h-178.591z" fill="#7f4242"/><path d="m249.178 263.916h-20.954a3.5 3.5 0 0 0 0 7h20.954z" fill="#7f4242"/><path d="m174.191 135.1s-8.955-.6-19.054-.335c4.32 7.964 17.391 28.726 43.341 44.511h-100.96s-13.141 1.582-22.989-4.341a8.849 8.849 0 0 1 -3.643-10.707c3.279-8.7-1.806-14.144-1.806-14.144l-8.227 2.993c-7.44 8.241-13.07 19.825-13.813 36.142h225.684v-9.2z" fill="#f27b31"/><path d="m75.658 330h-28.618v-100.969a63.753 63.753 0 0 1 28.618 0z" fill="#dce2f9"/><path d="m244.106 330h28.618v-100.969a61.224 61.224 0 0 0 -28.618 0z" fill="#dce2f9"/><path d="m137.6 200.26h44.93a0 0 0 0 1 0 0v52.73a14.425 14.425 0 0 1 -14.43 14.426h-16.078a14.425 14.425 0 0 1 -14.422-14.426v-52.73a0 0 0 0 1 0 0z" fill="#7f4242"/><path d="m307.32 220.346c-.96 8.859-4.276 23.613-15.647 28.331a1.745 1.745 0 0 0 -.558 2.9 53.074 53.074 0 0 1 15.8 29.053.72.72 0 0 0 1.418-.01c1.334-7.955 5.476-22.056 18.27-28.182a1.744 1.744 0 0 0 .148-3.09c-5.092-2.982-14.332-10.755-18-29.061a.723.723 0 0 0 -1.431.059z" fill="#ffb655"/><path d="m244.106 213.414h28.618v15.616h-28.618z" fill="#7784b2"/><path d="m47.04 213.414h28.618v15.616h-28.618z" fill="#7784b2"/><path d="m28.154 20.8c-1.582 8.613-5.471 21.819-14.774 26.92a1.99 1.99 0 0 0 -.206 3.316 41.825 41.825 0 0 1 15.617 28.253.9.9 0 0 0 1.765.123c2.078-7.652 6.983-20.3 17.686-27.084a1.988 1.988 0 0 0 -.163-3.434c-5.432-2.844-15.293-10.342-18.141-28.081a.906.906 0 0 0 -1.784-.013z" fill="#ffb655"/><path d="m175.821 108.167c-.926-9.825.159-22.638 8.126-34.762 16.041-24.409 35.917-24.06 35.917-24.06s-23.435-14.679-44.633 3.323a44.079 44.079 0 0 0 -14.246 24.262 58.8 58.8 0 0 0 -1.367 16.006c4.101 9.264 9.719 13.642 16.203 15.231z" fill="#ffb655"/><path d="m258.2 62.477a8.214 8.214 0 0 1 3.32 11.165c-6.681 12.262-20.313 38.544-30.3 66.146a22.2 22.2 0 0 1 -17.817-8.339c6.324-15.806 18.988-44.934 34.225-66.522a8.193 8.193 0 0 1 10.572-2.45z" fill="#ffb655"/><path d="m287.512 84.359s15.409 16.919 3.736 49.566c-13 36.356-42.07 29.446-42.07 29.446l33.1 13.948s17.657-5.638 29.291-38.357c14.776-41.547-24.057-54.603-24.057-54.603z" fill="#f27b31"/><ellipse cx="235.788" cy="102.211" fill="#fe5d77" rx="14.804" ry="13.026" transform="matrix(.448 -.894 .894 .448 38.749 267.192)"/><path d="m76.009 185.729a9 9 0 0 1 3.248-9.677c3.929-2.963 10.488-6.8 20.409-9.43a9.006 9.006 0 0 1 9.533 3.308l.446.6a8.952 8.952 0 0 1 -1.9 12.613 53.442 53.442 0 0 1 -21.475 8.937 8.978 8.978 0 0 1 -10.261-6.351z" fill="#f27b31"/><path d="m132.757 191.659s-6.631-12.162 8.557-18.7 34.225-2.562 29.305 15.236z" fill="#f27b31"/><path d="m189.7 142.908-6.3 11.478a6.9 6.9 0 0 0 .818 7.868c3.993 4.546 9.588 7.739 16.261 10.022a6.939 6.939 0 0 0 7.31-1.835l9.239-9.887z" fill="#f27b31"/><path d="m276.166 217.037h-93.636a95.961 95.961 0 0 0 -45.3 0h-93.269a8.876 8.876 0 0 1 -8.876-8.875v-12.679a8.875 8.875 0 0 1 8.876-8.875h232.205a8.875 8.875 0 0 1 8.875 8.875v12.679a8.876 8.876 0 0 1 -8.875 8.875z" fill="#dce2f9"/><rect fill="#bc446b" height="21.786" rx="6.759" transform="matrix(.999 -.047 .047 .999 -4.278 3.72)" width="13.518" x="70.85" y="82.658"/><path d="m97.518 133.82v3.346a10.082 10.082 0 0 0 8.911 10.013l11.059 1.294a3.81 3.81 0 0 0 4.043-2.538 1.7 1.7 0 0 0 -1.416-2.241l-10.047-1.114a7.379 7.379 0 0 1 -6.2-9.62 55.348 55.348 0 0 0 -6.35.86z" fill="#f27b31"/><g fill="#7784b2"><circle cx="61.349" cy="201.316" r="3.559"/><circle cx="61.349" cy="257.972" r="3.559"/><circle cx="61.349" cy="302.465" r="3.559"/><circle cx="258.415" cy="201.316" r="3.559"/><circle cx="258.415" cy="257.972" r="3.559"/><circle cx="258.415" cy="302.465" r="3.559"/></g><circle cx="207.528" cy="267.416" fill="#7f4242" r="3.559"/><circle cx="209.054" cy="201.316" fill="#7784b2" r="3.559"/><circle cx="110.71" cy="201.316" fill="#7784b2" r="3.559"/><circle cx="69.581" cy="50.298" fill="#ffb655" r="3.559"/><path d="m159.632 92.935a42.38 42.38 0 0 0 6.532 20.677l13.6 11.4a60.5 60.5 0 0 1 -3.939-16.846 104.468 104.468 0 0 1 -16.193-15.231z" fill="#f27b31"/><path d="m223.077 136.133c-3.39-1.572-6.608-3.135-9.679-4.684-2.787 6.966-4.344 11.348-4.344 11.348l18.132 8.864c1.245-3.948 2.594-7.906 4.017-11.838-2.651-1.181-5.349-2.401-8.126-3.69z" fill="#f27b31"/><path d="m222.555 167.9a436.652 436.652 0 0 1 -66.13-40.628 7.433 7.433 0 0 1 -1.677-10.119l1.068-1.573a7.43 7.43 0 0 1 10.348-1.965 528.36 528.36 0 0 0 78.705 44.167c0 7.025-11.897 12.218-22.314 10.118z" fill="#ffb655"/><path d="m282.445 190.771a7.44 7.44 0 0 0 8.752-4.4l.943-2.313a7.442 7.442 0 0 0 -4.676-9.9 392.763 392.763 0 0 1 -42.581-16.376h-.013s-6.625 7.827-22.312 10.113c18.112 8.958 38.523 17.314 59.887 22.876z" fill="#f27b31"/><path d="m67.827 146.929a9.543 9.543 0 0 1 -.189 11.282l-7.114 9.366a9.49 9.49 0 0 1 -12.64 2.329c-.683-.438-1.381-.922-2.084-1.456a9.473 9.473 0 0 1 -1.981-13 48.983 48.983 0 0 1 10.436-10.6 9.56 9.56 0 0 1 13.572 2.079z" fill="#ffb655"/><circle cx="130.541" cy="147.351" fill="#f27b31" r="2.769"/><path d="m137.234 217.037h45.3v-7.232a12.048 12.048 0 0 0 -12.047-12.048h-21.2a12.048 12.048 0 0 0 -12.047 12.048z" fill="#7784b2"/><rect fill="#dce2f9" height="51.44" rx="7.607" width="28.256" x="145.935" y="206.532"/><path d="m160.063 239.981a3.5 3.5 0 0 1 -3.5-3.5v-10.156a3.5 3.5 0 0 1 7 0v10.156a3.5 3.5 0 0 1 -3.5 3.5z" fill="#7784b2"/></svg>