<svg id="icon" height="512" viewBox="0 0 340 340" width="512" xmlns="http://www.w3.org/2000/svg"><path d="m73.458 258.463s14.2 2.835 21.335 13.085c0 0 9.289-9.108 7.217-25.24a8.353 8.353 0 0 0 -6.122-6.928l-11.009-3.014z" fill="#342a35"/><path d="m95.555 171.315s-14.48 18.3-34.028 25.038a10.746 10.746 0 0 0 -7.263 8.715 61.953 61.953 0 0 1 -3.7 14.916 10.672 10.672 0 0 0 1.861 11.058c5.92 6.753 15.843 18.553 21.031 27.421 0 0 12.414-6.207 11.421-22.1 0 0-2.335-2.458-5.448-6.249a9.465 9.465 0 0 1 1.94-13.828c4.467-3.04 12.059-5.146 24.86-2.517z" fill="#ce9474"/><path d="m223.844 298.008s-8.19 8.743-8.956 19.343h14.647a9.875 9.875 0 0 0 9.4-6.771 44.478 44.478 0 0 0 2.171-12.572 28.707 28.707 0 0 0 -17.262 0z" fill="#342a35"/><path d="m214.888 186.266s-1.758 22.9 6.344 53.139a50.862 50.862 0 0 0 4.148 10.641 30.184 30.184 0 0 1 2.2 4.941 58.052 58.052 0 0 1 -3.739 43.021h17.261s6.416-6.653 8.4-18.764a25.214 25.214 0 0 0 -.33-9.894c-1.176-4.926-.68-20.8 14.043-31.433.005 0-36.45-43.517-48.327-51.651z" fill="#ce9474"/><path d="m179.649 209.378a20.754 20.754 0 0 0 .453 6.659 8.242 8.242 0 0 0 9.928 6.15 29.28 29.28 0 0 1 11.386-.114c11.392 1.963 19.925-7.33 18.614-19.971 0-.002-28.071-2.611-40.381 7.276z" fill="#7f4242"/><path d="m123.781 292.8a46.9 46.9 0 0 0 -9.961 24.552h23.55a7.431 7.431 0 0 0 7.415-6.955 104.192 104.192 0 0 0 -.247-17.6c-6.397-2.781-13.362-2.536-20.757.003z" fill="#342a35"/><path d="m267.454 298.777s-8.227 8.574-8.485 18.574h17.32a8.576 8.576 0 0 0 8.383-6.771l2.541-11.8a35.082 35.082 0 0 0 -19.759-.003z" fill="#342a35"/><path d="m278.072 123.809s46.028-2.309 46.372 50.491a58.358 58.358 0 0 1 -9.781 32.95 24.447 24.447 0 0 0 -3.866 9.848c-1.555 9.729 11.28 15.071 17.074 7.1.051-.07.1-.14.15-.209a2.07 2.07 0 0 1 3.761 1.1c.5 11.345-3.769 17.454-9.02 20.708-8.877 5.5-23.889 4.678-30.178-3.658-19.493-25.84-2.628-64.185-2.628-64.185z" fill="#342a35"/><path d="m43.628 46.372s-7.028-9.072-1.128-22.383c0 0 14.554 6.924 19.3 20.653l-5.9 13.311s-8.562-4.199-12.272-11.581z" fill="#ce9474"/><path d="m56.48 50.909s.534-16.714 10.337-28.26c0 0 16.989 8.257 13.7 31.507l46.903 53.444 36.884 5.706h74.464l14.614-2.784s41.455-1.108 44.414 45.246c1.268 19.86-3.137 40.564-8.586 57.744 0 0-6.16 20.008-4.364 31.983.628 4.183 3.035 9.463 6.622 14.562a21.229 21.229 0 0 1 3.959 12.2v2.36a21.669 21.669 0 0 1 -1.3 7.384l-6.917 16.769h-19.756s5.953-8.873 6.3-18.279a26.978 26.978 0 0 0 -4.094-15.042 59.736 59.736 0 0 1 -6.818-17.142 25.022 25.022 0 0 0 -7.053-12.136c-6.5-6.23-17.114-17.482-25.23-31.395-2.422-1.506-5.5-1.565-8.921-.843-2.651-.1-5.818-.1-9.4.1a35.164 35.164 0 0 0 -17.593 2.467q-1.387.311-2.806.668c-18.265 4.608-24.592 9.215-37.994 9.125-2.814-1.867-6.139-1.772-9.707-.742a46.312 46.312 0 0 0 .286 26.9 34.951 34.951 0 0 1 1.5 11.778l-1.386 38.571h-20.757s6.587-42.112-11.376-67.858a104.88 104.88 0 0 1 -19.958-38.92q-.626-2.358-1.247-4.771a16.2 16.2 0 0 0 -3.423-13.259c-4.255-16.142-9.339-33.069-17.977-48.212a8.982 8.982 0 0 0 -4.351-7.006s-8.333 4.59-16.117 6.187c-3.892.8-7.185 3.793-9.556 7.51-7.411 8.665-13.235 21.178-22.827 14.636l-6.139-8.317a13.153 13.153 0 0 1 -2.617-7.21c-.18-4.078 1.183-10 8.012-16.4z" fill="#fedcc6"/><path d="m253.382 110.526-14.614 2.783h-74.468l-36.88-5.709-25.465-29.013-15.175 18.131 2.823 3.61a3.99 3.99 0 0 0 5.882.485 15.908 15.908 0 0 0 3.442-5.528s5.823 26.821 19.022 40.619c0 0 3.306-1.836 5.265-7.346 0 0 1.33 5.753 10.877 9.306a5.49 5.49 0 0 0 5.575-1.043 17.721 17.721 0 0 0 4.473-6.24s.343.764 3.3 1.61a6.166 6.166 0 0 1 4.461 5.715 81.815 81.815 0 0 0 2.3 16.994 28.538 28.538 0 0 0 27.672 21.372h48.688s20.288.9 15.683-25.587c-.001 0-4.81-33.003 7.139-40.159z" fill="#ce9474"/><path d="m117.949 135.9-7.442-17.63c2.756 31.48-12.187 44.5-22.73 49.718 1.186 4.5 2.308 8.936 3.424 13.258 28.175-12.587 26.748-45.346 26.748-45.346z" fill="#ce9474"/><path d="m56.48 50.909s-2.703-14.909-18.258-6.321c-11.158 6.163-6.466 17.556-18.61 19.2 0 0 12.29 13.694 26.8.468z" fill="#342a35"/><path d="m198.087 166.819s1.644 23.257-3.44 39.694a108.984 108.984 0 0 1 17.592-2.471c1.6-6.858 3.611-19.821 2.137-38.024z" fill="#7f4242"/><path d="m220.894 167.4h-21.256s-28.44-1.5-28.413-23.841c.033-27.815-6.061-35.143-6.061-35.143s37.178 10.826 75.468-.595c0 0-8.025 7.527-8.025 27.368 0-.005 3.687 26.011-11.713 32.211z" fill="#d07a76"/><path d="m61.97 63.576-36.765 32.583-8.96 12.965 13.155 17.589c.6 6.382-.664 15.17-12.446 14.394a10.666 10.666 0 0 0 14.8 2.37 10.467 10.467 0 0 0 2.122-2.053c3.783-5.123 1.6-8.241 5.914-14.948l-5.3-9.335 7.944-5.277a8.6 8.6 0 0 0 2.855-11.082c-1.869-3.7-2.824-8.473.992-12.569 4.056-4.351 9.46-4.428 13.58-3.573a6.829 6.829 0 0 0 8.307-6.24c.191-4.328-1.005-9.757-6.198-14.824z" fill="#ce9474"/><path d="m253.382 110.525s-12.182 1.275-12.182 13.201v24.726s2.8 21.324-20.307 21.324c0 0 6.117-5.925 6.117-21.541v-27.112s-1.33-13.045 12.478-17.569c11.255-3.687 13.894 6.971 13.894 6.971z" fill="#7f4242"/><path d="m77.892 172.9c-12 0-24.4-6.976-32.736-19.017-14.76-21.313-30.365-41.023-30.521-41.22a3 3 0 1 1 4.7-3.728c.157.2 15.878 20.053 30.753 41.532 8.863 12.8 22.782 19.008 34.631 15.442 13.918-4.184 22.2-20.476 22.723-44.7a3 3 0 0 1 3-2.935h.065a3 3 0 0 1 2.935 3.063c-.582 26.995-10.422 45.335-26.994 50.317a29.659 29.659 0 0 1 -8.556 1.246z" fill="#7f4242"/><g fill="#ce9474"><path d="m150.562 186.97a290.321 290.321 0 0 1 -6.423 28.59 76.968 76.968 0 0 0 9.707.737 70.2 70.2 0 0 0 .3-29.359 1.825 1.825 0 0 0 -3.584.032z"/><path d="m228.554 190.754a1.122 1.122 0 0 0 -2.027-.823 26.224 26.224 0 0 0 -4.886 14.008 64.841 64.841 0 0 1 8.918.843 24.382 24.382 0 0 1 -2.005-14.028z"/><path d="m76.905 104.578a1.165 1.165 0 0 0 -2.108-.739c-3.224 4.439-9.344 8.935-9.344 8.935 1.545 2.285 2.984 4.628 4.343 7.011a22.746 22.746 0 0 0 7.109-15.207z"/><path d="m52.962 97.492a3.5 3.5 0 0 1 -2.615-5.825l2.025-2.278a3.5 3.5 0 0 1 5.233 4.65l-2.026 2.279a3.491 3.491 0 0 1 -2.617 1.174z"/></g><path d="m176.688 142.456s-1.743 15.715 17.271 15.715h18.441a14.244 14.244 0 0 0 14.056-11.413 34.073 34.073 0 0 0 .557-6.41l10.872 6.288c-1.676 9.3-7.324 21.5-16.989 23.14l-22.545-.018s-29.103 1.557-21.663-27.302z" fill="#7f4242"/><path d="m52.2 55.213c-15.342 15.606-29.811 32.177-40.65 48.551a4.842 4.842 0 0 0 .28 5.752l2.972 3.613c4.5 1.12 9.962-.813 15.7-3.606a49.445 49.445 0 0 1 11.291-28.683l16.307-7.526 1.087-12.795z" fill="#d07a76"/><path d="m59.024 80.209a4.426 4.426 0 0 0 5.333-2.31c1.157-2.473 1.855-6.213-.3-11.034a16.707 16.707 0 0 0 -2.083-3.289c-1.742-2.271-3.747-8.021-5.49-12.668q-2.148 2.139-4.275 4.308c1.765 3.354 4.232 10.237-1.234 15.866-6.828 7.028-21.392 6.925-18.765 25.082a9.729 9.729 0 0 1 -4.847 9.826l-12.563 7.139.142.172a9.062 9.062 0 0 0 11.5 2.113l10.645-6.083a7.355 7.355 0 0 0 2.861-9.61 13.367 13.367 0 0 1 2.787-15.456 15.565 15.565 0 0 1 16.289-4.056z" fill="#7f4242"/><path d="m80.515 54.156s-4.715 26.995 6.265 42.562c0 0 4.79-.6 8.981-7.783 0 0 3.193 26.145 16.965 37.522 0 0 4.79-4.79 4.79-13.772 0 0 3.827 9.818 13.152 15.323a5.036 5.036 0 0 0 5.608-.292c1.874-1.435 4.059-3.74 4.392-6.848 2.91 2.145 10.929 5.9 24.5 3.992 0 0-2.685-21.965-23.656-23.558a14.206 14.206 0 0 1 -10.549-5.772 24.307 24.307 0 0 0 -9.542-8.107 14.75 14.75 0 0 1 -7.656-7.97 17.494 17.494 0 0 0 -8.674-9.667 11.636 11.636 0 0 1 -5.85-5.771c-2.028-4.658-6.99-11.203-18.726-9.859z" fill="#342a35"/><path d="m148.918 102.914s11.289 4.447 11.289 33.063c0 0-3.155 33.8 26.588 33.8h12.843s-22.983-3.271-22.983-28.9c0 0 1.677-28.677-12.079-41.571a9.715 9.715 0 0 0 -12.305-1.132 9.183 9.183 0 0 0 -3.353 4.74z" fill="#7f4242"/></svg>