<svg id="icon" height="512" viewBox="0 0 340 340" width="512" xmlns="http://www.w3.org/2000/svg"><path d="m270.226 133.033h12.645a25.669 25.669 0 0 1 25.669 25.667v97.883a41.869 41.869 0 0 1 -13.92 31.233c-14.665 7.13-28-3.628-23.125-19.484a22.432 22.432 0 0 0 12.874-20.524l-.712-76.563a12.728 12.728 0 0 0 -12.728-12.728h-.7c-2.578-7.991-2.304-16.54-.003-25.484z" fill="#dce2f9"/><path d="m271.5 268.334q-.783.366-1.6.674c-13.34 5.008-30.661 5.419-30.661 5.419v25.573h15.829c10.684-.188 19.253-1.814 26.121-4.238a40.338 40.338 0 0 0 13.434-7.947c-15.001-2.252-20.877-11.573-23.123-19.481z" fill="#8493bc"/><path d="m250.323 158.519h19.903v-25.486h-20.759z" fill="#8493bc"/><path d="m214.872 60.964a28.47 28.47 0 0 0 -11.04 2.213 34.664 34.664 0 0 0 -67.9 9.857v45.08h78.937a28.575 28.575 0 0 0 0-57.15z" fill="#f48947"/><path d="m221.058 95.794c-5.937 0-9.694 3.892-10.884 10.5-.881-6.517-4.378-10.5-10.884-10.5h-87.508v215.555a14.029 14.029 0 0 0 11.743 13.651 309.753 309.753 0 0 0 110.913 0 14.029 14.029 0 0 0 11.743-13.646v-204.793a10.968 10.968 0 0 0 -11.158-10.767z" fill="#d07a76"/><path d="m111.782 294.822v16.527a14.029 14.029 0 0 0 11.743 13.651 309.753 309.753 0 0 0 110.913 0 14.029 14.029 0 0 0 11.743-13.646v-16.532z" fill="#7f4242"/><path d="m232.9 149.021h-121.118v28.008c5.292 3.755 14.474 7.613 29.905 7.613h77.662a46.136 46.136 0 0 0 15.689-2.642 37.558 37.558 0 0 0 11.143-6.151v-25.369a41.5 41.5 0 0 0 -13.281-1.459z" fill="#7f4242"/><path d="m179.158 95.794h-67.376v52.153h40.4v-22.029c28.565-3.599 27.629-24.966 26.976-30.124z" fill="#7f4242"/><path d="m206.674 328.751q3.5-.315 7-.71v-90.206a3.5 3.5 0 0 0 -7 0z" fill="#7f4242"/><path d="m210.9 205.061a3.556 3.556 0 0 0 2.77-3.519v-99.591a3.5 3.5 0 0 0 -3.5-3.5 3.5 3.5 0 0 0 -3.5 3.5v99.684a3.5 3.5 0 0 0 4.23 3.426z" fill="#7f4242"/><path d="m146.874 328.3q3.5.366 7 .652v-233.158h-7z" fill="#7f4242"/><path d="m247.606 129.394c-5.6 1.441-14.5 2.779-28.2 2.779l-42.777.286-38.243-.256-41.33 14.86v2.961a14.953 14.953 0 0 0 6.4 12.409c13.27 9.011 37.235 8.813 37.235 8.813h71.872s23.965.2 37.235-8.813a14.952 14.952 0 0 0 6.4-12.409v-13.961a6.881 6.881 0 0 0 -8.592-6.669z" fill="#dce2f9"/><path d="m133.853 132.173c-13.7 0-22.6-1.338-28.2-2.779a6.881 6.881 0 0 0 -8.6 6.669v11c27.622 10.6 41.33-14.858 41.33-14.86z" fill="#8493bc"/><path d="m247.606 266.293c-5.6 1.441-14.5 2.779-28.2 2.779l-42.777.285-42.777-.285c-13.7 0-22.6-1.338-28.2-2.779a6.881 6.881 0 0 0 -8.6 6.669v13.961a14.953 14.953 0 0 0 6.4 12.409c13.27 9.011 37.235 8.813 37.235 8.813h71.872s23.965.2 37.235-8.813a14.952 14.952 0 0 0 6.4-12.409v-13.961a6.881 6.881 0 0 0 -8.588-6.669z" fill="#dce2f9"/><circle cx="138.387" cy="151.763" fill="#8493bc" r="8.142"/><circle cx="214.872" cy="151.763" fill="#8493bc" r="8.142"/><circle cx="138.387" cy="288.264" fill="#8493bc" r="8.142"/><circle cx="214.872" cy="288.264" fill="#8493bc" r="8.142"/><g fill="#ffba6e"><circle cx="53.774" cy="160.999" r="15.461"/><circle cx="221.11" cy="25.461" r="15.461"/><path d="m150.86 60.513a34.06 34.06 0 0 0 -64.46 19.912 32.423 32.423 0 0 0 -17.168 28.617v.341s2.43 21.611 28.521 23.65 27.99-27.392 27.99-27.392 14.228 9.113 33.925-6.717-.122-34.55-.122-34.55a14.489 14.489 0 0 0 -8.686-3.861z"/><path d="m52.345 12.047a3.5 3.5 0 0 0 -3.5 3.5v6.853a3.5 3.5 0 0 0 7 0v-6.853a3.5 3.5 0 0 0 -3.5-3.5z"/><path d="m52.345 39.962a3.5 3.5 0 0 0 -3.5 3.5v6.855a3.5 3.5 0 1 0 7 0v-6.855a3.5 3.5 0 0 0 -3.5-3.5z"/><path d="m69.731 29.433h-6.857a3.5 3.5 0 0 0 0 7h6.857a3.5 3.5 0 0 0 0-7z"/><path d="m41.816 29.433h-6.856a3.5 3.5 0 0 0 0 7h6.856a3.5 3.5 0 0 0 0-7z"/><path d="m279.431 42.944a3.489 3.489 0 0 0 2.475-1.025l4.847-4.848a3.5 3.5 0 1 0 -4.949-4.949l-4.848 4.848a3.5 3.5 0 0 0 2.475 5.974z"/><path d="m262.066 51.86-4.848 4.848a3.5 3.5 0 1 0 4.949 4.949l4.848-4.847a3.5 3.5 0 0 0 -4.949-4.95z"/><path d="m281.906 51.86a3.5 3.5 0 0 0 -4.95 4.95l4.848 4.847a3.5 3.5 0 1 0 4.949-4.949z"/><path d="m262.167 32.122a3.5 3.5 0 1 0 -4.949 4.949l4.848 4.848a3.5 3.5 0 0 0 4.949-4.949z"/></g><circle cx="210.174" cy="219.735" fill="#7f4242" r="3.559"/><path d="m171.618 87.045c0-9.441-5.89-18.7-13.169-23.613.893.87 12.61 18.51-3.826 33.647-8.431 7.764-19.985 3.191-25.856.289a5.307 5.307 0 0 0 -7.708 4.433c-.585 9.962-4.927 23.45-24 24.168-16.129.607-23.973-8.225-27.814-16.587a32.428 32.428 0 0 0 64.685 2.961 27.338 27.338 0 0 0 37.69-25.3z" fill="#f48947"/></svg>