<svg id="icons" height="512" viewBox="0 0 500 500" width="512" xmlns="http://www.w3.org/2000/svg" xmlns:xlink="http://www.w3.org/1999/xlink"><linearGradient id="linear-gradient" gradientUnits="userSpaceOnUse" x1="130.678" x2="130.678" y1="-118.294" y2="105.66"><stop offset="0" stop-color="#444260"/><stop offset="1" stop-color="#27253c"/></linearGradient><linearGradient id="linear-gradient-2" x1="369.322" x2="369.322" xlink:href="#linear-gradient" y1="-118.294" y2="105.66"/><linearGradient id="linear-gradient-3" gradientUnits="userSpaceOnUse" x1="249.992" x2="249.992" y1="-4.248" y2="440.187"><stop offset="0" stop-color="#4c4a68"/><stop offset="1" stop-color="#2f2d44"/></linearGradient><linearGradient id="linear-gradient-4" x1="250" x2="250" xlink:href="#linear-gradient-3" y1="21.836" y2="425.563"/><linearGradient id="linear-gradient-5" gradientUnits="userSpaceOnUse" x1="250.625" x2="250.625" y1="57.338" y2="455.57"><stop offset="0" stop-color="#ff8a81"/><stop offset="1" stop-color="#ea4a51"/></linearGradient><linearGradient id="linear-gradient-6" x1="249.995" x2="249.995" xlink:href="#linear-gradient-5" y1="57.338" y2="455.57"/><linearGradient id="linear-gradient-7" x1="248.834" x2="248.834" xlink:href="#linear-gradient-5" y1="57.338" y2="455.57"/><linearGradient id="linear-gradient-8" x1="201.038" x2="201.038" xlink:href="#linear-gradient-3" y1="-4.225" y2="440.009"/><linearGradient id="linear-gradient-9" x1="290.698" x2="290.698" xlink:href="#linear-gradient-3" y1="-4.225" y2="440.009"/><linearGradient id="linear-gradient-10" x1="252.191" x2="252.191" xlink:href="#linear-gradient-3" y1="-4.225" y2="440.009"/><linearGradient id="linear-gradient-11" x1="130.937" x2="130.937" xlink:href="#linear-gradient-3" y1="-3.886" y2="439.871"/><linearGradient id="linear-gradient-12" x1="147.352" x2="147.352" xlink:href="#linear-gradient-3" y1="-4.225" y2="440.009"/><linearGradient id="linear-gradient-13" x1="358.816" x2="358.816" xlink:href="#linear-gradient-3" y1="-4.225" y2="440.009"/><linearGradient id="linear-gradient-14" x1="371.268" x2="371.268" xlink:href="#linear-gradient-3" y1="-4.225" y2="440.009"/><linearGradient id="linear-gradient-15" x1="228.111" x2="228.111" xlink:href="#linear-gradient-3" y1="-4.075" y2="439.676"/><linearGradient id="linear-gradient-16" x1="272.056" x2="272.056" xlink:href="#linear-gradient-3" y1="-4.08" y2="439.68"/><linearGradient id="linear-gradient-17" x1="289.479" x2="289.479" xlink:href="#linear-gradient-3" y1="-4.233" y2="440.045"/><linearGradient id="linear-gradient-18" x1="251.27" x2="251.27" xlink:href="#linear-gradient-3" y1="-4.232" y2="440.04"/><linearGradient id="linear-gradient-19" x1="182.003" x2="182.003" xlink:href="#linear-gradient-3" y1="-4.225" y2="440.009"/><linearGradient id="linear-gradient-20" x1="227.981" x2="227.981" xlink:href="#linear-gradient-3" y1="-4.225" y2="440.009"/><linearGradient id="linear-gradient-21" x1="277.311" x2="277.311" xlink:href="#linear-gradient-3" y1="-4.225" y2="440.009"/><linearGradient id="linear-gradient-22" x1="324.178" x2="324.178" xlink:href="#linear-gradient-3" y1="-4.225" y2="440.009"/><linearGradient id="linear-gradient-23" x1="254.695" x2="254.695" xlink:href="#linear-gradient-3" y1="-4.688" y2="440.078"/><linearGradient id="linear-gradient-24" x1="350.477" x2="350.477" xlink:href="#linear-gradient-3" y1="-4.225" y2="440.009"/><linearGradient id="linear-gradient-25" x1="205.578" x2="205.578" xlink:href="#linear-gradient-3" y1="-4.63" y2="440.075"/><linearGradient id="linear-gradient-26" x1="156.471" x2="156.471" xlink:href="#linear-gradient-3" y1="-4.594" y2="440.083"/><linearGradient id="linear-gradient-27" x1="302.947" x2="302.947" xlink:href="#linear-gradient-3" y1="-4.659" y2="440.078"/><linearGradient id="linear-gradient-28" x1="129.629" x2="129.629" xlink:href="#linear-gradient-5" y1="57.732" y2="455.267"/><linearGradient id="linear-gradient-29" x1="369.257" x2="369.257" xlink:href="#linear-gradient-5" y1="57.448" y2="455.502"/><linearGradient id="linear-gradient-30" x1="350.985" x2="350.985" xlink:href="#linear-gradient-5" y1="57.338" y2="455.57"/><linearGradient id="linear-gradient-31" x1="295.558" x2="295.558" xlink:href="#linear-gradient-3" y1="-4.225" y2="440.009"/><linearGradient id="linear-gradient-32" x1="285.558" x2="285.558" xlink:href="#linear-gradient-3" y1="-4.23" y2="440.014"/><linearGradient id="linear-gradient-33" x1="267.121" x2="267.121" xlink:href="#linear-gradient-3" y1="-4.23" y2="440.017"/><linearGradient id="linear-gradient-34" x1="297.921" x2="297.921" xlink:href="#linear-gradient-3" y1="-.689" y2="437.228"/><linearGradient id="linear-gradient-35" x1="209.24" x2="209.24" xlink:href="#linear-gradient-3" y1="-4.235" y2="440.052"/><linearGradient id="linear-gradient-36" x1="250" x2="250" xlink:href="#linear-gradient" y1="-544.618" y2="-13.326"/><linearGradient id="linear-gradient-37" x1="250" x2="250" xlink:href="#linear-gradient-3" y1="-4.225" y2="440.009"/><path d="m179.961 93.255c-18.544-49.624-91.339-48.185-101.916 11.872-9.648 64.55 31.41 63.277 28.136 144.255l50.719-69.682c-46.192 4.877-67.156-43.629-51.631-75.955 7.647-19.1 31.94-25.258 47.343-11.622 19.971 22.537 17.088 53.986 11.459 73.194l.987 3.177 18.132-24.911s5.21-26.323-3.229-50.328z" fill="url(#linear-gradient)"/><path d="m320.039 93.255c18.544-49.624 91.339-48.185 101.916 11.872 9.648 64.55-31.41 63.277-28.136 144.255l-50.719-69.682c46.192 4.877 67.156-43.629 51.631-75.955-7.647-19.1-31.94-25.258-47.343-11.622-19.971 22.537-17.088 53.986-11.459 73.194l-.987 3.177-18.135-24.914s-5.207-26.32 3.232-50.325z" fill="url(#linear-gradient-2)"/><path d="m337.155 150.476a113.493 113.493 0 0 1 -24.63-35.764c-9.263-10.92-13.119-22.553-9.9-34.833a133.5 133.5 0 0 1 -.212-18.409c-38.794-11.07-75.599-18.086-106.85-13.731 1.007 10.782.4 21.809-.457 32.14 4.2 13.315 1.353 24.992-8.833 34.964-5.925 13.653-13.488 26.169-24.417 36.61l-48.282 182.34a242.8 242.8 0 0 0 8.674 24.286l31 54.007a264.565 264.565 0 0 0 31.552 35.083c23.634 22.513 50.8 19.593 80.67 19.462 37.273-.159 57.772-24.945 80.895-54.03l31.382-54.5a242.556 242.556 0 0 0 8.666-24.252z" fill="url(#linear-gradient-3)"/><path d="m322.7 466.535a33.612 33.612 0 0 0 -20.067-6.429h-105.262c-14.3.317-27.881 7.8-30.652 23.712h166.562a25.742 25.742 0 0 0 -10.581-17.283z" fill="url(#linear-gradient-4)"/><path d="m338.253 151.571c-38.852 24.948-135.926 24.69-176.392-.113a254.918 254.918 0 0 0 -17.287 18.942c-3.756 12.424-10.145 21.854-19.663 27.726a148.609 148.609 0 0 0 -15.917 38.156s-3.72 57.9-3.676 58.241a244.042 244.042 0 0 0 8.26 39.274q139.932 56.039 272.828.056a243.262 243.262 0 0 0 6.083-25.228l3.443-35.967a150.862 150.862 0 0 0 -12.84-59.009c-13.528-10.183-20.85-23.534-24.183-38.92a253.082 253.082 0 0 0 -20.656-23.158z" fill="url(#linear-gradient-5)"/><path d="m153.255 412.083c52.118 13.089 141.817 13.269 193.1.513a252.9 252.9 0 0 0 31.388-54.5q-125.549 49-255.495-.022a252.8 252.8 0 0 0 31.007 54.009z" fill="url(#linear-gradient-6)"/><path d="m311.4 114.709a110.185 110.185 0 0 1 -8.777-34.858c-24.893 12.027-80.7 12.1-107.5-.125a110.167 110.167 0 0 1 -8.845 35.117c42.963 15.997 84.711 16.475 125.122-.134z" fill="url(#linear-gradient-7)"/><path d="m217.01 271.248h-26.685l-9.129 25.28 13.358 1.629 6.484-14.056 19.835 2.245s.351-9.831-3.863-15.098z" fill="url(#linear-gradient-8)"/><path d="m271.338 308.115a360.3 360.3 0 0 1 33.1 16.152l5.618-11.236s-13.067-9.831-27.074-15.8z" fill="url(#linear-gradient-9)"/><path d="m175.6 235.844 2.828 3.982a12.751 12.751 0 0 0 10.4 5.368h11.947l18.7 37.92-16.1 29.088 6.511 26.492 13.228-7.792-4.155-17.141 18.18-21.817 31.523 1.039-13.241 18.7 17.04 27.011 11.947-2.6-11.947-22.336 15.673-14.387a23.253 23.253 0 0 0 7.528-17.13v-9s12.575 15.583 33.126 6.233c-5.66-9.081-19.226-23.509-36.527-22.835h-39.025s17.661-47.808 64.93-59.236l1.558-13.911s-53.206 0-79.474 69.492l-28.05-28.57-2.32-18.049-13.6 16.255z" fill="url(#linear-gradient-10)"/><path d="m149.213 289.279c-2.518-16.548-14.03-22.664-14.03-22.664 7.932-15.915-.007-33.615-26.183-30.338a152.888 152.888 0 0 0 -3.678 58.223l.01.016c14.847 10.715 34.861 15.255 47.969 17.159a3.951 3.951 0 0 0 3.5-6.563 30.6 30.6 0 0 1 -7.588-15.833z" fill="url(#linear-gradient-11)"/><path d="m154.609 194.667s9.081-7.357 3.708-16.908c-3.544-6.3-9.275-7.534-13.739-7.361a227.539 227.539 0 0 0 -19.667 27.724 76.271 76.271 0 0 0 40.256 21.014 3.958 3.958 0 0 0 4.305-5.456 47.647 47.647 0 0 0 -14.863-19.013z" fill="url(#linear-gradient-12)"/><path d="m373.366 195.288a232.085 232.085 0 0 0 -14.46-20.562c-7.235 3.821-21.053 13.733-14.771 29.39 0 0-13.252 3.5-5.338 22.568a50.629 50.629 0 0 1 -3.85 12.305 3.946 3.946 0 0 0 4.645 5.494c12.548-3.541 32.873-11.965 43.492-30.836a147.586 147.586 0 0 0 -9.718-18.359z" fill="url(#linear-gradient-13)"/><path d="m367.886 293.144s-15.361 4.589-16.8 18.805a22.309 22.309 0 0 1 -3.986 11.313 2.507 2.507 0 0 0 2.421 3.986c10.44-1.832 27.854-6.556 42.963-18.629a180.059 180.059 0 0 0 3.441-35.966c-7.272-5.63-33.004-2.722-28.039 20.491z" fill="url(#linear-gradient-14)"/><path d="m224.841 133.62a3.767 3.767 0 0 1 -3.605-4.792c2.879-9.965 6.053-31.547 6.409-43.571.227-4.9 7.56-4.724 7.5.222-.377 12.734-3.633 34.813-6.7 45.431a3.751 3.751 0 0 1 -3.604 2.71z" fill="url(#linear-gradient-15)"/><path d="m275.262 131.451a3.75 3.75 0 0 1 -3.576-2.624c-3.587-11.387-6.669-31.87-6.595-43.836.113-4.917 7.445-4.893 7.5.047-.069 11.139 2.909 30.936 6.249 41.535a3.768 3.768 0 0 1 -3.578 4.878z" fill="url(#linear-gradient-16)"/><path d="m290.39 108.471c-5.305.14-9.7-4.532-10.377-9.679l-1.842-17.092a3.75 3.75 0 1 1 7.457-.8c.381 1.444 1.354 18.358 2.73 19a2.457 2.457 0 0 0 2.728.976c1.652-.311 2.369-2.221 2.156-4.425-.054-4.932 7.276-5.119 7.5-.2.685 6.239-3.866 12.315-10.352 12.22z" fill="url(#linear-gradient-17)"/><path d="m251.147 113.659c-6.167.154-10.671-5.752-10.27-11.676l1.274-18.483a3.75 3.75 0 1 1 7.483.516c.115 1.414-1.956 19.907-.8 20.637a2.451 2.451 0 0 0 2.476 1.5c4.463-.284 1.174-7.5 7.35-6.94 3.638.719 3.4 4.475 2.342 7.209a10.288 10.288 0 0 1 -9.855 7.237z" fill="url(#linear-gradient-18)"/><path d="m180.524 417.842c2.618.39 5.292.748 8 1.09-3.553-13.547-4.931-33.154-5.44-43.852q-3.793-.784-7.591-1.654c.393 9.686 1.591 29.348 5.031 44.416z" fill="url(#linear-gradient-19)"/><path d="m231.45 381.553q-3.748-.226-7.5-.539c-.85 8.068-1.966 25.022 1.225 41.033q3.853.183 7.74.309c-3.474-15.536-2.281-33.026-1.465-40.803z" fill="url(#linear-gradient-20)"/><path d="m273.189 422.244q3.8-.149 7.564-.348c1.329-15.36.461-32.839-.1-41.08q-3.741.341-7.485.6c.548 8.239 1.413 25.967.021 40.828z" fill="url(#linear-gradient-21)"/><path d="m318.352 418.35q4.1-.579 8.043-1.234c3.5-15.461 3.68-36.42 3.6-44.607q-3.745.924-7.5 1.764c.024 9.518-.395 30.573-4.143 44.077z" fill="url(#linear-gradient-22)"/><path d="m263.283 392.475a3.75 3.75 0 0 0 -3.291 4.159c.136 1.168.136 2.748-.637 3.644-4.694 3.734-10.316-3.453-10.039-9.26v-8.777q-3.747-.022-7.5-.123v8.9c-.324 12.3 12.641 23.933 23.118 14.276 2.094-1.318 5.438-13.223-1.651-12.819z" fill="url(#linear-gradient-23)"/><path d="m349.862 384.6-.546-17.919c-2.484.749-4.763.851-7.25 1.542l.3 16.617a17.678 17.678 0 0 0 12.109 16.345q2.225-3.31 4.412-6.784c-4.805-.279-8.795-4.569-9.025-9.801z" fill="url(#linear-gradient-24)"/><path d="m192.709 377.154v12.06c-.324 12.3 12.641 23.933 23.117 14.276 1.46-1.64 3.08-4.623 2.509-9.526-.663-4.889-7.935-4.037-7.449.867.136 1.168.135 2.748-.638 3.644-4.694 3.734-10.315-3.454-10.039-9.261v-10.845q-3.748-.569-7.5-1.215z" fill="url(#linear-gradient-25)"/><path d="m143.6 365.142v14.163c-.323 12.3 12.641 23.933 23.118 14.276 1.459-1.64 3.079-4.623 2.508-9.527-.661-4.892-7.934-4.034-7.449.868.421 2.647-.6 4.584-3.047 4.7-4.216-.2-7.63-4.8-7.63-10.32v-11.876q-3.746-1.103-7.5-2.284z" fill="url(#linear-gradient-26)"/><path d="m290.078 379.975v9.239c-.323 12.3 12.641 23.934 23.117 14.276 1.46-1.64 3.08-4.623 2.509-9.526-.653-4.9-7.934-4.035-7.449.867.421 2.647-.6 4.583-3.046 4.7-4.217-.2-7.631-4.805-7.631-10.32v-10.211q-3.748.53-7.5.975z" fill="url(#linear-gradient-27)"/><path d="m130.187 275.352c-9.414-.008-14.843-6.162-16.017-11.823-1.014-4.807 6.09-6.463 7.3-1.7.029.114.983 3.77 3.714 4.894 3.149 1.294 5.86 1.466 8.057.509a9.992 9.992 0 0 0 4.664-4.925c1.8-4.581 8.679-2.008 7.021 2.637-.938 3.229-6.739 10.772-14.739 10.408z" fill="url(#linear-gradient-28)"/><path d="m377.627 302.53c-12.587 0-19.787-13.337-20.088-13.906-2.229-4.391 4.238-7.821 6.624-3.517.021.092 5.554 10.057 13.577 9.923 4.999.096 4.889 7.55-.113 7.5z" fill="url(#linear-gradient-29)"/><path d="m356.054 215.618c-12.076 0-19.281-9.7-21.682-15.992a3.75 3.75 0 0 1 7-2.687c.622 1.593 6.5 15.369 21.447 9.85 4.645-1.632 7.2 5.25 2.6 7.035a26.977 26.977 0 0 1 -9.365 1.794z" fill="url(#linear-gradient-30)"/><path d="m275.849 216.231c-4.518-.025-5.11-6.681-.6-7.452 1.04-.169 25.646-4.152 39.8-4.773a3.75 3.75 0 0 1 .328 7.492c-14.831.694-37.886 4.618-39.528 4.733z" fill="url(#linear-gradient-31)"/><path d="m261 236.273c-4.306.051-5.156-6.386-.888-7.393 1.214-.3 30-7.277 50.236-5.693a3.75 3.75 0 0 1 -.582 7.477c-19.068-1.487-47.585 5.431-47.871 5.5a3.776 3.776 0 0 1 -.895.109z" fill="url(#linear-gradient-32)"/><path d="m250.872 260.785c-3.531.134-5.178-4.909-2.122-6.844.5-.341 12.438-8.384 34.118-11.461 4.875-.619 5.936 6.648 1.055 7.426-23.032 3.402-28.847 10.18-33.051 10.879z" fill="url(#linear-gradient-33)"/><path d="m302.013 244.455c-.091 5.379-8.094 5.378-8.185 0 .092-5.38 8.094-5.379 8.185 0z" fill="url(#linear-gradient-34)"/><path d="m209.146 107.94c-7.125.2-11.764-7.3-9.78-13.833l4.341-15.4a3.75 3.75 0 1 1 7.218 2.035c-.237 1.585-5.192 16.373-4.357 17.65a2.457 2.457 0 0 0 2.09 2.006c4.414.695 2.78-7.06 8.683-5.176 3.37 1.434 2.344 5.167.716 7.55a10.267 10.267 0 0 1 -8.911 5.168z" fill="url(#linear-gradient-35)"/><path d="m302.413 61.47a136.5 136.5 0 0 1 4.842-29.339h-114.51a86.724 86.724 0 0 1 2.81 15.609c20.679 7.072 67.389 20.532 106.858 13.73z" fill="url(#linear-gradient-36)"/><path d="m171.218 16.182c2.255 9.356 3.932 16.868 14.065 20.435 27.542 9.113 64.717 9.113 64.717 9.113s37.176 0 64.717-9.113c10.1-3.54 11.829-11.094 14.065-20.435z" fill="url(#linear-gradient-37)"/></svg>