<svg id="icons" height="512" viewBox="0 0 500 500" width="512" xmlns="http://www.w3.org/2000/svg" xmlns:xlink="http://www.w3.org/1999/xlink"><linearGradient id="linear-gradient" gradientUnits="userSpaceOnUse" x1="373.284" x2="274.279" y1="55.948" y2="240.957"><stop offset="0" stop-color="#ef7554"/><stop offset="1" stop-color="#dd6049"/></linearGradient><linearGradient id="linear-gradient-2" gradientUnits="userSpaceOnUse" x1="184.383" x2="120.273" y1="160.538" y2="423.261"><stop offset="0" stop-color="#a3aee5"/><stop offset="1" stop-color="#7b96d3"/></linearGradient><linearGradient id="linear-gradient-3" gradientUnits="userSpaceOnUse" x1="266.814" x2="155.38" y1="68.636" y2="408.16"><stop offset="0" stop-color="#edf6ff"/><stop offset="1" stop-color="#d3e1ff"/></linearGradient><linearGradient id="linear-gradient-4" x1="276.98" x2="212.871" xlink:href="#linear-gradient-2" y1="183.134" y2="445.856"/><linearGradient id="linear-gradient-5" x1="184.959" x2="120.849" xlink:href="#linear-gradient-2" y1="160.679" y2="423.401"/><linearGradient id="linear-gradient-6" x1="153.084" x2="88.983" xlink:href="#linear-gradient-2" y1="152.942" y2="415.632"/><linearGradient id="linear-gradient-7" x1="196.478" x2="132.328" xlink:href="#linear-gradient-2" y1="163.301" y2="426.189"/><linearGradient id="linear-gradient-8" x1="235.011" x2="170.865" xlink:href="#linear-gradient-2" y1="172.738" y2="435.61"/><linearGradient id="linear-gradient-9" x1="224.486" x2="160.377" xlink:href="#linear-gradient-2" y1="170.324" y2="433.047"/><linearGradient id="linear-gradient-10" gradientUnits="userSpaceOnUse" x1="425.401" x2="229.877" y1="26.885" y2="383.874"><stop offset="0" stop-color="#ffe67a"/><stop offset="1" stop-color="#ffb256"/></linearGradient><linearGradient id="linear-gradient-11" x1="385.789" x2="232.715" xlink:href="#linear-gradient" y1="140.449" y2="350.063"/><linearGradient id="linear-gradient-12" x1="601.821" x2="150.525" xlink:href="#linear-gradient" y1="-146.078" y2="471.913"/><path d="m370.064 26.631c-6.637 83.108-57.418 119.808-117.009 172.2l-3.407 90.069c6.551-8.485 16.118-16.57 30.1-22.1 44.451-17.58 34.726-41.789 34.726-41.789 33.848-16.186 26.868-44.139 26.868-44.139 28.761-27.015 15.736-42.169 30.932-67.224 21.3-34.236 18.276-66.589 11.456-88.477-2.282-7.335-13.054-6.201-13.666 1.46z" fill="url(#linear-gradient)"/><path d="m148.005 128.141a9.687 9.687 0 0 1 13.214-3.458c6.612 3.865 15.488 10.7 19.053 20.876 6.362 19.5.355 219.687.681 221.1l-20.085 7.441s-13.848-131.826-19.668-222.135c-.626-8.75 2.33-16.147 6.805-23.824z" fill="url(#linear-gradient-2)"/><path d="m176.8 362.5s-16.419-130.307-.329-220.156a61.977 61.977 0 0 1 16.436-32.144c13.3-13.759 37.7-34.5 76.935-52.894a9.963 9.963 0 0 1 14.093 10.335c-7.184 54.141-29.872 219.911-48.267 296.939l7.107 43.968c-30.089 17.593-102 54.5-185.8 61.306 0 0-14.544-26.466 20.086-50.633s99.739-56.721 99.739-56.721z" fill="url(#linear-gradient-3)"/><path d="m207.865 329.179s-21.135 66.431 34.909 79.368c9.695-5.669 15.057-9.337 15.057-9.337-4.848-18.7-22.163-34.63-22.163-34.63 1.614-6.758 3.261-14.21 4.927-22.2z" fill="url(#linear-gradient-4)"/><path d="m82.682 424.048s58.663-35.2 94.279-51.958l-13.409-18.437s-46.091 27.236-83.384 57.824z" fill="url(#linear-gradient-5)"/><path d="m66.384 413.074c2.516 10.526 9.466 35.326 20.07 50.78l15.922-3.771a279.536 279.536 0 0 1 -19.276-51.221c-3.169-10.805-19.06-6.762-16.716 4.212z" fill="url(#linear-gradient-6)"/><path d="m113.675 382.263c7.636 13.946 23.642 45.091 27.747 68.144l18.018-5.028s-8.416-38.787-30.719-72.25c-6.358-9.118-20.204-.729-15.046 9.134z" fill="url(#linear-gradient-7)"/><path d="m156.828 356.916c9.621 13.715 28.216 43.652 33.122 76.233l19.275-5.33s-3.435-46.564-38.354-82.5c-7.866-7.845-20.287 2.372-14.043 11.597z" fill="url(#linear-gradient-8)"/><path d="m58.913 479.764a502.471 502.471 0 0 0 203.129-60.709 117.824 117.824 0 0 0 -4.211-19.846c-88.652 52.637-203.092 64.114-203.092 64.114z" fill="url(#linear-gradient-9)"/><path d="m441.886 36.624c-1.878-7.127-12.108-6.8-13.609.421-15.368 73.889-79.295 134.354-151.52 186.083-80.7 57.8-68.9 126.778-68.9 126.778a27 27 0 0 0 30.067 26.821c17.481-1.51 28.984-21.529 21.79-37.337-.774-5.008 1.144-9.032 5.035-12.336 6.981-13.616 20.237-29.348 45.265-36.857 49.075-14.722 40.9-41.464 40.9-41.464 37.624-14.2 32.717-44.69 32.717-44.69.759-57.943 81.376-69.324 58.255-167.419z" fill="url(#linear-gradient-10)"/><path d="m236.674 361.215c-13.366.7-19.078-14.929-13.115-25.243 5.57-9.863 19.3-13.261 19.885-13.4 4.806-1.061 6.531 6.044 1.759 7.291-.152.038-11.187 2.815-15.124 9.818-2.174 3.532-1.909 10.868 2.357 13.178 3.127 1.578 7.892.557 9.315.072 4.689-1.506 7.055 5.437 2.414 7.1a25.015 25.015 0 0 1 -7.491 1.184z" fill="url(#linear-gradient-11)"/><path d="m297.576 233.052c-31.649 17.4-61.009 54.783-63.936 99.236 0 0 12.232-8.28 26.079 7.1a77.838 77.838 0 0 1 5.037-12.335c-29.7-39.486 46.642-66.868 72.915-75.9a2.707 2.707 0 0 0 -1.182-5.258c-25.358 3.235-43.306 10.157-55.559 17.032 25.668-25.879 64.583-41.818 64.583-41.818 31.277-12.361 55.1-20.135 65.416-59.606a103.835 103.835 0 0 1 10.558-24.717c-.021.027-50.906 55.535-123.911 96.266z" fill="url(#linear-gradient-12)"/></svg>