<svg id="icons" height="512" viewBox="0 0 500 500" width="512" xmlns="http://www.w3.org/2000/svg" xmlns:xlink="http://www.w3.org/1999/xlink"><linearGradient id="linear-gradient" gradientUnits="userSpaceOnUse" x1="218.557" x2="270.329" y1="15.716" y2="447.75"><stop offset="0" stop-color="#ced5f7"/><stop offset="1" stop-color="#adb5da"/></linearGradient><linearGradient id="linear-gradient-2" gradientUnits="userSpaceOnUse" x1="160.265" x2="273.312" y1="52.285" y2="470.562"><stop offset="0" stop-color="#737b9d"/><stop offset="1" stop-color="#576081"/></linearGradient><linearGradient id="linear-gradient-3" x1="232.837" x2="339.134" xlink:href="#linear-gradient-2" y1="55.7" y2="449.001"/><linearGradient id="linear-gradient-4" x1="240.201" x2="291.488" xlink:href="#linear-gradient" y1="13.286" y2="441.273"/><linearGradient id="linear-gradient-5" x1="276.859" x2="383.157" xlink:href="#linear-gradient-2" y1="43.802" y2="437.103"/><linearGradient id="linear-gradient-6" x1="251.751" x2="358.048" xlink:href="#linear-gradient-2" y1="50.588" y2="443.889"/><linearGradient id="linear-gradient-7" x1="246.054" x2="297.929" xlink:href="#linear-gradient" y1="12.184" y2="445.075"/><linearGradient id="linear-gradient-8" x1="155.306" x2="261.603" xlink:href="#linear-gradient-2" y1="76.654" y2="469.955"/><linearGradient id="linear-gradient-9" x1="187.436" x2="293.734" xlink:href="#linear-gradient-2" y1="67.97" y2="461.271"/><linearGradient id="linear-gradient-10" x1="148.284" x2="254.581" xlink:href="#linear-gradient-2" y1="78.552" y2="471.853"/><linearGradient id="linear-gradient-11" x1="148.367" x2="254.635" xlink:href="#linear-gradient-2" y1="78.625" y2="471.818"/><linearGradient id="linear-gradient-12" x1="325.492" x2="431.502" xlink:href="#linear-gradient-2" y1="30.674" y2="422.911"/><linearGradient id="linear-gradient-13" x1="176.712" x2="283.071" xlink:href="#linear-gradient-2" y1="70.882" y2="464.41"/><linearGradient id="linear-gradient-14" x1="207.119" x2="313.417" xlink:href="#linear-gradient-2" y1="62.651" y2="455.952"/><linearGradient id="linear-gradient-15" x1="237.498" x2="343.796" xlink:href="#linear-gradient-2" y1="54.44" y2="447.741"/><linearGradient id="linear-gradient-16" x1="163.637" x2="269.935" xlink:href="#linear-gradient-2" y1="74.402" y2="467.704"/><linearGradient id="linear-gradient-17" x1="187.891" x2="294.188" xlink:href="#linear-gradient-2" y1="67.847" y2="461.149"/><linearGradient id="linear-gradient-18" x1="198.12" x2="304.417" xlink:href="#linear-gradient-2" y1="65.083" y2="458.384"/><linearGradient id="linear-gradient-19" x1="225.836" x2="331.042" xlink:href="#linear-gradient-2" y1="59.108" y2="448.372"/><linearGradient id="linear-gradient-20" x1="188.743" x2="271.354" xlink:href="#linear-gradient" y1="83.261" y2="118.044"/><linearGradient id="linear-gradient-21" x1="146.99" x2="254.369" xlink:href="#linear-gradient" y1="127.695" y2="498.593"/><linearGradient id="linear-gradient-22" x1="209.144" x2="315.442" xlink:href="#linear-gradient-2" y1="62.103" y2="455.405"/><linearGradient id="linear-gradient-23" x1="285.298" x2="391.595" xlink:href="#linear-gradient-2" y1="41.521" y2="434.823"/><path d="m185.071 103.912h123.122v292.176h-123.122z" fill="url(#linear-gradient)"/><path d="m185.071 373.511h130.125v22.577h-130.125z" fill="url(#linear-gradient-2)"/><path d="m185.071 135.482 104.1 60.812v199.794h26.025v-292.176h-130.125z" fill="url(#linear-gradient-3)"/><path d="m180.147 52.679h134.296v39.608h-134.296z" fill="url(#linear-gradient-4)"/><path d="m249.102 52.679h71.018v39.608h-71.018z" fill="url(#linear-gradient-5)"/><path d="m177.07 33.452h146.126v22.303h-146.126z" fill="url(#linear-gradient-6)"/><path d="m346.365 14.706h-192.465a30.475 30.475 0 1 0 0 60.95c18.989.22 33.774-17.893 29.888-36.436h132.689c-3.883 18.544 10.9 36.656 29.888 36.435 40.28-1.242 40.275-59.711 0-60.949z" fill="url(#linear-gradient-7)"/><path d="m180.147 407.713h139.973v39.608h-139.973z" fill="url(#linear-gradient-8)"/><path d="m249.102 407.713h71.018v39.608h-71.018z" fill="url(#linear-gradient-9)"/><path d="m177.07 444.244h146.126v22.303h-146.126z" fill="url(#linear-gradient-10)"/><path d="m346.365 485.294h-192.465a30.475 30.475 0 1 1 0-60.95c18.989-.22 33.774 17.893 29.888 36.436h132.689c-3.883-18.544 10.9-36.656 29.888-36.435 40.28 1.242 40.275 59.711 0 60.949z" fill="url(#linear-gradient-11)"/><path d="m346 48.583a10.745 10.745 0 0 0 -10.88-9.362h-18.643l-2.729 6.4h20.535s4.872 0 5.6 3.964c.735 3.751 6.617 2.804 6.117-1.002z" fill="url(#linear-gradient-12)"/><path d="m154.29 48.583a10.745 10.745 0 0 1 10.88-9.362h18.643l2.728 6.4h-20.535s-4.871 0-5.6 3.964c-.734 3.751-6.619 2.804-6.116-1.002z" fill="url(#linear-gradient-13)"/><path d="m220.612 92.287v-39.608h-7.5v13.71c-2.17-1-5.653-.737-8.026-.762a10.313 10.313 0 0 0 -10.247 10.955c.086 4.929 7.415 4.93 7.5 0a2.9 2.9 0 0 1 2.747-3.455c3.48-.009 7.672-.657 8.026 4.1v15.06z" fill="url(#linear-gradient-14)"/><path d="m233.371 80.977a3.749 3.749 0 0 0 3.75-3.75 3.074 3.074 0 0 1 3.321-3.456h6.213c5.756-.092.694 7.918 7.118 8.371a3.75 3.75 0 0 0 3.75-3.75c0-7.363-4.266-12.121-10.868-12.121h-6.213c-5.967 0-10.821 4.6-10.821 10.248a3.869 3.869 0 0 0 3.75 4.458z" fill="url(#linear-gradient-15)"/><path d="m207.346 103.912h7.5v292.176h-7.5z" fill="url(#linear-gradient-16)"/><path d="m233.371 103.912h7.5v292.176h-7.5z" fill="url(#linear-gradient-17)"/><path d="m263.146 212.021a3.749 3.749 0 0 0 -3.75 3.75v180.317h7.5v-180.317a3.75 3.75 0 0 0 -3.75-3.75z" fill="url(#linear-gradient-18)"/><path d="m266.751 195.35c-.092 5.38-8.094 5.379-8.185 0 .091-5.379 8.094-5.378 8.185 0z" fill="url(#linear-gradient-19)"/><path d="m272.843 89.6h-94.235c-12.182.37-12.21 18.08 0 18.459h94.234c12.718-1.734 10.671-18.459.001-18.459z" fill="url(#linear-gradient-20)"/><path d="m272.843 410.405h-94.235a9.23 9.23 0 0 1 0-18.459h94.235c13.662 3.003 13.662 15.767 0 18.459z" fill="url(#linear-gradient-21)"/><path d="m278.653 401.176c-.012 6.062-2.913 8.441-5.81 9.229h48.815a9.229 9.229 0 1 0 0-18.458h-48.815s5.825 1.346 5.81 9.229z" fill="url(#linear-gradient-22)"/><path d="m278.653 98.824c-.012 6.063-2.913 8.442-5.81 9.229h48.815a9.229 9.229 0 0 0 0-18.458h-48.815s5.825 1.347 5.81 9.229z" fill="url(#linear-gradient-23)"/></svg>