<svg id="Flat" height="512" viewBox="0 0 340 340" width="512" xmlns="http://www.w3.org/2000/svg"><path d="m264.031 190.984s4.621-19.9 34.287-24.56c0 0 .3 32.341-29.292 31.517z" fill="#82936e"/><path d="m229.744 168.855s31.541-3.8 41.844 21.847a16.9 16.9 0 0 1 1.2 6.293v34.912l-11.188 2.361v-29.112a9.543 9.543 0 0 0 -7.592-9.354c-8.684-1.802-22.002-7.721-24.264-26.947z" fill="#c9d38c"/><path d="m275.561 228.008c-15.908 0-29.838 13.257-39.624 26.149l18.97 24.083h75.093s-23.472-50.232-54.439-50.232z" fill="#7c5b65"/><path d="m52.909 190.984s4.62-19.9 34.287-24.56c0 0 .3 32.341-29.292 31.517z" fill="#82936e"/><path d="m18.622 168.855s31.54-3.8 41.843 21.847a16.88 16.88 0 0 1 1.2 6.293v34.912l-11.186 2.361v-29.112a9.543 9.543 0 0 0 -7.592-9.354c-8.687-1.802-22.003-7.721-24.265-26.947z" fill="#c9d38c"/><path d="m64.439 228.008c-30.967 0-54.439 50.232-54.439 50.232h77.2l16.074-25.116c-9.742-12.558-23.352-25.116-38.835-25.116z" fill="#7c5b65"/><path d="m174.965 146.85s57.65-21.147 59.161-85.09c0 0-62.937 13.594-65.2 68.474z" fill="#82936e"/><path d="m89.624 69.564s60.888 1.652 85.323 69.851a39.205 39.205 0 0 1 2.284 13.217v60.93h-15.86v-62.056a13.529 13.529 0 0 0 -3.466-9.225 11.829 11.829 0 0 0 -7.107-3.739s-59.916-9.818-61.174-68.978z" fill="#c9d38c"/><path d="m170 209.482c-48.3 0-84.907 68.758-84.907 68.758h169.814s-36.607-68.758-84.907-68.758z" fill="#b7869a"/><circle cx="156.787" cy="231.907" fill="#72505a" r="3.899"/><circle cx="140.028" cy="245.066" fill="#72505a" r="3.899"/><circle cx="158.525" cy="248.965" fill="#72505a" r="3.899"/><g fill="#474756"><circle cx="57.764" cy="247.76" r="3.899"/><circle cx="44.782" cy="259.157" r="3.899"/><circle cx="276.684" cy="243.861" r="3.899"/><circle cx="263.421" cy="250.259" r="3.899"/></g></svg>