<svg id="Flat" height="512" viewBox="0 0 340 340" width="512" xmlns="http://www.w3.org/2000/svg"><path d="m60.537 280.989a78.753 78.753 0 0 1 -5.1-6.48s-5.888-9.3-14.567-12.708c0 0 20.766-5.579 38.742 3.1 0 0-.62-11.158-7.748-17.977 0 0 28.514-4.226 43.081 20.766l-10.431 24.992h-17.98a34.591 34.591 0 0 1 -25.997-11.693z" fill="#82936e"/><path d="m65.779 181.725 34.356-28.293s32.052 21.094 56.677 62.96l4.286 76.29h-56.585s1.687-80.644-38.734-110.957z" fill="#ceb9bc"/><path d="m137.239 121.617-22.039 21.73c-8.749 7.095-16.738 14.148-21.311 21.009l-30.218 29.784c-6.934 5.191-13.681 12.051-20.3 20.016l-11.856 11.683a8.6 8.6 0 0 1 -13.9-2.524c-1.682-3.867-2.043-9.232 1.4-16.385a18.845 18.845 0 0 0 1.153-12.919 119.483 119.483 0 0 1 -3.3-18.582l2.489-29.229a41.533 41.533 0 0 1 13.077-19.715c25.623-21.1 64.2-21.7 83.364-17.728a19.3 19.3 0 0 0 10.619-.923 17.719 17.719 0 0 1 3.548-.928c8.235-1.221 13.203 8.866 7.274 14.711z" fill="#c69893"/><path d="m155.373 289.7s-12.142-88.8 27.972-148.968c12.848 8.784 24.519 20.255 35.1 34.225-6.3 28.092-9.39 67.6 2.612 114.738z" fill="#f2e8ee"/><path d="m146.557 292.682s-21.386-7.946-21.386-37.079c0 0 14.08 1.213 21.386 8.988 0 0-6.2-34.713-21.386-51.14 0 0 46.491 8.059 61.058 58.268 0 0 8.988-18.6 29.444-28.2s35.642-24.795 35.642-24.795.93 36.573-18.286 46.181c0 0 23.865 2.169 35.333-7.439 0 0-7.13 25.22-33.164 35.22z" fill="#c9d38c"/><path d="m207.916 113.688a118.866 118.866 0 0 0 -24.567 27.047l35.094 34.222c6.61-29.453 16.755-46.366 16.755-46.366z" fill="#ceb9bc"/><path d="m130.659 81.018 126.659 69.815a125.806 125.806 0 0 1 32.568 17.952l18.03 9.938a10.58 10.58 0 0 0 15.691-9.889 51.2 51.2 0 0 0 -4.929-18.229 67.811 67.811 0 0 1 -5.911-20.885c-1.392-12.069-4.894-31.251-13.681-47.875l-23.476-25.83q-.5-.288-1-.566c-19.8-10.863-46.435-9.057-67.436-4.823-12.077 5.691-24.3 8.569-36.732 7.4a72.367 72.367 0 0 1 -10.429-.511c-8.585-1.047-19.96-.746-29.761 5.178a10.591 10.591 0 0 0 .407 18.325z" fill="#c69893"/><g fill="#a0706c"><path d="m40.869 161.382a16.081 16.081 0 0 0 -21.5-15.176c-3.107 9.6-3.366 20.037-2.505 29.223a16.105 16.105 0 0 0 24-14.047z"/><circle cx="59.465" cy="135.968" r="9.608"/><path d="m98.827 131.009a17.04 17.04 0 0 0 -4.942 33.347l21.315-21.009a17.038 17.038 0 0 0 -16.373-12.338z"/><path d="m51.1 187.009a14.671 14.671 0 0 0 -7.731 27.147l20.302-20.016a14.659 14.659 0 0 0 -12.571-7.131z"/><path d="m170.438 58.017a19.054 19.054 0 1 0 36.732-7.388c-6.751 1.361-12.926 2.972-18.1 4.494a71.878 71.878 0 0 1 -18.632 2.894z"/><circle cx="240.582" cy="102.472" r="14.682"/><path d="m275.6 56.033a17.553 17.553 0 1 0 23.475 25.817c-5.497-10.399-13.065-19.787-23.475-25.817z"/><path d="m277.109 133.453a19.968 19.968 0 0 0 -19.791 17.38l32.568 17.952a19.975 19.975 0 0 0 -12.777-35.332z"/></g></svg>