<svg id="Flat" height="512" viewBox="0 0 340 340" width="512" xmlns="http://www.w3.org/2000/svg"><path d="m175.52 195.117s20.856-34.759 53.628-38.98c0 0 2.98 10.428-7.2 19.49 0 0 33.766-.869 52.387-11.545 0 0-17.379 33.269-52.635 40.469 0 0-38.483 5.711-46.18-9.434z" fill="#82936e"/><path d="m118.6 95.765s43.028 45.225 51.2 114.3h15.374s-11.449-67.5-53.815-114.3z" fill="#474756"/><path d="m107.137 66.629s-16.159-7.034-32-6.291a13.613 13.613 0 0 0 -13 14.482 47.38 47.38 0 0 0 8.329 23.81 13.64 13.64 0 0 0 17.105 4.484c7.4-3.538 17.117-9.88 22.478-20.292z" fill="#89b9f2"/><path d="m116.841 63.308s4.39-13.1 13.851-22.26a10.221 10.221 0 0 1 14.941.9c4.976 6 10.8 16.157 10.961 30.979a10.265 10.265 0 0 1 -9.508 10.38c-7.323.513-17.629-.541-24.971-8.536z" fill="#89b9f2"/><path d="m116.8 65.105a139.126 139.126 0 0 0 9.232-19.241 12.083 12.083 0 0 0 -12.837-16.3 89.142 89.142 0 0 0 -28.907 8.7 12.1 12.1 0 0 0 -.75 21.077 98.9 98.9 0 0 0 21.3 9.9z" fill="#6783c1"/><path d="m108.544 77.091s-11.5 7.2-9.991 30.788a9.33 9.33 0 0 0 10.492 8.615 75.735 75.735 0 0 0 29.668-10.054 9.366 9.366 0 0 0 2.68-13.391 58.994 58.994 0 0 0 -20.208-18.088z" fill="#6783c1"/><ellipse cx="112.064" cy="71.725" fill="#fff" rx="15.442" ry="9.976" transform="matrix(.996 -.093 .093 .996 -6.203 10.767)"/><path d="m220.406 69.246s-45.587 45.947-38.744 137.488h13.764s-7.126-82.869 28.654-126.024z" fill="#474756"/><path d="m222.5 62.118s-17.5-9.651-35.46-10.488a15.438 15.438 0 0 0 -16.209 14.977 53.729 53.729 0 0 0 6.885 27.764 15.47 15.47 0 0 0 18.839 6.873c8.732-3.212 20.371-9.345 27.525-20.534z" fill="#e89159"/><path d="m233.807 59.4s6.343-14.336 17.993-23.672a11.592 11.592 0 0 1 16.776 2.591c4.984 7.3 10.481 19.386 9.1 36.138a11.641 11.641 0 0 1 -11.833 10.714c-8.323-.2-19.848-2.476-27.292-12.279z" fill="#e89159"/><path d="m233.566 61.419a157.805 157.805 0 0 0 12.46-20.747 13.7 13.7 0 0 0 -12.771-19.764 101.1 101.1 0 0 0 -33.555 6.769 13.72 13.72 0 0 0 -3.079 23.723 112.174 112.174 0 0 0 23 13.433z" fill="#ffbd85"/><path d="m222.981 74.079s-13.742 6.921-14.538 33.705a10.581 10.581 0 0 0 10.935 10.838c8.791-.292 21.856-1.962 34.561-8.213a10.623 10.623 0 0 0 4.443-14.836 66.907 66.907 0 0 0 -20.9-22.562z" fill="#ffbd85"/><ellipse cx="227.523" cy="68.393" fill="#fff" rx="17.511" ry="11.313"/><path d="m192.155 202.911s-13.273-42.305-63.12-51.74c0 0 3.036 13.159 16.692 30.042 0 0-37.739-19.64-62.567-22.11 0 0 19.118 36.159 54.5 47.631z" fill="#c9d38c"/><path d="m146.349 202.911h-40.178l23.442 108.258a10.063 10.063 0 0 0 9.836 7.934h12.451z" fill="#aac3d6"/><path d="m138.187 202.911 13.713 116.189h61.142a10.065 10.065 0 0 0 9.958-8.634l15.413-107.555z" fill="#e1ecfe"/></svg>