<svg id="Flat" height="512" viewBox="0 0 340 340" width="512" xmlns="http://www.w3.org/2000/svg"><path d="m323.014 101.5a30.47 30.47 0 0 0 -24.671-9.316c-9.18.791-21.845 4.8-32.8 18.7-19.92 25.272-36.3 36.867-36.3 36.867s-18.11 40.134 28.866 61.249c0 0 7.708-19.36 21.593-34.139a52.57 52.57 0 0 1 19.792-12.948c8.523-3.234 22.509-11.247 21.052-28.729l6.2-.905a8.284 8.284 0 0 0 6.9-10 44.347 44.347 0 0 0 -10.632-20.779z" fill="#aabfa2"/><path d="m239.676 241.611a46.263 46.263 0 0 0 4.131 10.686 19.1 19.1 0 0 0 16.906 10.215h24.968a9.335 9.335 0 0 0 8.367-13.5c-3.071-6.107-8.116-12.854-16.274-16.926a18.457 18.457 0 0 1 -5.612-4.4c-3.436-3.927-8.519-10.93-9.3-18.692z" fill="#7c8e71"/><path d="m240.869 139.837s-21.26 49.2 14.06 61.811c0 0-100.285 76.633-226.429 17.66 0 0-21.257-9.229-22.349-35.683a9.035 9.035 0 0 1 12.527-8.7l13.291 5.594z" fill="#7c8e71"/><path d="m54.675 211.367s53.3 38.416 151.689 0c0 0 14.454-17.6 34.5-14.765q2.991.424 5.747.739s17.049 19.565 0 32.56c-14.629 11.15-39.545 16.947-67.046 23.166-36 8.14-76.665 13.338-106.91-4.777-8.271-4.958-17.98-36.923-17.98-36.923z" fill="#f4dac2"/><path d="m265.489 198.63c-4.542-.069-10.953-.374-18.872-1.289 14.943 46.874-55.329 38.412-55.329 38.412a94.806 94.806 0 0 1 -26.082 14.5 9.947 9.947 0 0 1 -13.141-6.927 77.981 77.981 0 0 1 -2.075-16.8q-3.57.5-7.013.859c.188 7.551 1.389 17.8 5.566 27.6a132.266 132.266 0 0 1 -18.5 2.426 11.738 11.738 0 0 1 -12.135-9 78.2 78.2 0 0 1 -1.952-20.128q-3.609-.153-7.016-.444c-.241 7.4.317 18.65 4.4 29.587-5.1-.312-8.119-.809-8.119-.809-25.817-4.546-27.174-24.264-26.088-34.367-16.133-4.888-24.458-10.883-24.458-10.883-8.2 18.549 4.73 35.378 4.73 35.378 54.873 42.889 121.634 8.83 121.634 8.83h36.047c34.776-6.579 48.893-35.044 53.83-49.127a5.862 5.862 0 0 0 -5.427-7.818z" fill="#d8aa95"/><path d="m62.509 215.805a110.632 110.632 0 0 1 -3.179 14.123 20.309 20.309 0 0 0 3.733 18.444 36.659 36.659 0 0 1 6.753 13.113 11.684 11.684 0 0 1 -6.307 13.715l-6.976 1.191a51.493 51.493 0 0 1 -30.045-8.917 19.187 19.187 0 0 1 -8.252-15.574 98.544 98.544 0 0 1 1.757-20.281c5.73-15.018 15.275-25.876 30.924-30.083z" fill="#aabfa2"/><path d="m163.122 224.278c2.1 16.065 7.6 36.987 21.393 54.538a19.416 19.416 0 0 0 15.268 7.417h19.452a10.5 10.5 0 0 1 7.044 0h3.141a11.448 11.448 0 0 0 10.762-15.333 27.841 27.841 0 0 0 -10.911-13.9 21.547 21.547 0 0 1 -8.558-12.075 192.829 192.829 0 0 0 -13.487-34.525c-14.583-.646-29.303 4.813-44.104 13.878z" fill="#aabfa2"/><g fill="#7c8e71"><path d="m63.5 275.182c-.434-8.655-4.15-17.506-7.968-21.148a3.5 3.5 0 0 0 -4.832 5.066c2.489 2.372 5.711 9.952 5.831 17.28.915-.012 1.809-.039 2.659-.091a11.744 11.744 0 0 0 4.31-1.107z"/><path d="m217.914 262.88a3.5 3.5 0 1 0 -5.591 4.211 42.659 42.659 0 0 1 6.912 19.142h7.044a49.432 49.432 0 0 0 -8.365-23.353z"/><circle cx="293.103" cy="111.163" r="3.899"/><path d="m62.507 215.805a79.052 79.052 0 0 0 1.022-18.288l-20-6.6c-14.472 11.368-20.857 27.04-23.529 40.703 18.62-26.414 42.476-15.829 42.507-15.815z"/><path d="m194.177 189.364-32.031 9.318a128.757 128.757 0 0 0 .978 25.6s19.142-2.391 44.1-13.881a143.368 143.368 0 0 0 -13.047-21.037z"/></g><path d="m82.96 76.875c9.427-8.687 33.491-25.933 73.454-22.713l8.866 19.949-70.9 28.513z" fill="#cc9395"/><path d="m181.039 67.66-11.4-8.8a22.334 22.334 0 0 0 -11.539-4.551c-.571-.053-1.12-.079-1.685-.124-2.415 11.232-15.229 25.6-40.392 29.985-19.745 3.44-28.9-2.252-33.061-7.293a46.989 46.989 0 0 0 -4.6 4.758c-5.134 6.275-5.7 16.828-5.7 16.828 49.34 46.2 107.237 2.69 107.237 2.69z" fill="#93666d"/><path d="m39.862 159.5s2.09-44.147 31.519-63.191a12.8 12.8 0 0 1 9.834-1.729 38.027 38.027 0 0 1 8.1 2.944 10.985 10.985 0 0 1 6.166 9.848v1.928l6.576-3.91a16.875 16.875 0 0 1 8.868-2.379c2.486.036 5.768.141 9.491.406a19.823 19.823 0 0 1 9.444 3.176l3.268 2.137s-2-5.989 3.137-9.982c3.466-2.7 12.912-9.421 18.684-13.507a15.65 15.65 0 0 1 14.471-1.975l.215.081a33.765 33.765 0 0 1 .652-13.53 8.427 8.427 0 0 1 10.248-6.334c10.683 2.711 30.093 11.335 43.312 38.75l5.4 21.328s-92.415 110.089-189.385 35.939z" fill="#cc9395"/><path d="m78.62 166.5a3.5 3.5 0 0 1 -3.48-3.9c3.7-32.117 20.907-61.952 21.638-63.205a3.5 3.5 0 1 1 6.048 3.522c-.171.3-17.208 29.857-20.733 60.483a3.5 3.5 0 0 1 -3.473 3.1z" fill="#93666d"/><path d="m149.437 157.815a3.5 3.5 0 0 1 -3.462-3.017c-3.506-25.2-21.9-54.479-22.082-54.771a3.5 3.5 0 0 1 5.913-3.746c.79 1.246 19.386 30.835 23.1 57.552a3.5 3.5 0 0 1 -3.472 3.982z" fill="#93666d"/><path d="m204.049 116.463a3.492 3.492 0 0 1 -2.857-1.476c-13.283-18.724-42.109-34.128-42.4-34.281a3.5 3.5 0 0 1 3.275-6.188c1.242.658 30.579 16.324 44.833 36.42a3.5 3.5 0 0 1 -2.852 5.525z" fill="#93666d"/><path d="m229.239 123.561-5.4-21.328a80.2 80.2 0 0 0 -17.712-24.543c-1 37.963-36.583 77.533-87.845 78.57-62.631 1.267-67.415-36.541-67.415-36.541-10.024 19.141-11 39.778-11 39.778 96.965 74.153 189.372-35.936 189.372-35.936z" fill="#93666d"/><path d="m39.862 159.5s45.348 35.936 119.216 9.126c47.147-17.111 60.949-47 64.765-66.39 0 0 9.188-3.6 22.756 2.351a10.906 10.906 0 0 1 6.344 11.708c-3.1 19.524-17.821 70.027-87.591 88.267-73.139 19.121-117.634-6.626-135-21.007a10.94 10.94 0 0 1 -1.224-15.69 37.578 37.578 0 0 1 10.734-8.365z" fill="#cc9395"/><path d="m217.479 121.075c-1 2.049-2.128 4.124-3.4 6.215 8.078 3.184 20.551 9.138 29.472 18.179 1.144-2.312 2.164-4.584 3.067-6.791-9.294-8.64-21.026-14.354-29.139-17.603z" fill="#93666d"/><path d="m191.071 151.953q-2.811 2.067-5.932 4.058c4.337 3.976 16.778 16.84 16.987 33.546q3.531-2.1 6.744-4.317c-1.799-16.083-12.43-28.14-17.799-33.287z" fill="#93666d"/><path d="m137.194 210q3.522-.43 7.154-1.008c1.157-12.935-3.276-26.439-6.434-34.14q-3.565.8-7.018 1.415c3.004 7.069 7.993 21.212 6.298 33.733z" fill="#93666d"/><path d="m80.228 176.105c-2.461-.489-4.816-1.035-7.068-1.623-2.886 5.773-7.054 16.77-5.189 29.467q3.64 1.221 7.571 2.295c-3.261-13.409 2.178-25.523 4.686-30.139z" fill="#93666d"/><path d="m295.722 138.079a2 2 0 0 0 1.441 3.676c6.87-1.4 16.176-2.584 22.95-.769a27.1 27.1 0 0 0 .433-7.807 37.659 37.659 0 0 0 -24.824 4.9z" fill="#7c8e71"/></svg>