<svg id="Flat" height="512" viewBox="0 0 340 340" width="512" xmlns="http://www.w3.org/2000/svg"><path d="m102.906 137.081s-33.445 11.961-50.774 38.2a6.862 6.862 0 0 0 -12.567.646c-2.512 6.642-4 15.9-1.241 27.762a7.631 7.631 0 0 0 -10.534 7.581 47.533 47.533 0 0 0 11.346 27.887h-1.965a7.3 7.3 0 0 0 -7.1 9.1c1.378 5.257 4.876 11.679 13.4 16.078l-8.664 5.3a28.307 28.307 0 0 0 9.722 8.907 55.246 55.246 0 0 1 12.582 9.258c10.057 9.875 34.2 25.7 80.039 15.479v-189.479s-17.858-8.127-34.244 23.281z" fill="#fce5e8"/><path d="m155.8 299.705s-57.319 21.368-82.079-40.361 33.917-105.482 33.917-105.482 16.959-15.6 19.672-32.221c0 0-19 25.693-52.468 15.806-24.069-7.111-27.675-32.868-27.675-32.868l-5.359 3.227a6.352 6.352 0 0 1 -9.618-4.974c-.8-11.381 1.96-31.342 24.573-51.738 0 0-7.8 2.374-14.924 0 0 0 4.749-20.011 35.952-22.385l-2.779-4.741a4.658 4.658 0 0 1 3.388-6.968c4.475-.622 11.132-.367 19.409 3.411a14.807 14.807 0 0 0 6.945 1.306l8.653-.468s-.033-.032-.092-.1c-3.584-3.952 1.365-9.762 5.928-7a42.164 42.164 0 0 0 11.457 4.724s36.09 7 52.864 41.778c0 0 10.781 34.305 2.986 68.718z" fill="#ddadaa"/><path d="m127.31 121.641c4.967-14.921 1.347-26.355-2.452-33.218a3.187 3.187 0 0 0 -5.94 1.141c-1.541 11.694-7.111 31.792-27.123 35.678-28.573 5.548-44.628-20.663-44.628-20.663-1.334 12.608 2.273 28.865 26.215 36.395 42.057 13.226 53.928-19.333 53.928-19.333z" fill="#a3676b"/><path d="m157.982 138.409c-48 41.286-72.177 57.061-69.654 101.031 2.36 41.121 70.18 46.312 70.18 46.312l30.531-157.327c5.882-29.843 2.249-51.751-5.479-67.771 4.263 20.361 4.247 52.102-25.578 77.755z" fill="#a3676b"/><path d="m248.6 202.844a236.244 236.244 0 0 0 6.646 23.653c4.1 11.924 2.541 33.231-7.819 41.05s-63.921-8.8-63.921-8.8l-.587-59.034 31.863-24.435 26.194 7.624z" fill="#fce5e8"/><path d="m255.571 99.8s-5.039-19.711-17.5-27.946a3 3 0 0 0 -3.893.573c-3.538 4.039-11.045 14.782-9.777 32.156z" fill="#a3676b"/><path d="m243.994 99.135a42.972 42.972 0 0 1 20.931-34.305 3.047 3.047 0 0 1 3.529.248 31.21 31.21 0 0 1 6.629 7.788l6.57 22.4s17.8 5.416 25.019 24.246c0 0 9.544 4.384 3.611 14.444 0 0-5.158 22.44-43.075 24.246-1.592 3.274-.825 6.956.823 10.79a48.767 48.767 0 0 0 12.383 23.168 35.1 35.1 0 0 1 9.525 20.627 29.54 29.54 0 0 1 -6.452 21.77 6.948 6.948 0 0 1 -12.04-2.128 28.175 28.175 0 0 0 -14.556-17.224s-11.607-4.127-16.25-16.25a32.862 32.862 0 0 0 -2.579 9.544s-11.862-2.579-10.062-18.313c0 0-4.384 9.027-15.476 18.313 0 0-8.253 7.222-9.027 22.44s-6.449 21.151-6.449 21.151 25.02-17.8 43.849-3.611 9.028 37.658 9.028 37.658-4.127 10.317-11.349 13.155c0 0 11.324.56 18.414 9.653a10.945 10.945 0 0 1 -8.686 17.623h-54.316a10.945 10.945 0 0 1 -8.78-17.5c.316-.42 4.259-4.351 4.616-4.775 0 0-53.388 17.695-78.924-26.412-18.94-32.715-.111-69.057 14.044-88.9a78.472 78.472 0 0 1 20.613-19.89c8.922-5.9 22.387-16.274 29.757-29.166a74.049 74.049 0 0 1 16.813-20.4c11.49-9.532 29.598-20.537 51.867-20.39z" fill="#ddadaa"/><path d="m281.653 95.266c-.666-10.209-3.528-17.452-6.573-22.4-9.589 4.527-12.9 12.961-14.03 18.742a5.449 5.449 0 0 0 5.418 6.531 51.031 51.031 0 0 0 15.185-2.873z" fill="#fce5e8"/><g fill="#a3676b"><circle cx="282.602" cy="117.822" r="4.969"/><path d="m243.762 154.3a2.672 2.672 0 0 0 -2.2 4.717c5.31 4.1 13.916 8.771 26.521 10.218a35.809 35.809 0 0 1 -.878-11.033s-11.534-1.402-23.443-3.902z"/></g></svg>