<svg id="Flat" height="512" viewBox="0 0 340 340" width="512" xmlns="http://www.w3.org/2000/svg"><path d="m295.909 90.13a19.048 19.048 0 1 1 -9.453-16.464l9.191 13.3a19.238 19.238 0 0 1 .262 3.164z" fill="#fff"/><path d="m262.013 180.833s7.06 27.778 39.913 32.165a21.329 21.329 0 0 0 14.675-3.645 9.522 9.522 0 0 1 8.844-1.335c7.583 2.774 7.4 11.836 7.4 11.836s-.185 4.438-3.329 6.287a11.884 11.884 0 0 1 4.993 11.836s-2.034 10.541-12.76 9.247a13.762 13.762 0 0 1 -8.545-4.21s-44.716 9.388-66.168-27.969z" fill="#c4916c"/><path d="m294.843 146.67a59.549 59.549 0 0 0 -10.645 8.64c-8.358 6.815-15.577 13.835-15.437 22.175a55.38 55.38 0 0 0 -2.217 6.835c-6.744 26.48-40.744 115.001-186.844 58.78l-10.156-1.1-.275-20.041s160.331-103.504 161.154-103.779 64.42 28.49 64.42 28.49z" fill="#f7e4da"/><path d="m292.075 147.81a84.1 84.1 0 0 1 -62.26-8.1s-11.547 2.639-20.454 22.432c0 0-6.093 21.182-18.008 33.883a28.118 28.118 0 0 0 -6.657 11.125c-2.281 7.7-1.924 18.86 14.109 26.579 0 0 9.243 4.641 24.575 3.354 0 0 22.983-11.717 19.3 10.832a12.525 12.525 0 0 1 4.619 12.866c-1.979 8.247-7.917 7.917-7.917 7.917s.329 10.227-12.536 9.9c0 0-8.908.528-14.516-5.179 0 0-53.443 2.87-64.329-55.192-2.983-.6-6.7-.12-10.732.835a152.211 152.211 0 0 1 -24.31-.72 39.288 39.288 0 0 0 -11.473-2.094s-1.32 21.113-26.722 22.433l12.81 7.689c4.827 4.188 9.412 10.241 10.463 18.524a10.164 10.164 0 0 1 -9.654 11.323c-20.635 1.015-70.011-2.8-82.787-60.3 0 0-3.836-24.517 16.96-31.069l10.972-1.59s-24.083-33.98 13.2-73.237a113.6 113.6 0 0 1 58.372-33.321 82.344 82.344 0 0 1 33.745-.164c10.943 2.184 28.094 5.08 36.748 3.794 0 0 11.666-20.844 35.415-18.8a36.859 36.859 0 0 1 22.354 10.988 11.262 11.262 0 0 0 7.164 3.828 88.943 88.943 0 0 0 9.969-.326 7.162 7.162 0 0 0 5.571-3.388c.187-.293.638-1.209.638-1.209a15.917 15.917 0 0 1 7.618-5.744 7.283 7.283 0 0 1 9.663 6.42c.359 5.674 2.895 14.17 12.761 22.96a43.652 43.652 0 0 1 10.394 13.448c3.732 7.7 6.926 19.013 2.975 31.6a11.53 11.53 0 0 1 -8.04 7.703z" fill="#e5b48d"/><circle cx="207.58" cy="97.925" fill="#fff" r="21.353"/><circle cx="207.58" cy="97.925" fill="#474756" r="8.262"/><g fill="#a56a4c"><path d="m62.22 120.622a9.449 9.449 0 0 1 13.98 10.331 13.156 13.156 0 0 1 -1.5 3.893c-1.491 2.535-4.362 3.5-7.441 3.7-8.534.546-13.673-9.423-7.842-15.677a12.426 12.426 0 0 1 2.803-2.247z"/><path d="m111.789 114.633a21.329 21.329 0 0 0 -5.156 7.087 8.026 8.026 0 0 0 4.324 10.673 25.227 25.227 0 0 0 6.308 1.528 8.059 8.059 0 0 0 8.576-5.375c1.434-4.142 1.813-9.8-3.755-14.281a7.934 7.934 0 0 0 -10.297.368z"/><path d="m134.778 156.979a6.877 6.877 0 0 1 9.4 4.834 15.487 15.487 0 0 1 -2.627 13.024c-4.508 6.147-10.709 2.222-14.478-1.255a6.761 6.761 0 0 1 -1.309-8.3 19.054 19.054 0 0 1 9.014-8.303z"/><path d="m168.365 110a8.561 8.561 0 0 0 -9.828-6.437 12.216 12.216 0 0 0 -9.119 6.624c-2.763 5.427.46 9.319 3.615 11.616a8.53 8.53 0 0 0 9.2.493c3.567-2.025 7.605-5.821 6.132-12.296z"/><path d="m64.035 224.789a26.049 26.049 0 0 0 5.913 1.043 6.536 6.536 0 0 0 6.889-7.485 9.741 9.741 0 0 0 -7.568-8.545c-6.621-1.739-8.894 3.421-9.662 7.667a6.466 6.466 0 0 0 4.428 7.32z"/><path d="m153.565 186.078s14.421 3.518 11.171 14.518-17.751 4-17.751 4-.239-10.686 6.58-18.518z"/><path d="m45.436 196.432a1.409 1.409 0 0 0 .8-2.632 51.817 51.817 0 0 1 -12.751-10.465h-.092a37.716 37.716 0 0 0 -10.816 1.581c6.223 8.81 16.17 11.077 22.859 11.516z"/><path d="m87.591 246.386a44.016 44.016 0 0 0 -12.827-7.7c-18.164-.652-29.364-5.723-35.423-9.686a1.888 1.888 0 0 0 -2.524 2.736c5.083 6.8 18.005 15.601 50.774 14.65z"/><path d="m104.591 216.971c2.745.584 5.556 1.033 8.368 1.369-2.572-21.356-16.442-30.892-26.56-35.049a1.77 1.77 0 0 0 -1.785 3.021c7.85 6.176 17.781 16.7 16.872 29.937z"/><path d="m75.482 278.319a3.5 3.5 0 0 1 -3.482-3.176 15.451 15.451 0 0 0 -10.772-13.6 3.5 3.5 0 0 1 1.781-6.77 22.375 22.375 0 0 1 15.962 19.727 3.5 3.5 0 0 1 -3.16 3.81c-.111.004-.22.009-.329.009z"/><path d="m90.882 277.533a3.5 3.5 0 0 1 -3.483-3.2 23.106 23.106 0 0 0 -11.311-17.775 3.5 3.5 0 0 1 3.2-6.228 30.069 30.069 0 0 1 15.088 23.395 3.5 3.5 0 0 1 -3.184 3.791c-.106.013-.209.017-.31.017z"/><path d="m161.47 179.447a1.239 1.239 0 0 0 -1.377-2.03c-9.4 4.59-23.831 15.875-22.824 41.646 6.45-.294 10.732-.835 10.732-.835s-4.168-22.696 13.469-38.781z"/><path d="m187.181 163.343a10.866 10.866 0 0 1 -4.949-1.209l-.242-.127a3.5 3.5 0 0 1 3.309-6.168l.1.053a3.7 3.7 0 0 0 4.191-.462 4.074 4.074 0 0 0 1.309-4.347 7.53 7.53 0 0 0 -1.521-2.779 3.521 3.521 0 0 1 .08-4.934 3.478 3.478 0 0 1 4.9.015 14.29 14.29 0 0 1 3.251 5.7 11.111 11.111 0 0 1 -3.544 11.723 10.736 10.736 0 0 1 -6.884 2.535z"/><path d="m277.9 129.865a3.5 3.5 0 0 1 -2.971-1.645 9.148 9.148 0 0 0 -2.394-1.923 3.5 3.5 0 0 1 3.482-6.072 15.206 15.206 0 0 1 4.848 4.286 3.5 3.5 0 0 1 -2.965 5.354z"/><path d="m261 94.305c-8.368-10.469-4.315-22.818-4.294-22.882-.226.311-.434.616-.621.909a7.318 7.318 0 0 1 -5.637 3.423c-3.05.211-5.661.243-7.812.193-.788-.018-1.525-.046-2.184-.082-2.709-.15-4.84-1.514-7.089-3.349a65.833 65.833 0 0 1 8.629 16.826.9.9 0 0 0 1.757-.211 43 43 0 0 0 -.158-7.947l.011.048 1.863.768a11.236 11.236 0 0 1 5.5 4.906 35.106 35.106 0 0 0 7.7 9.648 1.628 1.628 0 0 0 2.335-2.25z"/><path d="m173.176 98.334a51.179 51.179 0 0 1 2.42-18 47.519 47.519 0 0 1 -9.265.18c-1.8 8.94.475 15.21 3.084 19.155a2.064 2.064 0 0 0 3.761-1.335z"/><path d="m61.259 178.067a3.683 3.683 0 0 1 -.417-.024c-6.882-.817-11.278-5.274-11.762-11.922-.528-7.261 6.1-10.653 9.679-11.433a3.5 3.5 0 0 1 1.511 6.835c-.217.051-4.427 1.08-4.208 4.09.087 1.2.353 4.855 5.606 5.479a3.5 3.5 0 0 1 -.409 6.975z"/></g><path d="m235.215 192.332c10.695-5.155 24.545-11.584 33.558-14.843a53.554 53.554 0 0 1 6.7-12.093 86.817 86.817 0 0 1 8.722-10.084s-11.461 8.264-26.4 17.6c-6.923 4.325-16.925 10.23-24.607 16.136a1.941 1.941 0 0 0 2.027 3.284z" fill="#d3b5a5"/><path d="m239.377 272.2a3.5 3.5 0 0 1 -3.475-3.116c-.422-3.824-2.53-5.939-7.05-7.068-1.906-.478-4.759.254-7.829 2a13.175 13.175 0 0 1 -6.9 1.748c-10.609-.283-15.719-3.946-16.267-4.363a3.5 3.5 0 0 1 4.2-5.6c.147.1 4.041 2.745 12.252 2.963a6 6 0 0 0 3.25-.832c3.315-1.89 8.261-3.9 12.991-2.714 7.415 1.854 11.557 6.258 12.311 13.092a3.5 3.5 0 0 1 -3.1 3.863 3.631 3.631 0 0 1 -.383.027z" fill="#a56a4c"/><path d="m216.607 252.469c-7.849 0-12.067-1.725-12.523-1.922a3.5 3.5 0 0 1 2.751-6.437c.117.046 3.467 1.359 9.773 1.359h.024a9.466 9.466 0 0 0 4.759-1.24 21.519 21.519 0 0 1 23.2.759 3.5 3.5 0 0 1 -3.827 5.862c-6.555-4.282-12.241-2.671-15.857-.569a16.483 16.483 0 0 1 -8.275 2.188z" fill="#a56a4c"/><circle cx="91.614" cy="98.185" fill="#a56a4c" r="3.899"/><circle cx="101.544" cy="172.334" fill="#a56a4c" r="3.899"/><circle cx="28.506" cy="209.456" fill="#a56a4c" r="3.899"/><circle cx="144.619" cy="136.418" fill="#a56a4c" r="3.899"/><circle cx="182.047" cy="242.622" fill="#a56a4c" r="3.899"/><path d="m295.625 86.966a19.043 19.043 0 0 0 -9.179-13.283 8.256 8.256 0 0 0 9.179 13.283z" fill="#474756"/></svg>