<svg id="Flat" height="512" viewBox="0 0 340 340" width="512" xmlns="http://www.w3.org/2000/svg"><path d="m139.28 18.094a274.35 274.35 0 0 1 17.1 24.718c1.465 3.567 3.015 6.7 4.883 8.265 11.564 20.38 22.931 46.512 28 76.3l-59.2-16.944s-19.787-41.023-14.303-76.626c1.963-5.042 3.7-9.993 4-14.373a11.79 11.79 0 0 1 19.52-1.34z" fill="#9aaccb"/><path d="m149.136 67.17a157.19 157.19 0 0 1 7.317 15.686 3 3 0 0 0 5.609-2.127 157.776 157.776 0 0 0 -7.3-15.76 37.311 37.311 0 0 0 6.5-13.891q-2.445-4.311-4.886-8.264a32.43 32.43 0 0 1 -6.291 18.407c-10.08-2.562-19.363-9.4-24.231-17.854-4.595-7.975-5.8-17.983-6.08-23.925a11.922 11.922 0 0 0 -.848 1.806 66.029 66.029 0 0 0 -3.163 12.56 48.745 48.745 0 0 0 4.892 12.555c5.653 9.814 16.375 17.738 27.98 20.68z" fill="#9aaccb"/><path d="m224.272 220.452s-7.539 3.4-7.114 16.144c.263 7.894-3.222 16.928-5.914 22.663a1.789 1.789 0 0 0 2.691 2.188c8.5-6.263 22.98-20.814 17.91-44.819z" fill="#474756"/><path d="m194.811 192.2s5.317 19.019 25.984 31.774a8.423 8.423 0 0 0 5.1 1.279 8.17 8.17 0 0 0 4.9-2.184 7.428 7.428 0 0 0 -.362-11.035c-5.467-4.755-14.425-14.227-18.414-27.9z" fill="#474756"/><path d="m66.074 246.95s.734 19.094 10.392 32.948a2.579 2.579 0 0 0 3.453.727 72.541 72.541 0 0 0 23.668-24.3 55.769 55.769 0 0 0 -37.513-9.375z" fill="#af765d"/><path d="m62.809 226.652a55.551 55.551 0 0 0 -1.577 20.053 2.579 2.579 0 0 0 2.32 2.29c3.556.321 11.4 1.137 20.5 2.758 0 0 11.652-5.249 5.077-22.489s-26.32-2.612-26.32-2.612z" fill="#ffc783"/><path d="m111.358 223.37-42.337-12.118a60.618 60.618 0 0 0 -6.209 15.4l12.182 4.876a14.21 14.21 0 0 1 8.882 13.538c-.041 1.991 0 4.237.172 6.686a170.007 170.007 0 0 1 19.539 4.575z" fill="#af765d"/><path d="m75.518 192.968a70.372 70.372 0 0 0 -11.544 16.557 2.573 2.573 0 0 0 1.109 3.448 249.29 249.29 0 0 1 22.634 13.2s14.649-3.226 10.905-18.894-23.104-14.311-23.104-14.311z" fill="#ffc783"/><path d="m87.717 226.179a109.278 109.278 0 0 1 15.6 12.2l16.613-19.292s-8.842-32.4-34.03-34.955a53.668 53.668 0 0 0 -10.38 8.838l13.28 11.469a10.17 10.17 0 0 1 2.432 12.37 43.458 43.458 0 0 0 -3.515 9.37z" fill="#af765d"/><path d="m102.62 160.6c-6.686 2.915-14.985 8.476-23.28 19.041a2.58 2.58 0 0 0 .3 3.518l23.8 21.227s22.791 3.355 21.33-15.212-22.15-28.574-22.15-28.574z" fill="#ffc783"/><path d="m102.621 160.128 12.852 26.41a9.709 9.709 0 0 1 -4.276 12.877 40.917 40.917 0 0 0 -7.738 5.239l16.767 14.952 22.617-1.363 7.084-10.082-32.7-51.229s-5.986-.562-14.606 3.196z" fill="#af765d"/><path d="m160.716 167.561-17.142-15.061c-8.338-2.5-19.283-3.162-33.171.8a2.572 2.572 0 0 0 -1.544 3.707l25.273 46.074s22.612 8.171 26.584-35.52z" fill="#ffc783"/><path d="m143.57 152.516a82.015 82.015 0 0 0 -.184 32.91 15.685 15.685 0 0 1 -1.424 10.805 15.188 15.188 0 0 1 -7.83 6.854l8.04 14.658s27.6 3.064 23.044-50.182c0 0-6.562-10.521-21.646-15.045z" fill="#af765d"/><path d="m225.505 166.029v-23.175c0-15.29-12.674-27.814-27.944-27.037q-.753.038-1.531.105a50.484 50.484 0 0 0 -17.706 4.7l-23.3 29.9a68.616 68.616 0 0 0 -1.865 17.044s-4.291 33.027 36.172 29.55c34.298-2.952 36.174-31.087 36.174-31.087z" fill="#ffc783"/><path d="m225.505 166.029v-23.175a27.223 27.223 0 0 0 -1.405-8.628c-9.843 9.269-10.884 23.374-10.621 31.01a18.141 18.141 0 0 1 -15.285 18.751q-.579.083-1.186.141c-14.576 1.393-18.008-10.11-18.008-10.11l-4.387 22.553a53.7 53.7 0 0 0 14.718.54c34.298-2.948 36.174-31.082 36.174-31.082z" fill="#af765d"/><path d="m221.217 157.424s-7.5 32.429 28.4 39.943a21.5 21.5 0 0 1 6.747 3.241 5.771 5.771 0 0 0 8.857-2.87c1.683-5.084 3.153-13.328 3.153-26.618 0-12.09-4.135-19.923-9.188-24.982-12.123-12.137-33.007-6.914-37.557 9.626q-.219.807-.412 1.66z" fill="#ffc783"/><g fill="#474756"><path d="m238.9 163.805a22.28 22.28 0 0 0 4.537 15.1 7.214 7.214 0 0 0 12.812-4.7c-.124-4.9-1.153-10.338-4.34-14.48a7.228 7.228 0 0 0 -13.009 4.08z"/><path d="m117.521 221.883s9.983 11.551 28.516 7.814c25.279-5.1 21.8-34.312 21.8-34.312l-5.125-11.257s-5.108 38.235-37.675 27.064c-4.773-1.638-9.569 2.141-8.574 7.088a21.741 21.741 0 0 0 1.058 3.603z"/><path d="m106.637 274.446s-4.863 7.921 2.043 15.969c8.128 9.472 10.607 20.593 8.914 34.018a1.786 1.786 0 0 0 3.044 1.486c7.41-7.666 20.559-27.853-8.837-55.942z"/><path d="m119.467 216.16a14.306 14.306 0 0 1 2.829 7.667 11.542 11.542 0 0 1 -1.508 6.456c-2.791 4.96-9.058 18.785-5.718 38.331a7.239 7.239 0 0 1 -3.395 7.462l-2.665 1.59a5.111 5.111 0 0 1 -7.522-2.92c-3.645-12.232-9.262-40.053 7.429-59.011a6.821 6.821 0 0 1 10.55.425z"/><path d="m167.466 232.983s-5.542 5.214 2.691 16.883a59.5 59.5 0 0 1 9.982 24.777 1.787 1.787 0 0 0 3.474.247c3.371-10.672 6.316-30.26-9.195-46.624z"/><path d="m166.109 172.931a102.552 102.552 0 0 0 -4.017 56.6 7.449 7.449 0 0 0 7.289 5.937 7.43 7.43 0 0 0 7.3-6.029c2.122-11.041 5.827-35.23 2.318-55.419-1.172-6.744-10.518-7.507-12.89-1.089z"/><path d="m282.174 219.628a3 3 0 0 1 -3-2.9c-.775-24.256-15.624-30.465-16.256-30.717a3 3 0 0 1 2.174-5.593c.782.3 19.171 7.705 20.078 36.119a3 3 0 0 1 -2.9 3.093c-.03-.002-.063-.002-.096-.002z"/><path d="m298.12 200.364a3 3 0 0 1 -2.827-2c-5.324-14.961-19.849-17.51-20-17.535a3 3 0 0 1 .973-5.92c.739.121 18.178 3.183 24.676 21.444a3 3 0 0 1 -2.826 4.007z"/></g><path d="m193.231 150.565 1.58-7.416-20.787-10.049-12.388 2.065a48.69 48.69 0 0 0 -6.6 15.359 204.891 204.891 0 0 0 24.084-1.065 40.733 40.733 0 0 1 5.914-.272c2.712.085 6.266.399 8.197 1.378z" fill="#af765d"/><path d="m39.971 71.067c11.1 27.326 43.5 72.362 136.394 71.431a20.35 20.35 0 0 1 13.965 5.4l2.9 2.668c4.332 3.983 11.493 1.159 11.7-4.722a22.7 22.7 0 0 0 -.966-7.08 10.857 10.857 0 0 0 -8.739-7.679l-.2-.032a20.14 20.14 0 0 1 -13.824-8.973c-12.854-19.8-51.062-66.7-126.816-71.19a14.684 14.684 0 0 0 -14.414 20.177z" fill="#dae5f7"/><path d="m162.012 115.516a123.554 123.554 0 0 0 -12.588-.015c-6.158-8.718-15.775-18.791-29.83-24.892-1.529-9.8-6.2-20.1-10.178-27.512q-4.266-1.743-8.8-3.3c3.515 5.823 9.851 17.324 12.4 28.355a68.629 68.629 0 0 0 -13.516-2.732 3 3 0 0 0 -3.284 3.341 3.1 3.1 0 0 0 2.964 2.644c29.316 1.73 45.91 27.3 50.3 35.541a3.2 3.2 0 0 1 -.244 3.486c-3.7 4.655-13.228 5.53-26.261-.757a66.07 66.07 0 0 1 -32.352-33.226 19.456 19.456 0 0 0 -12.145-10.7c-18.67-5.84-33.678-16.275-39.545-21.39a14.55 14.55 0 0 0 1.038 6.708q.573 1.412 1.227 2.886a112.263 112.263 0 0 0 36.758 18.378 8.518 8.518 0 0 1 5.812 5.618c2.835 8.922 10.171 24.544 33.4 35.962a56.56 56.56 0 0 0 14.892 5.024q1.833.341 3.713.653c3.958.6 8.773.787 12.463-.579l.323-.122a11.027 11.027 0 0 0 6.975-8.856 11.648 11.648 0 0 0 -1.512-7.263c-.256-.453-.526-.918-.8-1.39 2.436-.051 5.645-.058 8.563.135.067 0 .134.007.2.007a3 3 0 0 0 3-3.024 3.107 3.107 0 0 0 -2.973-2.98z" fill="#9aaccb"/></svg>