<svg id="Flat" height="512" viewBox="0 0 340 340" width="512" xmlns="http://www.w3.org/2000/svg"><path d="m33.759 37.218c8.317 5.814 20.132 19.1 12.669 45.306a34.773 34.773 0 0 0 .657 21.164c2.244 6.291 3.933 15.908 1.712 29.213l-9.358 8.387s-5.726-17.4-16.986-27.981a24.5 24.5 0 0 1 -7.808-20.618q.056-.466.13-.933a24.987 24.987 0 0 0 -.569-10.345c-2.706-10.273-6.383-31.372 5.013-42.916a11.285 11.285 0 0 1 14.54-1.277z" fill="#c9d38c"/><path d="m42.787 144.306a3.5 3.5 0 0 1 -3.014-1.715c-20.321-34.251-13.554-74.548-13.256-76.247a3.5 3.5 0 0 1 6.9 1.207c-.068.392-6.589 39.5 12.382 71.469a3.5 3.5 0 0 1 -3.007 5.286z" fill="#82936e"/><circle cx="150.515" cy="180.657" fill="#ef73a4" r="45.143"/><circle cx="213.957" cy="151.28" fill="#ce5289" r="45.143"/><path d="m306.9 118.183s23.228 2.392 12.22 30.7c0 0 8.1 17.547-4.493 32.312a23.722 23.722 0 0 0 -4.889 9.581c-1.664 6.559-6.31 17.038-19.234 21.346h-35.521z" fill="#3e6869"/><path d="m262.519 97.506c-7.175 1.084-18.973 6.022-23.181 26.209a21.143 21.143 0 0 1 -10.828 14.185c-4.532 2.453-9.491 7.395-11.859 17.331l-2.114 30.976 22.968 16.193 41.495-6.454 10.045-12.524a50.664 50.664 0 0 0 5.225-20.77s16.936-8.09 13.442-31.8a23.221 23.221 0 0 1 1.722-12.653c3.217-7.392 5.955-20.489-7.649-31.095-12.865-10.03-24-1.187-29.612 5.153a16.068 16.068 0 0 1 -9.654 5.249z" fill="#76a59d"/><path d="m201.779 215.62a3.5 3.5 0 0 1 -1.446-6.689c23.551-10.668 45.32-35.554 56.8-53.624a3.5 3.5 0 0 1 5.908 3.755c-4.345 6.835-27.646 41.67-59.825 56.245a3.473 3.473 0 0 1 -1.437.313z" fill="#3e6869"/><path d="m268.316 146.431a3.5 3.5 0 0 1 -3.112-5.1c.5-.979.765-1.527.778-1.553a3.5 3.5 0 0 1 6.318 3.022s-.292.614-.865 1.731a3.5 3.5 0 0 1 -3.119 1.9z" fill="#3e6869"/><path d="m289.036 183.419c-9.052 7.524-23.734 15.611-42.883 12.187-28.848-5.159-29.474-39.145-29.487-40.371a52.269 52.269 0 0 0 -1.292 8.923 22.781 22.781 0 0 1 -8.346 16.2c-5.639 4.608-12.846 9.964-17.3 11.266v23.57h63.892s24.415-9.482 35.416-31.775z" fill="#3e6869"/><path d="m29.965 229s6.128 39.3 18.689 69.889a23.916 23.916 0 0 0 22.154 14.751c18.28 4.183 37.775 3.753 58.145 0 30.618 5.962 62.608 5.517 95.684 0h53.644a23.916 23.916 0 0 0 22.154-14.751c12.565-30.595 18.689-69.889 18.689-69.889-94.424-4.367-190.903-4.164-289.159 0z" fill="#b7869a"/><g fill="#684f61"><path d="m224.637 313.637h22.923c8.215-29.326 12.563-65.123 14.609-86.709q-25.629-.689-51.445-.957c-.279 28.513-3.793 64.678-6.756 90.442q10.262-1.047 20.669-2.776z"/><path d="m31.852 239.466v.012c27.631 4.469 81.5 5.814 114.817 6.212a20.66 20.66 0 0 0 13.188 6.837c3.069.333 11.292.369 14.685.369s11.616-.036 14.685-.369a20.655 20.655 0 0 0 13.188-6.837c33.321-.4 87.186-1.743 114.818-6.212v-.012c1.164-5.961 1.786-9.832 1.875-10.391l.012-.078c-5.313-.246-280.83-.353-289.159 0l.012.078c.092.559.714 4.43 1.879 10.391z"/><path d="m102.063 316.559a173.43 173.43 0 0 0 26.89-2.922q8.149 1.587 16.429 2.566c-2.958-25.825-6.423-61.673-6.749-90.17q-25.908.3-51.994 1.006c2.155 22.527 6.742 59.718 15.424 89.52z"/><path d="m315.014 250.133c-37 7.763-62.821 5.465-63.114 5.437a3.31 3.31 0 0 0 -.508-.011l-31.148 1.557a3.66 3.66 0 0 0 -.6.082c-47.162 10.678-88.38 1.209-88.79 1.112a3.551 3.551 0 0 0 -.521-.082l-36.028-2.934a3.389 3.389 0 0 0 -.7.013 169.337 169.337 0 0 1 -59.164-3.552c.548 2.433 1.148 4.992 1.8 7.646a175.508 175.508 0 0 0 57.854 2.9l35.42 2.885c2.494.569 19.181 4.157 42.9 4.157a221.911 221.911 0 0 0 48.487-5.249l30.6-1.53c2.974.257 27.047 2.016 61.781-4.913.625-2.62 1.203-5.137 1.731-7.518z"/><path d="m309.588 271.811c-34.987 4.871-58.681 1.494-58.961 1.453a3.466 3.466 0 0 0 -1.037 0l-33.668 5.055-.119.02c-43.7 8.11-82.192.1-82.575.019-.05-.011-.1-.021-.151-.029l-34.193-5.747a3.481 3.481 0 0 0 -1.33.033c-22.479 4.933-44.964 2.8-57.6.8.709 2.468 1.457 4.96 2.243 7.455 13.407 1.9 34.537 3.358 56.188-1.269l33.456 5.623c1.65.348 18.633 3.8 42.7 3.8a234.218 234.218 0 0 0 42.479-3.785l33.107-4.971c3.764.5 25.528 3.033 57.286-1.078.763-2.478 1.487-4.943 2.175-7.379z"/><path d="m245.05 299.3c3.905.5 29.062 3.5 54.436 1.593.342-.651.665-1.316.949-2.006q1.072-2.613 2.082-5.3c-27.462 2.563-56.6-1.23-56.99-1.282a3.511 3.511 0 0 0 -.887 0l-31.108 3.8c-.082.011-.165.023-.246.039-38.518 7.523-77.09.078-77.475 0-.089-.018-.18-.032-.269-.043l-33.941-4a3.472 3.472 0 0 0 -1.105.046 147.891 147.891 0 0 1 -54.172.783c.75 2.014 1.527 4.006 2.33 5.962q.352.859.767 1.677a154.663 154.663 0 0 0 51.913-1.451l33.256 3.92a233.262 233.262 0 0 0 41.149 3.511 204.729 204.729 0 0 0 38.766-3.513z"/></g><path d="m65.667 51.1a13.333 13.333 0 0 1 19.263-2.77c4.359 3.39 8.813 9.233 10.042 19.2 2.6 21.115-.686 44.832 2.55 64.789l-11.109 3.192s-5.035-20.853-15.447-29.376c-6.833-5.594-6.566-15.863-5.576-22.261a23.623 23.623 0 0 0 -.99-11.043c-1.874-5.66-3.558-14.689 1.267-21.731z" fill="#82936e"/><path d="m70.966 144.181s3.471-13.305 16.486-16.2 27.188 4.484 33.548 29.719c0 0 8.966 34.492 10.412 52.425h-27.473z" fill="#c95240"/><path d="m111.17 210.127s-2.882-10.205-8.035-23.491a18.5 18.5 0 0 1 -2.517-6.278c-1.461-3.523-3.059-7.171-4.783-10.833a25.054 25.054 0 0 1 -3.336-6.766c-1.778-3.441-3.664-6.833-5.65-10.079a16.115 16.115 0 0 1 -5.111-7.675c-1.565-2.145-3.18-4.172-4.841-6.043-7.194-8.1-18.458-11.627-28.707-8.111a24.869 24.869 0 0 0 -11.841 8.569 27.986 27.986 0 0 0 -5.491 18.335c.256 5.826 1.68 13.623 6.556 20.556a284.172 284.172 0 0 0 26.321 31.816z" fill="#ff8c69"/><path d="m130.143 231.761-32.621 2.767s.221 3.871.782 10.035c10.813.4 21.543.671 31.409.862-.044-5.047.08-9.693.43-13.664z" fill="#684f61"/><path d="m184.752 25.418a6.4 6.4 0 0 0 -6.39-5.941h-7.635a6.4 6.4 0 0 0 -6.39 5.941c-1.463 20.442-6.009 84.689-4.758 137.234h29.931c1.251-52.545-3.296-116.792-4.758-137.234z" fill="#b7869a"/><path d="m196.394 190.011a12.268 12.268 0 0 0 -1.574-2.134c6.129-8.722-.236-14.852-.236-14.852 3.7-4.3 3.653-8.182 2.7-10.961a6.578 6.578 0 0 0 -6.255-4.362h-33.553a6.579 6.579 0 0 0 -6.255 4.362c-.952 2.779-1 6.658 2.7 10.961 0 0-6.365 6.13-.236 14.852a12.268 12.268 0 0 0 -1.574 2.134 11.4 11.4 0 0 0 9.889 17.152h24.515a11.4 11.4 0 0 0 9.879-17.152z" fill="#b7869a"/><path d="m219.375 245.425c9.866-.191 20.6-.467 31.41-.862.56-6.164.782-10.035.782-10.035l-32.621-2.767c.354 3.971.474 8.617.429 13.664z" fill="#684f61"/><path d="m317.974 204.385c-22.886.893-79.968 2.834-143.43 2.834s-120.544-1.941-143.43-2.834a10.218 10.218 0 0 0 -10.614 10.215v2.988a11.619 11.619 0 0 0 9.465 11.412c24.267 4.625 77.151 6.136 111.786 6.626a625.988 625.988 0 0 1 65.587 0c34.635-.49 87.518-2 111.786-6.626a11.618 11.618 0 0 0 9.465-11.406v-2.994a10.218 10.218 0 0 0 -10.615-10.215z" fill="#b7869a"/><path d="m207.567 234.007a72.851 72.851 0 0 0 -1.222-23.674 20.981 20.981 0 0 0 -1.059-3.26c-9.993.092-20.277.146-30.742.146s-20.749-.054-30.742-.146a21.16 21.16 0 0 0 -1.059 3.26 72.906 72.906 0 0 0 -1.222 23.674c.053.546.135 1.083.23 1.615 19.2.272 32.793.23 32.793.23s13.6.042 32.794-.23c.095-.532.176-1.069.229-1.615z" fill="#684f61"/><path d="m152.041 214.7a65.216 65.216 0 0 0 -.567 18.343 10.659 10.659 0 0 0 9.464 9.547c.611.067 1.628.122 2.919.167a50.82 50.82 0 0 1 7.385.132c2.14.015 4.385.015 6.528 0a22.22 22.22 0 0 1 7.622-.138c1.215-.044 2.173-.1 2.759-.162a10.657 10.657 0 0 0 9.463-9.547 64.908 64.908 0 0 0 -.62-18.629z" fill="#b7869a"/><path d="m159.579 162.652h29.931c.116-4.9.182-9.895.205-14.95h-30.342c.027 5.055.089 10.053.206 14.95z" fill="#684f61"/><path d="m162 217.163h24.515a21.429 21.429 0 0 0 10.481-2.754c-.121-.623-.248-1.22-.38-1.783a10.682 10.682 0 0 0 -10.4-8.248h-23.341a10.682 10.682 0 0 0 -10.4 8.248c-.152.647-.3 1.343-.432 2.069a21.4 21.4 0 0 0 9.957 2.468z" fill="#684f61"/><path d="m86.848 152.681c-1.637-2.675-3.342-5.25-5.111-7.675a35.065 35.065 0 0 0 -25.166 11.218 1.506 1.506 0 0 0 1.673 2.434c6.571-2.829 17.829-6.721 28.604-5.977z" fill="#c95240"/><path d="m73.077 174.678c5.5-2.306 14.16-5.2 22.756-5.152-1.064-2.26-2.176-4.524-3.334-6.767a31.427 31.427 0 0 0 -21.091 9.483 1.506 1.506 0 0 0 1.669 2.436z" fill="#c95240"/><path d="m100.617 180.358a32.387 32.387 0 0 0 -12.786 6.073 1.506 1.506 0 0 0 1.339 2.632 71.816 71.816 0 0 1 13.965-2.427c-.788-2.03-1.627-4.13-2.518-6.278z" fill="#c95240"/><path d="m168.641 214.589-7.056.045c-.643 7.758-.62 18.242 2.272 28.118 1.974.069 4.588.113 7.385.132-3.332-9.62-3.288-20.542-2.601-28.295z" fill="#684f61"/><path d="m177.77 242.885c2.9-.02 5.613-.066 7.622-.139 3.6-9.858 3.252-20.511 2.149-28.277l-7.085.045c1.189 7.678 1.701 18.886-2.686 28.371z" fill="#684f61"/><path d="m250.785 244.563c-1.572 17.279-5.81 52.6-15.323 71.375a8.459 8.459 0 0 1 -7.564 4.585h-5.411a8.524 8.524 0 0 1 -8.462-9.59c1.867-14.827 5.16-43.86 5.351-65.508 11.298-2.253 22.448-4.159 31.409-.862z" fill="#b7869a"/><path d="m98.3 244.563c1.571 17.279 5.81 52.6 15.322 71.375a8.46 8.46 0 0 0 7.564 4.585h5.414a8.526 8.526 0 0 0 8.463-9.59c-1.867-14.827-5.161-43.86-5.351-65.508-7.964-3.815-19.293-2.892-31.412-.862z" fill="#b7869a"/><path d="m128.283 320.348c-7.467-26.988-10.49-59.908-11.662-78.342a69.153 69.153 0 0 0 -7.027.261c1.128 18.261 4.064 50.651 11.47 78.247.042 0 .084.009.126.009h5.41a8.462 8.462 0 0 0 1.683-.175z" fill="#684f61"/><path d="m220.57 320.3a8.508 8.508 0 0 0 1.917.22h5.279c6.09-23.072 10.084-57.132 12.02-78.525a61.113 61.113 0 0 0 -7.081.418c-2.011 21.668-6.096 55.897-12.135 77.887z" fill="#684f61"/><path d="m196.394 190.011a12.268 12.268 0 0 0 -1.574-2.134c6.129-8.722-.236-14.852-.236-14.852 3.7-4.3 3.653-8.182 2.7-10.961a6.578 6.578 0 0 0 -6.255-4.362h-33.553a6.579 6.579 0 0 0 -6.255 4.362c-.952 2.779-1 6.658 2.7 10.961 0 0-6.365 6.13-.236 14.852a12.268 12.268 0 0 0 -1.574 2.134 11.4 11.4 0 0 0 9.889 17.152h24.515a11.4 11.4 0 0 0 9.879-17.152z" fill="#b7869a"/><path d="m173.5 178.871c-12.287 0-20.12-2.352-20.605-2.5a3.5 3.5 0 0 1 2.06-6.69c.266.08 16.606 4.882 38.873-.071a3.5 3.5 0 0 1 1.519 6.833 100.706 100.706 0 0 1 -21.847 2.428z" fill="#684f61"/><path d="m174.962 193.884a91.887 91.887 0 0 1 -22.2-2.63 3.5 3.5 0 0 1 1.842-6.753c.308.083 20 5.263 39.29 0a3.5 3.5 0 1 1 1.843 6.753 79.351 79.351 0 0 1 -20.775 2.63z" fill="#684f61"/></svg>