<svg id="Flat" height="512" viewBox="0 0 340 340" width="512" xmlns="http://www.w3.org/2000/svg"><path d="m158.616 43.791s-22.506 3.215-36.536-2.338c0 0-18.095-6.414-20.752 14.03v25.136z" fill="#404547"/><path d="m164 105.2c1.866 18.928 13.013 24.311 20.5 25.77a21.215 21.215 0 0 0 10.33-.618 39.489 39.489 0 0 1 11.88-1.819 13.821 13.821 0 0 0 4.91-.808 6.809 6.809 0 0 0 .7-12.426c-4.3-2.329-9.434-2.988-13.4-3.082a13.725 13.725 0 0 1 -11.758-7.277 53.887 53.887 0 0 1 -6.025-23.969c3.7-4.508 7.834-8.008 12.616-10.015 12 4.1 28.147-1.57 34.825-4.34a44.269 44.269 0 0 1 8.869-2.616c8.978-1.672 21.537-3.242 21.537-3.242 15.9-.815 19.975-11.007 19.975-11.007 3.058-6.115 1.529-10.6-.764-13.555a12.274 12.274 0 0 0 -12.524-4.258 24.446 24.446 0 0 0 -7.686 3.47 6.418 6.418 0 0 1 -5.3.856l-31.225-8.728a7.21 7.21 0 0 1 -4.7-4.075c-1.85-4.3-6.521-11.622-16.887-11.622 0 0-14.268-1.63-24.052 21.2 0 0-120.261 33.836-103.547 118.63 0 0-26.5 12.23-3.669 41.582 0 0-12.638 3.669-1.223 16.307 0 0 44.028 42.805 48.1 3.669 0 0 15.674 16.714 54.515 20.791 0 0 47.4 2.853 49.032 43.62 0 0-.012.484-.087 1.341a37.421 37.421 0 0 1 -40.982 33.842 122.839 122.839 0 0 1 -26.194-5.258 2.3 2.3 0 0 0 -2.279 3.891c8.113 7.167 23.525 16.733 48 16.733 0 0 56.325-2.778 51.379-65.395 0 0 3.359-10.162-4.969-16.952 0 0-1.631-11.007-12.23-14.268 0 0-2.854-12.638-13.861-15.492 0 0-5.707-12.23-17.937-11.822 0 0-2.97-2.178-6.426-5.154a10.009 10.009 0 0 1 -3.268-9.671c1.123-5.259 2.492-13.442 2.037-20.513-.426-6.622-9.894-7.463-11.44-1.01a21.028 21.028 0 0 0 -.471 2.936s1.223-25.292-13.86-29.368c0 0-12.23-3.669-15.492 9.784.878-17.762 4.63-33.532 13.051-46.062z" fill="#848987"/><g fill="#404547"><path d="m189.006 63a1.447 1.447 0 0 0 -2.755-.34 15.754 15.754 0 0 0 -.051 13.079 28.509 28.509 0 0 1 7.557-4.792 12.62 12.62 0 0 1 -4.751-7.947z"/><path d="m130.226 180.641c-7.823-6.38-14.08-15.919-18.6-28.352a67.58 67.58 0 0 1 -3.624-15.388 4 4 0 1 0 -7.948.907 75.529 75.529 0 0 0 4.053 17.212c5.016 13.809 12.1 24.515 21.059 31.821a4 4 0 1 0 5.056-6.2z"/><path d="m138.256 120.323a207.4 207.4 0 0 0 -29.526-3.258 65.109 65.109 0 0 1 7.7-20.811 4 4 0 0 0 -6.92-4.015 73.121 73.121 0 0 0 -8.9 24.727c-4.326.06-6.844.29-7.114.316a4 4 0 0 0 .763 7.963c.143-.014 11.937-1.074 29.978 1.062a88.335 88.335 0 0 0 5.243 31.35 4 4 0 0 0 7.563-2.607 81.236 81.236 0 0 1 -4.842-27.642q2.265.359 4.624.786a4 4 0 0 0 1.431-7.871z"/><path d="m135.69 81.037a16.4 16.4 0 0 0 -2.45-3.887 84.612 84.612 0 0 1 13.34-8.784 4 4 0 0 0 -3.526-7.181 92.731 92.731 0 0 0 -16.644 11.207 15.258 15.258 0 0 0 -3.417-.894 4.023 4.023 0 0 0 -4.431 3.544 3.978 3.978 0 0 0 3.522 4.4 8.581 8.581 0 0 1 6.893 6.5 4 4 0 0 0 3.856 2.939h.051a27.73 27.73 0 0 1 4.869.5 54.613 54.613 0 0 0 -9.716 16.827 4 4 0 1 0 7.5 2.778 46.53 46.53 0 0 1 10.087-16.423 9.658 9.658 0 0 1 3.666 5.317 4 4 0 1 0 7.736-2.036c-3.082-11.713-15.577-14.259-21.336-14.807z"/><path d="m166.691 72.643a4 4 0 0 0 -5.236-2.141 53.764 53.764 0 0 0 -7.831 4.347 4 4 0 1 0 4.381 6.693 47.276 47.276 0 0 1 6.552-3.666 4 4 0 0 0 2.134-5.233z"/><path d="m192.216 168.931c-.426-6.66-9.886-7.511-11.441-1.022a21.052 21.052 0 0 0 -.471 2.936s1.223-25.292-13.86-29.368c0 0-10.346-3.094-14.542 6.883l-.95 2.9s-1.266 23.716 23.463 39.4a12 12 0 0 0 6.93 1.754 13.758 13.758 0 0 1 9.6 3.417 10.007 10.007 0 0 1 -.77-6.414c1.125-5.26 2.493-13.426 2.041-20.486z"/><path d="m214.579 48.265a39.427 39.427 0 0 1 11.039 2.854l.808.327c5.381 2.183 12.077 4.9 17.618 6.034a95.745 95.745 0 0 0 19.065 2.12c1.153 0 2.275-.036 3.379-.092 8.793-2.64 11.876-8.47 12.388-9.571-7.919 3.317-19.278 3.581-33.429.686-4.909-1.005-11.544-3.7-16.389-5.662l-.811-.33a53.309 53.309 0 0 0 -6-2.037h-.01a29.547 29.547 0 0 0 -16.457 1.424 2.1 2.1 0 0 0 .926 4.039 33.083 33.083 0 0 1 7.873.208z"/><path d="m125.05 220.327c1-7.343.788-21.734-15.189-25.035a2.059 2.059 0 0 0 -1.8 3.544 24.248 24.248 0 0 1 7.42 14.39 47.3 47.3 0 0 0 9.569 7.101z"/><path d="m86.159 207.927a2.76 2.76 0 0 0 3.225-4.477c-4.732-3.617-23.675-18.942-29.565-36.637-1.459 6.491.053 15.21 8.785 26.437a134.1 134.1 0 0 0 17.555 14.677z"/></g><path d="m199.872 204.257c-2.9-11.647-14.282-12.067-17.79-11.911-4.814-15.372-21.825-11-21.825-11 7.927 12.173 17.88 12.3 21.056 11.987 3.287 9.783 18.559 10.924 18.559 10.924z" fill="#848987"/><path d="m153.608 204.268a7.837 7.837 0 0 1 2.731 3.767 3.931 3.931 0 0 0 4.329 2.565c.889-.114 5.465-.383 7.81 5.669a4.033 4.033 0 0 0 4.574 2.464c.25-.052 6.186-1.214 9.882 3.476a4 4 0 0 0 3.853 1.46c.062-.014 6.273-1.045 10.092 5.9a4.043 4.043 0 0 0 3.289 2.067c.353.022 8.674.6 11.246 7.728a4 4 0 0 0 2.37 2.391c.268.1 6.582 2.544 5.6 10.777a4.04 4.04 0 0 0 .318 2.1c.051.118 5.115 11.889-.095 24.088q-.387.908-.837 1.789a36.966 36.966 0 0 1 -11.091 21.983c9.324-5.48 15.815-12.423 19.337-20.754 5.607-13.259 1.784-25.678.414-29.319a17.809 17.809 0 0 0 -9.153-17.375c-3.729-8.039-11.6-10.419-15.475-11.115a17.883 17.883 0 0 0 -15.031-8.294 18.046 18.046 0 0 0 -13.159-5.046 15.392 15.392 0 0 0 -11.983-7.959 11.963 11.963 0 0 0 -5.136-4.445 12.754 12.754 0 0 0 -10.668-.573l-.128.054a1.544 1.544 0 0 0 .157 2.915 15.647 15.647 0 0 1 6.752 3.679z" fill="#404547"/><path d="m195.582 19.274 10.718 1.918a1.552 1.552 0 0 1 .945 2.5c-1.162 1.413-3.351 2.923-7.278 2.4-4.1-.547-5.6-2.95-6.143-4.827a1.56 1.56 0 0 1 1.758-1.991z" fill="#404547"/><circle cx="269.243" cy="42.047" fill="#404547" r="4"/></svg>