<svg id="Flat" height="512" viewBox="0 0 340 340" width="512" xmlns="http://www.w3.org/2000/svg"><path d="m72.3 151.2v127.166a17.361 17.361 0 0 1 -17.361 17.361h-1.139a14.613 14.613 0 0 1 -10.332-4.28 11.742 11.742 0 0 0 -17.818 1.423 11.76 11.76 0 0 0 1.269 15.242c.89.885 1.873 1.815 2.95 2.775a38.729 38.729 0 0 0 25.764 9.738 39.336 39.336 0 0 0 39.336-39.336v-95.173z" fill="#faa27d"/><path d="m72.3 192.386a85.79 85.79 0 0 0 9.209 12.79 16.236 16.236 0 0 1 4.049 10.665v64.764s2.98 28.369-26.348 30.432c0 0-13.543 0-21.634-8.57-3.7-3.914-10.08-2.741-13.585.834a11.792 11.792 0 0 0 2.928 4.812c.89.884 1.873 1.814 2.95 2.774a38.729 38.729 0 0 0 25.764 9.738 39.336 39.336 0 0 0 39.336-39.336v-95.173l-22.669-34.916z" fill="#ba6057"/><path d="m248.4 135.964s-5.435 24.3-5.14 44.422a24.9 24.9 0 0 0 2.3 10.2 72.113 72.113 0 0 0 9.872 15.134c.236.286.483.575.731.85 1.77 1.965 15.083 16.894 1.9 39.74l-19.946-7.767-26.73-60.77 4.341-31.756z" fill="#ba6057"/><path d="m313.009 326.755-9.085-24.229a22.2 22.2 0 0 0 -6.247-8.983l-15.408-13.36a25.406 25.406 0 0 1 -7.247-10.548l-6.7-18.5a14.821 14.821 0 0 0 -8.27-8.649l-31.261-12.932-7.291-2.979-28.428 32.76v67.419z" fill="#f7dadc"/><path d="m269.616 254.524-1.3-3.538a14.816 14.816 0 0 0 -2.19-3.949l-22.816 18.112a7.608 7.608 0 0 1 -9.727-.22l-25.841-22.5-14.668 16.9 20.305 67.419h41.631l-4.9-40.984z" fill="#9e8894"/><path d="m218.868 271.849c-1.071-3.375-2.263-6.71-3.62-9.98-1.657-3.994-3.238-7.171-5.92-9.654l-5.587-5.174-10.669 12.3 20.305 67.419h20.909z" fill="#7a697c"/><path d="m173.859 160.984 2.831 22.445a13.836 13.836 0 0 1 -.718 7.982c-2.481 6.161-7.508 21.588-10.38 42.347a14.138 14.138 0 0 0 1.692 8.86l10.316 18.332-24.666 5.887-20.461-26.908-2.8-80.724z" fill="#ba6057"/><path d="m195.538 250.348 10.017 9.276a11.974 11.974 0 0 1 3.812 7.978l4.01 55.542-58.254 3.611h-47.877s8.19-65.324 77.817-79.371a11.955 11.955 0 0 1 10.475 2.964z" fill="#9e8894"/><path d="m156.655 293.875 20.941-5.049s8.835-2.534 8.405-12.16l-39.922-12.831a91.2 91.2 0 0 0 -16.132 14.718c3.595 1.794 10.856 5.9 16.08 11.989a10.69 10.69 0 0 0 10.628 3.333z" fill="#756374"/><path d="m183.25 273.771a53.878 53.878 0 0 1 -8.336 15.7l-19.791 37.282h58.254l-4.01-59.153a11.953 11.953 0 0 0 -.439-2.468c-17.662-3.738-25.678 8.639-25.678 8.639z" fill="#f7dadc"/><path d="m221.5 226.576-10.943 12.61c4.71 3.715 24.119 17.349 34.769-.863l-10.848-6.416-5.687-2.352z" fill="#7a697c"/><path d="m186 276.666-3.663-1.178-7.424 13.985 2.682-.647s8.836-2.534 8.405-12.16z" fill="#756374"/><path d="m266.1 90.856-27.281-48.056-4.544 3.424a44.682 44.682 0 0 1 -20.575 8.55l-1.847.264a44.693 44.693 0 0 0 -23.7 11.136l-7.353 6.662a37.8 37.8 0 0 1 -10.217 7.781c-15.467 8.065-35.5 14.722-45 17.676a69.227 69.227 0 0 1 -8.321 2.057c-9.41 1.69-39.1 9.712-44.307 44.1-5.505 36.374 21.984 56.861 28.217 61a35.715 35.715 0 0 1 4.765 3.709c14.183 13.357 15.444 35.943 15.1 47.108a9.964 9.964 0 0 0 5.839 9.31 92.465 92.465 0 0 1 25.48 17.522 13.13 13.13 0 0 0 10.946 3.661 131.378 131.378 0 0 0 17.368-3.521 7.284 7.284 0 0 0 3.93-11.339c-6.466-8.709-18.638-5.878-18.638-5.878l-16.462-17.486a12.751 12.751 0 0 1 -3.151-11.795c3.865-15.506 4.423-33.383 4.424-42.393a17.426 17.426 0 0 0 -3.39-10.324l-7.773-10.57c15.686-1.458 36.008-7.2 54.35-8.5 2.43 11.658 3.867 26.438 4.6 35.842a27.623 27.623 0 0 0 6.285 15.433c5.917 7.166 11.917 16.166 11.917 16.166 5.067 6.835 13.018 9.241 18.607 10.069a10.5 10.5 0 0 0 11.884-12.022c-.011-.066-.022-.13-.033-.2a10.412 10.412 0 0 0 -3.485-6.027c-8.813-7.633-14.53-17.336-17.9-24.537a33.43 33.43 0 0 1 -3.082-15.233 243.028 243.028 0 0 1 2.7-31.564c13.506-5.86 20.966-12.116 20.966-12.116 6.514-4.035 15.069-16.533 15.069-16.533 5.717-15.442 4.612-33.376 4.612-33.376z" fill="#faa27d"/><path d="m190.13 120.758a1.459 1.459 0 0 0 -2.644-1.036c-7.779 11.379-5.873 31.477-5.873 31.477l1.738 14.915c3.578-.508 7.131-.917 10.612-1.165l-2.783-18.2c-1.488-9.609-2.11-18.502-1.05-25.991z" fill="#ba6057"/><path d="m235.289 48.672a2.379 2.379 0 0 1 -.262 3.614c-1.73 1.263-5.542 4.1-9.565 7.441a1.914 1.914 0 0 0 .338 3.173l6.564 3.422a46.77 46.77 0 0 0 -7.9 9.662 1.872 1.872 0 0 0 .968 2.752l8.41 2.961a28.391 28.391 0 0 1 11.426 8.542 71.112 71.112 0 0 0 6.1 7.2 29.533 29.533 0 0 0 11.2 7.194c.957.346 1.984.711 3.031 1.072a98.523 98.523 0 0 0 .5-14.852l-27.28-48.053-4.544 3.424c-.279.21-.572.4-.856.6z" fill="#ba6057"/><path d="m128.7 157.454a118.97 118.97 0 0 0 10.912 16c15.342 2.1 35.542-2.354 54.35-8.5l-2.783-18.2c-27.105 15.084-62.479 10.7-62.479 10.7z" fill="#f7e4fb"/><path d="m261.5 124.231a29.629 29.629 0 0 0 -.674-4.635 11.586 11.586 0 0 0 -20.562-4.273c-11.264 14.732-14.8 37.558-14.8 37.558 13.506-5.86 22.655-10.651 22.655-10.651 6.514-4.03 10.697-10.742 13.381-17.999z" fill="#f7e4fb"/><path d="m191.18 146.753a75.231 75.231 0 0 1 -9.568 4.439v.007l1.97 16.911c3.481-.978 6.954-2.04 10.38-3.161z" fill="#ceafc6"/><path d="m313.009 326.755-9.085-24.229a22.2 22.2 0 0 0 -6.247-8.983l-15.408-13.36a25.406 25.406 0 0 1 -7.247-10.548l16.85 57.12z" fill="#7a697c"/><path d="m302.85 14.636a85.433 85.433 0 0 0 -15.544 12.882l14.159 21.853a48.031 48.031 0 0 0 8.747-8.332 26.822 26.822 0 0 0 4.972-10.277 53.514 53.514 0 0 0 1.356-7.825 8.908 8.908 0 0 0 -6.489-9.357 8.9 8.9 0 0 0 -7.201 1.056z" fill="#faa27d"/><path d="m242.518 14.636a85.433 85.433 0 0 1 15.544 12.882l-13.815 21.323a38.373 38.373 0 0 1 -8.8-7.93c-.486-.611-1.658-1.766-1.658-1.766a27.375 27.375 0 0 1 -3.606-8.383 53.514 53.514 0 0 1 -1.356-7.825 8.908 8.908 0 0 1 6.49-9.357 8.9 8.9 0 0 1 7.201 1.056z" fill="#faa27d"/><path d="m306.054 37.014c2.111-3.417 3.6-7.254 2.809-10.65a3.377 3.377 0 0 0 -4.656-2.314 26.232 26.232 0 0 0 -5.049 3.366 23.909 23.909 0 0 0 -6.83-4.743c-1.628 1.454-3.312 3.055-5.022 4.845l11.558 17.839.173.266 2.428 3.748a48.031 48.031 0 0 0 8.747-8.332c.511-.642.981-1.313 1.424-2a9.171 9.171 0 0 1 -5.582-2.025z" fill="#ba6057"/><path d="m252.553 22.245a18.7 18.7 0 0 0 -6.438 5.094 25.947 25.947 0 0 0 -4.953-3.289 3.379 3.379 0 0 0 -4.657 2.314c-.838 3.586.871 7.665 3.169 11.22a7.722 7.722 0 0 1 -5.874 1.556c.425.651.873 1.288 1.359 1.9a48 48 0 0 0 8.747 8.332l14.158-21.853c-1.884-1.971-3.734-3.71-5.511-5.274z" fill="#ba6057"/><path d="m302.556 65.755 7.167-4.75a1.129 1.129 0 0 0 .229-1.689l-4.744-6.409s-.71-14.8-11.407-24.72a19.786 19.786 0 0 0 -13.466-5.219h-4.383a16.531 16.531 0 0 1 -6.536 0h-4.383a19.786 19.786 0 0 0 -13.466 5.219c-10.7 9.921-11.406 24.72-11.406 24.72l-4.938 6.431c-.453.516-.491 1.041.083 1.417l7.667 5c-4.819 3-8.024 6.03-9.175 7.721-.419.616-.113 1.118.592 1.362l5.416 1.25a25.427 25.427 0 0 1 7.315 4.417l10.435 8.333 5.25 3.784a11.37 11.37 0 0 0 4.309.466h5.569l5.872.167a11.488 11.488 0 0 0 4.25-.633l5.156-3.7 10.428-8.417a20.476 20.476 0 0 1 6.583-3.917l5.417-2.261a1.128 1.128 0 0 0 .564-1.7c-1.154-1.693-3.579-3.875-8.398-6.872z" fill="#faa27d"/><path d="m234.488 59.368a1.129 1.129 0 0 0 .229 1.689l6.951 4.557a28.327 28.327 0 0 0 -8.555 7.847 1.127 1.127 0 0 0 .564 1.7l5.834 2.027a22.768 22.768 0 0 1 7.046 3.967l10.561 8.745 5.232 3.316a13.617 13.617 0 0 0 4.686.831h11.3a13.6 13.6 0 0 0 4.616-.806l5.3-3.341 10.562-8.741a22.764 22.764 0 0 1 7.045-3.967l5.834-2.027a1.127 1.127 0 0 0 .564-1.7 28.327 28.327 0 0 0 -8.555-7.847l6.951-4.557a1.129 1.129 0 0 0 .23-1.689l-5.673-6.461a14.616 14.616 0 0 1 -9.462 14.021 18.859 18.859 0 0 1 -5.939 1.305c-.146.01-.289.018-.43.026a9.074 9.074 0 0 1 -7.965-3.916 10.385 10.385 0 0 0 -8.728-4.713 9.713 9.713 0 0 0 -8.307 4.448 9.334 9.334 0 0 1 -8.162 4.193c-.215-.011-.433-.023-.656-.038a18.856 18.856 0 0 1 -5.979-1.322 14.614 14.614 0 0 1 -9.419-14z" fill="#f7e4fb"/><path d="m287.962 90.079-8.937-8.879a10.632 10.632 0 0 1 -3.341-7.738v-4.571a3.194 3.194 0 0 0 -1.08-2.4h-3.858a2.988 2.988 0 0 0 -1.062 2.286v4.686a10.631 10.631 0 0 1 -3.34 7.738l-9.226 8.699 4.3 2.724 9.426-7.652a2.977 2.977 0 0 1 3.712-.033l9.619 7.531z" fill="#ceafc6"/><path d="m269.416 22.968 1.891 15.445a1.388 1.388 0 0 0 2.755 0l1.89-15.445z" fill="#ba6057"/><path d="m297.345 48.075a.473.473 0 0 0 .216-.867c-1.083-.71-2.266-1.36-2.266-1.36s-7.206-3.861-12.611 0a11.538 11.538 0 0 0 -4.889 9.779v2.5a.474.474 0 0 0 .806.339 11.608 11.608 0 0 1 1.529-1.31 1.2 1.2 0 0 1 1.018-.15 10.5 10.5 0 0 0 8.953-1.134 11.447 11.447 0 0 0 4.989-6.719 1.231 1.231 0 0 1 .994-.919c.457-.072.888-.123 1.261-.159z" fill="#3b3b59"/><path d="m265.977 69.007 4.881 5.4a2.462 2.462 0 0 0 3.652 0l4.881-5.4a2.46 2.46 0 0 0 -1.826-4.11h-9.765a2.461 2.461 0 0 0 -1.823 4.11z" fill="#f76795"/><path d="m281.548 53.862a1.067 1.067 0 0 1 -.613-1.076 6.526 6.526 0 0 1 2.747-4.774c2.33-1.664 5.252-.789 6.507-.281a1.069 1.069 0 0 1 .662 1.032 6.147 6.147 0 0 1 -2.977 4.917c-2.392 1.632-5.12.73-6.326.182z" fill="#f7e4fb"/><path d="m247.552 48.075a.473.473 0 0 1 -.216-.867c1.082-.71 2.266-1.36 2.266-1.36s7.206-3.861 12.61 0a11.537 11.537 0 0 1 4.89 9.779v2.5a.474.474 0 0 1 -.806.339 11.673 11.673 0 0 0 -1.529-1.31 1.2 1.2 0 0 0 -1.018-.15 10.505 10.505 0 0 1 -8.954-1.134 11.448 11.448 0 0 1 -4.988-6.719 1.231 1.231 0 0 0 -.995-.919c-.457-.072-.887-.123-1.26-.159z" fill="#3b3b59"/><path d="m263.275 53.808a1.047 1.047 0 0 0 .6-1.057 6.41 6.41 0 0 0 -2.7-4.688c-2.288-1.634-5.158-.775-6.39-.276a1.049 1.049 0 0 0 -.651 1.013 6.039 6.039 0 0 0 2.925 4.829c2.353 1.602 5.032.717 6.216.179z" fill="#f7e4fb"/></svg>