<svg id="fill" height="512" viewBox="0 0 340 340" width="512" xmlns="http://www.w3.org/2000/svg"><path d="m203.593 309.4a13.576 13.576 0 0 0 -13.052-9.839h-2.19a17.377 17.377 0 0 1 -15.436-9.4l-16.2-31.343-14.966 6.1 21.148 36.771c-4.163 1.215-11.683 4.291-16.233 11.418h58z" fill="#ffb345"/><path d="m274.154 309.4a13.577 13.577 0 0 0 -13.053-9.839h-2.19a17.378 17.378 0 0 1 -15.436-9.4l-16.2-31.343-14.965 6.1 21.147 36.771c-4.162 1.215-11.683 4.291-16.233 11.418h58z" fill="#f29040"/><path d="m179.213 250.78s6.847 15.976 27.679 19.373a36.74 36.74 0 0 0 34.083-12.193 34.234 34.234 0 0 0 7.835-29s-47.226 9.668-69.597 21.82z" fill="#ccc"/><path d="m314.939 95.28s3.435 15.8-7.611 22.262a18.465 18.465 0 0 0 -8.07 9.467c-2.331 6.312-7.694 14.645-19.866 15.769 0 0-9.806-22.37 7.967-51.482z" fill="#ea5e5e"/><path d="m299.269 80.786s14.444 3.462 23.331 15.107c0 0-9.528.515-17.016 4.613a33.9 33.9 0 0 1 -7.142 3.024c-5.265 1.466-13.44 2.635-19.05-1.815 0 0 7.272-17.344 19.877-20.929z" fill="#ffb345"/><path d="m299.269 80.786s10.13-12.164 6.6-26.075a23.507 23.507 0 0 0 -28.916-16.8 23 23 0 0 0 -3.427 1.26s-5.419-10.567-14.936-12.1a13.469 13.469 0 0 0 -12.518 4.5c-3.355 4.036-5.687 11.769 2.445 25.64z" fill="#ea5e5e"/><path d="m299.269 80.786s-40.573-75.5-110.42 14.38c0 0-84.034 29.3-137.84-22.04-9.572-9.132-25.459-2.2-25.357 11.033a121.292 121.292 0 0 0 2.959 24.874s-30.3 28.76 8.731 61.116c0 0-5.136 31.329 25.679 38 0 0 2.393 21.541 19.176 29.471a40.647 40.647 0 0 1 17.923 17.18c4.872 8.724 15.351 18.113 37.884 17.556 0 0 33.383.514 53.926-21.057 0 0 63.684 9.758 84.741-46.736 0 0 19.042-31.884 9.838-68.924a61.749 61.749 0 0 1 -.322-29.726c2.073-8.384 5.933-17.761 13.082-25.127z" fill="#f2f2f2"/><path d="m155.573 111.723a2.089 2.089 0 0 0 1.629 3.8c18.264-4.959 31.647-20.356 31.647-20.356a150.6 150.6 0 0 1 -18.351 4.7 74.339 74.339 0 0 1 -14.925 11.856z" fill="#ccc"/><path d="m267.514 80.973a4.029 4.029 0 0 1 -2.83-1.17 3.745 3.745 0 0 1 -.5-.61 4.213 4.213 0 0 1 -.369-.69 3.811 3.811 0 0 1 -.221-.75 3.387 3.387 0 0 1 -.08-.78 3.445 3.445 0 0 1 .08-.78 4.022 4.022 0 0 1 .221-.75 4.665 4.665 0 0 1 .369-.69 4.226 4.226 0 0 1 .5-.61 4 4 0 0 1 5.651 0 3.654 3.654 0 0 1 .5.61 3.823 3.823 0 0 1 .369.69 4.053 4.053 0 0 1 .23.75 4.129 4.129 0 0 1 .08.78 4.047 4.047 0 0 1 -.08.78 3.832 3.832 0 0 1 -.23.75 3.515 3.515 0 0 1 -.369.69 3.29 3.29 0 0 1 -.5.61 4.025 4.025 0 0 1 -2.821 1.17z"/><path d="m243.057 197.449a21.714 21.714 0 0 0 -8.223 6.028c-5.225 6.111-13.766 12.662-27.341 15.4a64.669 64.669 0 0 1 -39.134-4.526c-9.653-4.371-17.033-10.157-21.934-17.2a97.128 97.128 0 0 1 -5.052-8.64 154.973 154.973 0 0 0 21.689 1.468c3.979 0 7.806-.135 11.408-.356a1.055 1.055 0 0 0 .4-2 28.049 28.049 0 0 1 -4.73-2.824 14.632 14.632 0 0 0 -8.635-2.824c-27.059-.247-60.746-7.191-75.233-37.2a11.434 11.434 0 0 1 14.571-15.583c15.145 6.112 28.841 9.423 40.936 9.916a16.382 16.382 0 0 0 12.59-4.837c.351-.369.7-.763 1.03-1.183a1.6 1.6 0 0 0 -1.456-2.592c-16.73 2.615-36.027-3.074-49.776-8.591a19.789 19.789 0 0 0 -21.668 4.48 19.32 19.32 0 0 0 -3.431 21.868 67.443 67.443 0 0 0 4.693 8.217 23.582 23.582 0 0 1 4 13.771 78.842 78.842 0 0 0 .757 13.634v.011c0 .021.007.041.01.061.022.151.048.3.072.452a49.2 49.2 0 0 0 1.528 6.953c.015.05.027.1.042.15a39.521 39.521 0 0 0 15.1 21.2c12.333 8.845 28.824 10.951 41.733 10.951a121.929 121.929 0 0 0 19.239-1.515 73.119 73.119 0 0 0 28.858 5.962 70.774 70.774 0 0 0 13.975-1.383c24.655-4.97 35.131-20.774 39-29a1.4 1.4 0 0 0 -2.006-1.8 21.5 21.5 0 0 1 -3.012 1.532zm-133.137 8.739a32.023 32.023 0 0 1 -12.466-18.329c-.112-.6-1.959-10.717-.913-17.351a79.206 79.206 0 0 0 27.094 14.1 19.4 19.4 0 0 1 11.563 9.717 47 47 0 0 0 4.661 7.4 54.155 54.155 0 0 0 14.031 13.675c-12.24.719-31.156-.011-43.97-9.212z" fill="#ccc"/></svg>