<svg id="fill" height="512" viewBox="0 0 340 340" width="512" xmlns="http://www.w3.org/2000/svg"><path d="m260.914 190.359s-10.126 39.787-5.4 78.032a33.518 33.518 0 0 0 3.664 11.64c2.435 4.577 5.814 11.787 6.686 17.947h-29.519l-13.082-52.42 9.891-55.2z" fill="#8c4c4b"/><path d="m236.345 297.978h29.517c-.764-5.4-3.452-11.6-5.743-16.129h-27.8z" fill="#2b313f"/><path d="m116.358 199.1s-5.454 7.193-11.608 14.887a74.343 74.343 0 0 0 -15.564 55.684c1.39 11.253 7.4 20.245 8.364 28.31h-30.763l-6.759-50.331 11.266-49.288 23.658-11.547z" fill="#8c4c4b"/><path d="m66.787 297.978h30.763c-.587-4.928-3.059-10.2-5.211-16.129h-27.718z" fill="#2b313f"/><path d="m64.183 81.211s-33.035 2.381-39.634 39.662c-.216 1.223-.348 2.456-.443 3.694-.716 9.336-3.709 51.167-2.116 79.406a32.548 32.548 0 0 1 -2 13.365 75.682 75.682 0 0 1 -8.11 15.862 7.286 7.286 0 0 0 5.737 11.418c.323 0 .651 0 .985-.012a18.4 18.4 0 0 0 15.083-9.653 25.644 25.644 0 0 0 2.682-18.762 45.748 45.748 0 0 1 -1.33-10.111c-.082-11.649.73-36.558 8.568-49.008z" fill="#8c4c4b"/><path d="m234.96 61.721s-16.09-10.644-34.816-13.921a27.636 27.636 0 0 0 -18.7 3.472c-6.124 3.586-14.908 8.677-22.075 12.619a28.07 28.07 0 0 1 -17.469 3.181c-14.659-2.068-44-5.217-59.53-.04 0 0-30.33 8.637-41.107 48.025a92.639 92.639 0 0 0 -2.763 32.443c.992 11.457 3.15 29.883 7.446 43.01a66.905 66.905 0 0 1 3.441 18.382 80.116 80.116 0 0 1 -5.956 33.791 21.387 21.387 0 0 0 -1.047 13.083 169.771 169.771 0 0 1 4.026 26.082s4.387 6.215 15.2 6.215 13.262-6.215 13.262-6.215a69.957 69.957 0 0 0 -3.646-8.069 29.975 29.975 0 0 1 -3.53-15.04c.374-11.365 2.829-31.1 14.108-48.113a20.425 20.425 0 0 1 27.512-6.359 41.113 41.113 0 0 1 6.863 5.094 14.284 14.284 0 0 0 12.84 3.469 40.413 40.413 0 0 0 12.739-5.1 25.889 25.889 0 0 1 12.442-3.93c5.743-.325 13.863-.594 22.09-.243a31.835 31.835 0 0 1 24.14 12.7 57.076 57.076 0 0 1 11.518 29.56 195.851 195.851 0 0 1 -.506 36.03s5.279 6.214 15.443 6.214 14.415-6.215 14.415-6.215a47.583 47.583 0 0 0 -3.089-7.3 30.428 30.428 0 0 1 -3.63-15.783c.7-13.689 2.875-37.987 9.585-46.933a41.381 41.381 0 0 0 24.1-23.457 57.96 57.96 0 0 1 7.954-13.942c4.682-5.974 10.488-16.178 9.391-29.16v-38.587l-38.611-40.714z" fill="#bc695e"/><path d="m285.612 106.683-38.612-40.713-12.04-4.249a108.381 108.381 0 0 0 -20.733-10.1 27.519 27.519 0 0 0 18.962 33.026 47.307 47.307 0 0 0 15.942 34.257l.273.24a4.94 4.94 0 0 1 1.596 3.361l.421 5.706.466 6.3a27.811 27.811 0 0 0 27.624 25.659h4.379a38.068 38.068 0 0 0 1.724-14.9z" fill="#8c4c4b"/><path d="m304.831 60.618a63.963 63.963 0 0 0 -8.514-8.427 26.936 26.936 0 0 0 -37.217 2.731 71.026 71.026 0 0 0 -6.187 8.021s-10.319-15.95-22.713-17.113a41.28 41.28 0 0 0 -3.328 5.915 15.465 15.465 0 0 0 14.054 21.991 33.874 33.874 0 0 0 4.633-.333 105.924 105.924 0 0 0 -.378 10.6 35.263 35.263 0 0 0 11.893 25.911c.077.069.155.137.233.2a16.9 16.9 0 0 1 5.661 11.5l.422 5.706q22.224 13.594 44.45-.039l.626-8.962a17.271 17.271 0 0 1 1.679-6.29 78.28 78.28 0 0 0 3.119-7.421 35.023 35.023 0 0 0 1.629-16.808c-.624-4.307-1.7-9.673-3.476-13.626a31.871 31.871 0 0 0 3.643-.592c12.68-2.717 18.586-17.5 10.945-27.974a19 19 0 0 0 -3.353-3.59s-12.01 6.982-17.821 18.6z" fill="#bc695e"/><path d="m292.552 127.487a15.886 15.886 0 0 1 -12.917.321c-4.5-1.923-10.559-3.252-16.248-.481l.465 6.305a15.7 15.7 0 0 0 15.657 14.543h12.229a15.7 15.7 0 0 0 15.662-14.607l.438-6.28c-4.077-1.448-9.73-2.388-15.286.199z" fill="#2b313f"/><path d="m46.62 288.074a9.874 9.874 0 0 0 9.861 9.9h22.349a63.156 63.156 0 0 0 -3.956-16.13h-28.465c.133 2.09.211 4.176.211 6.23z" fill="#3d4554"/><path d="m210.864 286.883a9.86 9.86 0 0 0 9.785 11.1h23.516a57.1 57.1 0 0 0 -2.866-16.13h-29.861q-.25 2.469-.574 5.03z" fill="#3d4554"/><path d="m159.366 63.888a28.071 28.071 0 0 1 -17.466 3.184c-1.26-.177-2.635-.363-4.093-.551l-16.524 16.857a2.336 2.336 0 0 0 2.951 3.588z" fill="#8c4c4b"/><g fill="#2b313f"><path d="m36.367 216.193a48.576 48.576 0 0 1 -1.253-8.3 10.477 10.477 0 0 1 -1.933 2.086 5.758 5.758 0 0 0 -1.908 3.133l-1.4 5.824a.667.667 0 0 1 -1.3-.019l-2.285-10.847a.762.762 0 0 0 -1.481-.043l-.518 1.9a2.18 2.18 0 0 1 -2.719 1.521 31.517 31.517 0 0 1 -1.583 5.893 75.774 75.774 0 0 1 -8.06 15.8c-3.255 4.734-.106 11.372 5.639 11.485q.509.011 1.036-.011a18.4 18.4 0 0 0 15.083-9.653 25.644 25.644 0 0 0 2.682-18.769z"/><path d="m273.051 93.078a3.445 3.445 0 0 1 -.78-.08 3.811 3.811 0 0 1 -.75-.221 4.579 4.579 0 0 1 -.69-.37 4 4 0 0 1 -1.11-1.11 4.091 4.091 0 0 1 -.36-.689 3.875 3.875 0 0 1 -.23-.75 3.957 3.957 0 0 1 1.09-3.6 3.7 3.7 0 0 1 .61-.5 3.892 3.892 0 0 1 .69-.37 3.973 3.973 0 0 1 .75-.23 4.134 4.134 0 0 1 1.56 0 3.973 3.973 0 0 1 .75.23 3.892 3.892 0 0 1 .69.37 3.7 3.7 0 0 1 .61.5 3.957 3.957 0 0 1 1.09 3.6 3.875 3.875 0 0 1 -.23.75 4.091 4.091 0 0 1 -.36.689 4.17 4.17 0 0 1 -.5.61 4.831 4.831 0 0 1 -.61.5 4.579 4.579 0 0 1 -.69.37 3.811 3.811 0 0 1 -.75.221 3.445 3.445 0 0 1 -.78.08z"/><path d="m293.291 93.078a3.474 3.474 0 0 1 -.79-.08 4.257 4.257 0 0 1 -.75-.221 4.579 4.579 0 0 1 -.69-.37 4.081 4.081 0 0 1 -.6-.5 3.188 3.188 0 0 1 -.5-.61 3.511 3.511 0 0 1 -.37-.689 3.875 3.875 0 0 1 -.23-.75 4.074 4.074 0 0 1 1.1-3.61 4.083 4.083 0 0 1 .6-.491 3.892 3.892 0 0 1 .69-.37 4.478 4.478 0 0 1 .75-.23 4.06 4.06 0 0 1 3.61 1.091 4.109 4.109 0 0 1 .5.61 4.618 4.618 0 0 1 .37.689 5.025 5.025 0 0 1 .23.75 4.148 4.148 0 0 1 .08.781 4.047 4.047 0 0 1 -.08.78 4.722 4.722 0 0 1 -.23.75 4.133 4.133 0 0 1 -.37.689 3.613 3.613 0 0 1 -.5.61 3.982 3.982 0 0 1 -2.82 1.171z"/></g></svg>