<svg id="fill" height="512" viewBox="0 0 340 340" width="512" xmlns="http://www.w3.org/2000/svg"><path d="m34.363 270.068s1.49 19.548-21.569 18.071a25.254 25.254 0 0 0 5.571 5.357c16.31 11.73 38.212-4.486 31.971-23.583q-.084-.258-.174-.517z" fill="#e27994"/><path d="m66.107 278.941s-17.807 4.508-32.186-2.347c-20.146-9.605-15.736-39.854 6.266-43.606a58.958 58.958 0 0 1 17.927.056z" fill="#ffaec1"/><path d="m50.241 268.2a24.476 24.476 0 0 1 -8.775-1.591 11.775 11.775 0 0 1 -5.259-18.009 4 4 0 0 1 6.372 4.837 3.663 3.663 0 0 0 -.547 3.209 3.724 3.724 0 0 0 2.294 2.5 17.887 17.887 0 0 0 11.784.11 4 4 0 0 1 3.007 7.413 25.322 25.322 0 0 1 -8.876 1.531z" fill="#e27994"/><path d="m255.753 182.917v106.6l-24.152 26.245h-11.729v-101.492z" fill="#e27994"/><path d="m255.753 289.517s-27-1.9-32.538 26.245h41.016a9.017 9.017 0 0 0 8.286-12.6 23.825 23.825 0 0 0 -16.764-13.645z" fill="#e27994"/><path d="m316.924 32.308c-10.786-.508-25.092 2.666-35.647 19.176 0 0-26.716-17.206-50.426 1.978 0 0-9.537-21.458-33.7-28.752a10.86 10.86 0 0 0 -14.016 10.957 45.131 45.131 0 0 1 -.24 8.4s-2.471 18.292 2.967 26.2c0 0-105.606 38.751-129.093 143.916-5.161 23.108-2.576 47.417 8.514 68.336q.483.909.989 1.818a62 62 0 0 0 54.238 31.422h113.76a8.8 8.8 0 0 0 7.8-12.948 23.4 23.4 0 0 0 -9.238-9.582v-67.729s29.168-21.749 28.668-64.265c0 0 19.912-3.83 36.622-17.359 13.532-10.955 20.887-28.035 18.508-45.282-1.043-7.56-3.963-15.346-10.637-20.908 0 0 20.764-6.427 20.269-26.2a39.434 39.434 0 0 1 .723-6.07 10.89 10.89 0 0 0 -10.061-13.108z" fill="#ffaec1"/><ellipse cx="277.472" cy="111.24" fill="#e27994" rx="20.865" ry="16.334"/><path d="m272.65 115.612a4.031 4.031 0 0 1 -2.83-1.18 4.081 4.081 0 0 1 -.5-.6 4.241 4.241 0 0 1 -.37-.7 4.87 4.87 0 0 1 -.23-.74 4.114 4.114 0 0 1 -.07-.78 3.987 3.987 0 0 1 1.17-2.83 3.694 3.694 0 0 1 .61-.5 4.143 4.143 0 0 1 .69-.37 4.659 4.659 0 0 1 .75-.23 4 4 0 0 1 4.78 3.93 4.129 4.129 0 0 1 -.08.78 3.956 3.956 0 0 1 -.23.74 3.6 3.6 0 0 1 -.37.7 4.013 4.013 0 0 1 -.49.6 4.161 4.161 0 0 1 -.61.5 4.579 4.579 0 0 1 -.69.37 4.053 4.053 0 0 1 -.75.23 4.129 4.129 0 0 1 -.78.08z" fill="#bf4f6f"/><path d="m284.65 115.6a4.042 4.042 0 0 1 -.78-.07 4.659 4.659 0 0 1 -.75-.23 4.143 4.143 0 0 1 -.69-.37 3.694 3.694 0 0 1 -.61-.5 4 4 0 0 1 0-5.65 3.694 3.694 0 0 1 .61-.5 3.519 3.519 0 0 1 .69-.37 4.659 4.659 0 0 1 .75-.23 4.093 4.093 0 0 1 1.56 0 4.99 4.99 0 0 1 .75.23 3.828 3.828 0 0 1 .69.37 4.161 4.161 0 0 1 .61.5 4 4 0 0 1 0 5.65 4.161 4.161 0 0 1 -.61.5 4.579 4.579 0 0 1 -.69.37 4.99 4.99 0 0 1 -.75.23 4.114 4.114 0 0 1 -.78.07z" fill="#bf4f6f"/><path d="m260.65 79.612a4.012 4.012 0 0 1 -4-4 3.474 3.474 0 0 1 .08-.79 3.922 3.922 0 0 1 .22-.74 4.241 4.241 0 0 1 .37-.7 4.081 4.081 0 0 1 .5-.6 3.251 3.251 0 0 1 .61-.5 3.519 3.519 0 0 1 .69-.37 4.659 4.659 0 0 1 .75-.23 4.016 4.016 0 0 1 3.6 1.1 3.54 3.54 0 0 1 .5.6 3.6 3.6 0 0 1 .37.7 3.956 3.956 0 0 1 .23.74 3.891 3.891 0 0 1 0 1.57 3.956 3.956 0 0 1 -.23.74 3.6 3.6 0 0 1 -.37.7 3.54 3.54 0 0 1 -.5.6 3.99 3.99 0 0 1 -2.82 1.18z" fill="#2b313f"/><path d="m278.65 79.612a4.005 4.005 0 1 1 2.82-6.83 3.54 3.54 0 0 1 .5.6 3.6 3.6 0 0 1 .37.7 3.956 3.956 0 0 1 .23.74 4.129 4.129 0 0 1 .08.78 4.029 4.029 0 0 1 -4 4.01z" fill="#2b313f"/><g fill="#e27994"><path d="m248.641 150.441c-.086 0-.174 0-.261-.009-15.836-1.021-27.592-6.356-34.941-15.856-11.122-14.375-7.748-32.81-7.6-33.587a4 4 0 0 1 7.859 1.5c-.03.16-2.814 15.774 6.108 27.248 5.888 7.571 15.675 11.85 29.088 12.715a4 4 0 0 1 -.254 7.992z"/><path d="m203.523 245.416a22.51 22.51 0 0 0 -7.866-15.449 30.711 30.711 0 0 1 -10.894-23.467 4 4 0 0 0 -7.986-.476 38.817 38.817 0 0 0 13.688 30.03 14.849 14.849 0 0 1 5.083 10c.836 8.654 1.753 21.845 2.334 35.486-11.436 4.093-17.3-.657-18.76-2.129-2.619-28.792-16.912-45.929-29.293-55.528a81.7 81.7 0 0 0 -31.263-15.052 4 4 0 1 0 -1.534 7.851 74.365 74.365 0 0 1 27.895 13.518c18.4 14.269 27.343 35.054 26.576 61.778a4 4 0 0 0 3.883 4.114h.117a4 4 0 0 0 4-3.885c.036-1.27.047-2.517.041-3.749 5.735 2.668 10.389 2.127 15.868 1.681a16.547 16.547 0 0 0 2.775-.469c.293 9.293.394 18.42.169 26.092h7.939c.145-22.213-1.607-55.677-2.772-70.346z"/><path d="m236.017 315.573a16.471 16.471 0 0 0 -6.008-12.388 4 4 0 1 0 -5.168 6.106 10.946 10.946 0 0 1 3.255 6.471h6.175a8.893 8.893 0 0 0 1.746-.189z"/><path d="m200.139 76.163c-7.978-.333-14.276-5.893-14.276-5.893s-2.429.894-6.611 2.762c9.244 7.226 16.687 6.774 21.2 5.215a1.072 1.072 0 0 0 -.313-2.084z"/><path d="m199.433 39.609c5.224 1.834 13.634 6.972 16.877 21.28a7.716 7.716 0 0 1 -2.162 7.3 18.8 18.8 0 0 1 -2.454 1.961 7.687 7.687 0 0 1 -5.571 1.251c-3.211-.54-7.958-2.376-9.556-8.4a14.1 14.1 0 0 1 1.56-10.211 9.573 9.573 0 0 0 1.513-4.484 11.014 11.014 0 0 0 -1.744-6.776 1.3 1.3 0 0 1 1.537-1.921z"/><path d="m314.333 40.348c-5.343.418-14.486 3.135-21.075 15.713a7.467 7.467 0 0 0 .208 7.368 18.082 18.082 0 0 0 1.809 2.444 7.439 7.439 0 0 0 4.9 2.555c3.137.292 8.034-.245 11.027-5.485a13.639 13.639 0 0 0 1.077-9.943 9.265 9.265 0 0 1 -.3-4.57 10.666 10.666 0 0 1 3.315-5.906 1.26 1.26 0 0 0 -.961-2.176z"/></g></svg>