<svg id="fill" height="512" viewBox="0 0 340 340" width="512" xmlns="http://www.w3.org/2000/svg"><g fill="#ffd98d"><path d="m108.931 102.067s13.391-14.067 42.369-17.931c0 0-7.126 41.517-50.251 37.824z"/><path d="m101.05 121.96s-.247-.023-.692-.088a24.472 24.472 0 0 1 -20.894-24.915 69.11 69.11 0 0 1 6.936-27.878s29.612 14.544 16.133 50.461z"/><path d="m139.427 22.742s-45.592 21.627-30.5 79.325c.004 0 51.242-27.785 30.5-79.325z"/><path d="m93.935 154.606s38 18.287 57.366-36.888c0 0-44.471-10.9-54.506 24.987z"/><path d="m83.684 228.064s7.067-37.673 60.686-37.351c0 0-7.324 61.5-60.569 43.791z"/><path d="m89.491 263.335s6.345-34.82 54.879-31.831c0 0 2.928 45.222-53.876 35.924z"/><path d="m89.669 180.016s8.5-35.669 61.632-20.857c0 0-19.206 46.224-63.43 32.8z"/><path d="m36.982 185.983s40.348-1.557 46.818 39.477l-1.259 26.779s-38.814-23.086-45.559-66.256z"/><path d="m36.982 230.4s34.763-6.932 44.151 27.742l1.409 23.578a16.382 16.382 0 0 0 -1.908-5.589 19.47 19.47 0 0 0 -15.5-9.981c-8.834-.832-23.991-4.958-28.152-35.75z"/><path d="m87.68 193.3s-.29.095-.823.238a30.079 30.079 0 0 1 -35.72-17.929 84.938 84.938 0 0 1 -5.761-34.837s40.5 1.977 42.8 49.074z"/><path d="m92.949 157.774s-.287.045-.809.1a28.606 28.606 0 0 1 -30.829-22.229 80.769 80.769 0 0 1 -.146-33.577s37.727 7.974 32.77 52.539z"/></g><path d="m154.8 118.888a4.244 4.244 0 0 0 .241-1.994 4.008 4.008 0 0 0 -3.015-3.35 66.035 66.035 0 0 0 -9.542-1.419c10.99-11.839 12.5-27.134 12.573-27.922a4.01 4.01 0 0 0 -2.481-4.069 4.181 4.181 0 0 0 -2.155-.237 101.644 101.644 0 0 0 -14.892 3.143c9.716-13.114 18.56-34.3 7.381-62.081a4 4 0 0 0 -5.426-2.121 67.556 67.556 0 0 0 -35.78 58.332 44.73 44.73 0 0 0 -12.233-11.119 4 4 0 0 0 -5.033.768c-.341.383-8.372 9.587-9.2 29.667a28 28 0 0 0 .739 7.647 49.257 49.257 0 0 0 -14.215-6.269 4 4 0 0 0 -4.748 3.124 84.539 84.539 0 0 0 .163 35.236 33.03 33.03 0 0 0 .887 3.19 49.705 49.705 0 0 0 -12.723-2.926 4.053 4.053 0 0 0 -2.9 1.045 4.006 4.006 0 0 0 -1.3 2.794 88.7 88.7 0 0 0 6.053 36.473 34.207 34.207 0 0 0 3.534 6.634 54.337 54.337 0 0 0 -14.128-1.734 4 4 0 0 0 -3.824 4.418c1.76 16.627 6.243 29.338 14.371 39.9a66.526 66.526 0 0 0 -9.967-1.455 4.048 4.048 0 0 0 -3.03 1.168 4 4 0 0 0 -1.165 3.032c.019.36.474 8.876 2.473 14.549 5.838 16.561 15.35 25.241 29.087 26.535.292.026.582.062.864.1a13.454 13.454 0 0 1 11.147 11.329c.145 11.754.7 22.13 1.2 29.334a11.742 11.742 0 0 0 23.205 1.611 12.543 12.543 0 0 0 .2-3.587 251.6 251.6 0 0 0 -3.573-26.419 8.374 8.374 0 0 1 8.379-9.865h.109q1.774 0 3.609-.133c40.462-2.956 38.477-40.881 38.452-41.264a4 4 0 0 0 -3.746-3.733 91.083 91.083 0 0 0 -11.058-.035c13.161-14.6 14.736-35.483 14.8-36.5a4 4 0 0 0 -3.966-4.268h-.7c-3.069 0-5.983.13-8.764.361a73.94 73.94 0 0 0 17.417-21.1c.576-1.032 1.7-3.515 1.924-4a4 4 0 0 0 -1.421-4.971c-4.356-2.915-13.235-4.459-14.233-4.625l-.1-.016q-2.082-.292-4.058-.475c8.504-7.091 15.397-18.013 20.568-32.703zm-37.67 33.076a3.962 3.962 0 0 0 -.817.348c-8.715 1.717-10.265 1.427-18.083 1.427 1.168-6.167.873-4.393 2.275-10.525 4.892-17.01 18.588-22.124 30.366-23.181a3.8 3.8 0 0 0 1.491-.114 66.042 66.042 0 0 1 13.3.574c-6.924 17.373-16.507 27.952-28.53 31.471zm15.953-42.019a12.3 12.3 0 0 1 -6.033 2.557h-.03a44.1 44.1 0 0 0 -20.576 8.035q.2-.66.4-1.315c5.167-16.803 19.956-29.122 37.494-30.422q.851-.061 1.723-.1c-1.492 5.69-5.018 14.808-12.976 21.245zm3.99-81.677c6.032 18.243 3.227 35.225-8.364 50.539a78.832 78.832 0 0 1 -17.39 16.559c-8.264-40.823 15.966-60.834 25.756-67.098zm-48.542 46.8c6.575 5.009 16.945 16.472 11.953 36.6l-2.161 5.455a20.218 20.218 0 0 1 -15.09-20.305c.455-11.032 3.331-18.125 5.3-21.751zm-23.541 59.418a75.624 75.624 0 0 1 -.89-27.555c8.887 3.353 29.068 14.567 25.675 46.567l-.072.229a24.463 24.463 0 0 1 -15.261-4.775q-1.107-.968-2.235-1.84a24.52 24.52 0 0 1 -7.217-12.626zm1.282 18.027a32.765 32.765 0 0 0 3.851 3.208c6.958 6.576 12.873 16.984 13.8 33.471-.03.2-.059.4-.087.6a26.04 26.04 0 0 1 -29.206-15.952 79.784 79.784 0 0 1 -5.544-28.79 43.974 43.974 0 0 1 17.186 7.463zm-24.956 37.409c7.207.746 21.6 3.814 30.658 16.278.027.036 1.142 1.569 2.543 3.986a34.653 34.653 0 0 1 4.492 20.533c-.409 4.473-.624 7.317-.677 8.038q-.244 2.214-.45 4.453a41.865 41.865 0 0 0 -10.015-8.918 54.585 54.585 0 0 1 -7.31-5.5c-10.92-10.003-16.757-21.846-19.241-38.87zm25.248 72.109c-.426-.061-.854-.113-1.276-.152-6.572-.619-16.031-3.493-22.283-21.229a39.325 39.325 0 0 1 -1.581-7.547c5.271.841 14.136 2.905 21.837 7.825a29.33 29.33 0 0 1 13.358 25.428v.08a20.831 20.831 0 0 0 -10.055-4.405zm73.53-26.981c-.6 8.128-4.8 27.276-30.993 29.19a34.533 34.533 0 0 1 -11.216-.873 16.013 16.013 0 0 1 -4.153-1.614c2.105-6.712 11.453-27.392 46.362-26.703zm-18.249-8.238c-8.871 6.333-20.583 7.79-34.827 4.372.061-.653.126-1.333.195-2.054a4.033 4.033 0 0 0 .177-.618c.062-.333 6.593-32.288 52.182-34.017-1.326 7.655-5.472 23.571-17.727 32.317zm23.2-64.86c-6.066 10.786-22.923 33.918-52.907 26.79q.3-2.07.627-4.18a27.906 27.906 0 0 1 7.3-15.149q.4-.419.832-.833c8.239-7.923 20.431-10.818 36.238-8.6a57.464 57.464 0 0 1 7.91 1.972z" fill="#f4b271"/><path d="m261.1 102.067s13.389-14.067 42.368-17.931c0 0-7.127 41.517-50.251 37.824z" fill="#ffd98d"/><path d="m253.217 121.96s-.247-.023-.692-.088a24.471 24.471 0 0 1 -20.894-24.915 69.11 69.11 0 0 1 6.936-27.878s29.612 14.544 16.133 50.461z" fill="#ffd98d"/><path d="m291.594 22.742s-45.594 21.627-30.494 79.325c0 0 51.235-27.785 30.494-79.325z" fill="#ffd98d"/><path d="m246.1 154.606s38 18.287 57.366-36.888c0 0-44.471-10.9-54.506 24.987z" fill="#ffd98d"/><path d="m235.851 228.064s7.067-37.673 60.686-37.351c0 0-7.325 61.5-60.569 43.791z" fill="#ffd98d"/><path d="m241.658 263.335s6.342-34.82 54.879-31.835c0 0 2.928 45.222-53.876 35.924z" fill="#ffd98d"/><path d="m241.836 180.016s8.5-35.669 61.632-20.857c0 0-19.206 46.224-63.43 32.8z" fill="#ffd98d"/><path d="m189.149 185.983s40.348-1.557 46.819 39.477l-1.259 26.779s-38.815-23.086-45.56-66.256z" fill="#ffd98d"/><path d="m189.149 230.4s34.763-6.932 44.151 27.742l1.409 23.578a16.382 16.382 0 0 0 -1.908-5.589 19.47 19.47 0 0 0 -15.495-9.981c-8.842-.832-23.996-4.958-28.157-35.75z" fill="#ffd98d"/><path d="m239.847 193.3s-.29.095-.823.238a30.079 30.079 0 0 1 -35.724-17.928 84.921 84.921 0 0 1 -5.761-34.837s40.5 1.977 42.8 49.074z" fill="#ffd98d"/><path d="m245.116 157.774s-.287.045-.81.1a28.605 28.605 0 0 1 -30.828-22.229 80.769 80.769 0 0 1 -.146-33.577s37.727 7.974 32.77 52.539z" fill="#ffd98d"/><path d="m306.969 118.888a4.243 4.243 0 0 0 .24-1.994 4.005 4.005 0 0 0 -3.015-3.35 65.975 65.975 0 0 0 -9.541-1.419c10.99-11.839 12.5-27.134 12.573-27.922a4.011 4.011 0 0 0 -2.481-4.069 4.183 4.183 0 0 0 -2.155-.237 101.685 101.685 0 0 0 -14.89 3.143c9.717-13.114 18.561-34.3 7.382-62.081a4 4 0 0 0 -5.426-2.121 67.556 67.556 0 0 0 -35.78 58.332 44.73 44.73 0 0 0 -12.235-11.119 4 4 0 0 0 -5.033.768c-.341.383-8.372 9.587-9.2 29.667a28 28 0 0 0 .739 7.647 49.257 49.257 0 0 0 -14.215-6.269 4 4 0 0 0 -4.748 3.124 84.539 84.539 0 0 0 .163 35.236 32.745 32.745 0 0 0 .887 3.19 49.714 49.714 0 0 0 -12.723-2.926 4.053 4.053 0 0 0 -2.9 1.045 4.006 4.006 0 0 0 -1.3 2.794 88.7 88.7 0 0 0 6.041 36.471 34.207 34.207 0 0 0 3.534 6.634 54.34 54.34 0 0 0 -14.126-1.736 4 4 0 0 0 -3.824 4.418c1.76 16.627 6.243 29.338 14.371 39.9a66.526 66.526 0 0 0 -9.967-1.455 4.048 4.048 0 0 0 -3.03 1.168 4 4 0 0 0 -1.165 3.032c.018.36.473 8.876 2.473 14.549 5.838 16.561 15.35 25.241 29.086 26.535.292.026.582.062.865.1a13.454 13.454 0 0 1 11.147 11.329c.145 11.754.7 22.13 1.2 29.334a11.742 11.742 0 0 0 23.2 1.611 12.507 12.507 0 0 0 .2-3.587 251.6 251.6 0 0 0 -3.572-26.419 8.374 8.374 0 0 1 8.379-9.865h.109q1.774 0 3.609-.133c40.462-2.956 38.477-40.881 38.452-41.264a4 4 0 0 0 -3.746-3.733 91.083 91.083 0 0 0 -11.058-.035c13.16-14.6 14.735-35.483 14.8-36.5a4 4 0 0 0 -3.967-4.268h-.694c-3.07 0-5.983.13-8.764.361a73.94 73.94 0 0 0 17.417-21.1c.576-1.032 1.7-3.515 1.924-4a4 4 0 0 0 -1.421-4.971c-4.357-2.915-13.235-4.459-14.233-4.625l-.1-.016q-2.082-.292-4.059-.475c8.508-7.087 15.408-18.009 20.577-32.699zm-37.669 33.076a3.962 3.962 0 0 0 -.817.348c-8.715 1.717-10.265 1.427-18.083 1.427 1.168-6.167.873-4.393 2.275-10.525 4.892-17.01 18.588-22.124 30.365-23.181a4.045 4.045 0 0 0 .44.028 3.972 3.972 0 0 0 1.051-.142 66.049 66.049 0 0 1 13.3.574c-6.931 17.373-16.509 27.952-28.531 31.471zm15.953-42.019a12.3 12.3 0 0 1 -6.034 2.557h-.029a44.1 44.1 0 0 0 -20.576 8.035q.2-.66.4-1.315c5.164-16.803 19.956-29.122 37.491-30.422q.851-.061 1.723-.1c-1.492 5.69-5.018 14.808-12.976 21.245zm3.99-81.677c6.032 18.243 3.227 35.225-8.365 50.539a78.831 78.831 0 0 1 -17.389 16.559c-8.267-40.823 15.963-60.834 25.753-67.098zm-48.543 46.799c6.575 5.009 16.945 16.472 11.953 36.6l-2.162 5.455a20.218 20.218 0 0 1 -15.091-20.308c.455-11.028 3.331-18.121 5.3-21.747zm-23.543 59.419a75.624 75.624 0 0 1 -.89-27.555c8.887 3.353 29.068 14.567 25.674 46.567l-.071.229a24.461 24.461 0 0 1 -15.261-4.775q-1.107-.968-2.235-1.84a24.52 24.52 0 0 1 -7.217-12.626zm1.282 18.027a32.765 32.765 0 0 0 3.851 3.208c6.958 6.576 12.873 16.984 13.8 33.471-.029.2-.058.4-.087.6a26.039 26.039 0 0 1 -29.203-15.949 79.784 79.784 0 0 1 -5.544-28.79 43.974 43.974 0 0 1 17.183 7.46zm-24.956 37.409c7.207.746 21.6 3.814 30.658 16.278.027.036 1.142 1.569 2.543 3.986a34.653 34.653 0 0 1 4.492 20.533c-.409 4.473-.624 7.317-.677 8.038q-.244 2.214-.45 4.453a41.865 41.865 0 0 0 -10.015-8.918 54.521 54.521 0 0 1 -7.31-5.5c-10.924-10.003-16.76-21.846-19.241-38.87zm25.248 72.109c-.426-.061-.854-.113-1.276-.152-6.572-.619-16.031-3.493-22.283-21.229a39.249 39.249 0 0 1 -1.581-7.547c5.271.841 14.135 2.905 21.837 7.825a29.33 29.33 0 0 1 13.358 25.428v.08a20.835 20.835 0 0 0 -10.055-4.405zm73.53-26.981c-.6 8.128-4.8 27.276-30.993 29.19a34.533 34.533 0 0 1 -11.216-.873 16 16 0 0 1 -4.153-1.614c2.101-6.712 11.453-27.392 46.362-26.703zm-18.249-8.238c-8.871 6.333-20.583 7.79-34.827 4.372.061-.653.126-1.333.195-2.054a4.033 4.033 0 0 0 .177-.618c.062-.333 6.592-32.288 52.182-34.017-1.326 7.655-5.475 23.571-17.727 32.317zm23.2-64.86c-6.067 10.786-22.923 33.918-52.908 26.79q.306-2.07.628-4.18a27.9 27.9 0 0 1 7.3-15.149q.4-.419.832-.833c8.238-7.923 20.431-10.818 36.237-8.6a57.438 57.438 0 0 1 7.911 1.972z" fill="#f4b271"/></svg>