<svg id="fill" height="512" viewBox="0 0 340 340" width="512" xmlns="http://www.w3.org/2000/svg"><path d="m198.582 35.5c-14.991-.645-23.971 4.535-29.285 10.184a167.511 167.511 0 0 0 -6.512-34.146 4 4 0 0 0 -7.6 2.487 165.515 165.515 0 0 1 6.683 41.525c0 .627-.057 6.949-.392 11.8a36.122 36.122 0 0 0 -10.254-8.685 35.415 35.415 0 0 1 -13.939-15.7 4 4 0 0 0 -7.454 2.9 42.991 42.991 0 0 0 17.371 19.713 25.69 25.69 0 0 1 13.209 23.822l11.011 11.209c.086-.186-.308-7.154-.555-11.363-.106-1.8-.272-3.589-.484-5.379a93.919 93.919 0 0 1 -.381-19.68 22.559 22.559 0 0 1 16.56-19.628 39.763 39.763 0 0 1 11.682-1.071 4 4 0 1 0 .34-7.992z" fill="#ffe878"/><path d="m205.572 187.545s8.368-27.616 43.863-38.9a11.02 11.02 0 0 1 14.124 12.494c-2.757 15.51-8.756 38.253-21.185 49.744l-35.374 4.134z" fill="#ffe878"/><path d="m76.3 216.083c1.5 16.532 6.5 45.316 23.061 54.257h36.882l-1.882-36.5s-8.47-19.136-46.89-27.621a9.245 9.245 0 0 0 -11.171 9.864z" fill="#ffe878"/><path d="m207.387 202.381a225.882 225.882 0 0 1 42.476 1.7 8.167 8.167 0 0 1 6.869 9.343 118.549 118.549 0 0 1 -10.026 32.205 1.1 1.1 0 0 1 -2.077-.269c-1.127-6.142-3.8-18.989-6.99-22.4 0 0-18.756 2.42-32.067 12.1z" fill="#8eb260"/><path d="m137.5 264.7s-24.146-5.445-47.519 0a10.753 10.753 0 0 0 -8.114 12.5 87.075 87.075 0 0 0 10.493 26.844 1.559 1.559 0 0 0 2.887-.477c1.069-5.7 3.291-15.789 6.253-19.809 0 0 22.992 4.538 40.538 5.143z" fill="#8eb260"/><path d="m164.378 96.919s3.062-34.241 46.211-25.054a62.549 62.549 0 0 0 -39.808 44.54z" fill="#8eb260"/><path d="m166.563 331.224v-1.393a12.5 12.5 0 0 0 -5.781-10.571c-13.91-8.824-46.785-39.427-28.539-125.141a1.393 1.393 0 0 1 2.631-.3c4.782 10.591 17.561 42.939 15.749 82.691a28.74 28.74 0 0 0 6.158 19.041c2.684 3.415 6.031 6.829 9.782 8.833 0 0-.13-52.87-4.114-108.307a27.408 27.408 0 0 0 -6.461-15.758c-2.195-2.589-4.864-5.581-7.738-8.471a43.235 43.235 0 0 0 -11.865-8.385c-6.641-3.21-18-10.256-21.2-22a62.24 62.24 0 0 0 -14.3 30.576.781.781 0 0 1 -1.536.038c-2.009-9.518-5.98-33.474-.619-54.751a14.286 14.286 0 0 1 24.433-6.017 299.392 299.392 0 0 1 37.951 53.373s-1.745-33.525-2.926-55.049a29.939 29.939 0 0 0 -6.709-17.363c-6.225-7.59-16.918-17.991-31.172-22.019 0 0 41.911-7.31 51.11 30.353a29.357 29.357 0 0 1 .768 5.36c.818 14.887 5.186 95.564 7.039 154.87 0 0 11.271-19.468 14.857-27.666 0 0-6.646-29.907 6.109-55.449a32.694 32.694 0 0 0 2.553-6.871c1.488-6.112 4.259-18.113 5.3-26.755a1.26 1.26 0 0 1 2.462-.2c3.772 13.172 10.653 44.441 2.712 76.883a88.568 88.568 0 0 1 -9.464 23.252c-3.247 5.613-7.915 13.462-13.161 21.6a52.306 52.306 0 0 0 -8.264 27.176c-.27 12.018-.4 28.255.482 38.412z" fill="#abd37d"/><path d="m120.311 130.624a1.131 1.131 0 0 0 -2.193.26 32.574 32.574 0 0 1 -2.931 10.582 27.449 27.449 0 0 0 5.783 10.587 36.491 36.491 0 0 0 -.659-21.429z" fill="#8eb260"/><g fill="#f9af43"><path d="m111.862 246.823a4.045 4.045 0 0 1 -.779-.08 3.856 3.856 0 0 1 -.75-.229 4.306 4.306 0 0 1 -.691-.37 3.8 3.8 0 0 1 -.61-.5 3.661 3.661 0 0 1 -.5-.611 3.773 3.773 0 0 1 -.37-.689 4 4 0 0 1 -.22-.74 3.541 3.541 0 0 1 -.08-.791 3.983 3.983 0 0 1 1.17-2.82 3.331 3.331 0 0 1 .61-.5 3.383 3.383 0 0 1 .691-.37 3.724 3.724 0 0 1 .75-.229 4 4 0 0 1 4.779 3.919 4.162 4.162 0 0 1 -.08.791 3.956 3.956 0 0 1 -.23.74 3.2 3.2 0 0 1 -.37.689 3.511 3.511 0 0 1 -.49.611 4.03 4.03 0 0 1 -2.83 1.179z"/><path d="m101.873 253.873a4.135 4.135 0 0 1 -.79-.08 3.989 3.989 0 0 1 -.741-.23 3.443 3.443 0 0 1 -.69-.37 3.5 3.5 0 0 1 -.609-.49 4.09 4.09 0 0 1 -.5-.609 4.6 4.6 0 0 1 -.371-.691 5.508 5.508 0 0 1 -.23-.75 4.1 4.1 0 0 1 -.069-.78 4.225 4.225 0 0 1 .069-.79 4.937 4.937 0 0 1 .23-.739 3.8 3.8 0 0 1 .371-.691 3.727 3.727 0 0 1 .5-.61 4.036 4.036 0 0 1 3.609-1.1 3.982 3.982 0 0 1 .75.231 4.44 4.44 0 0 1 .69.369 3.628 3.628 0 0 1 .6.5 4.063 4.063 0 0 1 .871 1.3 4.076 4.076 0 0 1 .23.739 4.329 4.329 0 0 1 .08.79 4.2 4.2 0 0 1 -.08.78 4.478 4.478 0 0 1 -.23.75 3.906 3.906 0 0 1 -.371.691 3.6 3.6 0 0 1 -.5.609 4.023 4.023 0 0 1 -2.819 1.171z"/><path d="m95.043 243.293a3.919 3.919 0 0 1 -3.321-1.779 3.8 3.8 0 0 1 -.369-.691 3.978 3.978 0 0 1 -.23-.75 3.99 3.99 0 0 1 4.7-4.7 3.771 3.771 0 0 1 .75.221 4.319 4.319 0 0 1 .69.37 4.209 4.209 0 0 1 .611.5 4.006 4.006 0 0 1 0 5.659 3.588 3.588 0 0 1 -.611.49 3.645 3.645 0 0 1 -.69.37 3.861 3.861 0 0 1 -.75.231 4.117 4.117 0 0 1 -.78.079z"/><path d="m105.052 236.023a3.986 3.986 0 0 1 -2.83-1.169 4.37 4.37 0 0 1 -.5-.611 3.77 3.77 0 0 1 -.369-.689 3.957 3.957 0 0 1 -.221-.741 4.2 4.2 0 0 1 -.08-.78 4.251 4.251 0 0 1 .3-1.54 4.563 4.563 0 0 1 .369-.689 5.092 5.092 0 0 1 .5-.6 3.984 3.984 0 0 1 5.66 0 4.079 4.079 0 0 1 .491.6 3.815 3.815 0 0 1 .369.689 4.3 4.3 0 0 1 .23.75 4.087 4.087 0 0 1 .08.79 4.041 4.041 0 0 1 -.08.78 3.989 3.989 0 0 1 -.23.741 3.246 3.246 0 0 1 -.369.689 3.612 3.612 0 0 1 -.491.611 4.019 4.019 0 0 1 -2.829 1.169z"/><path d="m91.773 230.283a3.987 3.987 0 0 1 -2.831-1.17 3.291 3.291 0 0 1 -.5-.609 4.153 4.153 0 0 1 -.37-.691 3.956 3.956 0 0 1 -.23-.74 4.3 4.3 0 0 1 -.069-.79 4.186 4.186 0 0 1 .069-.779 4.3 4.3 0 0 1 .23-.75 4.589 4.589 0 0 1 .37-.691 4.191 4.191 0 0 1 .5-.6 3.538 3.538 0 0 1 .6-.5 3.667 3.667 0 0 1 .689-.37 3.96 3.96 0 0 1 3.07 0 3.645 3.645 0 0 1 .69.37 3.6 3.6 0 0 1 .611.5 4.023 4.023 0 0 1 1.17 2.819 4.236 4.236 0 0 1 -.081.79 3.884 3.884 0 0 1 -.23.74 3.289 3.289 0 0 1 -.37.691 3.213 3.213 0 0 1 -.5.609 3.978 3.978 0 0 1 -2.818 1.171z"/><path d="m236.962 193.934a3.987 3.987 0 0 1 -2.83-1.17 3.744 3.744 0 0 1 -.5-.611 4.1 4.1 0 0 1 -.369-.689 3.925 3.925 0 0 1 -.221-.74 3.538 3.538 0 0 1 -.08-.79 3.985 3.985 0 0 1 1.17-2.821 3.984 3.984 0 0 1 4.36-.87 4 4 0 0 1 .691.37 3.7 3.7 0 0 1 .609.5 3.985 3.985 0 0 1 -.01 5.651 3.979 3.979 0 0 1 -2.82 1.17z"/><path d="m227.643 186.023a4.049 4.049 0 0 1 -.781-.08 3.872 3.872 0 0 1 -.75-.229 3.628 3.628 0 0 1 -.69-.37 3.692 3.692 0 0 1 -.609-.49 4.044 4.044 0 0 1 -.5-.611 4.534 4.534 0 0 1 -.371-.689 3.917 3.917 0 0 1 -.219-.75 3.847 3.847 0 0 1 0-1.561 3.875 3.875 0 0 1 .219-.75 4.487 4.487 0 0 1 .371-.689 3.985 3.985 0 0 1 4.109-1.7 3.952 3.952 0 0 1 .75.229 4.66 4.66 0 0 1 .69.36 5.2 5.2 0 0 1 .611.5 4.159 4.159 0 0 1 .489.611 3.82 3.82 0 0 1 .37.689 3.768 3.768 0 0 1 .231.75 4.231 4.231 0 0 1 .08.78 4.035 4.035 0 0 1 -1.181 2.831 3.665 3.665 0 0 1 -.6.49 3.922 3.922 0 0 1 -.69.37 4.3 4.3 0 0 1 -.75.229 4.127 4.127 0 0 1 -.779.08z"/><path d="m236.183 176.773a3.994 3.994 0 0 1 -2.83-6.83 4.914 4.914 0 0 1 .6-.5 4.355 4.355 0 0 1 .7-.36 3.912 3.912 0 0 1 .741-.229 4 4 0 1 1 .79 7.919z"/><path d="m245.712 184.653a4.036 4.036 0 0 1 -.779-.08 3.856 3.856 0 0 1 -.75-.229 3.607 3.607 0 0 1 -.691-.37 3.781 3.781 0 0 1 -.61-.491 4.021 4.021 0 0 1 -1.17-2.83 3.393 3.393 0 0 1 .08-.78 3.811 3.811 0 0 1 .221-.75 4.1 4.1 0 0 1 .369-.689 3.744 3.744 0 0 1 .5-.611 4.541 4.541 0 0 1 .61-.5 4.263 4.263 0 0 1 .691-.37 3.837 3.837 0 0 1 .75-.22 3.724 3.724 0 0 1 1.559 0 4.1 4.1 0 0 1 .75.22 4.83 4.83 0 0 1 .691.37 5.1 5.1 0 0 1 .609.5 3.588 3.588 0 0 1 .49.611 3.436 3.436 0 0 1 .37.689 3.832 3.832 0 0 1 .23.75 3.977 3.977 0 0 1 .08.78 4.065 4.065 0 0 1 -1.17 2.83 4.156 4.156 0 0 1 -.609.491 4 4 0 0 1 -.691.37 4.045 4.045 0 0 1 -1.53.309z"/><path d="m247.952 170.354a3.452 3.452 0 0 1 -.78-.081 3.806 3.806 0 0 1 -.75-.219 4.819 4.819 0 0 1 -.69-.37 4.408 4.408 0 0 1 -.61-.5 4.357 4.357 0 0 1 -.5-.611 4.053 4.053 0 0 1 -.359-.689 3.768 3.768 0 0 1 -.231-.75 3.977 3.977 0 0 1 1.09-3.611 4.336 4.336 0 0 1 .61-.49 3.994 3.994 0 0 1 .69-.37 3.763 3.763 0 0 1 .75-.229 3.7 3.7 0 0 1 1.56 0 3.763 3.763 0 0 1 .75.229 3.922 3.922 0 0 1 .69.37 4.118 4.118 0 0 1 .61.49 3.977 3.977 0 0 1 1.09 3.611 3.9 3.9 0 0 1 -.229.75 4.21 4.21 0 0 1 -.361.689 4.288 4.288 0 0 1 -.5.611 4.184 4.184 0 0 1 -.61.5 4.715 4.715 0 0 1 -.69.37 3.806 3.806 0 0 1 -.75.219 3.44 3.44 0 0 1 -.78.081z"/></g></svg>