<svg id="fill" height="512" viewBox="0 0 340 340" width="512" xmlns="http://www.w3.org/2000/svg"><path d="m254.24 204.872s-6.139 47.438-4.111 80.236a46.909 46.909 0 0 0 9.038 25.041c1.264 1.708 2.637 3.459 4.077 5.139a31 31 0 0 1 2.791 3.724c1.646 2.631 3.854 6.908 3.854 10.917h-20.171s-18.019-13.093-20.975-41.915v-74.643z" fill="#ccc"/><path d="m118.626 236.651s-30.67 49.095 6.652 93.278h-31.409s-32.148-48.566 5.543-100.668z" fill="#ccc"/><path d="m265.305 124.925s13.166 80.985-27.157 106.737c0 0-4.808 22.345-2.538 61.609a46.788 46.788 0 0 0 6.527 21.288c-5.99 2.223-12.839 2.6-21.078 0a21.234 21.234 0 0 1 -3.819-12c-.15-12.837-1.593-38.324-10.266-50.219 0 0-12.589-3.3-31.19-1.215a114.685 114.685 0 0 1 -40.084-2.708c-12.3-3.02-26.139-7.229-34.447-12.342 0 0-24.676 33.725-5.958 78.483-5.743 3.472-13.187 2.807-21.514 0-2-7.336-4.934-16-8.933-22.94a21.747 21.747 0 0 1 -2.819-13.49c1.813-14.91 4.38-48.091-4.827-70.851 0 0-10.165-22.7-6.438-37.951 0 0-23.38-6.767-26.43-28.967l11.521 1.52s-11.521-29.48 22.364-37.273c0 0-11.86 17.291 5.422 35.753 0 0 36.6-20.5 96.572 0a126.561 126.561 0 0 0 29.007 4.15 27.645 27.645 0 0 0 21.513-10.065c9.84-11.9 24.849-34.886 23.01-62.707h16.942z" fill="#f2f2f2"/><path d="m265.128 53.721s2.525-40.541-42.763-43.285a1.606 1.606 0 0 0 -1.139 2.826c7.18 5.977 21.223 21.22 19.429 47.966z" fill="#7d889e"/><path d="m230.409 98.93a53.454 53.454 0 0 0 2.294 9.929 1.652 1.652 0 0 1 .2.627l1.356 12.107a28.339 28.339 0 0 0 1.284 5.832 50.128 50.128 0 0 0 1.489 17.859 39.211 39.211 0 0 0 19.451 24.278l9.777 5.337q.135-1.191.251-2.378c.006-.063.011-.126.017-.189q.106-1.092.2-2.178c.008-.093.015-.186.022-.279q.087-1.049.159-2.088c.006-.1.013-.195.02-.292q.071-1.042.129-2.074l.014-.258q.058-1.058.1-2.1c0-.064.006-.129.008-.194.032-.739.059-1.475.081-2.2v-.044c.187-6.1.075-11.827-.171-16.825v-.046q-.045-.906-.1-1.78v-.073c-.034-.575-.068-1.14-.105-1.693v-.07c-.3-4.588-.693-8.373-1.011-11.019l-.015-.119c-.034-.281-.067-.551-.1-.806l-.017-.131q-.045-.357-.087-.677l-.021-.158c-.025-.19-.049-.37-.072-.537l-.022-.161c-.022-.16-.043-.31-.063-.447l-.016-.113c-.019-.133-.036-.251-.052-.359l-.014-.1c-.014-.1-.026-.179-.038-.252l-.01-.07-.025-.159-.006-.038-.01-.063-14.62-53.2h-16.943a75.387 75.387 0 0 1 -3.334 27.201z" fill="#ccc"/><path d="m263.271 53.359s-2.525-40.541 42.763-43.284a1.605 1.605 0 0 1 1.139 2.825c-7.179 5.977-21.222 21.22-19.429 47.966z" fill="#7d889e"/><path d="m248.68 121.666s-7.7 25.761 13.553 37.363c0 0 1.589-6.882 2.965-9.636 0 0 7.276 8.456 18.092 10.816 0 0-4.578-5.426-4.917-16.593a22.536 22.536 0 0 1 .371-4.57c.725-4.133 1.971-13.968-1.55-18.56z" fill="#7d889e"/><path d="m287.744 60.866s-22.364-19.061-47.779 0c0 0-10.691-2.424-19.263-7.8a5.138 5.138 0 0 0 -7.778 4.972c.977 8.637 5.7 18.822 20.6 18.351a29.13 29.13 0 0 0 7.911 24.24 13.053 13.053 0 0 1 3.4 7.525l1.356 12.107a16.675 16.675 0 0 0 16.571 14.819 16.676 16.676 0 0 0 16.591-15l1.159-11.5a12.926 12.926 0 0 1 2.475-6.363c3.685-5 10.611-16.437 7.052-27.877 0 0 22.009 6.2 25.57-16.918a5.15 5.15 0 0 0 -7.774-5.187c-5.475 3.377-12.961 7.286-20.091 8.631z" fill="#f2f2f2"/><path d="m249.718 329.929h20.171c0-4.009-2.208-8.286-3.854-10.917a31 31 0 0 0 -2.791-3.724c-.208-.243-.4-.5-.61-.741h-25.61c5.922 10.453 12.694 15.382 12.694 15.382z" fill="#2b313f"/><path d="m93.869 329.929h31.409a81.963 81.963 0 0 1 -10.333-15.382h-28.328a78.05 78.05 0 0 0 7.252 15.382z" fill="#2b313f"/><path d="m221.059 314.574a84.849 84.849 0 0 1 8.193 13.726 2.887 2.887 0 0 0 2.607 1.629h21.541a104.321 104.321 0 0 1 -10.569-14.251c-.236-.37-.445-.755-.67-1.131h-21.089z" fill="#3d4554"/><path d="m103.286 329.929a107.248 107.248 0 0 1 -7.986-15.382h-21.521c1.511 5.537 2.491 10.317 3 13.022a2.893 2.893 0 0 0 2.849 2.36z" fill="#3d4554"/><path d="m54.038 156.723a32.261 32.261 0 0 0 -10.715 9.342 40.919 40.919 0 0 0 7.441 3.249 36.118 36.118 0 0 1 4.74-10.895 1.154 1.154 0 0 0 -1.466-1.696z" fill="#ccc"/><g fill="#59687c"><path d="m259.066 30c-6.889-.071-10.915 2.942-12.933 5.152a.694.694 0 0 0 .789 1.1c7.321-3.043 12.963-1.244 15.028-.346a40.823 40.823 0 0 0 -2.884-5.906z"/><path d="m242.176 25.422a20.355 20.355 0 0 1 10.209-3.7 36.864 36.864 0 0 0 -4.3-3.411 15.648 15.648 0 0 0 -6.909 6.194.693.693 0 0 0 1 .917z"/><path d="m236.005 17.7a19.373 19.373 0 0 1 3.195-3.92q-1.469-.546-3.051-1.016a13.64 13.64 0 0 0 -1.42 4.471.693.693 0 0 0 1.276.465z"/><path d="m281.121 36.258a.694.694 0 0 0 .789-1.1c-2-2.2-5.984-5.185-12.785-5.157a40.9 40.9 0 0 0 -2.773 5.8 19.27 19.27 0 0 1 14.769.457z"/><path d="m285.867 25.422a.694.694 0 0 0 1-.915 15.677 15.677 0 0 0 -7.007-6.237 36.839 36.839 0 0 0 -4.224 3.452 20.358 20.358 0 0 1 10.231 3.7z"/><path d="m292.038 17.7a.693.693 0 0 0 1.277-.462 13.7 13.7 0 0 0 -1.54-4.689q-1.611.5-3.1 1.073a19.285 19.285 0 0 1 3.363 4.078z"/></g><path d="m88.661 226.4c.811 4.5 2.881 11.666 8.135 17.406a56.411 56.411 0 0 1 4.457-7.736 86.034 86.034 0 0 1 -10.715-10.529 1.065 1.065 0 0 0 -1.877.859z" fill="#ccc"/><path d="m251.037 88a4.042 4.042 0 0 1 -.78-.07 4.762 4.762 0 0 1 -.75-.23 4.143 4.143 0 0 1 -.69-.37 3.694 3.694 0 0 1 -.61-.5 3.779 3.779 0 0 1 -.5-.61 4.113 4.113 0 0 1 -.37-.691 3.891 3.891 0 0 1 -.22-.739 3.538 3.538 0 0 1 -.08-.79 3.445 3.445 0 0 1 .08-.78 4.252 4.252 0 0 1 .22-.75 4.638 4.638 0 0 1 .37-.691 4.214 4.214 0 0 1 .5-.61 3.634 3.634 0 0 1 .61-.489 3.467 3.467 0 0 1 .69-.37 3.7 3.7 0 0 1 .75-.23 4.093 4.093 0 0 1 1.56 0 3.906 3.906 0 0 1 .75.23 3.766 3.766 0 0 1 .69.37 4.086 4.086 0 0 1 .61.489 4.145 4.145 0 0 1 .49.61 3.87 3.87 0 0 1 .37.691 4.3 4.3 0 0 1 .23.75 4.129 4.129 0 0 1 .08.78 3.995 3.995 0 0 1 -4 4z" fill="#2b313f"/><path d="m275.327 88a4 4 0 1 1 .78-7.92 3.7 3.7 0 0 1 .75.23 3.467 3.467 0 0 1 .69.37 3.212 3.212 0 0 1 .61.5 4 4 0 0 1 0 5.65 3.694 3.694 0 0 1 -.61.5 4.143 4.143 0 0 1 -.69.37 4.762 4.762 0 0 1 -.75.23 4.042 4.042 0 0 1 -.78.07z" fill="#2b313f"/><path d="m263.246 119.405a3.989 3.989 0 0 1 -2.225-.676l-4.405-2.947a4 4 0 0 1 4.449-6.649l2.1 1.407 1.862-1.334a4 4 0 0 1 4.66 6.5l-4.114 2.948a4 4 0 0 1 -2.327.751z" fill="#2b313f"/></svg>