<svg id="fill" height="512" viewBox="0 0 340 340" width="512" xmlns="http://www.w3.org/2000/svg"><path d="m271.939 189.179v64.664a13.6 13.6 0 0 1 -3.427 9.045 17.4 17.4 0 0 0 -4.028 6.885h30.5a27.546 27.546 0 0 0 -3.574-7.719 13.069 13.069 0 0 1 -2.526-7.914v-64.961z" fill="#a57a74"/><path d="m195.9 195.492v79.962a16.817 16.817 0 0 1 -4.238 11.184 21.517 21.517 0 0 0 -4.981 8.514h37.712s-1.649-5.893-4.419-9.546a16.159 16.159 0 0 1 -3.123-9.785v-80.329z" fill="#a57a74"/><path d="m130.771 184.115s-4.98 79.685 1.018 126.278a18.508 18.508 0 0 0 3.7 8.983c2.274 2.937 5.185 7.178 6.058 10.624h-52.99a26.42 26.42 0 0 1 5.3-9.415 18.916 18.916 0 0 0 4.879-12.485v-42.861a15.777 15.777 0 0 0 -11.26-15.064l-.476-.148a35.559 35.559 0 0 1 -24.79-33.957v-31.955h14.67v24.118a21.39 21.39 0 0 0 19.314 21.351c.148.014.3.026.446.038v-45.507l20.609-6.288z" fill="#a57a74"/><g fill="#7c4743"><path d="m62.21 184.115v24.091l15.215 4.757a21.5 21.5 0 0 1 -.545-4.73v-24.118z"/><path d="m96.64 184.115v34.855l32.4 10.132c.5-25.414 1.727-44.987 1.727-44.987l-13.522-6.288z"/><path d="m195.899 222.29 20.951 6.55v-33.348h-20.951z"/><path d="m271.939 226.158 16.943 5.297v-42.276h-16.943z"/></g><path d="m330 153.117c0-12.086-10.919-21.883-24.389-21.883a27.172 27.172 0 0 0 -4.975.457c-1.432-10.861-11.722-19.286-24.212-19.286-13.47 0-24.389 9.8-24.389 21.883 0 .654-10.512 37.763-10.512 37.763a30.414 30.414 0 0 0 -2.465 11.976c0 18.516 16.73 33.527 37.366 33.527a40.092 40.092 0 0 0 22.232-6.581c.713.048 1.43.081 2.157.081 15.513 0 28.088-11.283 28.088-25.2a23.665 23.665 0 0 0 -6.901-16.534 20.9 20.9 0 0 0 8-16.203z" fill="#769344"/><path d="m262.105 129.95a25.579 25.579 0 0 0 -30.774-25.027 25.558 25.558 0 0 0 -50.936 3.034c0 .764-11.018 44.11-11.018 44.11a39.16 39.16 0 0 0 59.878 45.462c.747.057 1.5.095 2.261.095a29.428 29.428 0 0 0 22.208-48.747 25.5 25.5 0 0 0 8.381-18.927z" fill="#8eb260"/><path d="m197.552 100.006a47.752 47.752 0 0 0 -36.9-46.492 52.174 52.174 0 0 0 -103.492 4.969 47.889 47.889 0 0 0 -31.836 83 55.116 55.116 0 0 0 85.647 44.777 47.741 47.741 0 0 0 73.548-53.488 47.562 47.562 0 0 0 13.033-32.766z" fill="#abd37d"/><circle cx="55.324" cy="120.045" fill="#ea5e5e" r="13.473"/><circle cx="117.249" cy="65.854" fill="#ea5e5e" r="13.473"/><circle cx="138.697" cy="143.423" fill="#ea5e5e" r="13.473"/><circle cx="226.872" cy="141.493" fill="#c13d3d" r="10.175"/><circle cx="287.603" cy="180.175" fill="#c13d3d" r="10.175"/><circle cx="205.536" cy="175.155" fill="#c13d3d" r="10.175"/><path d="m61.833 81.758a1.823 1.823 0 0 0 2.067-2.852c-6.036-7.547-6.738-20.423-6.738-20.423a47.978 47.978 0 0 0 -10.1 1.239c.947 13.802 8.55 19.603 14.771 22.036z" fill="#8eb260"/><path d="m156.506 79.581a1.377 1.377 0 0 0 1.871 1.9c4.766-2.834 11.445-9.366 13.112-24a47.445 47.445 0 0 0 -10.835-3.967s1.964 15.845-4.148 26.067z" fill="#8eb260"/></svg>