<svg id="Capa_1" enable-background="new 0 0 512 512" height="512" viewBox="0 0 512 512" width="512" xmlns="http://www.w3.org/2000/svg"><g><g><g><path d="m391.545 143.644h-4.014c-7.574 0-14.127-5.273-15.748-12.672l-21.549-98.38c-2.202-10.055 5.454-19.57 15.748-19.57h47.113c10.293 0 17.95 9.515 15.748 19.57l-21.549 98.38c-1.622 7.399-8.175 12.672-15.749 12.672z" fill="#fc7d4b"/><path d="m428.842 32.593-21.549 98.381c-1.623 7.394-8.179 12.671-15.745 12.671h-4.02c-4.342 0-8.351-1.741-11.285-4.611 2.182-2.128 3.773-4.901 4.471-8.061l21.549-98.381c2.203-10.06-5.46-19.571-15.745-19.571h26.578c10.287.001 17.95 9.513 15.746 19.572z" fill="#fb6a3b"/><path d="m465.501 294.562c-11.291-2.72-27.444-5.738-33.904-5.738-18.945 0-36.232 7.047-49.387 18.677-1.01.896-2.06 1.762-3.132 2.606-10.549-6.212-22.839-9.787-35.974-9.787-8.345 0-25.899 4.038-34.903 7.119l33.708-80.736c.814-1.968 1.246-4.069 1.246-6.202v-115.205h92.768v115.206c0 2.132.422 4.234 1.246 6.202z" fill="#b5dbfd"/><path d="m465.501 294.562c-8.973-2.163-21.026-4.512-28.835-5.388l-26.074-62.46c-.824-1.968-1.247-4.09-1.247-6.212v-115.206h26.579v115.206c0 2.122.422 4.244 1.246 6.212z" fill="#8dcafc"/><path d="m343.154 105.299h92.771v32.188h-92.771z" fill="#8dcafc"/><g><path d="m416.279 290.4c-12.898 2.678-24.56 8.695-34.068 17.101-1.01.896-2.06 1.762-3.132 2.606-5.687-3.348-11.888-5.934-18.451-7.593l14.083-78.789h29.649z" fill="#d9ecfd"/></g><path d="m412.918 105.299-5.621 25.676c-1.623 7.394-8.179 12.671-15.756 12.671h-4.009c-7.577 0-14.133-5.277-15.756-12.671l-5.621-25.676z" fill="#fb946d"/><path d="m412.913 105.299-5.621 25.675c-1.623 7.394-8.179 12.671-15.756 12.671h-4.009c-4.342 0-8.351-1.73-11.285-4.611 2.182-2.128 3.773-4.901 4.471-8.061l5.621-25.675h26.579z" fill="#fc7d4b"/><path d="m511.579 412.814c-.645 2.816-2.053 5.471-4.17 7.63l-71.481 73.168h-85.984c-4.34 0-8.497-1.75-11.531-4.855l-66.748-68.314c-2.107-2.16-3.525-4.815-4.17-7.63h244.084z" fill="#8dc637"/><path d="m511.579 412.814h-244.083c-.752-3.224-.505-6.674.828-9.855l41.732-99.94c7.179 2.3 14.842 3.546 22.795 3.546 18.926 0 36.219-7.029 49.363-18.636 13.155-11.629 30.437-18.679 49.384-18.679 8.834 0 17.293 1.526 25.149 4.353l54.006 129.355c1.331 3.182 1.579 6.631.826 9.856z" fill="#158f5e"/><path d="m511.576 412.814c-.645 2.816-2.053 5.47-4.17 7.631l-66.737 68.313c-3.033 3.105-7.191 4.855-11.531 4.855h-19.79l71.492-73.168c2.106-2.16 3.514-4.815 4.17-7.631z" fill="#82b732"/><path d="m511.576 412.814h-26.567c.741-3.224.505-6.663-.828-9.855l-55.8-133.633c1.064-.054 2.138-.075 3.213-.075 8.835 0 17.293 1.526 25.149 4.353l54.006 129.355c1.332 3.181 1.579 6.63.827 9.855z" fill="#0f7a4f"/><g><path d="m438.164 412.814-33.811 80.799h-29.63l-33.811-80.799 19.969-111.687c7.878-3.181 15.079-7.674 21.334-13.198 8.673-7.674 19.152-13.348 30.705-16.325z" fill="#2db181"/></g><path d="m511.579 412.814h-244.083c-.752-3.224-.505-6.674.828-9.855l49.008-117.383c7.985-3.117 16.68-4.826 25.772-4.826 18.045 0 34.51 6.717 47.041 17.787 12.531 11.059 28.996 17.765 47.031 17.765 12.241 0 23.773-3.095 33.833-8.555l39.755 95.211c1.32 3.192 1.568 6.631.815 9.856z" fill="#99d53b"/><path d="m511.576 412.814h-26.567c.741-3.224.505-6.663-.828-9.855l-36.509-87.43c8.34-1.236 16.207-3.912 23.332-7.781l39.755 95.211c1.322 3.191 1.569 6.63.817 9.855z" fill="#8dc637"/><g id="XMLID_554_"><path d="m460.461 375.489c-4.268 0-7.726-3.459-7.726-7.726v-.112c0-4.268 3.459-7.726 7.726-7.726s7.726 3.459 7.726 7.726v.112c0 4.267-3.458 7.726-7.726 7.726z" fill="#82b732"/></g><g><path d="m438.16 412.814h-97.253l23.064-128.958c9.791 3.009 18.679 8.071 26.17 14.681 8.555 7.545 18.937 13.069 30.415 15.809z" fill="#a3e440"/></g><g><path d="m374.724 493.608-33.816-80.799h97.259l-33.816 80.799z" fill="#99d53b"/></g><g id="XMLID_551_"><path d="m397.869 451.641c-.023 0-.047 0-.071 0-4.267-.039-7.694-3.529-7.656-7.797l.001-.111c.039-4.242 3.491-7.656 7.725-7.656h.071c4.267.039 7.694 3.529 7.656 7.797l-.001.111c-.039 4.243-3.491 7.656-7.725 7.656z" fill="#c9f76f"/></g><g><path d="m439.149 231.453h-99.217l1.978-4.749c.814-1.968 1.246-4.069 1.246-6.202v-4.502h92.768v4.502c0 2.132.422 4.234 1.246 6.202z" fill="#8dcafc"/></g><path d="m448.691 110.617h-118.307c-13.132 0-23.778-10.646-23.778-23.778 0-13.132 10.646-23.778 23.778-23.778h118.307c13.132 0 23.778 10.646 23.778 23.778 0 13.132-10.646 23.778-23.778 23.778z" fill="#d9ecfd"/><path d="m472.466 86.835c0 6.567-2.655 12.51-6.964 16.82-4.299 4.299-10.242 6.964-16.809 6.964h-26.578c6.566 0 12.51-2.665 16.809-6.964 4.299-4.31 6.964-10.253 6.964-16.82 0-13.133-10.64-23.773-23.773-23.773h26.578c13.133 0 23.773 10.64 23.773 23.773z" fill="#b5dbfd"/><path d="m422.168 63.062-10.414 47.557h-44.44l-10.415-47.557z" fill="#ffc4af"/><path d="m422.168 63.062-10.414 47.557h-26.578l10.414-47.557z" fill="#fcac8d"/></g><g><path d="m160.173 185.943h-14.762c-7.574 0-14.127-5.273-15.748-12.672l-21.549-98.38c-2.202-10.055 5.454-19.57 15.748-19.57h57.86c10.293 0 17.95 9.515 15.748 19.57l-21.549 98.38c-1.621 7.399-8.173 12.672-15.748 12.672z" fill="#fc7d4b"/><path d="m197.473 74.895-21.549 98.381c-1.623 7.394-8.179 12.671-15.756 12.671h-14.756c-2.074 0-4.073-.398-5.911-1.128 4.89-1.924 8.662-6.169 9.845-11.543l21.549-98.381c2.203-10.06-5.46-19.571-15.756-19.571h26.578c10.296 0 17.959 9.511 15.756 19.571z" fill="#fb6a3b"/><path d="m304.462 327.683c-21.129-13.908-51.715-22.026-78.48-22.026-32.523 0-62.223 11.95-84.991 31.678-19.707-13.279-43.453-21.016-69.012-21.016-24.467 0-52.014 7.108-71.608 19.409 3.832-56.671 38.56-104.863 87.484-127.867 5.645-2.658 9.241-8.334 9.241-14.577v-51.52h111.394v51.52c0 6.191 3.523 11.888 9.127 14.525 46.657 21.892 80.427 66.675 86.845 119.874z" fill="#b5dbfd"/><path d="m304.472 327.693c-10.879-7.17-24.282-12.805-38.364-16.576-10.776-45.843-42.197-83.734-83.909-103.307-5.604-2.637-9.138-8.334-9.138-14.525v-51.52h35.428v51.52c0 6.191 3.523 11.888 9.138 14.525 46.647 21.891 80.427 66.674 86.845 119.883z" fill="#8dcafc"/><path d="m97.092 141.765h111.397v38.024h-111.397z" fill="#8dcafc"/><path d="m305.575 346.191c0 83.711-67.311 151.699-150.764 152.774-84.603 1.107-154.526-67.634-154.805-152.248-.011-2.956.064-5.879.226-8.791 16.422 7.512 34.682 11.693 53.92 11.693 32.93 0 63.012-12.252 85.893-32.446 22.892-20.227 52.963-32.5 85.936-32.5 27.889 0 53.737 8.813 74.898 23.795 3.062 12.069 4.696 24.708 4.696 37.723z" fill="#e01058"/><path d="m135.149 497.954c76.005-8.791 135.008-73.394 135.008-151.764 0-20.248-3.944-39.583-11.102-57.262 15.207 4.009 29.329 10.694 41.818 19.539 3.063 12.069 4.697 24.708 4.697 37.723 0 83.711-67.311 151.699-150.764 152.774-6.653.087-13.209-.257-19.657-1.01z" fill="#be0c4a"/><g fill="#fb3a82"><path d="m305.575 346.191c0 83.711-67.311 151.699-150.764 152.774-84.603 1.107-154.526-67.634-154.805-152.248-.032-10.371.967-20.495 2.902-30.286 19.711-13.327 43.495-21.097 69.073-21.097 31.404 0 60.067 11.683 81.863 30.963 21.806 19.238 50.459 30.909 81.841 30.909 25.772 0 49.728-7.878 69.535-21.377.237 3.419.355 6.88.355 10.362z"/><path d="m305.57 346.191c0 83.711-67.311 151.699-150.764 152.774-6.588.086-13.08-.247-19.464-.989-.022 0-.043-.011-.065-.011-75.575-8.727-135.018-73.243-135.276-151.248-.032-10.371.967-20.495 2.902-30.286 19.711-13.327 43.495-21.097 69.073-21.097 31.404 0 60.067 11.682 81.863 30.963 21.806 19.238 50.459 30.909 81.841 30.909 11.919 0 23.451-1.677 34.349-4.826 12.692-3.665 24.536-9.297 35.187-16.551.236 3.419.354 6.88.354 10.362z"/><path d="m305.57 346.191c0 83.711-67.311 151.699-150.764 152.774-6.588.086-13.08-.247-19.464-.989-.022 0-.043-.011-.065-.011-.043 0-.086-.011-.129-.021-75.51-8.781-134.889-73.265-135.147-151.227-.032-10.371.967-20.495 2.902-30.286 19.711-13.327 43.495-21.097 69.073-21.097 31.404 0 60.067 11.682 81.863 30.963 21.806 19.238 50.459 30.909 81.841 30.909 11.919 0 23.451-1.677 34.349-4.826 12.692-3.665 24.536-9.297 35.187-16.551.236 3.419.354 6.88.354 10.362z"/></g><path d="m305.57 346.191c0 83.711-67.311 151.699-150.764 152.774-6.588.086-13.08-.247-19.464-.989-.022 0-.043-.011-.065-.011-.043 0-.086-.011-.129-.021h.011c73.995-8.555 131.87-70.008 134.869-145.562 12.692-3.665 24.536-9.297 35.187-16.551.237 3.417.355 6.878.355 10.36z" fill="#fb1466"/><g id="XMLID_548_"><path d="m139.502 380.717c-4.268 0-7.726-3.459-7.726-7.726v-.111c0-4.268 3.459-7.726 7.726-7.726 4.268 0 7.726 3.459 7.726 7.726v.111c0 4.267-3.458 7.726-7.726 7.726z" fill="#e01058"/></g><g id="XMLID_549_"><path d="m154.811 447.649c-4.268 0-7.726-3.459-7.726-7.726v-.111c0-4.268 3.459-7.726 7.726-7.726 4.268 0 7.726 3.459 7.726 7.726v.111c0 4.267-3.458 7.726-7.726 7.726z" fill="#fda6c6"/></g><g id="XMLID_552_"><path d="m236.197 404.938c-4.268 0-7.726-3.459-7.726-7.726v-.111c0-4.268 3.459-7.726 7.726-7.726s7.726 3.459 7.726 7.726v.111c0 4.267-3.459 7.726-7.726 7.726z" fill="#e01058"/></g><g><g><circle cx="70.967" cy="354.674" fill="#ffc8dc" r="21.416"/></g></g><g><g><circle cx="106.849" cy="418.897" fill="#fda6c6" r="17.691"/></g></g><path d="m182.819 141.765-6.9 31.511c-1.623 7.394-8.168 12.671-15.745 12.671h-14.767c-7.566 0-14.122-5.277-15.745-12.671l-6.9-31.511z" fill="#fb946d"/><path d="m182.823 141.765-6.9 31.511c-1.623 7.394-8.168 12.671-15.745 12.671h-14.767c-2.074 0-4.073-.398-5.911-1.128 4.89-1.924 8.662-6.169 9.845-11.543l6.9-31.511z" fill="#fc7d4b"/><path d="m217.32 152.915h-129.055c-13.132 0-23.778-10.646-23.778-23.778 0-13.132 10.646-23.778 23.778-23.778h129.055c13.132 0 23.778 10.646 23.778 23.778-.001 13.133-10.646 23.778-23.778 23.778z" fill="#d9ecfd"/><path d="m241.097 129.137c0 6.567-2.655 12.51-6.964 16.809-4.299 4.299-10.242 6.964-16.809 6.964h-26.578c6.567 0 12.51-2.665 16.809-6.964s6.964-10.242 6.964-16.809c0-13.133-10.64-23.773-23.773-23.773h26.578c13.133 0 23.773 10.64 23.773 23.773z" fill="#b5dbfd"/><path d="m190.793 105.364-10.414 47.546h-55.177l-10.414-47.546z" fill="#ffc4af"/><path d="m190.788 105.364-10.414 47.546h-26.568l10.415-47.546z" fill="#fcac8d"/></g></g><g id="XMLID_321_"><path d="m382.44 337.276c-4.268 0-7.726-3.459-7.726-7.726v-.111c0-4.268 3.459-7.726 7.726-7.726s7.726 3.459 7.726 7.726v.111c.001 4.267-3.458 7.726-7.726 7.726z" fill="#c9f76f"/></g><g id="XMLID_322_"><path d="m401.092 354.188c-4.268 0-7.726-3.459-7.726-7.726v-.112c0-4.268 3.459-7.726 7.726-7.726s7.726 3.459 7.726 7.726v.112c.001 4.267-3.458 7.726-7.726 7.726z" fill="#c9f76f"/></g></g></svg>