<svg id="Layer_1" data-name="Layer 1" xmlns="http://www.w3.org/2000/svg" width="128.04" height="127.85" viewBox="0 0 128.04 127.85">
  <defs>
    <style>
      .cls-1 {
        fill: #2ec1d9;
      }

      .cls-2 {
        fill: #1c75bc;
      }
    </style>
  </defs>
  <g>
    <path class="cls-1" d="M265.31,402.39a1,1,0,0,1-1-1l-.07-6.95a55.35,55.35,0,0,1-13.35-3.53l-3.5,6a1,1,0,0,1-.61.46,1.07,1.07,0,0,1-.25,0,1,1,0,0,1-.51-.13l-12.09-7.06a1,1,0,0,1-.36-1.37l3.52-6a55.83,55.83,0,0,1-9.5-9.69l-6.09,3.39a1.11,1.11,0,0,1-.49.12,1,1,0,0,1-.88-.51l-6.8-12.23a1,1,0,0,1-.09-.76,1,1,0,0,1,.48-.6l6.08-3.39a54.68,54.68,0,0,1-3.31-13.81l-7-.26a1,1,0,0,1-.7-.32,1,1,0,0,1-.26-.72l.53-14a1,1,0,0,1,.32-.69,1,1,0,0,1,.68-.27l7,.26A55.67,55.67,0,0,1,220,319.3l-6-3.42a1,1,0,0,1-.47-.61,1,1,0,0,1,.09-.76l6.91-12.18a1,1,0,0,1,1.36-.37l6.06,3.43a56.07,56.07,0,0,1,9.63-9.66L234,289.68a1,1,0,0,1,.37-1.36l12.15-6.95a1,1,0,0,1,.5-.14,1,1,0,0,1,.87.51l3.45,6a54.83,54.83,0,0,1,12.33-3.27v-7a1,1,0,0,1,1-1h14a1,1,0,0,1,1,1v7A55,55,0,0,1,292.63,288l3.52-6a1,1,0,0,1,1.36-.36l12.08,7.1a1,1,0,0,1,.46.61,1,1,0,0,1-.11.75l-3.54,6a56.11,56.11,0,0,1,9.26,9.42l6.08-3.41a1.05,1.05,0,0,1,.49-.13,1.26,1.26,0,0,1,.27,0,1,1,0,0,1,.6.47L330,314.74a1,1,0,0,1-.38,1.36l-6.06,3.41a55.58,55.58,0,0,1,3.08,11.65l7,0a1,1,0,0,1,1,1l.07,14a1,1,0,0,1-.29.71,1,1,0,0,1-.71.3l-7,0a55.07,55.07,0,0,1-3.86,13.94l5.95,3.61a1,1,0,0,1,.33,1.37l-7.26,12a1,1,0,0,1-.62.45.85.85,0,0,1-.23,0,1.07,1.07,0,0,1-.52-.14l-6-3.62a55.88,55.88,0,0,1-6.4,6.56l3.77,5.88a1,1,0,0,1-.31,1.38l-11.78,7.56a1,1,0,0,1-.54.16.76.76,0,0,1-.21,0,1,1,0,0,1-.63-.43L294.63,390a54.66,54.66,0,0,1-14.39,4.3l.07,6.95a1,1,0,0,1-.29.71,1,1,0,0,1-.7.3Zm11.88-25.84a37.2,37.2,0,0,0,23.32-13.12l-14.42-8.33a21.26,21.26,0,0,1-8.9,4.9ZM242.47,363a37.76,37.76,0,0,0,23.72,13.6V360a21.39,21.39,0,0,1-9.36-5.34ZM306.25,354a37.42,37.42,0,0,0,.43-28.16l-14.36,8.29a21.43,21.43,0,0,1,.67,5.26,21.14,21.14,0,0,1-1,6.38Zm-69.77-27.58a37.44,37.44,0,0,0,.41,27l14.31-8.26a21,21,0,0,1-.81-5.78,21.22,21.22,0,0,1,.53-4.63Zm35.21,2.68A10.3,10.3,0,1,0,282,339.43,10.31,10.31,0,0,0,271.69,329.14ZM256,325a21.57,21.57,0,0,1,10.17-6.17V302.32a37.63,37.63,0,0,0-24.42,14.5Zm21.17-6.17a21.19,21.19,0,0,1,9.73,5.72l14.31-8.26a37.66,37.66,0,0,0-24-14Z" transform="translate(-207.58 -275.54)"/>
    <path class="cls-2" d="M278.69,277.54v7.83a54.07,54.07,0,0,1,14.36,3.9l4-6.74,12.07,7.09-4,6.77a54.86,54.86,0,0,1,10.29,10.47l6.84-3.84,6.85,12.21-6.83,3.83a53.9,53.9,0,0,1,3.47,13.11l7.83,0,.07,14-7.83,0a54.45,54.45,0,0,1-4.25,15.33l6.69,4.06-7.26,12-6.72-4.07a54.86,54.86,0,0,1-7.48,7.68l4.24,6.61-11.79,7.56L295,388.72a53.85,53.85,0,0,1-15.77,4.71l.08,7.82-14,.14-.08-7.82a54.11,54.11,0,0,1-14.76-3.91l-3.94,6.75-12.09-7.06,4-6.78a54.72,54.72,0,0,1-10.54-10.74L221,375.64l-6.81-12.23L221,359.6a54,54,0,0,1-3.64-15.22l-7.82-.3.53-14,7.82.3a54.21,54.21,0,0,1,3.27-11.52L214.39,315l6.91-12.18,6.82,3.86A54.85,54.85,0,0,1,238.78,296l-3.89-6.81L247,282.23l3.88,6.8a53.89,53.89,0,0,1,13.77-3.66v-7.83h14m8,48.31,16-9.23a38.54,38.54,0,0,0-26.52-15.44v18.48a20.27,20.27,0,0,1,10.54,6.19m-30.5.47a20.27,20.27,0,0,1,11-6.66V301.18a38.5,38.5,0,0,0-26.88,15.95l15.92,9.19m50.48,29.14a38.42,38.42,0,0,0,.47-31l-16,9.25a20,20,0,0,1-.37,12.58l15.93,9.19m-70.3-.56,16-9.22a20.49,20.49,0,0,1-1-6.25,20.14,20.14,0,0,1,.68-5.12L236,325a38.42,38.42,0,0,0,.44,29.89m35.28-4.17a11.3,11.3,0,1,0-11.3-11.3,11.31,11.31,0,0,0,11.3,11.3m-4.5,27V359.21a20.32,20.32,0,0,1-10.19-5.8l-16,9.25a38.54,38.54,0,0,0,26.22,15m9,0A38.5,38.5,0,0,0,302,363.15l-16.08-9.29a20.16,20.16,0,0,1-9.75,5.35v18.48m2.5-102.15h-14a2,2,0,0,0-2,2v6.1a56.38,56.38,0,0,0-10.89,2.89l-3-5.29a2,2,0,0,0-1.21-.94,2.32,2.32,0,0,0-.52-.07,1.91,1.91,0,0,0-1,.27l-12.16,6.95a2,2,0,0,0-.74,2.73l3,5.31a56.4,56.4,0,0,0-8.59,8.61l-5.32-3a1.89,1.89,0,0,0-1-.26,2,2,0,0,0-1.74,1L212.65,314a2,2,0,0,0,.76,2.73l5.3,3a56.26,56.26,0,0,0-2.44,8.57l-6.09-.23h-.07a2,2,0,0,0-2,1.92l-.53,14a2,2,0,0,0,1.92,2.08l6.09.23a56.23,56.23,0,0,0,3,12.39l-5.33,3a2,2,0,0,0-.78,2.72l6.81,12.24a2,2,0,0,0,1.75,1,2,2,0,0,0,1-.25l5.34-3a56.77,56.77,0,0,0,8.48,8.64l-3.09,5.29a2,2,0,0,0-.21,1.51,2,2,0,0,0,.93,1.22l12.09,7.06a2,2,0,0,0,1,.27,2.22,2.22,0,0,0,.51-.06,2,2,0,0,0,1.21-.93l3.07-5.25a56.37,56.37,0,0,0,11.93,3.15l.06,6.09a2,2,0,0,0,2,2h0l14-.14a2,2,0,0,0,2-2l-.06-6.09a56.59,56.59,0,0,0,13-3.88l3.29,5.13a2.05,2.05,0,0,0,1.68.92,2,2,0,0,0,1.08-.32l11.79-7.56a2,2,0,0,0,.6-2.76l-3.31-5.16a55.65,55.65,0,0,0,5.31-5.44l5.24,3.17a1.94,1.94,0,0,0,1,.29,2,2,0,0,0,1.72-1l7.26-12a2,2,0,0,0-.67-2.75l-5.22-3.16a56.17,56.17,0,0,0,3.48-12.53l6.1,0a2,2,0,0,0,2-2l-.07-14a2,2,0,0,0-2-2h0l-6.1,0a56,56,0,0,0-2.7-10.2l5.32-3a2,2,0,0,0,.77-2.72L324,302a2,2,0,0,0-1.2-.94,2,2,0,0,0-.54-.08,2,2,0,0,0-1,.26l-5.33,3a56.47,56.47,0,0,0-8.22-8.36l3.1-5.28a2,2,0,0,0-.71-2.74L298,280.8a2,2,0,0,0-1-.27,2.07,2.07,0,0,0-.5.06,2,2,0,0,0-1.23.92l-3.08,5.25a55.94,55.94,0,0,0-11.51-3.12v-6.1a2,2,0,0,0-2-2Zm-35.42,41a36.62,36.62,0,0,1,21.92-13v14.62a22.53,22.53,0,0,0-9.35,5.66l-12.57-7.25Zm34.92,1.59V303.5A36.77,36.77,0,0,1,299.72,316l-12.64,7.3a22,22,0,0,0-8.89-5.22Zm15.27,16.55,12.7-7.33a36.42,36.42,0,0,1-.41,25.26l-12.58-7.26a21.68,21.68,0,0,0,.29-10.67ZM237.4,352a36.4,36.4,0,0,1-.37-24.09l12.77,7.37a21.74,21.74,0,0,0-.41,4.13,22,22,0,0,0,.65,5.3L237.4,352Zm34.29-3.29a9.3,9.3,0,1,1,9.3-9.3,9.31,9.31,0,0,1-9.3,9.3ZM244,363.22l12.69-7.32a22.09,22.09,0,0,0,8.5,4.85v14.62A36.81,36.81,0,0,1,244,363.22Zm34.19-2.47a22.28,22.28,0,0,0,8-4.42L299,363.69a36.14,36.14,0,0,1-20.77,11.68V360.75Z" transform="translate(-207.58 -275.54)"/>
  </g>
</svg>
