<?xml version="1.0"?>
<svg xmlns="http://www.w3.org/2000/svg" xmlns:xlink="http://www.w3.org/1999/xlink" xmlns:svgjs="http://svgjs.com/svgjs" version="1.1" width="512" height="512" x="0" y="0" viewBox="0 0 60 60" style="enable-background:new 0 0 512 512" xml:space="preserve" class=""><g><link type="text/css" id="dark-mode" rel="stylesheet"/><path xmlns="http://www.w3.org/2000/svg" d="m11.54 36a4 4 0 0 1 -.54-2c0-2.76 2.91-5 6.5-5a7.325 7.325 0 0 1 5.22 2.02l-.72 5.98h-10z" fill="#8ec140" data-original="#8ec140"/><path xmlns="http://www.w3.org/2000/svg" d="m36 34a2.927 2.927 0 0 1 -.78 2l-.22 1h-14l-.22-1a2.927 2.927 0 0 1 -.78-2 3 3 0 0 1 5.5-1.66h5a3 3 0 0 1 5.5 1.66z" fill="#f7b14e" data-original="#f7b14e"/><path xmlns="http://www.w3.org/2000/svg" d="m44 24h4v6h-4z" fill="#944caa" data-original="#aac7c8" class=""/><path xmlns="http://www.w3.org/2000/svg" d="m54 29h-10a2 2 0 0 0 -2 2v6h12z" fill="#c876e1" data-original="#d4e6e7" class=""/><path xmlns="http://www.w3.org/2000/svg" d="m7 13v24h-4v-24.37z" fill="#721e1e" data-original="#564436" class=""/><path xmlns="http://www.w3.org/2000/svg" d="m53 13v24h4v-24.37z" fill="#721e1e" data-original="#564436" class=""/><path xmlns="http://www.w3.org/2000/svg" d="m57.72 9a2.39 2.39 0 0 0 -.55-.66l-8.35-6.68a2.964 2.964 0 0 0 -1.87-.66h-33.9a2.964 2.964 0 0 0 -1.87.66l-8.35 6.68a2.06 2.06 0 0 0 -.52.66 2.217 2.217 0 0 0 -.31 1.1 4 4 0 0 0 8-.1 4 4 0 0 0 8 0 4 4 0 0 0 8 0 4 4 0 0 0 8 0 4 4 0 0 0 8 0 4 4 0 0 0 8 0 4 4 0 0 0 8 0 1.969 1.969 0 0 0 -.28-1z" fill="#4c66c7" data-original="#c74c5e" class=""/><path xmlns="http://www.w3.org/2000/svg" d="m58 10a4 4 0 0 1 -8 0v-1h7.72a1.969 1.969 0 0 1 .28 1z" fill="#183398" data-original="#a03c4f" class=""/><path xmlns="http://www.w3.org/2000/svg" d="m42 9v1a4 4 0 0 1 -8 0v-1z" fill="#183398" data-original="#a03c4f" class=""/><path xmlns="http://www.w3.org/2000/svg" d="m26 9v1a4 4 0 0 1 -8 0v-1z" fill="#183398" data-original="#a03c4f" class=""/><path xmlns="http://www.w3.org/2000/svg" d="m10 9v1a4 4 0 0 1 -8 .1 2.217 2.217 0 0 1 .31-1.1z" fill="#183398" data-original="#a03c4f" class=""/><rect xmlns="http://www.w3.org/2000/svg" fill="#8a5c5c" height="23" rx="2" width="58" x="1" y="36" data-original="#8e6d5a" class=""/><path xmlns="http://www.w3.org/2000/svg" d="m23 1-5 8v1a4 4 0 0 1 -8 0v-1l8-8z" fill="#c876e1" data-original="#d4e6e7" class=""/><path xmlns="http://www.w3.org/2000/svg" d="m34 9v1a4 4 0 0 1 -8 0v-1l2-8h4z" fill="#c876e1" data-original="#d4e6e7" class=""/><path xmlns="http://www.w3.org/2000/svg" d="m50 9v1a4 4 0 0 1 -8 0v-1l-5-8h5z" fill="#c876e1" data-original="#d4e6e7" class=""/><path xmlns="http://www.w3.org/2000/svg" d="m50 9v1a4 4 0 0 1 -8 0v-1z" fill="#944caa" data-original="#aac7c8" class=""/><path xmlns="http://www.w3.org/2000/svg" d="m34 9v1a4 4 0 0 1 -8 0v-1z" fill="#944caa" data-original="#aac7c8" class=""/><path xmlns="http://www.w3.org/2000/svg" d="m18 9v1a4 4 0 0 1 -8 0v-1z" fill="#944caa" data-original="#aac7c8" class=""/><path xmlns="http://www.w3.org/2000/svg" d="m23 45a2.927 2.927 0 0 1 -.78 2l-.22 1h-12l-.22-1a2.927 2.927 0 0 1 -.78-2 3 3 0 0 1 5-2.23h4a3 3 0 0 1 5 2.23z" fill="#f7b14e" data-original="#f7b14e"/><rect xmlns="http://www.w3.org/2000/svg" fill="#c876e1" height="4" rx="1" width="6" x="43" y="21" data-original="#d4e6e7" class=""/><path xmlns="http://www.w3.org/2000/svg" d="m13.78 47a2.927 2.927 0 0 1 -.78-2 3 3 0 0 1 6 0 2.927 2.927 0 0 1 -.78 2z" fill="#e29937" data-original="#e29937" class=""/><path xmlns="http://www.w3.org/2000/svg" d="m25.78 36a2.927 2.927 0 0 1 -.78-2 3 3 0 0 1 6 0 2.927 2.927 0 0 1 -.78 2z" fill="#e29937" data-original="#e29937" class=""/><path xmlns="http://www.w3.org/2000/svg" d="m51 45a2.927 2.927 0 0 1 -.78 2l-.22 1h-12l-.22-1a2.927 2.927 0 0 1 -.78-2 3 3 0 0 1 5-2.23h4a3 3 0 0 1 5 2.23z" fill="#eb6374" data-original="#eb6374" class=""/><path xmlns="http://www.w3.org/2000/svg" d="m41.78 47a2.927 2.927 0 0 1 -.78-2 3 3 0 0 1 6 0 2.927 2.927 0 0 1 -.78 2z" fill="#f78195" data-original="#f78195" class=""/><path xmlns="http://www.w3.org/2000/svg" d="m8 59v-11a1 1 0 0 1 1-1h14a1 1 0 0 1 1 1v11z" fill="#460808" data-original="#664f40" class=""/><path xmlns="http://www.w3.org/2000/svg" d="m36 59v-11a1 1 0 0 1 1-1h14a1 1 0 0 1 1 1v11z" fill="#460808" data-original="#664f40" class=""/><g xmlns="http://www.w3.org/2000/svg" fill="#564436"><path d="m8 50h16v2h-16z" fill="#721e1e" data-original="#564436" class=""/><path d="m8 54h16v2h-16z" fill="#721e1e" data-original="#564436" class=""/><path d="m36 50h16v2h-16z" fill="#721e1e" data-original="#564436" class=""/><path d="m36 54h16v2h-16z" fill="#721e1e" data-original="#564436" class=""/><path d="m49.991 44.76a1 1 0 0 1 -.621-1.784 4.518 4.518 0 0 1 2.63-.976 1 1 0 0 1 0 2 2.611 2.611 0 0 0 -1.39.544 1 1 0 0 1 -.619.216z" fill="#721e1e" data-original="#564436" class=""/><path d="m38.009 44.76a1 1 0 0 1 -.619-.216 2.6 2.6 0 0 0 -1.4-.544 1.006 1.006 0 0 1 -.982-1.012 1 1 0 0 1 .992-.988 4.518 4.518 0 0 1 2.63.976 1 1 0 0 1 -.621 1.784z" fill="#721e1e" data-original="#564436" class=""/><path d="m44 43.986h-.024a.988.988 0 0 1 -.976-.986 4.061 4.061 0 0 1 1.293-2.707 1 1 0 0 1 1.414 1.414 2.191 2.191 0 0 0 -.707 1.316 1.013 1.013 0 0 1 -1 .963z" fill="#721e1e" data-original="#564436" class=""/></g></g></svg>
